<svg id="VTB" xmlns="http://www.w3.org/2000/svg" width="107.092" height="38.188" viewBox="0 0 107.092 38.188">
  <path id="Контур_1758" data-name="Контур 1758" d="M7.29,22,5.466,27H30.738l1.824-5ZM4.554,29.492,2.73,34.486H28l1.824-4.994Zm-2.73,7.492L0,41.978H25.271l1.822-4.994Z" transform="translate(0 -22)" fill="#646464" fill-rule="evenodd"/>
  <g id="Сгруппировать_1005" data-name="Сгруппировать 1005" transform="translate(37.915 7.588)">
    <path id="Контур_1759" data-name="Контур 1759" d="M32.558,39.645v.105a10.653,10.653,0,0,1,2.836,1.641,7.247,7.247,0,0,1,2.574,5.982c0,4.183-2.206,7.2-5.831,8.154a15.354,15.354,0,0,1-4.413.424H16.747v-30.6h9.717a17.856,17.856,0,0,1,4.569.423c3.52.953,5.831,3.389,5.831,7.253A6.8,6.8,0,0,1,34.921,38,7.36,7.36,0,0,1,32.558,39.645ZM22.84,42.874v8.047h4.2a4.5,4.5,0,0,0,3.257-.9A4.014,4.014,0,0,0,31.507,46.9a4.385,4.385,0,0,0-.788-2.647c-.893-1.112-2-1.377-3.886-1.377Zm-.053-5.294H26.2a7.271,7.271,0,0,0,2.1-.159,3.342,3.342,0,0,0,2.312-3.441A3.092,3.092,0,0,0,28.3,30.592a8.277,8.277,0,0,0-2.311-.212h-3.2Zm24.32,18.371V30.486H38.336V25.352H62.708l-1.733,5.134H53.2V55.951Zm17.491,0v-30.6H84.349l-1.733,5.134H70.64v6.777h4.885c3.939,0,5.988.953,7.406,2.17a9.04,9.04,0,0,1,2.994,7.254,8.806,8.806,0,0,1-3.572,7.57c-1.89,1.323-3.886,1.695-7.931,1.695Zm6.041-5.136h4.57c1.733,0,2.783-.424,3.519-1.377a4.451,4.451,0,0,0,.893-2.912,4.045,4.045,0,0,0-1.575-3.494,4.526,4.526,0,0,0-2.889-.74H70.64Z" transform="translate(-16.747 -25.352)" fill="#646464" fill-rule="evenodd"/>
  </g>
</svg>
