<svg id="folded-newspaper" xmlns="http://www.w3.org/2000/svg" width="31.262" height="25.401" viewBox="0 0 31.262 25.401">
  <g id="Сгруппировать_2" data-name="Сгруппировать 2" transform="translate(0 0)">
    <path id="Контур_1" data-name="Контур 1" d="M27.355,6.908V3H0V24.493S0,28.4,3.908,28.4H28.332s2.931-.061,2.931-3.908V6.908ZM3.908,26.447a1.914,1.914,0,0,1-1.954-1.954V4.954H25.4V24.493a2.825,2.825,0,0,0,.66,1.954Z" transform="translate(0 -3)" fill="#e3a567"/>
    <rect id="Прямоугольник_5" data-name="Прямоугольник 5" width="19" height="2" transform="translate(4.491 5.401)" fill="#e3a567"/>
    <rect id="Прямоугольник_6" data-name="Прямоугольник 6" width="7" height="2" transform="translate(14.491 17.401)" fill="#e3a567"/>
    <rect id="Прямоугольник_7" data-name="Прямоугольник 7" width="9" height="2" transform="translate(14.491 13.401)" fill="#e3a567"/>
    <rect id="Прямоугольник_8" data-name="Прямоугольник 8" width="9" height="3" transform="translate(14.491 9.401)" fill="#e3a567"/>
    <rect id="Прямоугольник_9" data-name="Прямоугольник 9" width="8" height="10" transform="translate(4.491 9.401)" fill="#e3a567"/>
  </g>
</svg>
