<svg xmlns="http://www.w3.org/2000/svg" width="30" height="25" viewBox="0 0 30 25">
  <g id="Сгруппировать_4" data-name="Сгруппировать 4" transform="translate(0.366 -0.401)">
    <path id="Контур_2413" data-name="Контур 2413" d="M2,0H18a2,2,0,0,1,2,2V14a2,2,0,0,1-2,2H2a2,2,0,0,1-2-2V2A2,2,0,0,1,2,0Z" transform="translate(-0.366 9.401)" fill="#f6d4b2"/>
    <path id="Контур_2412" data-name="Контур 2412" d="M2,0H17a2,2,0,0,1,2,2V14a2,2,0,0,1-2,2H2a2,2,0,0,1-2-2V2A2,2,0,0,1,2,0Z" transform="translate(4.634 5.401)" fill="#ecbc8a"/>
    <rect id="Прямоугольник_4" data-name="Прямоугольник 4" width="20" height="15" rx="2" transform="translate(9.634 0.401)" fill="#e3a567"/>
  </g>
</svg>
