<svg xmlns="http://www.w3.org/2000/svg" width="30.845" height="31.019" viewBox="0 0 30.845 31.019">
  <g id="phone-white" transform="translate(-0.415 -0.036)">
    <path id="Контур_1440" data-name="Контур 1440" d="M12.958,36.849c.9-.2,1.911-.379,2.891-.653,5.71-1.592,10.173-5.04,14.067-9.406a26.312,26.312,0,0,0,6.1-12.036,8.186,8.186,0,0,0-2.593-7.789A5.311,5.311,0,0,0,29.481,5.83c-.277,0-.636.4-.816.7-.63,1.051-1.183,2.148-1.795,3.211-.489.849-1.026,1.671-1.533,2.511a1.335,1.335,0,0,0,.19,1.98c.775.766,1.64,1.439,2.45,2.17,1.172,1.058,1.183,1.358.41,2.746a22.729,22.729,0,0,1-7.163,8.164c-.981.653-1.991,1.269-3.019,1.845-.917.514-1.276.447-1.991-.327-.771-.834-1.469-1.737-2.248-2.562-.9-.955-1.273-.949-2.378-.289q-2.463,1.472-4.967,2.877c-1.3.732-1.367,1-1.179,2.457.407,3.164,2.733,4.281,5.3,5.148A15.176,15.176,0,0,0,12.958,36.849Z" transform="translate(-4.95 -5.794)" fill="#efb256"/>
  </g>
</svg>
