<svg xmlns="http://www.w3.org/2000/svg" width="25.144" height="25.286" viewBox="0 0 25.144 25.286">
  <path id="Контур_231" data-name="Контур 231" d="M11.555,31.116c.738-.165,1.558-.309,2.357-.532,4.654-1.3,8.293-4.109,11.467-7.667a21.449,21.449,0,0,0,4.973-9.811,6.673,6.673,0,0,0-2.114-6.35,4.329,4.329,0,0,0-3.215-.926c-.226,0-.519.323-.665.567-.514.857-.964,1.751-1.463,2.617-.4.692-.836,1.362-1.25,2.047a1.088,1.088,0,0,0,.155,1.614c.632.624,1.337,1.173,2,1.769.955.862.965,1.107.335,2.238a18.528,18.528,0,0,1-5.839,6.655c-.8.532-1.623,1.034-2.461,1.5-.748.419-1.04.364-1.623-.266-.628-.68-1.2-1.416-1.832-2.089-.735-.778-1.038-.774-1.938-.236Q8.43,23.452,6.389,24.6c-1.061.6-1.114.815-.961,2,.332,2.579,2.228,3.49,4.318,4.2A12.371,12.371,0,0,0,11.555,31.116Z" transform="translate(-5.365 -5.83)" fill="#e3a567"/>
</svg>
