<svg xmlns="http://www.w3.org/2000/svg" width="286.566" height="107.661" viewBox="0 0 286.566 107.661">
  <path id="Контур_232" data-name="Контур 232" d="M14.062,10.335a9.572,9.572,0,0,1,3.608.607,12.57,12.57,0,0,1,2.914,1.7,1.145,1.145,0,0,0,.694.312q.711,0,.919-2.116h.815q-.139,2.429-.139,8.6h-.833a25.081,25.081,0,0,0-.477-2.9,7.075,7.075,0,0,0-.781-1.969,5.783,5.783,0,0,0-1.414-1.57,5.914,5.914,0,0,0-2.038-1.3,6.77,6.77,0,0,0-2.455-.451,5.284,5.284,0,0,0-4.016,1.683,10.163,10.163,0,0,0-2.325,4.45,23.655,23.655,0,0,0-.737,6.1,22.458,22.458,0,0,0,.772,6.08,10.04,10.04,0,0,0,2.394,4.406,5.437,5.437,0,0,0,4.051,1.657,6.84,6.84,0,0,0,2.4-.442A5.555,5.555,0,0,0,19.44,33.91,5.151,5.151,0,0,0,20.845,32.3a7.855,7.855,0,0,0,.763-2.134,27.107,27.107,0,0,0,.434-3.123h.833q0,6.436.139,8.951H22.2a6.225,6.225,0,0,0-.3-1.6q-.2-.494-.564-.494a1.475,1.475,0,0,0-.746.295,17.6,17.6,0,0,1-1.934,1.223,9.471,9.471,0,0,1-2.038.781,10.1,10.1,0,0,1-2.585.3,13.718,13.718,0,0,1-6.6-1.527,10.569,10.569,0,0,1-4.389-4.432,14.474,14.474,0,0,1-1.553-6.913,14.624,14.624,0,0,1,1.6-6.939A11.531,11.531,0,0,1,7.539,12,12.73,12.73,0,0,1,14.062,10.335Zm33.03,4.059q-.26,2.88-.26,4.823,0,1.839.121,3.14h-.815a19.323,19.323,0,0,0-1.2-4.233,4.915,4.915,0,0,0-1.778-2.229,5.133,5.133,0,0,0-2.784-.685h-1.11V31.863a6.171,6.171,0,0,0,.278,2.16,1.618,1.618,0,0,0,1.006.945,8.246,8.246,0,0,0,2.307.312v.711q-1.926-.1-6.4-.1-4.493,0-6.21.1v-.711a8.246,8.246,0,0,0,2.307-.312,1.618,1.618,0,0,0,1.006-.945,6.171,6.171,0,0,0,.278-2.16V15.21h-1.11a5.133,5.133,0,0,0-2.784.685,4.915,4.915,0,0,0-1.778,2.229,18.8,18.8,0,0,0-1.18,4.233h-.815q.1-1.128.1-3.14,0-2.2-.26-4.823,3.088.1,10.443.1Q43.952,14.5,47.092,14.394Zm20.921.1q1.579,0,2.741-.1v.729a3.894,3.894,0,0,0-1.466,1.188,18.774,18.774,0,0,0-1.709,2.611L61.386,29.643l-1.978,3.435a10.9,10.9,0,0,1-1.769,2.411A4.224,4.224,0,0,1,54.69,36.5a5.124,5.124,0,0,1-2.082-.39,3.166,3.166,0,0,1-1.362-1.076,2.652,2.652,0,0,1-.477-1.553,2.524,2.524,0,0,1,.4-1.388,2.7,2.7,0,0,1,1.136-.98,3.889,3.889,0,0,1,1.709-.356,3.528,3.528,0,0,1,2.125.6,1.968,1.968,0,0,1,.824,1.691,2.211,2.211,0,0,1-.659,1.6,4.009,4.009,0,0,1-1.717,1.006,1.144,1.144,0,0,0,.642.121,2.726,2.726,0,0,0,1.813-.651,7.538,7.538,0,0,0,1.57-2.073l.971-1.717-9.09-14.069a6.886,6.886,0,0,0-1.284-1.57,2.059,2.059,0,0,0-1.076-.564v-.729q1.613.1,4.753.1,3.782,0,5.621-.1v.729q-1.943.1-1.943,1.284a3.183,3.183,0,0,0,.607,1.6l5.256,8.344,2.81-4.892a9.113,9.113,0,0,0,1.457-4.129q0-2.082-2.672-2.2v-.729Q66.417,14.5,68.013,14.5ZM89.906,35.281q-.243,2.567-.243,4.614a19.979,19.979,0,0,0,.1,2.307h-.815a10.852,10.852,0,0,0-1.145-3.669,4.681,4.681,0,0,0-1.978-1.952,6.59,6.59,0,0,0-2.932-.59H74.64a6.59,6.59,0,0,0-2.932.59,4.632,4.632,0,0,0-1.969,1.952A11,11,0,0,0,68.6,42.2h-.815a19.977,19.977,0,0,0,.1-2.307q0-2.047-.243-4.614h.989a4.206,4.206,0,0,0,3.843-2.394,16.849,16.849,0,0,0,1.856-5.733q.512-3.339.876-8.561l.035-.434q.035-.625.035-.833a2.782,2.782,0,0,0-.26-1.344,1.406,1.406,0,0,0-.867-.642,7.823,7.823,0,0,0-1.787-.234v-.711q1.162.087,3.452.087.33,0,1.024-.035.572-.052,1.388-.052.677,0,3.227.052,1.041.052,2.064.052,3.47,0,5.308-.1v.711a5.433,5.433,0,0,0-1.743.278,1.285,1.285,0,0,0-.729.824,6.787,6.787,0,0,0-.2,1.952V32.228a7.093,7.093,0,0,0,.2,1.969,1.287,1.287,0,0,0,.746.859,4.851,4.851,0,0,0,1.726.226ZM80.729,18.159a9.078,9.078,0,0,0-.156-1.995,1.2,1.2,0,0,0-.581-.841,3.172,3.172,0,0,0-1.362-.217h-.468a2.689,2.689,0,0,0-1.31.234,1.214,1.214,0,0,0-.529.8,15.087,15.087,0,0,0-.26,2.021L75.854,20.6q-.295,3.816-.668,6.445a20.713,20.713,0,0,1-1.31,4.927,6.523,6.523,0,0,1-2.637,3.3h6.714a5.073,5.073,0,0,0,1.761-.226A1.36,1.36,0,0,0,80.5,34.2a6.314,6.314,0,0,0,.226-1.969Zm36.95-3.053a5.368,5.368,0,0,0-1.726.278,1.286,1.286,0,0,0-.729.824,6.787,6.787,0,0,0-.2,1.952V32.228a6.8,6.8,0,0,0,.2,1.943,1.284,1.284,0,0,0,.737.833,5.4,5.4,0,0,0,1.717.278v.711q-1.665-.1-5.187-.1-3.626,0-5.569.1v-.711A5.368,5.368,0,0,0,108.65,35a1.287,1.287,0,0,0,.729-.833,6.8,6.8,0,0,0,.2-1.943V19.078L99.759,32.991a3.784,3.784,0,0,0,.286,1.423,1.248,1.248,0,0,0,.763.642,6.539,6.539,0,0,0,1.6.226v.711q-1.978-.1-5.586-.1-3.487,0-5.187.1v-.711A5.463,5.463,0,0,0,93.375,35a1.284,1.284,0,0,0,.737-.833,6.8,6.8,0,0,0,.2-1.943V18.159a6.8,6.8,0,0,0-.2-1.943,1.284,1.284,0,0,0-.737-.833,5.463,5.463,0,0,0-1.735-.278v-.711q1.7.1,5.187.1,3.608,0,5.586-.1v.711a5.433,5.433,0,0,0-1.743.278,1.286,1.286,0,0,0-.729.824,6.787,6.787,0,0,0-.2,1.952v13.5l9.836-13.93a5,5,0,0,0-.252-1.648,1.256,1.256,0,0,0-.746-.72,5.817,5.817,0,0,0-1.657-.252v-.711q1.96.1,5.569.1,1.475,0,3.417-.069l1.769-.035Zm23.818,0a5.463,5.463,0,0,0-1.735.278,1.284,1.284,0,0,0-.737.833,6.8,6.8,0,0,0-.2,1.943V32.228a6.8,6.8,0,0,0,.2,1.943,1.284,1.284,0,0,0,.737.833,5.463,5.463,0,0,0,1.735.278v.711q-1.631-.1-4.979-.1-3.886,0-6,.1v-.711A6.3,6.3,0,0,0,132.382,35a1.328,1.328,0,0,0,.8-.833,6.282,6.282,0,0,0,.217-1.943v-6.21h-1.874a2.68,2.68,0,0,0-2.281,1.05,7.867,7.867,0,0,0-1.188,3.287l-.59,2.758q-.59,3.383-4.7,3.383a5.254,5.254,0,0,1-4.354-1.96l.468-.451a2.064,2.064,0,0,0,1.457.763,1.1,1.1,0,0,0,.919-.451,3.811,3.811,0,0,0,.572-1.44l.607-2.776a4.7,4.7,0,0,1,1.076-2.29,5.166,5.166,0,0,1,2.082-1.362,14.573,14.573,0,0,1,3.192-.72l.139-.017q-3.834-.312-5.577-1.839a4.828,4.828,0,0,1-1.743-3.782,4.832,4.832,0,0,1,2.177-4.276q2.177-1.466,7.087-1.466l1.7.017q3.487.052,4.163.052,3.14,0,4.771-.1ZM127.29,20.136a6.158,6.158,0,0,0,1.024,3.773q1.024,1.362,3.764,1.362H133.4V18.159a8.233,8.233,0,0,0-.165-1.908,1.371,1.371,0,0,0-.59-.893,2.647,2.647,0,0,0-1.31-.252,3.632,3.632,0,0,0-3.105,1.249A6.282,6.282,0,0,0,127.29,20.136ZM27.212,53a5.368,5.368,0,0,0-1.726.278,1.286,1.286,0,0,0-.729.824,6.787,6.787,0,0,0-.2,1.952V70.124a6.8,6.8,0,0,0,.2,1.943,1.284,1.284,0,0,0,.737.833,5.4,5.4,0,0,0,1.717.278v.711q-1.665-.1-5.187-.1-3.626,0-5.569.1v-.711a5.368,5.368,0,0,0,1.726-.278,1.287,1.287,0,0,0,.729-.833,6.8,6.8,0,0,0,.2-1.943V56.975L9.291,70.888a3.784,3.784,0,0,0,.286,1.423,1.248,1.248,0,0,0,.763.642,6.539,6.539,0,0,0,1.6.226v.711q-1.978-.1-5.586-.1-3.487,0-5.187.1v-.711A5.463,5.463,0,0,0,2.907,72.9a1.284,1.284,0,0,0,.737-.833,6.8,6.8,0,0,0,.2-1.943V56.055a6.8,6.8,0,0,0-.2-1.943,1.284,1.284,0,0,0-.737-.833A5.463,5.463,0,0,0,1.173,53v-.711q1.7.1,5.187.1,3.608,0,5.586-.1V53a5.433,5.433,0,0,0-1.743.278,1.285,1.285,0,0,0-.729.824,6.787,6.787,0,0,0-.2,1.952v13.5l9.836-13.93a5,5,0,0,0-.252-1.648,1.256,1.256,0,0,0-.746-.72A5.818,5.818,0,0,0,16.456,53v-.711q1.96.1,5.569.1,1.475,0,3.417-.069l1.769-.035Zm27.756,0a5.368,5.368,0,0,0-1.726.278,1.286,1.286,0,0,0-.729.824,6.787,6.787,0,0,0-.2,1.952V70.124a6.8,6.8,0,0,0,.2,1.943,1.284,1.284,0,0,0,.737.833,5.4,5.4,0,0,0,1.717.278v.711q-1.665-.1-5.187-.1-3.608,0-5.569.1v-.711a5.368,5.368,0,0,0,1.726-.278,1.287,1.287,0,0,0,.729-.833,6.8,6.8,0,0,0,.2-1.943V63.237H37.742v6.887a6.8,6.8,0,0,0,.2,1.943,1.284,1.284,0,0,0,.737.833,5.463,5.463,0,0,0,1.735.278v.711q-1.978-.1-5.586-.1-3.487,0-5.187.1v-.711a5.463,5.463,0,0,0,1.735-.278,1.284,1.284,0,0,0,.737-.833,6.8,6.8,0,0,0,.2-1.943V56.055a6.8,6.8,0,0,0-.2-1.943,1.284,1.284,0,0,0-.737-.833A5.463,5.463,0,0,0,29.64,53v-.711q1.7.1,5.187.1,3.608,0,5.586-.1V53a5.433,5.433,0,0,0-1.743.278,1.286,1.286,0,0,0-.729.824,6.787,6.787,0,0,0-.2,1.952v6.471h9.125V56.055a6.8,6.8,0,0,0-.2-1.943,1.287,1.287,0,0,0-.729-.833A5.368,5.368,0,0,0,44.212,53v-.711q1.943.1,5.569.1,3.522,0,5.187-.1Zm23.281-.711q-.26,2.88-.26,4.823,0,1.839.121,3.14h-.815a19.323,19.323,0,0,0-1.2-4.233,4.915,4.915,0,0,0-1.778-2.229,5.133,5.133,0,0,0-2.784-.685h-1.11V69.76a6.171,6.171,0,0,0,.278,2.16,1.618,1.618,0,0,0,1.006.945,8.246,8.246,0,0,0,2.307.312v.711q-1.926-.1-6.4-.1-4.493,0-6.21.1v-.711a8.246,8.246,0,0,0,2.307-.312,1.618,1.618,0,0,0,1.006-.945,6.171,6.171,0,0,0,.278-2.16V53.106h-1.11a5.133,5.133,0,0,0-2.784.685,4.915,4.915,0,0,0-1.778,2.229,18.8,18.8,0,0,0-1.18,4.233h-.815q.1-1.128.1-3.14,0-2.2-.26-4.823,3.088.1,10.443.1Q75.108,52.395,78.248,52.291ZM99,69.274q0,2.047.243,4.614-2.307-.1-7.772-.1-7.321,0-11.016.1v-.711a5.463,5.463,0,0,0,1.735-.278,1.284,1.284,0,0,0,.737-.833,6.8,6.8,0,0,0,.2-1.943V56.055a6.8,6.8,0,0,0-.2-1.943,1.284,1.284,0,0,0-.737-.833A5.463,5.463,0,0,0,80.451,53v-.711q3.7.1,11.016.1,4.979,0,7.06-.1a42.4,42.4,0,0,0-.243,4.268,18.28,18.28,0,0,0,.1,2.2h-.815A10.32,10.32,0,0,0,96.5,55.439a4.352,4.352,0,0,0-1.787-1.787,5.691,5.691,0,0,0-2.6-.546H90.791a4.34,4.34,0,0,0-1.379.165,1.094,1.094,0,0,0-.659.651,4.17,4.17,0,0,0-.2,1.492v7.251h1.665a2.857,2.857,0,0,0,2.489-1.154,6.564,6.564,0,0,0,1.1-2.68h.815q-.121,1.388-.121,2.758l.017,1.423q0,1.6.208,4.2h-.815a5.522,5.522,0,0,0-1.119-2.758,3.128,3.128,0,0,0-2.576-1.076H88.553v7.39a4.17,4.17,0,0,0,.2,1.492,1.094,1.094,0,0,0,.659.651,4.34,4.34,0,0,0,1.379.165h1.527a6.121,6.121,0,0,0,2.862-.616,4.793,4.793,0,0,0,1.952-2.012,11.707,11.707,0,0,0,1.154-3.738H99.1A25.5,25.5,0,0,0,99,69.274Zm11.207.85a6.282,6.282,0,0,0,.217,1.943,1.328,1.328,0,0,0,.8.833,6.3,6.3,0,0,0,1.865.278v.711q-2.1-.1-6-.1-3.365,0-4.979.1v-.711a5.463,5.463,0,0,0,1.735-.278,1.284,1.284,0,0,0,.737-.833,6.8,6.8,0,0,0,.2-1.943V56.055a6.8,6.8,0,0,0-.2-1.943,1.284,1.284,0,0,0-.737-.833A5.463,5.463,0,0,0,102.1,53v-.711q1.613.1,4.753.1.729,0,4.268-.052l1.752-.017q4.632,0,6.878,1.544A5.012,5.012,0,0,1,122,58.258a6.338,6.338,0,0,1-.937,3.348,6.767,6.767,0,0,1-3.235,2.541,15.541,15.541,0,0,1-6.1,1H110.2ZM112.406,53a3.007,3.007,0,0,0-1.4.252,1.357,1.357,0,0,0-.633.893,7.835,7.835,0,0,0-.173,1.908v8.379h1.18q2.81,0,3.869-1.553a7.437,7.437,0,0,0,1.058-4.242,7.924,7.924,0,0,0-.9-4.259A3.314,3.314,0,0,0,112.406,53ZM133.5,61.468q5.6.017,7.867,1.622a5.056,5.056,0,0,1,2.264,4.346,5.509,5.509,0,0,1-2.29,4.779q-2.29,1.639-6.991,1.639l-1.665-.017q-3.487-.052-4.2-.052-3.14,0-4.753.1v-.711a5.463,5.463,0,0,0,1.735-.278,1.284,1.284,0,0,0,.737-.833,6.8,6.8,0,0,0,.2-1.943V56.055a6.787,6.787,0,0,0-.2-1.952,1.285,1.285,0,0,0-.729-.824A5.433,5.433,0,0,0,123.734,53v-.711q1.613.1,4.979.1,3.886,0,6-.1V53a6.3,6.3,0,0,0-1.865.278,1.328,1.328,0,0,0-.8.833,6.282,6.282,0,0,0-.217,1.943v5.4Zm.4,11.71A3.506,3.506,0,0,0,137,71.824a7.276,7.276,0,0,0,.937-4.111,7.07,7.07,0,0,0-1.023-4.068q-1.024-1.483-3.764-1.483h-1.318v7.963A8.233,8.233,0,0,0,132,72.032a1.371,1.371,0,0,0,.59.893A2.647,2.647,0,0,0,133.9,73.177Zm30.1-3.9q0,2.047.243,4.614-2.307-.1-7.772-.1-7.321,0-11.016.1v-.711a5.463,5.463,0,0,0,1.735-.278,1.284,1.284,0,0,0,.737-.833,6.8,6.8,0,0,0,.2-1.943V56.055a6.8,6.8,0,0,0-.2-1.943,1.284,1.284,0,0,0-.737-.833A5.463,5.463,0,0,0,145.453,53v-.711q3.7.1,11.016.1,4.979,0,7.06-.1a42.4,42.4,0,0,0-.243,4.268,18.282,18.282,0,0,0,.1,2.2h-.815a10.319,10.319,0,0,0-1.076-3.322,4.352,4.352,0,0,0-1.787-1.787,5.691,5.691,0,0,0-2.6-.546h-1.318a4.34,4.34,0,0,0-1.379.165,1.094,1.094,0,0,0-.659.651,4.17,4.17,0,0,0-.2,1.492v7.251h1.665a2.857,2.857,0,0,0,2.489-1.154,6.564,6.564,0,0,0,1.1-2.68h.815q-.121,1.388-.121,2.758l.017,1.423q0,1.6.208,4.2h-.815a5.522,5.522,0,0,0-1.119-2.758,3.128,3.128,0,0,0-2.576-1.076h-1.665v7.39a4.17,4.17,0,0,0,.2,1.492,1.094,1.094,0,0,0,.659.651,4.34,4.34,0,0,0,1.379.165h1.527a6.121,6.121,0,0,0,2.862-.616,4.793,4.793,0,0,0,1.952-2.012,11.707,11.707,0,0,0,1.154-3.738h.815A25.494,25.494,0,0,0,164,69.274Zm11.207.85a6.282,6.282,0,0,0,.217,1.943,1.328,1.328,0,0,0,.8.833,6.3,6.3,0,0,0,1.865.278v.711q-2.1-.1-6-.1-3.365,0-4.979.1v-.711a5.463,5.463,0,0,0,1.735-.278,1.284,1.284,0,0,0,.737-.833,6.8,6.8,0,0,0,.2-1.943V56.055a6.8,6.8,0,0,0-.2-1.943,1.284,1.284,0,0,0-.737-.833A5.463,5.463,0,0,0,167.1,53v-.711q1.613.1,4.753.1.729,0,4.268-.052l1.752-.017q4.632,0,6.878,1.544A5.012,5.012,0,0,1,187,58.258a6.338,6.338,0,0,1-.937,3.348,6.768,6.768,0,0,1-3.235,2.541,15.541,15.541,0,0,1-6.1,1H175.2ZM177.407,53a3.007,3.007,0,0,0-1.4.252,1.357,1.357,0,0,0-.633.893,7.836,7.836,0,0,0-.173,1.908v8.379h1.18q2.81,0,3.869-1.553a7.437,7.437,0,0,0,1.058-4.242,7.924,7.924,0,0,0-.9-4.259A3.314,3.314,0,0,0,177.407,53Zm36.656,0a5.368,5.368,0,0,0-1.726.278,1.286,1.286,0,0,0-.729.824,6.787,6.787,0,0,0-.2,1.952V70.124a6.8,6.8,0,0,0,.2,1.943,1.284,1.284,0,0,0,.737.833,5.4,5.4,0,0,0,1.717.278v.711q-1.665-.1-5.187-.1-3.608,0-5.569.1v-.711a5.368,5.368,0,0,0,1.726-.278,1.287,1.287,0,0,0,.729-.833,6.8,6.8,0,0,0,.2-1.943V63.237h-9.125v6.887a6.8,6.8,0,0,0,.2,1.943,1.284,1.284,0,0,0,.737.833,5.463,5.463,0,0,0,1.735.278v.711q-1.978-.1-5.586-.1-3.487,0-5.187.1v-.711a5.463,5.463,0,0,0,1.735-.278,1.284,1.284,0,0,0,.737-.833,6.8,6.8,0,0,0,.2-1.943V56.055a6.8,6.8,0,0,0-.2-1.943,1.284,1.284,0,0,0-.737-.833A5.463,5.463,0,0,0,188.735,53v-.711q1.7.1,5.187.1,3.608,0,5.586-.1V53a5.433,5.433,0,0,0-1.743.278,1.285,1.285,0,0,0-.729.824,6.787,6.787,0,0,0-.2,1.952v6.471h9.125V56.055a6.8,6.8,0,0,0-.2-1.943,1.287,1.287,0,0,0-.729-.833A5.368,5.368,0,0,0,203.308,53v-.711q1.943.1,5.569.1,3.522,0,5.187-.1Zm14.416-1.214a14.3,14.3,0,0,1,6.3,1.31,9.628,9.628,0,0,1,4.189,3.808,11.48,11.48,0,0,1,1.483,5.968,11.687,11.687,0,0,1-1.527,6.011,10.553,10.553,0,0,1-4.259,4.059,13.073,13.073,0,0,1-6.219,1.449,14.3,14.3,0,0,1-6.3-1.31,9.682,9.682,0,0,1-4.2-3.808,11.428,11.428,0,0,1-1.492-5.968,11.734,11.734,0,0,1,1.527-6.02,10.464,10.464,0,0,1,4.268-4.059A13.189,13.189,0,0,1,228.479,51.788Zm-.156.642a4.515,4.515,0,0,0-3.253,1.362,8.917,8.917,0,0,0-2.16,3.8,18.663,18.663,0,0,0-.763,5.577,16.567,16.567,0,0,0,.859,5.569,8.786,8.786,0,0,0,2.325,3.712,4.786,4.786,0,0,0,3.253,1.3,4.515,4.515,0,0,0,3.253-1.362,8.917,8.917,0,0,0,2.16-3.8,18.663,18.663,0,0,0,.763-5.577,16.722,16.722,0,0,0-.85-5.569,8.676,8.676,0,0,0-2.325-3.712A4.818,4.818,0,0,0,228.323,52.43Zm31.9-.139q-.26,2.81-.26,5.187,0,1.769.1,2.914h-.815a15.7,15.7,0,0,0-1.119-4.285,5.047,5.047,0,0,0-1.9-2.3,5.477,5.477,0,0,0-2.88-.7h-.364a3.429,3.429,0,0,0-1.24.173,1.105,1.105,0,0,0-.616.659,4.345,4.345,0,0,0-.191,1.492V69.916a4.6,4.6,0,0,0,.338,2,1.878,1.878,0,0,0,1.128.937,8.57,8.57,0,0,0,2.333.321v.711q-2.186-.1-6.28-.1-3.8,0-5.621.1v-.711a5.463,5.463,0,0,0,1.735-.278,1.284,1.284,0,0,0,.737-.833,6.8,6.8,0,0,0,.2-1.943V56.055a6.786,6.786,0,0,0-.2-1.952,1.285,1.285,0,0,0-.729-.824A5.433,5.433,0,0,0,242.843,53v-.711l1.509.035q2.5.069,3.851.069h.642q1.336,0,3.279-.035,1.457-.035,1.874-.035Q258.23,52.326,260.225,52.291Zm14.5-.5a14.3,14.3,0,0,1,6.3,1.31,9.628,9.628,0,0,1,4.189,3.808,11.48,11.48,0,0,1,1.483,5.968,11.687,11.687,0,0,1-1.527,6.011,10.553,10.553,0,0,1-4.259,4.059,13.073,13.073,0,0,1-6.219,1.449,14.3,14.3,0,0,1-6.3-1.31,9.682,9.682,0,0,1-4.2-3.808,11.428,11.428,0,0,1-1.492-5.968,11.734,11.734,0,0,1,1.527-6.02,10.465,10.465,0,0,1,4.268-4.059A13.189,13.189,0,0,1,274.728,51.788Zm-.156.642a4.515,4.515,0,0,0-3.253,1.362,8.917,8.917,0,0,0-2.16,3.8,18.663,18.663,0,0,0-.763,5.577,16.567,16.567,0,0,0,.859,5.569,8.786,8.786,0,0,0,2.325,3.712,4.786,4.786,0,0,0,3.253,1.3,4.515,4.515,0,0,0,3.253-1.362,8.917,8.917,0,0,0,2.16-3.8,18.662,18.662,0,0,0,.763-5.577,16.722,16.722,0,0,0-.85-5.569,8.676,8.676,0,0,0-2.325-3.712A4.818,4.818,0,0,0,274.572,52.43ZM22.389,111.074q-.243,2.567-.243,4.614a19.979,19.979,0,0,0,.1,2.307h-.815a10.852,10.852,0,0,0-1.145-3.669,4.681,4.681,0,0,0-1.978-1.952,6.59,6.59,0,0,0-2.932-.59H7.123a6.59,6.59,0,0,0-2.932.59,4.632,4.632,0,0,0-1.969,1.952A11,11,0,0,0,1.086,118H.271a19.978,19.978,0,0,0,.1-2.307q0-2.047-.243-4.614h.989a4.206,4.206,0,0,0,3.843-2.394,16.849,16.849,0,0,0,1.856-5.733q.512-3.339.876-8.561l.035-.434q.035-.625.035-.833a2.782,2.782,0,0,0-.26-1.344,1.406,1.406,0,0,0-.867-.642A7.824,7.824,0,0,0,4.85,90.9v-.711q1.162.087,3.452.087.33,0,1.024-.035.572-.052,1.388-.052.677,0,3.227.052,1.041.052,2.064.052,3.47,0,5.308-.1V90.9a5.433,5.433,0,0,0-1.743.278,1.285,1.285,0,0,0-.729.824,6.787,6.787,0,0,0-.2,1.952v14.069a7.093,7.093,0,0,0,.2,1.969,1.287,1.287,0,0,0,.746.859,4.851,4.851,0,0,0,1.726.226ZM13.212,93.952a9.078,9.078,0,0,0-.156-1.995,1.2,1.2,0,0,0-.581-.841,3.172,3.172,0,0,0-1.362-.217h-.468a2.689,2.689,0,0,0-1.31.234,1.214,1.214,0,0,0-.529.8,15.086,15.086,0,0,0-.26,2.021L8.337,96.4q-.295,3.816-.668,6.445a20.713,20.713,0,0,1-1.31,4.927,6.523,6.523,0,0,1-2.637,3.3h6.714a5.073,5.073,0,0,0,1.761-.226,1.36,1.36,0,0,0,.789-.859,6.314,6.314,0,0,0,.226-1.969ZM50.162,90.9a5.368,5.368,0,0,0-1.726.278,1.285,1.285,0,0,0-.729.824,6.787,6.787,0,0,0-.2,1.952v14.069a6.8,6.8,0,0,0,.2,1.943,1.284,1.284,0,0,0,.737.833,5.4,5.4,0,0,0,1.717.278v.711q-1.665-.1-5.187-.1-3.626,0-5.569.1v-.711a5.368,5.368,0,0,0,1.726-.278,1.287,1.287,0,0,0,.729-.833,6.8,6.8,0,0,0,.2-1.943V94.871l-9.819,13.913a3.784,3.784,0,0,0,.286,1.423,1.248,1.248,0,0,0,.763.642,6.539,6.539,0,0,0,1.6.226v.711q-1.978-.1-5.586-.1-3.487,0-5.187.1v-.711a5.463,5.463,0,0,0,1.735-.278,1.284,1.284,0,0,0,.737-.833,6.8,6.8,0,0,0,.2-1.943V93.952a6.8,6.8,0,0,0-.2-1.943,1.284,1.284,0,0,0-.737-.833,5.463,5.463,0,0,0-1.735-.278v-.711q1.7.1,5.187.1,3.608,0,5.586-.1V90.9a5.433,5.433,0,0,0-1.743.278,1.285,1.285,0,0,0-.729.824,6.787,6.787,0,0,0-.2,1.952v13.5l9.836-13.93a5,5,0,0,0-.252-1.648,1.256,1.256,0,0,0-.746-.72,5.818,5.818,0,0,0-1.657-.252v-.711q1.96.1,5.569.1,1.475,0,3.417-.069l1.769-.035ZM61.3,89.684a11.781,11.781,0,0,1,3.747.546,5.738,5.738,0,0,1,2.559,1.6,3.712,3.712,0,0,1,.928,2.533,4.116,4.116,0,0,1-1.119,2.871,8,8,0,0,1-2.966,1.969,16.181,16.181,0,0,1-4.051,1.024,17.219,17.219,0,0,1,4.675.607,8.086,8.086,0,0,1,3.487,1.882,4.253,4.253,0,0,1,1.327,3.2,5,5,0,0,1-1.258,3.4,7.9,7.9,0,0,1-3.582,2.2,17.624,17.624,0,0,1-5.482.763,10.744,10.744,0,0,1-5.517-1.18,3.787,3.787,0,0,1-1.292-1.188,2.776,2.776,0,0,1-.46-1.553,2.386,2.386,0,0,1,.729-1.8,2.729,2.729,0,0,1,1.978-.7,3,3,0,0,1,2.038.685,2.283,2.283,0,0,1,.789,1.813,2.333,2.333,0,0,1-.59,1.613,3.008,3.008,0,0,1-1.544.9,2.9,2.9,0,0,0,1.24.52,8.193,8.193,0,0,0,1.865.208,5.226,5.226,0,0,0,4.085-1.492,5.787,5.787,0,0,0,1.344-4.025,6.926,6.926,0,0,0-.824-3.478,3.9,3.9,0,0,0-2.368-1.9,4.474,4.474,0,0,0-1.214-.156,3.382,3.382,0,0,1-1.509.451q-.763,0-.763-.59,0-.572.781-.572a8.227,8.227,0,0,1,1.527.208,4,4,0,0,0,2.316-1.848,7.048,7.048,0,0,0,.668-3.3,5.635,5.635,0,0,0-.737-3.227,2.719,2.719,0,0,0-2.385-1.041,4.337,4.337,0,0,0-2.619.807,5.374,5.374,0,0,0-1.743,2.247A9.831,9.831,0,0,0,54.6,97.04h-.815q0-5.031-.173-7.113h.815a4.911,4.911,0,0,0,.286,1.214.562.562,0,0,0,.546.364,2.613,2.613,0,0,0,1.145-.486q.763-.434,1.318-.685a7.577,7.577,0,0,1,1.457-.451A9.9,9.9,0,0,1,61.3,89.684ZM91.155,108.8q1.024,2.221,2.238,2.273v.711q-1.665-.1-4.667-.1-3.8,0-5.6.1v-.711a4.229,4.229,0,0,0,1.743-.356,1.046,1.046,0,0,0,.564-1,4.13,4.13,0,0,0-.468-1.631l-1.769-4.042H75.733l-.416.954a9.784,9.784,0,0,0-1.006,3.66,2.017,2.017,0,0,0,.781,1.778,4.48,4.48,0,0,0,2.307.633v.711q-2.03-.1-4.077-.1-1.891,0-2.88.1v-.711a2.728,2.728,0,0,0,1.6-1.067,12.925,12.925,0,0,0,1.527-2.75l7.512-17.139q.555.035.815.035.295,0,.815-.035ZM79.48,95.548l-3.435,7.789H82.88ZM120.351,90.9a5.368,5.368,0,0,0-1.726.278A1.286,1.286,0,0,0,117.9,92a6.787,6.787,0,0,0-.2,1.952v14.069a6.8,6.8,0,0,0,.2,1.943,1.284,1.284,0,0,0,.737.833,5.4,5.4,0,0,0,1.717.278v.711q-1.665-.1-5.187-.1-3.626,0-5.569.1v-.711a5.368,5.368,0,0,0,1.726-.278,1.287,1.287,0,0,0,.729-.833,6.8,6.8,0,0,0,.2-1.943V94.871l-9.819,13.913a3.784,3.784,0,0,0,.286,1.423,1.248,1.248,0,0,0,.763.642,6.539,6.539,0,0,0,1.6.226v.711q-1.978-.1-5.586-.1-3.487,0-5.187.1v-.711a5.463,5.463,0,0,0,1.735-.278,1.284,1.284,0,0,0,.737-.833,6.8,6.8,0,0,0,.2-1.943V93.952a6.8,6.8,0,0,0-.2-1.943,1.284,1.284,0,0,0-.737-.833,5.463,5.463,0,0,0-1.735-.278v-.711q1.7.1,5.187.1,3.608,0,5.586-.1V90.9a5.433,5.433,0,0,0-1.743.278,1.286,1.286,0,0,0-.729.824,6.787,6.787,0,0,0-.2,1.952v13.5l9.836-13.93A5,5,0,0,0,112,91.87a1.256,1.256,0,0,0-.746-.72A5.818,5.818,0,0,0,109.6,90.9v-.711q1.96.1,5.569.1,1.475,0,3.417-.069l1.769-.035Zm-7.407-9.749a3.384,3.384,0,0,1,1.449.3,2.437,2.437,0,0,1,1.015.841,2.115,2.115,0,0,1,.364,1.214q0,1.527-2.134,2.637a11,11,0,0,1-2.7.893,17.229,17.229,0,0,1-3.548.338,17.45,17.45,0,0,1-3.574-.338,10.988,10.988,0,0,1-2.706-.893q-2.082-1.058-2.082-2.637a2.123,2.123,0,0,1,.356-1.2,2.458,2.458,0,0,1,.989-.85,3.233,3.233,0,0,1,1.449-.312,3.151,3.151,0,0,1,2.064.668,2.129,2.129,0,0,1,.815,1.726,1.971,1.971,0,0,1-.607,1.475,3.393,3.393,0,0,1-1.579.833,8.167,8.167,0,0,0,2.264.625,18.328,18.328,0,0,0,2.611.191,17.263,17.263,0,0,0,2.585-.2,7.939,7.939,0,0,0,2.255-.651A3.063,3.063,0,0,1,110.671,85a2.011,2.011,0,0,1-.572-1.457,2.138,2.138,0,0,1,.807-1.726A3.089,3.089,0,0,1,112.944,81.149ZM148.107,90.9a5.368,5.368,0,0,0-1.726.278,1.286,1.286,0,0,0-.729.824,6.787,6.787,0,0,0-.2,1.952v14.069a6.8,6.8,0,0,0,.2,1.943,1.284,1.284,0,0,0,.737.833,5.4,5.4,0,0,0,1.717.278v.711q-1.665-.1-5.187-.1-3.608,0-5.569.1v-.711a5.368,5.368,0,0,0,1.726-.278,1.287,1.287,0,0,0,.729-.833,6.8,6.8,0,0,0,.2-1.943v-6.887h-9.125v6.887a6.8,6.8,0,0,0,.2,1.943,1.284,1.284,0,0,0,.737.833,5.463,5.463,0,0,0,1.735.278v.711q-1.978-.1-5.586-.1-3.487,0-5.187.1v-.711a5.463,5.463,0,0,0,1.735-.278,1.284,1.284,0,0,0,.737-.833,6.8,6.8,0,0,0,.2-1.943V93.952a6.8,6.8,0,0,0-.2-1.943,1.284,1.284,0,0,0-.737-.833,5.463,5.463,0,0,0-1.735-.278v-.711q1.7.1,5.187.1,3.608,0,5.586-.1V90.9a5.433,5.433,0,0,0-1.743.278,1.285,1.285,0,0,0-.729.824,6.787,6.787,0,0,0-.2,1.952v6.471h9.125V93.952a6.8,6.8,0,0,0-.2-1.943,1.287,1.287,0,0,0-.729-.833,5.368,5.368,0,0,0-1.726-.278v-.711q1.943.1,5.569.1,3.522,0,5.187-.1Zm21.546,17.9q1.024,2.221,2.238,2.273v.711q-1.665-.1-4.667-.1-3.8,0-5.6.1v-.711a4.229,4.229,0,0,0,1.743-.356,1.046,1.046,0,0,0,.564-1,4.13,4.13,0,0,0-.468-1.631l-1.769-4.042h-7.459l-.416.954a9.784,9.784,0,0,0-1.006,3.66,2.017,2.017,0,0,0,.781,1.778,4.48,4.48,0,0,0,2.307.633v.711q-2.03-.1-4.077-.1-1.891,0-2.88.1v-.711a2.728,2.728,0,0,0,1.6-1.067,12.925,12.925,0,0,0,1.527-2.75l7.512-17.139q.555.035.815.035.295,0,.815-.035ZM157.978,95.548l-3.435,7.789h6.835Zm18.406,11.241a3.187,3.187,0,0,1,2.221.737,2.891,2.891,0,0,1,0,4.025,3.686,3.686,0,0,1-4.424,0,2.891,2.891,0,0,1,0-4.025A3.161,3.161,0,0,1,176.384,106.789Z" transform="translate(-0.132 -10.335)" fill="#fff"/>
</svg>
