<svg id="Сгруппировать_46" data-name="Сгруппировать 46" xmlns="http://www.w3.org/2000/svg" width="134.095" height="13.711" viewBox="0 0 134.095 13.711">
  <path id="Контур_192" data-name="Контур 192" d="M264.555,780.668h-2.712v3.741H259.2V771.222h5.35c3.479,0,5.331,1.665,5.331,4.714a4.173,4.173,0,0,1-2.637,4.228l3.124,4.246h-3.2Zm2.581-4.639c0-1.665-.879-2.525-2.787-2.525h-2.507v4.9h2.282C266.182,778.405,267.136,777.432,267.136,776.029Z" transform="translate(-259.205 -770.96)" fill="#111"/>
  <path id="Контур_193" data-name="Контур 193" d="M359.552,771.222V773.5h-7.033v3.386h5.874V779.1h-5.874v3.03h7.426v2.282H349.919V771.222Z" transform="translate(-337.2 -770.96)" fill="#111"/>
  <path id="Контур_194" data-name="Контур 194" d="M447,784.41H445.7l-7.913-8.174v8.174h-2.619V771.222h1.291l7.931,8.174v-8.174H447Z" transform="translate(-410.492 -770.96)" fill="#111"/>
  <path id="Контур_195" data-name="Контур 195" d="M533.16,781.789l-1.122,2.507h-2.825l6.229-13.206h1.44L543.13,784.3h-2.843l-1.122-2.507Zm5.144-2.151-2.151-4.995-2.132,4.995Z" transform="translate(-491.355 -770.846)" fill="#111"/>
  <path id="Контур_196" data-name="Контур 196" d="M641.833,771.222V784.41h-2.694V771.222Z" transform="translate(-585.868 -770.96)" fill="#111"/>
  <path id="Контур_197" data-name="Контур 197" d="M672.49,781.849l.991-2.282a10.253,10.253,0,0,0,4.508,1.141c1.478,0,2.338-.524,2.338-1.571-.019-1.029-.954-1.366-2.787-1.721-2.9-.58-4.864-1.459-4.864-4.059,0-2.394,1.646-4,4.957-4a11.47,11.47,0,0,1,4.957,1.029l-1.085,2.207a9.986,9.986,0,0,0-3.872-.842c-1.5,0-2.245.617-2.245,1.44,0,1.047,1.2,1.4,3.217,1.814,2.6.524,4.471,1.347,4.471,3.947,0,2.713-1.7,4.115-4.957,4.115A12.287,12.287,0,0,1,672.49,781.849Z" transform="translate(-614.542 -769.354)" fill="#111"/>
  <path id="Контур_198" data-name="Контур 198" d="M755.734,781.849l.991-2.282a10.255,10.255,0,0,0,4.508,1.141c1.478,0,2.338-.524,2.338-1.571-.019-1.029-.954-1.366-2.787-1.721-2.9-.58-4.864-1.459-4.864-4.059,0-2.394,1.646-4,4.957-4a11.471,11.471,0,0,1,4.957,1.029l-1.085,2.207a9.987,9.987,0,0,0-3.872-.842c-1.5,0-2.245.617-2.245,1.44,0,1.047,1.2,1.4,3.217,1.814,2.6.524,4.471,1.347,4.471,3.947,0,2.713-1.7,4.115-4.957,4.115A12.288,12.288,0,0,1,755.734,781.849Z" transform="translate(-686.115 -769.354)" fill="#111"/>
  <path id="Контур_199" data-name="Контур 199" d="M837.99,781.789l-1.122,2.507h-2.825l6.229-13.206h1.44L847.96,784.3h-2.843l-1.122-2.507Zm5.144-2.151-2.151-4.995-2.132,4.995Z" transform="translate(-753.444 -770.846)" fill="#111"/>
  <path id="Контур_200" data-name="Контур 200" d="M954.875,784.41h-1.309l-7.913-8.174v8.174h-2.619V771.222h1.291l7.931,8.174v-8.174h2.619Z" transform="translate(-847.153 -770.96)" fill="#111"/>
  <path id="Контур_201" data-name="Контур 201" d="M1042.02,776.182c0-4.246,2.619-6.828,6.884-6.828a7.107,7.107,0,0,1,5.78,2.544l-2.039,1.74a4.3,4.3,0,0,0-3.666-1.758c-2.6,0-4.209,1.59-4.209,4.3,0,2.694,1.609,4.4,4.209,4.4a4.3,4.3,0,0,0,3.666-1.758l2.039,1.74a7.01,7.01,0,0,1-5.78,2.507C1044.639,783.065,1042.02,780.428,1042.02,776.182Z" transform="translate(-932.26 -769.354)" fill="#111"/>
  <path id="Контур_202" data-name="Контур 202" d="M1153.708,771.222V773.5h-7.033v3.386h5.873V779.1h-5.873v3.03h7.426v2.282h-10.026V771.222Z" transform="translate(-1020.005 -770.96)" fill="#111"/>
</svg>
