<svg xmlns="http://www.w3.org/2000/svg" width="190.896" height="56.542" viewBox="0 0 190.896 56.542">
  <path id="Alphabank" d="M18.45,18c3.829,0,5.063,2.765,6.084,5.531.425,1.149,10.423,28.547,10.721,29.356a.545.545,0,0,1-.34.723c-.383.128-5.531,2.17-5.829,2.255a.587.587,0,0,1-.723-.34c-.128-.3-2.255-6.254-2.51-6.892H11.047c-.255.681-2.425,6.637-2.51,6.892a.569.569,0,0,1-.723.34c-.3-.128-5.531-2.127-5.829-2.255a.606.606,0,0,1-.34-.723c.383-1.021,10.211-27.952,10.721-29.356C13.344,20.808,14.621,18,18.45,18ZM.879,66.969a.573.573,0,0,0-.553.6v6.382a.573.573,0,0,0,.553.6H36.02a.573.573,0,0,0,.553-.6V67.564a.573.573,0,0,0-.553-.6ZM18.45,26.934l-5.02,15.018H23.512l-5.02-15.018ZM149.188,48.972a2.518,2.518,0,0,1-2.68,2.808,6.705,6.705,0,0,1-2.127-.255V46.377a11.73,11.73,0,0,1,2.127-.17C148.295,46.335,149.188,47.143,149.188,48.972Zm3.574-.213c0-3.148-1.829-5.318-5.743-5.318a9.77,9.77,0,0,0-2.638.34V39.23a24.161,24.161,0,0,1,2.936-.17c1.149,0,2.6.085,3.871.213l.085-2.638a25.143,25.143,0,0,0-5.148-.51,23.944,23.944,0,0,0-5.276.723V53.61a15.581,15.581,0,0,0,5.488.979C150.55,54.588,152.762,52.333,152.762,48.76Zm-40.375-.936c0,2.34-.936,3.871-2.467,3.871a5.014,5.014,0,0,1-1.7-.255V44.42a3.6,3.6,0,0,1,1.872-.383C111.622,43.995,112.387,45.271,112.387,47.824Zm-11.7.085c0-2.553.766-3.914,2.3-3.914a3.6,3.6,0,0,1,1.872.383V51.4a4.15,4.15,0,0,1-1.7.255C101.411,51.7,100.688,50.249,100.688,47.909Zm7.53,10.509V53.823a5.114,5.114,0,0,0,2.68.638c2.85,0,4.935-2.34,4.935-6.68,0-4.637-2.085-6.637-5.488-6.637a4.339,4.339,0,0,0-2.127.425v-5.4H104.9v5.446a4.338,4.338,0,0,0-2.127-.425c-3.4,0-5.488,2.085-5.488,6.68,0,4.3,1.872,6.594,4.935,6.594a5.176,5.176,0,0,0,2.723-.638v4.595ZM82.9,54.248V42a16.16,16.16,0,0,0-5.105-.766A17.2,17.2,0,0,0,72.736,42v6.3a9.072,9.072,0,0,1-.213,2.765,2.915,2.915,0,0,1-1.106,1.532l.893,1.957c2.68-.766,3.7-1.915,3.7-5.658V44.25a9.646,9.646,0,0,1,1.787-.17,9.231,9.231,0,0,1,1.744.17v10Zm41.183-2.68a4.894,4.894,0,0,1-1.787.3c-1.191,0-1.872-.468-1.872-1.7,0-1.276.851-1.7,2.51-1.7a2.858,2.858,0,0,1,.979.128v.936A7.8,7.8,0,0,0,124.087,51.568Zm4.254,1.489a5.735,5.735,0,0,1-1.106-3.829V45.782c0-1.829-.213-2.51-.723-3.233-.681-.936-1.787-1.361-3.914-1.361a17.745,17.745,0,0,0-4.3.51l.51,2.468a21.906,21.906,0,0,1,2.638-.255c2.212,0,2.468.34,2.468,2v.638a6.892,6.892,0,0,0-1.7-.213c-3.361,0-5.105,1.617-5.105,4.34a3.842,3.842,0,0,0,4.169,3.914,6.7,6.7,0,0,0,2.468-.468,4.975,4.975,0,0,0,1.149-.681,3.35,3.35,0,0,0,1.276,1.064Zm32.632-1.489a4.893,4.893,0,0,1-1.787.3c-1.191,0-1.872-.468-1.872-1.7,0-1.276.851-1.7,2.51-1.7a2.7,2.7,0,0,1,.979.128v.936A10.317,10.317,0,0,0,160.973,51.568Zm4.255,1.489a5.734,5.734,0,0,1-1.106-3.829V45.782a5.182,5.182,0,0,0-.681-3.233c-.681-.936-1.829-1.361-3.914-1.361a17.746,17.746,0,0,0-4.3.51l.51,2.468a21.9,21.9,0,0,1,2.638-.255c2.212,0,2.467.34,2.467,2v.638a6.633,6.633,0,0,0-1.7-.213c-3.361,0-5.105,1.617-5.105,4.34a3.842,3.842,0,0,0,4.169,3.914,6.7,6.7,0,0,0,2.467-.468,4.975,4.975,0,0,0,1.149-.681A3.35,3.35,0,0,0,163.1,54.5ZM92.392,49.866c0,1.234-.425,2.127-2.042,2.127A3.728,3.728,0,0,1,88.9,51.78V48.122a6.076,6.076,0,0,1,1.447-.213C91.881,47.909,92.392,48.675,92.392,49.866ZM85.542,41.4V53.567a12.553,12.553,0,0,0,4.893.979c3.574,0,5.446-1.829,5.446-4.85,0-2.723-1.7-4.425-4.85-4.425a7.542,7.542,0,0,0-2.127.3V41.4ZM177.48,54.248V41.527h-3.361v4.807h-3.786V41.527h-3.361V54.248h3.361v-5.19h3.786v5.19Zm13.742,0s-1.829-3.914-2.255-4.765c-.51-.979-.979-1.7-2-1.957v-.042c.681-.128,1.234-.553,1.829-1.83.553-1.234.723-1.532,1.064-1.787a.864.864,0,0,1,.766-.17l.17-2.3a6.368,6.368,0,0,0-1.574-.043,2.444,2.444,0,0,0-1.829.766,5.647,5.647,0,0,0-.894,1.447c-.3.638-.553,1.149-.893,1.829s-.468.979-1.361.979h-.553v-4.85h-3.361V54.248h3.361v-5.19h.468c.936,0,1.106.255,1.617,1.234.6,1.191,1.7,3.956,1.7,3.956Zm-124.7,0H70.4L64.568,36.464a6.638,6.638,0,0,0-2.17-.34,4.9,4.9,0,0,0-1.872.34L54.357,54.248h3.7s.51-1.574,1.106-3.489h6.382C66.057,52.716,66.525,54.248,66.525,54.248Zm-6.509-6.467s1.064-3.574,1.234-4.127c.425-1.446,1.064-3.744,1.064-3.744H62.4s.6,2.382.979,3.7c.17.51,1.191,4.127,1.191,4.127H60.015Zm74.027-2.042a2.133,2.133,0,0,0-2.127,2.127,2.127,2.127,0,1,0,4.254,0A2.162,2.162,0,0,0,134.043,45.739Z" transform="translate(-0.326 -18)" fill="#646464"/>
</svg>
