<svg id="GB" xmlns="http://www.w3.org/2000/svg" width="265.696" height="45.435" viewBox="0 0 265.696 45.435">
  <path id="Контур_1690" data-name="Контур 1690" d="M66.305,27.857a10.065,10.065,0,0,0-7.5,3.026,10.536,10.536,0,0,0-2.986,7.586,9.961,9.961,0,0,0,3.228,7.666,11.8,11.8,0,0,0,8.352,2.945,18.832,18.832,0,0,0,7.626-1.735V43.271a15.452,15.452,0,0,1-7.626,1.977c-3.349,0-6.537-1.453-7.222-5.326h15.7a10.736,10.736,0,0,0,.2-2.381,9.557,9.557,0,0,0-9.765-9.684Zm-.121,3.995a5.528,5.528,0,0,1,5.729,4.721h-11.7A5.726,5.726,0,0,1,66.184,31.852Z" transform="translate(56.894 -13.505)" fill="#646464"/>
  <path id="Контур_1691" data-name="Контур 1691" d="M100.264,27.953a9.025,9.025,0,0,0-6.133,2.461V28.357h-4.2V48.531h4.2V38.4c0-4.721,2.945-6.335,6.375-6.335a6.214,6.214,0,0,1,.767.081V28.034C100.909,27.993,100.465,27.953,100.264,27.953Z" transform="translate(91.673 -13.408)" fill="#646464"/>
  <path id="Контур_1692" data-name="Контур 1692" d="M74.657,37.979l7.5-9.845H77.078l-7.384,9.926,7.828,10.249h4.963L74.577,38.019Z" transform="translate(71.042 -13.224)" fill="#646464"/>
  <path id="Контур_1693" data-name="Контур 1693" d="M71.735,24.077h-4.2V52.443h4.2Z" transform="translate(68.845 -17.358)" fill="#646464"/>
  <path id="Контур_1694" data-name="Контур 1694" d="M55.5,38.658V37.568H42.347v3.995H51.1v5.891a16.842,16.842,0,0,1-6.214,1.17,10.315,10.315,0,0,1-7.5-2.945,9.822,9.822,0,0,1-2.824-7.223,9.79,9.79,0,0,1,2.824-7.222c1.9-1.9,4.842-2.945,8.594-2.945a17.424,17.424,0,0,1,8.191,1.977v-4.6a20.012,20.012,0,0,0-8.191-1.735c-4.761.04-9.119,1.533-11.741,4.2A14.218,14.218,0,0,0,30,38.456a14.379,14.379,0,0,0,4.237,10.37,14.608,14.608,0,0,0,10.612,4.156A20.513,20.513,0,0,0,55.46,50V38.658Z" transform="translate(30.58 -17.508)" fill="#646464"/>
  <path id="Контур_1695" data-name="Контур 1695" d="M61.954,30.8a9.769,9.769,0,0,0-7.142-2.946,10.065,10.065,0,0,0-7.5,3.026,10.536,10.536,0,0,0-2.986,7.586,9.961,9.961,0,0,0,3.228,7.666,10.993,10.993,0,0,0,2.1,1.493,12.951,12.951,0,0,0,6.294,1.453,18.831,18.831,0,0,0,7.626-1.735V43.271a14.076,14.076,0,0,1-1.573.767,15.268,15.268,0,0,1-6.052,1.17c-3.349,0-6.537-1.453-7.222-5.326H64.375a10.734,10.734,0,0,0,.2-2.381,9.486,9.486,0,0,0-2.5-6.577C62.035,30.924,61.995,30.883,61.954,30.8Zm-1.574,5.77h-11.7a5.818,5.818,0,0,1,5.972-4.721A5.528,5.528,0,0,1,60.38,36.573Z" transform="translate(45.179 -13.505)" fill="#646464"/>
  <path id="Контур_1696" data-name="Контур 1696" d="M113.172,28.133h-4.2V48.308h4.2Z" transform="translate(111.083 -13.224)" fill="#646464"/>
  <path id="Контур_1697" data-name="Контур 1697" d="M111.36,23.777a2.465,2.465,0,0,0-1.9.767,2.827,2.827,0,0,0,0,3.873,2.524,2.524,0,0,0,1.9.767,2.464,2.464,0,0,0,1.9-.767,2.827,2.827,0,0,0,0-3.873A2.464,2.464,0,0,0,111.36,23.777Z" transform="translate(110.798 -17.664)" fill="#646464"/>
  <path id="Контур_1698" data-name="Контур 1698" d="M139.478,42.944a4.838,4.838,0,0,0-.927-3.026c-1.252-1.775-3.673-2.663-6.335-3.349a14.767,14.767,0,0,1-3.189-1.049,1.824,1.824,0,0,1-1.088-1.695h0c0-1.372,1.694-2.017,3.752-2.017a14.163,14.163,0,0,1,6.86,1.695v-4.2a17.251,17.251,0,0,0-6.86-1.412,9.746,9.746,0,0,0-5.81,1.614,5.316,5.316,0,0,0-2.058,4.519c0,3.914,3.388,5.407,7.262,6.375a14.779,14.779,0,0,1,3.189,1.049,1.826,1.826,0,0,1,1.088,1.695c0,1.412-1.492,2.1-3.954,2.1a21.344,21.344,0,0,1-7.3-1.251v3.914a23.1,23.1,0,0,0,7.3,1.211,10.364,10.364,0,0,0,5.931-1.654,5.258,5.258,0,0,0,1.252-1.251A5.847,5.847,0,0,0,139.478,42.944Z" transform="translate(126.218 -13.468)" fill="#646464"/>
  <path id="Контур_1699" data-name="Контур 1699" d="M95.326,37.574a6.457,6.457,0,0,0,2.744-5.528,7.717,7.717,0,0,0-2.461-5.689,9.2,9.2,0,0,0-6.214-2.26H77.451V52.422H90.4a9.38,9.38,0,0,0,6.375-2.3,7.707,7.707,0,0,0,2.461-5.81A7.5,7.5,0,0,0,95.326,37.574Zm-13.557-9.6h8.07a4.036,4.036,0,0,1,0,8.07h-8.07Zm8.836,20.618H81.769V39.874h8.836a4.361,4.361,0,0,1,0,8.715Z" transform="translate(78.949 -17.338)" fill="#646464"/>
  <path id="Контур_1700" data-name="Контур 1700" d="M122.428,31.747a4.561,4.561,0,0,1,3.954,1.735,5.857,5.857,0,0,1,.929,3.47v11.62h4.2V36.791a9.047,9.047,0,0,0-2.017-6.174l-.081-.081a7.615,7.615,0,0,0-5.89-2.663,9.384,9.384,0,0,0-5.933,2.058V28.4h-4.2V48.572h4.2V36.952a5.451,5.451,0,0,1,1.05-3.309,4.616,4.616,0,0,1,1.21-1.13A4.359,4.359,0,0,1,122.428,31.747Z" transform="translate(115.582 -13.489)" fill="#646464"/>
  <path id="Контур_1701" data-name="Контур 1701" d="M113.28,30.335a9.951,9.951,0,0,0-6.779-2.461,10.675,10.675,0,0,0-8.876,4.842c-.081.121-.161.282-.242.4a10.418,10.418,0,0,0-1.372,5.366,10.288,10.288,0,0,0,3.067,7.545A10.081,10.081,0,0,0,106.5,49.1a9.657,9.657,0,0,0,6.779-2.5v1.977h4.2V28.4h-4.2Zm-1.9,12.952a6.83,6.83,0,0,1-9.361,0,6.542,6.542,0,0,1-1.856-4.761,6.386,6.386,0,0,1,1.856-4.721,6.725,6.725,0,0,1,9.361,0,6.389,6.389,0,0,1,1.856,4.721A6.545,6.545,0,0,1,111.384,43.287Z" transform="translate(97.868 -13.489)" fill="#646464"/>
  <path id="Контур_1702" data-name="Контур 1702" d="M15.6,25.337a8.894,8.894,0,0,0-1.316,5.257V33.77a4.544,4.544,0,0,0,1,2.838l3.092,3.864a3.064,3.064,0,0,1,.456-.034A3.027,3.027,0,1,1,16,42.365L12.909,38.5A7.573,7.573,0,0,1,11.25,33.77V30.594a11.83,11.83,0,0,1,1.9-7.048,6.775,6.775,0,0,1,5.67-2.8,9.088,9.088,0,0,1,8.409,5.638,8.332,8.332,0,0,1,5.979,7.993,8.867,8.867,0,0,1-.24,2.395,7.575,7.575,0,0,1,0,13.385,8.866,8.866,0,0,1,.24,2.395,8.333,8.333,0,0,1-5.979,7.993,9.1,9.1,0,0,1-11.249,5.184l.946-2.877a6.068,6.068,0,0,0,7.7-4.023l.267-.9.92-.163a5.3,5.3,0,0,0,4.366-5.219c0-1.317-.1-1.8-.468-2.243a2.076,2.076,0,0,0-1.907-.757,3.212,3.212,0,0,0-2.11,1.187l-1.78,2.225a3.03,3.03,0,1,1-2.822-1.926,3.06,3.06,0,0,1,.456.034l1.78-2.226a6.238,6.238,0,0,1,4.154-2.307,5.132,5.132,0,0,1,3.792,1.076,4.546,4.546,0,0,0,0-8.3,5.132,5.132,0,0,1-3.792,1.076,6.24,6.24,0,0,1-4.154-2.307l-1.78-2.225a3.065,3.065,0,0,1-.456.034,3.027,3.027,0,1,1,2.822-1.926l1.78,2.225a3.213,3.213,0,0,0,2.11,1.187,2.076,2.076,0,0,0,1.907-.757c.366-.445.468-.926.468-2.243a5.3,5.3,0,0,0-4.366-5.219L24.9,29l-.267-.9a6.061,6.061,0,0,0-5.807-4.324A3.754,3.754,0,0,0,15.6,25.337Z" transform="translate(11.468 -20.75)" fill="#646464"/>
  <path id="Контур_1703" data-name="Контур 1703" d="M13.08,52.966A3.03,3.03,0,1,0,15.9,51.04a3.063,3.063,0,0,0-.456.034l-1.78-2.225a6.24,6.24,0,0,0-4.154-2.307A5.132,5.132,0,0,0,5.72,47.618a4.546,4.546,0,0,1,0-8.3,5.132,5.132,0,0,0,3.792,1.076,6.239,6.239,0,0,0,4.154-2.307l1.78-2.226a3.029,3.029,0,1,0-2.573-2.995,3.021,3.021,0,0,0,.207,1.1L11.3,36.194a3.212,3.212,0,0,1-2.11,1.187,2.076,2.076,0,0,1-1.907-.757c-.366-.445-.468-.926-.468-2.243a5.3,5.3,0,0,1,4.366-5.219L12.1,29l.267-.9a6.068,6.068,0,0,1,7.7-4.023l.946-2.877A9.1,9.1,0,0,0,9.765,26.388a8.332,8.332,0,0,0-5.979,7.993,8.869,8.869,0,0,0,.24,2.395,7.575,7.575,0,0,0,0,13.385,8.867,8.867,0,0,0-.24,2.395,8.332,8.332,0,0,0,5.979,7.993,9.089,9.089,0,0,0,8.409,5.638,6.775,6.775,0,0,0,5.67-2.8,11.83,11.83,0,0,0,1.9-7.048V53.165a7.573,7.573,0,0,0-1.659-4.73L21,44.57A3.029,3.029,0,1,0,18.174,46.5a3.063,3.063,0,0,0,.456-.034l3.092,3.864a4.544,4.544,0,0,1,1,2.838v3.176A8.894,8.894,0,0,1,21.4,61.6a3.754,3.754,0,0,1-3.228,1.558,6.061,6.061,0,0,1-5.807-4.324l-.267-.9-.92-.163a5.3,5.3,0,0,1-4.366-5.219c0-1.317.1-1.8.468-2.243a2.076,2.076,0,0,1,1.907-.757,3.213,3.213,0,0,1,2.11,1.187Z" transform="translate(0 -20.75)" fill="#646464"/>
</svg>
