<svg id="Mail" xmlns="http://www.w3.org/2000/svg" width="201.784" height="64.81" viewBox="0 0 201.784 64.81">
  <path id="Контур_1707" data-name="Контур 1707" d="M67.146,24.027h-4.7V55.973h4.7Z" transform="translate(78.926 -19.438)" fill="#646464"/>
  <path id="Контур_1708" data-name="Контур 1708" d="M69.808,35.589a3.173,3.173,0,1,0,3.176,3.173A3.168,3.168,0,0,0,69.808,35.589Z" transform="translate(84.219 -4.825)" fill="#646464"/>
  <path id="Контур_1709" data-name="Контур 1709" d="M76.084,39.66c0-3.811,2.288-7.077,6.725-7.077h2.8V28.135h-2.8a7.707,7.707,0,0,0-6.678,2.939l-.031.047V28.135H71.446v22.63h4.639Z" transform="translate(90.302 -14.246)" fill="#646464"/>
  <path id="Контур_1710" data-name="Контур 1710" d="M62.814,28.135h-4.7v22.63h4.7Z" transform="translate(73.451 -14.246)" fill="#646464"/>
  <path id="Контур_1711" data-name="Контур 1711" d="M60.924,30.022a3.173,3.173,0,1,0-3.175-3.173A3.168,3.168,0,0,0,60.924,30.022Z" transform="translate(72.99 -19.881)" fill="#646464"/>
  <path id="Контур_1712" data-name="Контур 1712" d="M64.565,30.743a10.429,10.429,0,0,0-7.332-2.862,11.9,11.9,0,1,0,0,23.8,10.208,10.208,0,0,0,7.332-3.049V51.1h4.623V28.456H64.565ZM57.388,46.949a7.155,7.155,0,1,1,7.238-7.17A7.02,7.02,0,0,1,57.388,46.949Z" transform="translate(57.287 -14.567)" fill="#646464"/>
  <path id="Контур_1713" data-name="Контур 1713" d="M88.951,51.356a9.205,9.205,0,0,0,6.46-3.064c.015.855,0,1.633,0,2.473h4.623V28.135H95.4V40.562a6.132,6.132,0,0,1-6.149,6.221,5.365,5.365,0,0,1-5.51-5.677V28.151H79.1V41.5C79.114,47.467,82.336,51.356,88.951,51.356Z" transform="translate(99.974 -14.246)" fill="#646464"/>
  <path id="Контур_1714" data-name="Контур 1714" d="M53.616,27.881a10.506,10.506,0,0,0-7.939,3.608,8.873,8.873,0,0,0-7.409-3.608,8.21,8.21,0,0,0-5.619,2.162V28.456H28.025v22.63h4.623V37.85a5.355,5.355,0,0,1,10.71,0V51.086h4.623V37.85a5.355,5.355,0,0,1,10.709,0V51.086h4.623V37.85C63.345,31.785,59.407,27.881,53.616,27.881Z" transform="translate(35.422 -14.567)" fill="#646464"/>
  <path id="Контур_1715" data-name="Контур 1715" d="M67.964,43.718l-.031.031V41.992H64.975V55.274h2.958V49.053A3.827,3.827,0,0,1,71.871,44.9h1.635V41.992H71.871A4.527,4.527,0,0,0,67.964,43.718Z" transform="translate(82.124 3.268)" fill="#646464"/>
  <path id="Контур_1716" data-name="Контур 1716" d="M85.566,49.262a3.356,3.356,0,0,1-3.378,3.406,2.926,2.926,0,0,1-3-3.1V42H76.21v7.792c0,3.686,2.117,5.817,5.79,5.817a5.424,5.424,0,0,0,3.549-1.524v1.2h2.958V42H85.534Z" transform="translate(96.324 3.277)" fill="#646464"/>
  <path id="Контур_1717" data-name="Контур 1717" d="M76.04,41.847a6.968,6.968,0,1,0,6.974,6.968A6.979,6.979,0,0,0,76.04,41.847Zm0,10.981a4.013,4.013,0,1,1,4.016-4.013A4.024,4.024,0,0,1,76.04,52.828Z" transform="translate(87.295 3.086)" fill="#646464"/>
  <path id="Контур_1718" data-name="Контур 1718" d="M89.96,41.847a6.259,6.259,0,0,0-4.047,1.431v-1.1H82.956V60.029h2.958V54.274A6.106,6.106,0,0,0,89.96,55.8a6.976,6.976,0,0,0,0-13.951Zm-.093,10.918A3.943,3.943,0,1,1,93.8,48.815,3.846,3.846,0,0,1,89.867,52.766Z" transform="translate(104.85 3.086)" fill="#646464"/>
  <path id="Контур_1719" data-name="Контур 1719" d="M68.522,43.278a6.259,6.259,0,0,0-4.047-1.431,6.968,6.968,0,1,0,0,13.936,6.107,6.107,0,0,0,4.047-1.524v.264c-.047,2.722-1.37,4.106-3.954,4.106h-.031A5.493,5.493,0,0,1,60.584,56.9l-.109-.109-2.148,2.053.093.109a8.286,8.286,0,0,0,6.04,2.769h.14c2.522-.047,6.756-1.026,6.88-7.092V42.158H68.522Zm-3.954,9.487a3.943,3.943,0,1,1,4-3.951A3.858,3.858,0,0,1,64.569,52.766Z" transform="translate(72.678 3.086)" fill="#646464"/>
  <path id="Контур_1720" data-name="Контур 1720" d="M32.315,46.807a7.472,7.472,0,1,1-7.472-7.466A7.471,7.471,0,0,1,32.315,46.807ZM24.844,22A24.815,24.815,0,1,0,38.837,67.306l.078-.047-3.347-3.888-.062.031a19.755,19.755,0,1,1,8.608-12.349c-.623,2.566-2.413,3.344-3.767,3.235a3.186,3.186,0,0,1-2.958-3.437V46.807a12.564,12.564,0,1,0-3.658,8.85,8.084,8.084,0,0,0,6.211,3.7c.218.015.451.031.669.031a8.449,8.449,0,0,0,5.043-1.7,9.309,9.309,0,0,0,3.207-4.728c.093-.311.28-1.042.28-1.042v-.031a22.108,22.108,0,0,0,.529-5.086A24.835,24.835,0,0,0,24.844,22Z" transform="translate(0 -22)" fill="#646464"/>
</svg>
