<svg id="NTU" xmlns="http://www.w3.org/2000/svg" width="127.214" height="63.39" viewBox="0 0 127.214 63.39">
  <path id="Контур_1721" data-name="Контур 1721" d="M21.007,46.547l15.9-15.722,15.9,15.722Z" transform="translate(26.552 0.474)" fill="#646464"/>
  <path id="Контур_1722" data-name="Контур 1722" d="M0,53.445,15.856,37.769l15.95,15.675Z" transform="translate(0 9.251)" fill="#646464"/>
  <path id="Контур_1723" data-name="Контур 1723" d="M38.707,37.769,22.954,53.445,7,37.769Z" transform="translate(8.852 9.251)" fill="#646464"/>
  <path id="Контур_1724" data-name="Контур 1724" d="M14.006,39.594l15.851-15.67,15.95,15.67Z" transform="translate(17.702 -8.249)" fill="#646464"/>
  <path id="Контур_1725" data-name="Контур 1725" d="M28.011,39.6l15.9-15.68,15.9,15.68Z" transform="translate(35.404 -8.255)" fill="#646464"/>
  <path id="Контур_1726" data-name="Контур 1726" d="M52.762,23.919,36.91,39.6l-15.9-15.67Z" transform="translate(26.552 -8.255)" fill="#646464"/>
  <path id="Контур_1727" data-name="Контур 1727" d="M66.742,23.929,50.865,39.6,35.034,23.919Z" transform="translate(44.28 -8.255)" fill="#646464"/>
  <path id="Контур_1728" data-name="Контур 1728" d="M7,46.521,22.855,30.846,38.9,46.521Z" transform="translate(8.852 0.5)" fill="#646464"/>
  <path id="Контур_1729" data-name="Контур 1729" d="M45.76,30.846l-15.9,15.675L14.006,30.846Z" transform="translate(17.702 0.5)" fill="#646464"/>
  <path id="Контур_1730" data-name="Контур 1730" d="M59.714,30.846,43.935,46.521l-15.9-15.675Z" transform="translate(35.43 0.5)" fill="#646464"/>
  <path id="Контур_1731" data-name="Контур 1731" d="M21.007,32.675,36.864,17l15.9,15.665Z" transform="translate(26.552 -17)" fill="#646464"/>
  <path id="Контур_1732" data-name="Контур 1732" d="M35.034,32.665,50.937,17l15.8,15.675Z" transform="translate(44.28 -17)" fill="#646464"/>
  <path id="Контур_1733" data-name="Контур 1733" d="M59.812,17l-15.9,15.665L28.011,17Z" transform="translate(35.404 -17)" fill="#646464"/>
  <path id="Контур_1734" data-name="Контур 1734" d="M21.767,41.01a.694.694,0,0,1,.694-.694h5.994c1.891,0,3.838.813,3.838,3a2.322,2.322,0,0,1-.995,1.948,2.637,2.637,0,0,1,1.419,2.445c0,2.1-1.844,3.17-3.911,3.17H22.461a.694.694,0,0,1-.694-.694Zm2.782,1.3v2.113h3.942a1.057,1.057,0,1,0,0-2.113Zm0,4.046v2.538H28.76a1.274,1.274,0,0,0,0-2.538Z" transform="translate(27.512 12.47)" fill="#646464"/>
  <path id="Контур_1735" data-name="Контур 1735" d="M30.47,48.669c.409,0,.8.135,1.238.135h.145c.964,0,1.647-.637,2.01-1.917h-.637c-2.59,0-3.73-1.036-4.662-3.217L27.4,41.013c-.166-.394.031-.694.409-.694h1.554a1.036,1.036,0,0,1,.979.663l.844,2.072a2.441,2.441,0,0,0,2.45,1.766h.907l1.331-3.807a.985.985,0,0,1,.922-.679h1.5a.471.471,0,0,1,.466.663l-2.4,6.89a4.089,4.089,0,0,1-4.336,3.02H30.242a.694.694,0,0,1-.694-.694v-.829a.684.684,0,0,1,.694-.694Z" transform="translate(34.561 12.473)" fill="#646464"/>
  <path id="Контур_1736" data-name="Контур 1736" d="M43.212,50.879h-1.4a.694.694,0,0,1-.694-.694v-7.77h-1.8A1.948,1.948,0,0,0,37.369,43.9l-1.694,6.315a.948.948,0,0,1-.875.694H33.307a.482.482,0,0,1-.482-.622L34.7,43.2c.622-2.341,2.751-2.87,4.9-2.87h3.688a.674.674,0,0,1,.622.694v9.185a.678.678,0,0,1-.431.627A.671.671,0,0,1,43.212,50.879Z" transform="translate(41.463 12.484)" fill="#646464"/>
  <path id="Контур_1737" data-name="Контур 1737" d="M40,50.9a.7.7,0,0,1-.694-.71V41.024a.7.7,0,0,1,.694-.71h1.388a.7.7,0,0,1,.694.71v3.533h1.6c.86,0,1.482-.44,2.072-1.5l1.15-2.041a1.249,1.249,0,0,1,1.036-.71h1.709c.378,0,.451.3.228.71l-1.6,2.9a2.906,2.906,0,0,1-1.906,1.632c.725.15,1.482,1.072,1.906,1.72L50.114,50.2c.244.394.135.694-.259.694H48.161a1.518,1.518,0,0,1-1.134-.694l-1.3-2.072c-.559-.891-1.119-1.513-2.072-1.513H42.069V50.2a.689.689,0,0,1-.694.678Z" transform="translate(49.676 12.461)" fill="#646464"/>
  <path id="Контур_1738" data-name="Контур 1738" d="M46.769,43.186c.622-2.341,2.751-2.87,4.9-2.87h3.973a.658.658,0,0,1,.637.679V50.21a.689.689,0,0,1-.694.679H54.193a.684.684,0,0,1-.694-.694v-1.86H48.251l-.518,1.86a.948.948,0,0,1-.875.694h-1.45a.518.518,0,0,1-.518-.679Zm2.026,3.067h4.7V42.4H51.4a1.948,1.948,0,0,0-1.948,1.482Z" transform="translate(56.704 12.47)" fill="#646464"/>
  <path id="Контур_1739" data-name="Контур 1739" d="M59.35,46.418H54.274V50.21a.689.689,0,0,1-.694.679H52.2a.7.7,0,0,1-.71-.694V41.01a.694.694,0,0,1,.71-.694h1.378a.694.694,0,0,1,.694.694v3.326H59.35V41.01a.694.694,0,0,1,.694-.694h1.378a.7.7,0,0,1,.71.694v9.184a.7.7,0,0,1-.71.694H60.05a.69.69,0,0,1-.49-.194.689.689,0,0,1-.209-.484Z" transform="translate(65.082 12.47)" fill="#646464"/>
  <path id="Контур_1740" data-name="Контур 1740" d="M48.5,38.959H44.3v3.108a.57.57,0,0,1-.575.559H42.591a.585.585,0,0,1-.585-.575V34.493a.575.575,0,0,1,.585-.575h1.134a.57.57,0,0,1,.575.575v2.745h4.191V34.493a.57.57,0,0,1,.575-.575H50.2a.575.575,0,0,1,.585.575v7.584a.58.58,0,0,1-.174.409.582.582,0,0,1-.412.166H49.066a.57.57,0,0,1-.575-.559Z" transform="translate(53.092 4.384)" fill="#646464"/>
  <path id="Контур_1741" data-name="Контур 1741" d="M55.192,33.918a.565.565,0,0,1,.575.575v.575a.564.564,0,0,1-.575.575H52.473v6.444a.57.57,0,0,1-.575.559h-1.15a.57.57,0,0,1-.58-.559V35.638H47.448a.564.564,0,0,1-.575-.575v-.57a.564.564,0,0,1,.575-.575Z" transform="translate(59.244 4.384)" fill="#646464"/>
  <path id="Контур_1742" data-name="Контур 1742" d="M52.367,42.652a.58.58,0,0,1-.575-.575v-7.6a.57.57,0,0,1,.575-.56h1.15a.571.571,0,0,1,.575.575v6.434h4.092V34.478a.57.57,0,0,1,.575-.56h1.15a.57.57,0,0,1,.575.575v6.434h.663a.575.575,0,0,1,.565.585v.575a.58.58,0,0,1-.575.575Z" transform="translate(65.461 4.384)" fill="#646464"/>
  <path id="Контур_1743" data-name="Контур 1743" d="M42.026,39.594,57.9,23.924l15.9,15.67Z" transform="translate(53.118 -8.249)" fill="#646464"/>
</svg>
