<svg xmlns="http://www.w3.org/2000/svg" width="303.813" height="260.777" viewBox="0 0 303.813 260.777">
  <path id="Контур_1438" data-name="Контур 1438" d="M-4.958-104.938q0,52.644-19.088,80.534T-78.519,3.486q-35.038,0-54.125-27.106t-19.785-77.658v-47.937q0-52.469,19-80.273t54.561-27.8q35.561,0,54.561,27.542t19.349,78.617Zm-49.506-51.423q0-29.982-5.927-44.974t-18.478-14.991q-23.533,0-24.4,54.91V-98.14q0,30.68,6.014,45.671t18.739,14.991q12.028,0,17.867-14.032t6.188-42.969Zm103.349,6.973H72.767q13.6,0,19.959-9.5t6.363-25.363q0-15.166-6.537-23.62a21.011,21.011,0,0,0-17.519-8.454,20.724,20.724,0,0,0-16.822,8.019q-6.537,8.019-6.537,20.221H2.343q0-19.872,9.152-35.648A64.263,64.263,0,0,1,37.119-248.4a75.646,75.646,0,0,1,36.519-8.89q35.038,0,54.91,19.349T148.42-184.95a60.341,60.341,0,0,1-8.977,31.987,61.13,61.13,0,0,1-23.62,22.574q17.955,7.67,26.758,23.01t8.8,36.258q0,33.817-21.528,54.212T73.29,3.486q-32.6,0-52.905-20.134T.077-69.552H49.408q0,13.6,7.147,22.835t18.129,9.239q12.725,0,20.134-9.413t7.408-25.1q0-37.478-29.111-37.652H48.885Z" transform="translate(152.429 257.291)" fill="#fff"/>
</svg>
