<svg width="49" height="49" viewBox="0 0 49 49" fill="none" xmlns="http://www.w3.org/2000/svg">
<path d="M2.04167 24.5C2.04167 29.4973 2.3121 33.3738 2.98395 36.3968C3.65065 39.3967 4.68517 41.4296 6.12777 42.8722C7.57037 44.3148 9.60329 45.3494 12.6032 46.016C15.6262 46.6879 19.5027 46.9583 24.5 46.9583C29.4973 46.9583 33.3738 46.6879 36.3968 46.016C39.3967 45.3494 41.4296 44.3148 42.8722 42.8722C44.3148 41.4296 45.3493 39.3967 46.016 36.3968C46.6879 33.3738 46.9583 29.4973 46.9583 24.5C46.9583 19.5027 46.6879 15.6262 46.016 12.6032C45.3493 9.60329 44.3148 7.57037 42.8722 6.12777C41.4296 4.68517 39.3967 3.65065 36.3968 2.98395C33.3738 2.3121 29.4973 2.04167 24.5 2.04167C19.5027 2.04167 15.6262 2.3121 12.6032 2.98395C9.60329 3.65065 7.57037 4.68517 6.12777 6.12777C4.68517 7.57037 3.65065 9.60329 2.98395 12.6032C2.3121 15.6262 2.04167 19.5027 2.04167 24.5Z" stroke="#0065FF" stroke-width="4.08333" stroke-linecap="round" stroke-linejoin="round"/>
<path d="M18.0897 19.9054L13.9651 31.102C13.062 33.5535 15.4459 35.9374 17.8974 35.0343L29.094 30.9098C29.9356 30.5997 30.5991 29.9363 30.9091 29.0947L35.0337 17.8981C35.9368 15.4466 33.5529 13.0627 31.1014 13.9657L19.9048 18.0903C19.0631 18.4004 18.3997 19.0638 18.0897 19.9054Z" stroke="#0065FF" stroke-width="4.08333" stroke-linecap="round" stroke-linejoin="round"/>
</svg>
