<svg width="20" height="20" viewBox="0 0 20 20" fill="none" xmlns="http://www.w3.org/2000/svg">
<path fill-rule="evenodd" clip-rule="evenodd" d="M7.70837 17.5C7.70837 17.1548 7.9882 16.875 8.33337 16.875L11.6667 16.875C12.0119 16.875 12.2917 17.1548 12.2917 17.5C12.2917 17.8452 12.0119 18.125 11.6667 18.125L8.33337 18.125C7.9882 18.125 7.70837 17.8452 7.70837 17.5Z" fill="white"/>
<path fill-rule="evenodd" clip-rule="evenodd" d="M2.70837 9.16667C2.70837 5.13959 5.97296 1.875 10 1.875C14.0271 1.875 17.2917 5.13959 17.2917 9.16667V12.9167C17.2917 14.4124 16.0791 15.625 14.5834 15.625H5.41671C3.92094 15.625 2.70837 14.4124 2.70837 12.9167V9.16667ZM10 3.125C6.66332 3.125 3.95837 5.82995 3.95837 9.16667V12.9167C3.95837 13.7221 4.61129 14.375 5.41671 14.375H14.5834C15.3888 14.375 16.0417 13.7221 16.0417 12.9167V9.16667C16.0417 5.82995 13.3368 3.125 10 3.125Z" fill="white"/>
</svg>
