<svg width="49" height="33" viewBox="0 0 49 33" fill="none" xmlns="http://www.w3.org/2000/svg">
<path fill-rule="evenodd" clip-rule="evenodd" d="M23.96 13.7291L12.241 27.8661L6.88598 22.5781C2.67598 18.4201 1.26998 17.5501 0.311981 18.5081C-0.646019 19.4661 0.468981 21.1131 5.52598 26.2161C9.06298 29.7851 12.264 32.7051 12.639 32.7051C13.013 32.7051 18.823 26.1251 25.549 18.0831C32.275 10.0411 37.831 2.77712 37.896 1.94112C37.962 1.10412 37.489 0.234117 36.847 0.00611744C36.204 -0.220883 30.405 5.95412 23.96 13.7291ZM35.063 13.6051C27.704 22.4821 22.948 27.4251 22.083 27.0931C21.332 26.8041 20.403 27.0781 20.018 27.7001C19.634 28.3221 20.108 29.7031 21.072 30.7681C22.036 31.8331 23.161 32.7051 23.572 32.7051C23.984 32.7051 29.823 26.1251 36.549 18.0831C43.275 10.0411 48.831 2.77712 48.896 1.94112C48.962 1.10412 48.489 0.234117 47.847 0.00611744C47.204 -0.220883 41.451 5.89812 35.063 13.6051Z" fill="black"/>
</svg>
