<svg xmlns="http://www.w3.org/2000/svg" width="957.092" height="170.81" viewBox="0 0 957.092 170.81">
  <g id="Сгруппировать_1015" data-name="Сгруппировать 1015" transform="translate(-480 -2856)">
    <path id="Alphabank" d="M18.45,18c3.829,0,5.063,2.765,6.084,5.531.425,1.149,10.423,28.547,10.721,29.356a.545.545,0,0,1-.34.723c-.383.128-5.531,2.17-5.829,2.255a.587.587,0,0,1-.723-.34c-.128-.3-2.255-6.254-2.51-6.892H11.047c-.255.681-2.425,6.637-2.51,6.892a.569.569,0,0,1-.723.34c-.3-.128-5.531-2.127-5.829-2.255a.606.606,0,0,1-.34-.723c.383-1.021,10.211-27.952,10.721-29.356C13.344,20.808,14.621,18,18.45,18ZM.879,66.969a.573.573,0,0,0-.553.6v6.382a.573.573,0,0,0,.553.6H36.02a.573.573,0,0,0,.553-.6V67.564a.573.573,0,0,0-.553-.6ZM18.45,26.934l-5.02,15.018H23.512l-5.02-15.018ZM149.188,48.972a2.518,2.518,0,0,1-2.68,2.808,6.705,6.705,0,0,1-2.127-.255V46.377a11.73,11.73,0,0,1,2.127-.17C148.295,46.335,149.188,47.143,149.188,48.972Zm3.574-.213c0-3.148-1.829-5.318-5.743-5.318a9.77,9.77,0,0,0-2.638.34V39.23a24.161,24.161,0,0,1,2.936-.17c1.149,0,2.6.085,3.871.213l.085-2.638a25.143,25.143,0,0,0-5.148-.51,23.944,23.944,0,0,0-5.276.723V53.61a15.581,15.581,0,0,0,5.488.979C150.55,54.588,152.762,52.333,152.762,48.76Zm-40.375-.936c0,2.34-.936,3.871-2.467,3.871a5.014,5.014,0,0,1-1.7-.255V44.42a3.6,3.6,0,0,1,1.872-.383C111.622,43.995,112.387,45.271,112.387,47.824Zm-11.7.085c0-2.553.766-3.914,2.3-3.914a3.6,3.6,0,0,1,1.872.383V51.4a4.15,4.15,0,0,1-1.7.255C101.411,51.7,100.688,50.249,100.688,47.909Zm7.53,10.509V53.823a5.114,5.114,0,0,0,2.68.638c2.85,0,4.935-2.34,4.935-6.68,0-4.637-2.085-6.637-5.488-6.637a4.339,4.339,0,0,0-2.127.425v-5.4H104.9v5.446a4.338,4.338,0,0,0-2.127-.425c-3.4,0-5.488,2.085-5.488,6.68,0,4.3,1.872,6.594,4.935,6.594a5.176,5.176,0,0,0,2.723-.638v4.595ZM82.9,54.248V42a16.16,16.16,0,0,0-5.105-.766A17.2,17.2,0,0,0,72.736,42v6.3a9.072,9.072,0,0,1-.213,2.765,2.915,2.915,0,0,1-1.106,1.532l.893,1.957c2.68-.766,3.7-1.915,3.7-5.658V44.25a9.646,9.646,0,0,1,1.787-.17,9.231,9.231,0,0,1,1.744.17v10Zm41.183-2.68a4.894,4.894,0,0,1-1.787.3c-1.191,0-1.872-.468-1.872-1.7,0-1.276.851-1.7,2.51-1.7a2.858,2.858,0,0,1,.979.128v.936A7.8,7.8,0,0,0,124.087,51.568Zm4.254,1.489a5.735,5.735,0,0,1-1.106-3.829V45.782c0-1.829-.213-2.51-.723-3.233-.681-.936-1.787-1.361-3.914-1.361a17.745,17.745,0,0,0-4.3.51l.51,2.468a21.906,21.906,0,0,1,2.638-.255c2.212,0,2.468.34,2.468,2v.638a6.892,6.892,0,0,0-1.7-.213c-3.361,0-5.105,1.617-5.105,4.34a3.842,3.842,0,0,0,4.169,3.914,6.7,6.7,0,0,0,2.468-.468,4.975,4.975,0,0,0,1.149-.681,3.35,3.35,0,0,0,1.276,1.064Zm32.632-1.489a4.893,4.893,0,0,1-1.787.3c-1.191,0-1.872-.468-1.872-1.7,0-1.276.851-1.7,2.51-1.7a2.7,2.7,0,0,1,.979.128v.936A10.317,10.317,0,0,0,160.973,51.568Zm4.255,1.489a5.734,5.734,0,0,1-1.106-3.829V45.782a5.182,5.182,0,0,0-.681-3.233c-.681-.936-1.829-1.361-3.914-1.361a17.746,17.746,0,0,0-4.3.51l.51,2.468a21.9,21.9,0,0,1,2.638-.255c2.212,0,2.467.34,2.467,2v.638a6.633,6.633,0,0,0-1.7-.213c-3.361,0-5.105,1.617-5.105,4.34a3.842,3.842,0,0,0,4.169,3.914,6.7,6.7,0,0,0,2.467-.468,4.975,4.975,0,0,0,1.149-.681A3.35,3.35,0,0,0,163.1,54.5ZM92.392,49.866c0,1.234-.425,2.127-2.042,2.127A3.728,3.728,0,0,1,88.9,51.78V48.122a6.076,6.076,0,0,1,1.447-.213C91.881,47.909,92.392,48.675,92.392,49.866ZM85.542,41.4V53.567a12.553,12.553,0,0,0,4.893.979c3.574,0,5.446-1.829,5.446-4.85,0-2.723-1.7-4.425-4.85-4.425a7.542,7.542,0,0,0-2.127.3V41.4ZM177.48,54.248V41.527h-3.361v4.807h-3.786V41.527h-3.361V54.248h3.361v-5.19h3.786v5.19Zm13.742,0s-1.829-3.914-2.255-4.765c-.51-.979-.979-1.7-2-1.957v-.042c.681-.128,1.234-.553,1.829-1.83.553-1.234.723-1.532,1.064-1.787a.864.864,0,0,1,.766-.17l.17-2.3a6.368,6.368,0,0,0-1.574-.043,2.444,2.444,0,0,0-1.829.766,5.647,5.647,0,0,0-.894,1.447c-.3.638-.553,1.149-.893,1.829s-.468.979-1.361.979h-.553v-4.85h-3.361V54.248h3.361v-5.19h.468c.936,0,1.106.255,1.617,1.234.6,1.191,1.7,3.956,1.7,3.956Zm-124.7,0H70.4L64.568,36.464a6.638,6.638,0,0,0-2.17-.34,4.9,4.9,0,0,0-1.872.34L54.357,54.248h3.7s.51-1.574,1.106-3.489h6.382C66.057,52.716,66.525,54.248,66.525,54.248Zm-6.509-6.467s1.064-3.574,1.234-4.127c.425-1.446,1.064-3.744,1.064-3.744H62.4s.6,2.382.979,3.7c.17.51,1.191,4.127,1.191,4.127H60.015Zm74.027-2.042a2.133,2.133,0,0,0-2.127,2.127,2.127,2.127,0,1,0,4.254,0A2.162,2.162,0,0,0,134.043,45.739Z" transform="translate(479.674 2839)" fill="#646464"/>
    <g id="Delivery_Club" transform="translate(751 2856)">
      <path id="Контур_1688" data-name="Контур 1688" d="M31.1,62.307c-.1-.908.453-5.379.453-5.379s1.1.186,2.17.3,2.781.212,2.781.212-.924,3.354-.388,4.12c1.241,1.77,8.025,6.14,9.581,7.895a19.182,19.182,0,0,0,2.547,2.218c.687.585,2.9.652,3.485,1.238.39.423.866,1.655.627,1.878a20.745,20.745,0,0,1-4.112.119,2.864,2.864,0,0,1-1.408-.62.958.958,0,0,1-1.139.146c-1.167-.583-.992-1.786-1.673-2.761-.39-.39-6.091-4.15-9.765-6.228C31.106,63.665,31.247,63.69,31.1,62.307ZM8.429,50.734c-.683-.609-3.207,1.558-3.928,1.4s-.016-1.946-.655-1.837c-.867.148-1.1,2.182-1.876,2.34C.714,53.112,0,51.226,0,48.976A6.85,6.85,0,0,1,3.517,42.7a12.861,12.861,0,0,1,9.868-.919c2.964-1.591,6.864-6.21,15.549-6.426S40.871,39.5,42.717,38.453a4.8,4.8,0,0,0,2.069-5.147c-.769-3.362-2.261-5.191-3.456-8.185a7.832,7.832,0,0,1,.154-6.18,3.876,3.876,0,0,1,3-1.925c1.552-.174,1.961,1.134,3.047,1.491s3.408.577,3.589,1.407-2.6,1.483-3.236,1.415c-1.479-.159-2.412.839-2.332,2.6.1,2.242.621,3.043,2.682,6.235s2.042,8.5-.59,12.2a18.233,18.233,0,0,0-2.3,3.238c-.472.991,0-1.006,0,2.949s-1.988,5.859-4.586,6.695c-3.5,1.125-6.517.7-9.606.339-4.274-.505-7.618-.446-9.364,0-1.513.388-6.247,3.067-6.83,4.314-.309.673-1.98,7.679-2.286,9.217a11.7,11.7,0,0,1-.347,2.456c-.32.623-4.216,3.087-5.538,3.593-.609.234-1.84.533-1.986.318-.862-1-.859-1.226,1.646-3.039-.875-1.82,1.649-2.265,2.392-3.162.81-.976,2.28-11.607,2.784-12.991s2.47-1.861,3.267-3.093c-.377-.437-.9-.2-2.281.184-1.185.335-3.66,1.219-4.185.777S9.112,51.343,8.429,50.734Z" transform="translate(0 -17)" fill="#646464" fill-rule="evenodd"/>
      <path id="Контур_1689" data-name="Контур 1689" d="M42.627,41.274H34.6V20.709h8c6.357,0,10.768,4.1,10.768,10.267C53.365,37.2,48.954,41.274,42.627,41.274ZM42.6,37.42a6.124,6.124,0,0,0,6.357-6.444c0-3.607-2.19-6.413-6.327-6.413H38.916V37.42Zm20.654,4.224A7.489,7.489,0,0,1,55.4,33.813a7.549,7.549,0,0,1,7.6-7.8c4.41,0,7.361,3.33,7.361,8.171v.925H59.448a3.951,3.951,0,0,0,4.228,3.33,6.1,6.1,0,0,0,3.893-1.449l1.734,2.59A9.079,9.079,0,0,1,63.251,41.644Zm3.407-9.25a3.651,3.651,0,0,0-7.24,0ZM77.3,41.644c-2.707,0-4.137-1.418-4.137-4.1V20.709H77.03V36.5c0,.956.487,1.665,1.338,1.665a1.928,1.928,0,0,0,1.338-.463l.821,2.991A4.785,4.785,0,0,1,77.3,41.644Zm6.844-16.866a2.321,2.321,0,0,1-2.281-2.343,2.3,2.3,0,1,1,4.593,0A2.327,2.327,0,0,1,84.148,24.779Zm1.947,16.5H82.231V26.382h3.863Zm11.8,0H93.729l-5.9-14.892h4.137L95.8,36.742l3.863-10.36H103.8Zm14.54.37a7.489,7.489,0,0,1-7.848-7.831,7.549,7.549,0,0,1,7.6-7.8c4.41,0,7.361,3.33,7.361,8.171v.925h-10.92a3.951,3.951,0,0,0,4.228,3.33,6.1,6.1,0,0,0,3.893-1.449l1.734,2.59A9.079,9.079,0,0,1,112.436,41.644Zm3.407-9.25a3.651,3.651,0,0,0-7.24,0Zm10.372,8.88h-3.863V26.382h3.863v2a6.413,6.413,0,0,1,4.684-2.374v3.823a4.941,4.941,0,0,0-4.684,1.6Zm13.049,6.043a8.783,8.783,0,0,1-6.144-2.22l1.734-2.806a5.746,5.746,0,0,0,4.41,1.819,3.715,3.715,0,0,0,3.954-3.823V38.746A6.945,6.945,0,0,1,138.048,41c-3.224,0-4.745-1.788-4.745-4.687V26.382h3.863v8.387c0,2.066,1.065,2.744,2.707,2.744a4.306,4.306,0,0,0,3.346-1.7V26.382h3.863V40.288C147.082,44.759,143.949,47.318,139.264,47.318ZM44.109,69.675c-6.114,0-10.829-4.317-10.829-10.637C33.281,52.686,38,48.4,44.109,48.4a9.206,9.206,0,0,1,8.456,5.026l-3.711,1.85a5.482,5.482,0,0,0-4.745-2.991c-3.711,0-6.388,2.867-6.388,6.752S40.4,65.79,44.109,65.79A5.482,5.482,0,0,0,48.855,62.8l3.711,1.819A9.28,9.28,0,0,1,44.109,69.675Zm15.43,0c-2.707,0-4.137-1.418-4.137-4.1V48.739h3.863V64.525c0,.956.487,1.665,1.338,1.665a1.928,1.928,0,0,0,1.338-.463l.821,2.991A4.785,4.785,0,0,1,59.54,69.675Zm18.707-.37H74.383V67.424a6.945,6.945,0,0,1-5.171,2.251c-3.224,0-4.745-1.788-4.745-4.687V54.412H68.33v9.034c0,2.066,1.065,2.744,2.707,2.744a4.306,4.306,0,0,0,3.346-1.7V54.412h3.863Zm7.7-4.779a4.341,4.341,0,0,0,3.346,1.665c2.22,0,3.711-1.758,3.711-4.348,0-2.559-1.49-4.317-3.711-4.317a4.3,4.3,0,0,0-3.346,1.727Zm0,4.779H82.079V48.739h3.863v7.585a5.547,5.547,0,0,1,4.532-2.282c3.741,0,6.509,2.96,6.509,7.8,0,5-2.8,7.832-6.509,7.832a5.677,5.677,0,0,1-4.532-2.282Z" transform="translate(33.924 -13.816)" fill="#646464" fill-rule="evenodd"/>
    </g>
    <g id="GB" transform="translate(1011 2863)">
      <path id="Контур_1690" data-name="Контур 1690" d="M66.305,27.857a10.065,10.065,0,0,0-7.5,3.026,10.536,10.536,0,0,0-2.986,7.586,9.961,9.961,0,0,0,3.228,7.666,11.8,11.8,0,0,0,8.352,2.945,18.832,18.832,0,0,0,7.626-1.735V43.271a15.452,15.452,0,0,1-7.626,1.977c-3.349,0-6.537-1.453-7.222-5.326h15.7a10.736,10.736,0,0,0,.2-2.381,9.557,9.557,0,0,0-9.765-9.684Zm-.121,3.995a5.528,5.528,0,0,1,5.729,4.721h-11.7A5.726,5.726,0,0,1,66.184,31.852Z" transform="translate(56.894 -13.505)" fill="#646464"/>
      <path id="Контур_1691" data-name="Контур 1691" d="M100.264,27.953a9.025,9.025,0,0,0-6.133,2.461V28.357h-4.2V48.531h4.2V38.4c0-4.721,2.945-6.335,6.375-6.335a6.214,6.214,0,0,1,.767.081V28.034C100.909,27.993,100.465,27.953,100.264,27.953Z" transform="translate(91.673 -13.408)" fill="#646464"/>
      <path id="Контур_1692" data-name="Контур 1692" d="M74.657,37.979l7.5-9.845H77.078l-7.384,9.926,7.828,10.249h4.963L74.577,38.019Z" transform="translate(71.042 -13.224)" fill="#646464"/>
      <path id="Контур_1693" data-name="Контур 1693" d="M71.735,24.077h-4.2V52.443h4.2Z" transform="translate(68.845 -17.358)" fill="#646464"/>
      <path id="Контур_1694" data-name="Контур 1694" d="M55.5,38.658V37.568H42.347v3.995H51.1v5.891a16.842,16.842,0,0,1-6.214,1.17,10.315,10.315,0,0,1-7.5-2.945,9.822,9.822,0,0,1-2.824-7.223,9.79,9.79,0,0,1,2.824-7.222c1.9-1.9,4.842-2.945,8.594-2.945a17.424,17.424,0,0,1,8.191,1.977v-4.6a20.012,20.012,0,0,0-8.191-1.735c-4.761.04-9.119,1.533-11.741,4.2A14.218,14.218,0,0,0,30,38.456a14.379,14.379,0,0,0,4.237,10.37,14.608,14.608,0,0,0,10.612,4.156A20.513,20.513,0,0,0,55.46,50V38.658Z" transform="translate(30.58 -17.508)" fill="#646464"/>
      <path id="Контур_1695" data-name="Контур 1695" d="M61.954,30.8a9.769,9.769,0,0,0-7.142-2.946,10.065,10.065,0,0,0-7.5,3.026,10.536,10.536,0,0,0-2.986,7.586,9.961,9.961,0,0,0,3.228,7.666,10.993,10.993,0,0,0,2.1,1.493,12.951,12.951,0,0,0,6.294,1.453,18.831,18.831,0,0,0,7.626-1.735V43.271a14.076,14.076,0,0,1-1.573.767,15.268,15.268,0,0,1-6.052,1.17c-3.349,0-6.537-1.453-7.222-5.326H64.375a10.734,10.734,0,0,0,.2-2.381,9.486,9.486,0,0,0-2.5-6.577C62.035,30.924,61.995,30.883,61.954,30.8Zm-1.574,5.77h-11.7a5.818,5.818,0,0,1,5.972-4.721A5.528,5.528,0,0,1,60.38,36.573Z" transform="translate(45.179 -13.505)" fill="#646464"/>
      <path id="Контур_1696" data-name="Контур 1696" d="M113.172,28.133h-4.2V48.308h4.2Z" transform="translate(111.083 -13.224)" fill="#646464"/>
      <path id="Контур_1697" data-name="Контур 1697" d="M111.36,23.777a2.465,2.465,0,0,0-1.9.767,2.827,2.827,0,0,0,0,3.873,2.524,2.524,0,0,0,1.9.767,2.464,2.464,0,0,0,1.9-.767,2.827,2.827,0,0,0,0-3.873A2.464,2.464,0,0,0,111.36,23.777Z" transform="translate(110.798 -17.664)" fill="#646464"/>
      <path id="Контур_1698" data-name="Контур 1698" d="M139.478,42.944a4.838,4.838,0,0,0-.927-3.026c-1.252-1.775-3.673-2.663-6.335-3.349a14.767,14.767,0,0,1-3.189-1.049,1.824,1.824,0,0,1-1.088-1.695h0c0-1.372,1.694-2.017,3.752-2.017a14.163,14.163,0,0,1,6.86,1.695v-4.2a17.251,17.251,0,0,0-6.86-1.412,9.746,9.746,0,0,0-5.81,1.614,5.316,5.316,0,0,0-2.058,4.519c0,3.914,3.388,5.407,7.262,6.375a14.779,14.779,0,0,1,3.189,1.049,1.826,1.826,0,0,1,1.088,1.695c0,1.412-1.492,2.1-3.954,2.1a21.344,21.344,0,0,1-7.3-1.251v3.914a23.1,23.1,0,0,0,7.3,1.211,10.364,10.364,0,0,0,5.931-1.654,5.258,5.258,0,0,0,1.252-1.251A5.847,5.847,0,0,0,139.478,42.944Z" transform="translate(126.218 -13.468)" fill="#646464"/>
      <path id="Контур_1699" data-name="Контур 1699" d="M95.326,37.574a6.457,6.457,0,0,0,2.744-5.528,7.717,7.717,0,0,0-2.461-5.689,9.2,9.2,0,0,0-6.214-2.26H77.451V52.422H90.4a9.38,9.38,0,0,0,6.375-2.3,7.707,7.707,0,0,0,2.461-5.81A7.5,7.5,0,0,0,95.326,37.574Zm-13.557-9.6h8.07a4.036,4.036,0,0,1,0,8.07h-8.07Zm8.836,20.618H81.769V39.874h8.836a4.361,4.361,0,0,1,0,8.715Z" transform="translate(78.949 -17.338)" fill="#646464"/>
      <path id="Контур_1700" data-name="Контур 1700" d="M122.428,31.747a4.561,4.561,0,0,1,3.954,1.735,5.857,5.857,0,0,1,.929,3.47v11.62h4.2V36.791a9.047,9.047,0,0,0-2.017-6.174l-.081-.081a7.615,7.615,0,0,0-5.89-2.663,9.384,9.384,0,0,0-5.933,2.058V28.4h-4.2V48.572h4.2V36.952a5.451,5.451,0,0,1,1.05-3.309,4.616,4.616,0,0,1,1.21-1.13A4.359,4.359,0,0,1,122.428,31.747Z" transform="translate(115.582 -13.489)" fill="#646464"/>
      <path id="Контур_1701" data-name="Контур 1701" d="M113.28,30.335a9.951,9.951,0,0,0-6.779-2.461,10.675,10.675,0,0,0-8.876,4.842c-.081.121-.161.282-.242.4a10.418,10.418,0,0,0-1.372,5.366,10.288,10.288,0,0,0,3.067,7.545A10.081,10.081,0,0,0,106.5,49.1a9.657,9.657,0,0,0,6.779-2.5v1.977h4.2V28.4h-4.2Zm-1.9,12.952a6.83,6.83,0,0,1-9.361,0,6.542,6.542,0,0,1-1.856-4.761,6.386,6.386,0,0,1,1.856-4.721,6.725,6.725,0,0,1,9.361,0,6.389,6.389,0,0,1,1.856,4.721A6.545,6.545,0,0,1,111.384,43.287Z" transform="translate(97.868 -13.489)" fill="#646464"/>
      <path id="Контур_1702" data-name="Контур 1702" d="M15.6,25.337a8.894,8.894,0,0,0-1.316,5.257V33.77a4.544,4.544,0,0,0,1,2.838l3.092,3.864a3.064,3.064,0,0,1,.456-.034A3.027,3.027,0,1,1,16,42.365L12.909,38.5A7.573,7.573,0,0,1,11.25,33.77V30.594a11.83,11.83,0,0,1,1.9-7.048,6.775,6.775,0,0,1,5.67-2.8,9.088,9.088,0,0,1,8.409,5.638,8.332,8.332,0,0,1,5.979,7.993,8.867,8.867,0,0,1-.24,2.395,7.575,7.575,0,0,1,0,13.385,8.866,8.866,0,0,1,.24,2.395,8.333,8.333,0,0,1-5.979,7.993,9.1,9.1,0,0,1-11.249,5.184l.946-2.877a6.068,6.068,0,0,0,7.7-4.023l.267-.9.92-.163a5.3,5.3,0,0,0,4.366-5.219c0-1.317-.1-1.8-.468-2.243a2.076,2.076,0,0,0-1.907-.757,3.212,3.212,0,0,0-2.11,1.187l-1.78,2.225a3.03,3.03,0,1,1-2.822-1.926,3.06,3.06,0,0,1,.456.034l1.78-2.226a6.238,6.238,0,0,1,4.154-2.307,5.132,5.132,0,0,1,3.792,1.076,4.546,4.546,0,0,0,0-8.3,5.132,5.132,0,0,1-3.792,1.076,6.24,6.24,0,0,1-4.154-2.307l-1.78-2.225a3.065,3.065,0,0,1-.456.034,3.027,3.027,0,1,1,2.822-1.926l1.78,2.225a3.213,3.213,0,0,0,2.11,1.187,2.076,2.076,0,0,0,1.907-.757c.366-.445.468-.926.468-2.243a5.3,5.3,0,0,0-4.366-5.219L24.9,29l-.267-.9a6.061,6.061,0,0,0-5.807-4.324A3.754,3.754,0,0,0,15.6,25.337Z" transform="translate(11.468 -20.75)" fill="#646464"/>
      <path id="Контур_1703" data-name="Контур 1703" d="M13.08,52.966A3.03,3.03,0,1,0,15.9,51.04a3.063,3.063,0,0,0-.456.034l-1.78-2.225a6.24,6.24,0,0,0-4.154-2.307A5.132,5.132,0,0,0,5.72,47.618a4.546,4.546,0,0,1,0-8.3,5.132,5.132,0,0,0,3.792,1.076,6.239,6.239,0,0,0,4.154-2.307l1.78-2.226a3.029,3.029,0,1,0-2.573-2.995,3.021,3.021,0,0,0,.207,1.1L11.3,36.194a3.212,3.212,0,0,1-2.11,1.187,2.076,2.076,0,0,1-1.907-.757c-.366-.445-.468-.926-.468-2.243a5.3,5.3,0,0,1,4.366-5.219L12.1,29l.267-.9a6.068,6.068,0,0,1,7.7-4.023l.946-2.877A9.1,9.1,0,0,0,9.765,26.388a8.332,8.332,0,0,0-5.979,7.993,8.869,8.869,0,0,0,.24,2.395,7.575,7.575,0,0,0,0,13.385,8.867,8.867,0,0,0-.24,2.395,8.332,8.332,0,0,0,5.979,7.993,9.089,9.089,0,0,0,8.409,5.638,6.775,6.775,0,0,0,5.67-2.8,11.83,11.83,0,0,0,1.9-7.048V53.165a7.573,7.573,0,0,0-1.659-4.73L21,44.57A3.029,3.029,0,1,0,18.174,46.5a3.063,3.063,0,0,0,.456-.034l3.092,3.864a4.544,4.544,0,0,1,1,2.838v3.176A8.894,8.894,0,0,1,21.4,61.6a3.754,3.754,0,0,1-3.228,1.558,6.061,6.061,0,0,1-5.807-4.324l-.267-.9-.92-.163a5.3,5.3,0,0,1-4.366-5.219c0-1.317.1-1.8.468-2.243a2.076,2.076,0,0,1,1.907-.757,3.213,3.213,0,0,1,2.11,1.187Z" transform="translate(0 -20.75)" fill="#646464"/>
    </g>
    <g id="Home" transform="translate(1356 2859)">
      <path id="Контур_1704" data-name="Контур 1704" d="M26.638,52.728,23.8,48.383H21.039v4.345H17.355V37.769h6.518c3.684,0,6.163,1.994,6.163,5.272a5.089,5.089,0,0,1-2.479,4.488l3.471,5.2ZM20.97,45.106h2.763c1.416,0,2.551-.783,2.551-1.994s-1.134-1.994-2.551-1.994H20.97Zm15.444-1.353H43v3.135H36.414v2.565h7.51v3.206H32.659V37.7H43.923V40.9h-7.51Zm24.016,1.5c0,4.417-3.33,7.551-8.005,7.551H46.473V37.841h5.951C57.1,37.841,60.43,40.831,60.43,45.249Zm-3.755,0a4.1,4.1,0,0,0-4.251-4.06H50.157v8.263h2.268A4.169,4.169,0,0,0,56.675,45.249Zm9.492-7.408V52.8H62.484V37.841Zm14.169,3.276h-4.25V52.728H72.4V41.117h-4.25V37.769H80.337ZM11.264,47.386a3.516,3.516,0,0,1-3.4,2.208,4.031,4.031,0,0,1-4.109-4.274,4.031,4.031,0,0,1,4.109-4.274,3.423,3.423,0,0,1,3.4,2.209h3.9a7.16,7.16,0,0,0-7.3-5.7,7.766,7.766,0,1,0,0,15.53,7.16,7.16,0,0,0,7.3-5.7Zm2.55,19.661c0,2.494-1.983,4.131-5.313,4.131H.992V56.218H8.076c3.259,0,5.1,1.568,5.1,3.99a3.464,3.464,0,0,1-2.054,3.277A3.483,3.483,0,0,1,13.814,67.047ZM4.746,59.281v3.135H7.51c1.416,0,2.2-.712,2.2-1.637s-.779-1.425-2.2-1.425H4.746ZM10.2,66.549c0-.927-.779-1.425-2.125-1.425h-3.4v2.992h3.33C9.563,68.115,10.2,67.474,10.2,66.549Zm15.09,2.065h-6.3l-.993,2.565H14.026l6.306-14.96h3.541l6.306,14.96H26.213Zm-1.2-3.063L22.1,60.494,20.12,65.551Zm21.04-9.332v14.96H42.294l-7.157-8.192v8.192H31.455V56.218h2.833l7.157,8.407V56.217Zm9,9.4-2.2,2.563v3.065H48.245V56.292h3.684V63.13l5.952-6.839h4.391L56.6,62.845l6.163,8.407h-4.6ZM14.311,19.39v14.96H10.627V28.721H4.6v5.629H.921V19.39H4.6v5.984h6.022V19.39Zm42.435,14.96H53.062V26.87L49.732,32H47.678l-3.33-5.2v7.551H40.664V19.39h2.763l5.243,7.978,5.24-7.978h2.763v14.96Zm6.8-9.047h6.588v3.132H63.547V31h7.51v3.206H59.792V19.247H71.057v3.206h-7.51Z" transform="translate(0 -18.749)" fill="#646464"/>
      <path id="Контур_1705" data-name="Контур 1705" d="M18.977,19A10.406,10.406,0,0,0,8.35,29.187,9.545,9.545,0,0,0,9.98,34.6h5.1a6.446,6.446,0,1,1,7.793,0h5.1A10.131,10.131,0,0,0,29.6,29.187,10.4,10.4,0,0,0,18.977,19Z" transform="translate(8.511 -19)" fill="#646464"/>
      <path id="Контур_1706" data-name="Контур 1706" d="M11.893,24.856a3.632,3.632,0,0,0,6.943,0Z" transform="translate(12.123 -13.031)" fill="#646464"/>
    </g>
    <g id="Mail" transform="translate(480 2962)">
      <path id="Контур_1707" data-name="Контур 1707" d="M67.146,24.027h-4.7V55.973h4.7Z" transform="translate(78.926 -19.438)" fill="#646464"/>
      <path id="Контур_1708" data-name="Контур 1708" d="M69.808,35.589a3.173,3.173,0,1,0,3.176,3.173A3.168,3.168,0,0,0,69.808,35.589Z" transform="translate(84.219 -4.825)" fill="#646464"/>
      <path id="Контур_1709" data-name="Контур 1709" d="M76.084,39.66c0-3.811,2.288-7.077,6.725-7.077h2.8V28.135h-2.8a7.707,7.707,0,0,0-6.678,2.939l-.031.047V28.135H71.446v22.63h4.639Z" transform="translate(90.302 -14.246)" fill="#646464"/>
      <path id="Контур_1710" data-name="Контур 1710" d="M62.814,28.135h-4.7v22.63h4.7Z" transform="translate(73.451 -14.246)" fill="#646464"/>
      <path id="Контур_1711" data-name="Контур 1711" d="M60.924,30.022a3.173,3.173,0,1,0-3.175-3.173A3.168,3.168,0,0,0,60.924,30.022Z" transform="translate(72.99 -19.881)" fill="#646464"/>
      <path id="Контур_1712" data-name="Контур 1712" d="M64.565,30.743a10.429,10.429,0,0,0-7.332-2.862,11.9,11.9,0,1,0,0,23.8,10.208,10.208,0,0,0,7.332-3.049V51.1h4.623V28.456H64.565ZM57.388,46.949a7.155,7.155,0,1,1,7.238-7.17A7.02,7.02,0,0,1,57.388,46.949Z" transform="translate(57.287 -14.567)" fill="#646464"/>
      <path id="Контур_1713" data-name="Контур 1713" d="M88.951,51.356a9.205,9.205,0,0,0,6.46-3.064c.015.855,0,1.633,0,2.473h4.623V28.135H95.4V40.562a6.132,6.132,0,0,1-6.149,6.221,5.365,5.365,0,0,1-5.51-5.677V28.151H79.1V41.5C79.114,47.467,82.336,51.356,88.951,51.356Z" transform="translate(99.974 -14.246)" fill="#646464"/>
      <path id="Контур_1714" data-name="Контур 1714" d="M53.616,27.881a10.506,10.506,0,0,0-7.939,3.608,8.873,8.873,0,0,0-7.409-3.608,8.21,8.21,0,0,0-5.619,2.162V28.456H28.025v22.63h4.623V37.85a5.355,5.355,0,0,1,10.71,0V51.086h4.623V37.85a5.355,5.355,0,0,1,10.709,0V51.086h4.623V37.85C63.345,31.785,59.407,27.881,53.616,27.881Z" transform="translate(35.422 -14.567)" fill="#646464"/>
      <path id="Контур_1715" data-name="Контур 1715" d="M67.964,43.718l-.031.031V41.992H64.975V55.274h2.958V49.053A3.827,3.827,0,0,1,71.871,44.9h1.635V41.992H71.871A4.527,4.527,0,0,0,67.964,43.718Z" transform="translate(82.124 3.268)" fill="#646464"/>
      <path id="Контур_1716" data-name="Контур 1716" d="M85.566,49.262a3.356,3.356,0,0,1-3.378,3.406,2.926,2.926,0,0,1-3-3.1V42H76.21v7.792c0,3.686,2.117,5.817,5.79,5.817a5.424,5.424,0,0,0,3.549-1.524v1.2h2.958V42H85.534Z" transform="translate(96.324 3.277)" fill="#646464"/>
      <path id="Контур_1717" data-name="Контур 1717" d="M76.04,41.847a6.968,6.968,0,1,0,6.974,6.968A6.979,6.979,0,0,0,76.04,41.847Zm0,10.981a4.013,4.013,0,1,1,4.016-4.013A4.024,4.024,0,0,1,76.04,52.828Z" transform="translate(87.295 3.086)" fill="#646464"/>
      <path id="Контур_1718" data-name="Контур 1718" d="M89.96,41.847a6.259,6.259,0,0,0-4.047,1.431v-1.1H82.956V60.029h2.958V54.274A6.106,6.106,0,0,0,89.96,55.8a6.976,6.976,0,0,0,0-13.951Zm-.093,10.918A3.943,3.943,0,1,1,93.8,48.815,3.846,3.846,0,0,1,89.867,52.766Z" transform="translate(104.85 3.086)" fill="#646464"/>
      <path id="Контур_1719" data-name="Контур 1719" d="M68.522,43.278a6.259,6.259,0,0,0-4.047-1.431,6.968,6.968,0,1,0,0,13.936,6.107,6.107,0,0,0,4.047-1.524v.264c-.047,2.722-1.37,4.106-3.954,4.106h-.031A5.493,5.493,0,0,1,60.584,56.9l-.109-.109-2.148,2.053.093.109a8.286,8.286,0,0,0,6.04,2.769h.14c2.522-.047,6.756-1.026,6.88-7.092V42.158H68.522Zm-3.954,9.487a3.943,3.943,0,1,1,4-3.951A3.858,3.858,0,0,1,64.569,52.766Z" transform="translate(72.678 3.086)" fill="#646464"/>
      <path id="Контур_1720" data-name="Контур 1720" d="M32.315,46.807a7.472,7.472,0,1,1-7.472-7.466A7.471,7.471,0,0,1,32.315,46.807ZM24.844,22A24.815,24.815,0,1,0,38.837,67.306l.078-.047-3.347-3.888-.062.031a19.755,19.755,0,1,1,8.608-12.349c-.623,2.566-2.413,3.344-3.767,3.235a3.186,3.186,0,0,1-2.958-3.437V46.807a12.564,12.564,0,1,0-3.658,8.85,8.084,8.084,0,0,0,6.211,3.7c.218.015.451.031.669.031a8.449,8.449,0,0,0,5.043-1.7,9.309,9.309,0,0,0,3.207-4.728c.093-.311.28-1.042.28-1.042v-.031a22.108,22.108,0,0,0,.529-5.086A24.835,24.835,0,0,0,24.844,22Z" transform="translate(0 -22)" fill="#646464"/>
    </g>
    <g id="NTU" transform="translate(772 2963)">
      <path id="Контур_1721" data-name="Контур 1721" d="M21.007,46.547l15.9-15.722,15.9,15.722Z" transform="translate(26.552 0.474)" fill="#646464"/>
      <path id="Контур_1722" data-name="Контур 1722" d="M0,53.445,15.856,37.769l15.95,15.675Z" transform="translate(0 9.251)" fill="#646464"/>
      <path id="Контур_1723" data-name="Контур 1723" d="M38.707,37.769,22.954,53.445,7,37.769Z" transform="translate(8.852 9.251)" fill="#646464"/>
      <path id="Контур_1724" data-name="Контур 1724" d="M14.006,39.594l15.851-15.67,15.95,15.67Z" transform="translate(17.702 -8.249)" fill="#646464"/>
      <path id="Контур_1725" data-name="Контур 1725" d="M28.011,39.6l15.9-15.68,15.9,15.68Z" transform="translate(35.404 -8.255)" fill="#646464"/>
      <path id="Контур_1726" data-name="Контур 1726" d="M52.762,23.919,36.91,39.6l-15.9-15.67Z" transform="translate(26.552 -8.255)" fill="#646464"/>
      <path id="Контур_1727" data-name="Контур 1727" d="M66.742,23.929,50.865,39.6,35.034,23.919Z" transform="translate(44.28 -8.255)" fill="#646464"/>
      <path id="Контур_1728" data-name="Контур 1728" d="M7,46.521,22.855,30.846,38.9,46.521Z" transform="translate(8.852 0.5)" fill="#646464"/>
      <path id="Контур_1729" data-name="Контур 1729" d="M45.76,30.846l-15.9,15.675L14.006,30.846Z" transform="translate(17.702 0.5)" fill="#646464"/>
      <path id="Контур_1730" data-name="Контур 1730" d="M59.714,30.846,43.935,46.521l-15.9-15.675Z" transform="translate(35.43 0.5)" fill="#646464"/>
      <path id="Контур_1731" data-name="Контур 1731" d="M21.007,32.675,36.864,17l15.9,15.665Z" transform="translate(26.552 -17)" fill="#646464"/>
      <path id="Контур_1732" data-name="Контур 1732" d="M35.034,32.665,50.937,17l15.8,15.675Z" transform="translate(44.28 -17)" fill="#646464"/>
      <path id="Контур_1733" data-name="Контур 1733" d="M59.812,17l-15.9,15.665L28.011,17Z" transform="translate(35.404 -17)" fill="#646464"/>
      <path id="Контур_1734" data-name="Контур 1734" d="M21.767,41.01a.694.694,0,0,1,.694-.694h5.994c1.891,0,3.838.813,3.838,3a2.322,2.322,0,0,1-.995,1.948,2.637,2.637,0,0,1,1.419,2.445c0,2.1-1.844,3.17-3.911,3.17H22.461a.694.694,0,0,1-.694-.694Zm2.782,1.3v2.113h3.942a1.057,1.057,0,1,0,0-2.113Zm0,4.046v2.538H28.76a1.274,1.274,0,0,0,0-2.538Z" transform="translate(27.512 12.47)" fill="#646464"/>
      <path id="Контур_1735" data-name="Контур 1735" d="M30.47,48.669c.409,0,.8.135,1.238.135h.145c.964,0,1.647-.637,2.01-1.917h-.637c-2.59,0-3.73-1.036-4.662-3.217L27.4,41.013c-.166-.394.031-.694.409-.694h1.554a1.036,1.036,0,0,1,.979.663l.844,2.072a2.441,2.441,0,0,0,2.45,1.766h.907l1.331-3.807a.985.985,0,0,1,.922-.679h1.5a.471.471,0,0,1,.466.663l-2.4,6.89a4.089,4.089,0,0,1-4.336,3.02H30.242a.694.694,0,0,1-.694-.694v-.829a.684.684,0,0,1,.694-.694Z" transform="translate(34.561 12.473)" fill="#646464"/>
      <path id="Контур_1736" data-name="Контур 1736" d="M43.212,50.879h-1.4a.694.694,0,0,1-.694-.694v-7.77h-1.8A1.948,1.948,0,0,0,37.369,43.9l-1.694,6.315a.948.948,0,0,1-.875.694H33.307a.482.482,0,0,1-.482-.622L34.7,43.2c.622-2.341,2.751-2.87,4.9-2.87h3.688a.674.674,0,0,1,.622.694v9.185a.678.678,0,0,1-.431.627A.671.671,0,0,1,43.212,50.879Z" transform="translate(41.463 12.484)" fill="#646464"/>
      <path id="Контур_1737" data-name="Контур 1737" d="M40,50.9a.7.7,0,0,1-.694-.71V41.024a.7.7,0,0,1,.694-.71h1.388a.7.7,0,0,1,.694.71v3.533h1.6c.86,0,1.482-.44,2.072-1.5l1.15-2.041a1.249,1.249,0,0,1,1.036-.71h1.709c.378,0,.451.3.228.71l-1.6,2.9a2.906,2.906,0,0,1-1.906,1.632c.725.15,1.482,1.072,1.906,1.72L50.114,50.2c.244.394.135.694-.259.694H48.161a1.518,1.518,0,0,1-1.134-.694l-1.3-2.072c-.559-.891-1.119-1.513-2.072-1.513H42.069V50.2a.689.689,0,0,1-.694.678Z" transform="translate(49.676 12.461)" fill="#646464"/>
      <path id="Контур_1738" data-name="Контур 1738" d="M46.769,43.186c.622-2.341,2.751-2.87,4.9-2.87h3.973a.658.658,0,0,1,.637.679V50.21a.689.689,0,0,1-.694.679H54.193a.684.684,0,0,1-.694-.694v-1.86H48.251l-.518,1.86a.948.948,0,0,1-.875.694h-1.45a.518.518,0,0,1-.518-.679Zm2.026,3.067h4.7V42.4H51.4a1.948,1.948,0,0,0-1.948,1.482Z" transform="translate(56.704 12.47)" fill="#646464"/>
      <path id="Контур_1739" data-name="Контур 1739" d="M59.35,46.418H54.274V50.21a.689.689,0,0,1-.694.679H52.2a.7.7,0,0,1-.71-.694V41.01a.694.694,0,0,1,.71-.694h1.378a.694.694,0,0,1,.694.694v3.326H59.35V41.01a.694.694,0,0,1,.694-.694h1.378a.7.7,0,0,1,.71.694v9.184a.7.7,0,0,1-.71.694H60.05a.69.69,0,0,1-.49-.194.689.689,0,0,1-.209-.484Z" transform="translate(65.082 12.47)" fill="#646464"/>
      <path id="Контур_1740" data-name="Контур 1740" d="M48.5,38.959H44.3v3.108a.57.57,0,0,1-.575.559H42.591a.585.585,0,0,1-.585-.575V34.493a.575.575,0,0,1,.585-.575h1.134a.57.57,0,0,1,.575.575v2.745h4.191V34.493a.57.57,0,0,1,.575-.575H50.2a.575.575,0,0,1,.585.575v7.584a.58.58,0,0,1-.174.409.582.582,0,0,1-.412.166H49.066a.57.57,0,0,1-.575-.559Z" transform="translate(53.092 4.384)" fill="#646464"/>
      <path id="Контур_1741" data-name="Контур 1741" d="M55.192,33.918a.565.565,0,0,1,.575.575v.575a.564.564,0,0,1-.575.575H52.473v6.444a.57.57,0,0,1-.575.559h-1.15a.57.57,0,0,1-.58-.559V35.638H47.448a.564.564,0,0,1-.575-.575v-.57a.564.564,0,0,1,.575-.575Z" transform="translate(59.244 4.384)" fill="#646464"/>
      <path id="Контур_1742" data-name="Контур 1742" d="M52.367,42.652a.58.58,0,0,1-.575-.575v-7.6a.57.57,0,0,1,.575-.56h1.15a.571.571,0,0,1,.575.575v6.434h4.092V34.478a.57.57,0,0,1,.575-.56h1.15a.57.57,0,0,1,.575.575v6.434h.663a.575.575,0,0,1,.565.585v.575a.58.58,0,0,1-.575.575Z" transform="translate(65.461 4.384)" fill="#646464"/>
      <path id="Контур_1743" data-name="Контур 1743" d="M42.026,39.594,57.9,23.924l15.9,15.67Z" transform="translate(53.118 -8.249)" fill="#646464"/>
    </g>
    <g id="Sberbank" transform="translate(989 2971)">
      <path id="Контур_1744" data-name="Контур 1744" d="M30.393,47.354a10.069,10.069,0,0,0,3.841,2.6,14.521,14.521,0,0,0,5.5.934,23.9,23.9,0,0,0,2.906-.208,8.044,8.044,0,0,0,2.388-.623c.726-.208,1.35-.519,1.972-.726.519-.312,1.038-.519,1.453-.727l-.727-1.557-1.246.623c-.415.208-.83.311-1.35.519a7.86,7.86,0,0,1-1.661.312,13.95,13.95,0,0,1-2.18.1,7.014,7.014,0,0,1-3.841-.934,7.494,7.494,0,0,1-2.388-2.388,12.441,12.441,0,0,1-1.142-3.633,31.588,31.588,0,0,1-.312-4.567c0-1.246.1-2.6.208-3.944a9.312,9.312,0,0,1,.934-3.529,7.2,7.2,0,0,1,2.076-2.6,6.64,6.64,0,0,1,3.737-1.038A6.38,6.38,0,0,1,44.3,27.112a5.414,5.414,0,0,1,1.972,3.529h1.661V25.555c-.519-.208-1.038-.415-1.661-.623a11.014,11.014,0,0,0-1.972-.415c-.726-.1-1.349-.1-2.076-.208-.623,0-1.246-.1-1.765-.1a16.255,16.255,0,0,0-5.813.934,10.687,10.687,0,0,0-3.944,2.7,11.189,11.189,0,0,0-2.284,4.256,19.536,19.536,0,0,0-.726,5.709,17.428,17.428,0,0,0,.726,5.4A8.19,8.19,0,0,0,30.393,47.354Z" transform="translate(35.004 -18.081)" fill="#646464"/>
      <path id="Контур_1745" data-name="Контур 1745" d="M81.495,49.821a8.833,8.833,0,0,0,3.426-1.038,5.789,5.789,0,0,0,2.388-2.6,9.81,9.81,0,0,0,.934-4.671,9.494,9.494,0,0,0-.623-3.633,5.718,5.718,0,0,0-1.972-2.491,10.033,10.033,0,0,0-3.529-1.35,26.062,26.062,0,0,0-5.294-.415h-2.18V27.5c0-.623.1-1.038.415-1.246a3.34,3.34,0,0,1,1.661-.208h3.114a16.094,16.094,0,0,1,2.388.1,2.671,2.671,0,0,1,1.453.519,2.834,2.834,0,0,1,.934,1.246,13.224,13.224,0,0,1,.727,2.18h1.35V24.389h-19.1v.83a2.111,2.111,0,0,0,.519.1,1.692,1.692,0,0,1,.623.311,1.691,1.691,0,0,1,.311.623c0,.311.1.623.1,1.038V47.122a2.889,2.889,0,0,1-.1,1.038.627.627,0,0,1-.311.623.887.887,0,0,1-.623.312,1.391,1.391,0,0,1-.519.1v.83h9.654A27.838,27.838,0,0,0,81.495,49.821Zm-6.332-1.868a.942.942,0,0,1-.311-.726c0-.312-.1-.727-.1-1.246v-10.8h2.18c1.972,0,3.426.519,4.256,1.557s1.246,2.7,1.246,4.983a11.635,11.635,0,0,1-.415,3.633,4.941,4.941,0,0,1-1.142,2.076,6.2,6.2,0,0,1-1.557.934,11.426,11.426,0,0,1-1.868.208c-.623-.1-1.142-.1-1.453-.208A2.085,2.085,0,0,1,75.163,47.952Z" transform="translate(85.423 -17.849)" fill="#646464"/>
      <path id="Контур_1746" data-name="Контур 1746" d="M66.365,49.2a2.115,2.115,0,0,0-.519-.1,1.1,1.1,0,0,1-.934-.934c0-.311-.1-.623-.1-1.038V39.959h2.6a23.02,23.02,0,0,0,3.841-.311,9.83,9.83,0,0,0,3.218-1.142,5.7,5.7,0,0,0,2.18-2.491,9.681,9.681,0,0,0,.83-4.256,9.894,9.894,0,0,0-.727-3.945,6.32,6.32,0,0,0-2.076-2.284,6.854,6.854,0,0,0-3.01-.934c-1.142-.1-2.284-.208-3.529-.208H57.956v.83a2.108,2.108,0,0,0,.519.1,1.692,1.692,0,0,1,.623.311,1.692,1.692,0,0,1,.311.623c0,.311.1.623.1,1.038V47.018a2.891,2.891,0,0,1-.1,1.038.628.628,0,0,1-.311.623.888.888,0,0,1-.623.311,1.389,1.389,0,0,1-.519.1v.83h8.408ZM64.911,27.3a1.318,1.318,0,0,1,.1-.623.539.539,0,0,1,.208-.415.877.877,0,0,1,.623-.208c.312,0,.623-.1,1.142-.1a11.425,11.425,0,0,1,1.868.208,4.794,4.794,0,0,1,1.557.934,5.663,5.663,0,0,1,1.038,1.765,10.154,10.154,0,0,1,.312,2.7,10.625,10.625,0,0,1-.934,4.982A3.522,3.522,0,0,1,67.506,38.3h-2.6Z" transform="translate(73.252 -17.849)" fill="#646464"/>
      <path id="Контур_1747" data-name="Контур 1747" d="M66.759,44.112H65.1a19.049,19.049,0,0,1-.623,2.388,2.513,2.513,0,0,1-.83,1.35,2.054,2.054,0,0,1-1.453.519,17.674,17.674,0,0,1-2.6.1,14.7,14.7,0,0,1-2.388-.1,3.447,3.447,0,0,1-1.349-.415,1.058,1.058,0,0,1-.519-.83,5.945,5.945,0,0,1-.1-1.453v-8.1H59.7c.415,0,.83.1,1.246.1a5.216,5.216,0,0,1,1.246.208,3.11,3.11,0,0,1,1.038.415V34.977a3.11,3.11,0,0,1-1.038.415,5.216,5.216,0,0,1-1.246.208,5.059,5.059,0,0,1-1.246.1H55.237V27.191a2.777,2.777,0,0,1,.208-1.142c.208-.208.519-.208,1.038-.208h2.8a16.1,16.1,0,0,1,2.388.1,2.669,2.669,0,0,1,1.453.519,2.832,2.832,0,0,1,.934,1.246,13.2,13.2,0,0,1,.727,2.18h1.35v-5.5H48.282v.83a2.111,2.111,0,0,0,.519.1,1.692,1.692,0,0,1,.623.311,1.692,1.692,0,0,1,.311.623c0,.311.1.623.1,1.038V47.018a2.89,2.89,0,0,1-.1,1.038.628.628,0,0,1-.311.623.888.888,0,0,1-.623.311,1.388,1.388,0,0,1-.519.1v.83H66.759Z" transform="translate(61.024 -17.849)" fill="#646464"/>
      <path id="Контур_1748" data-name="Контур 1748" d="M51.679,49.821A8.834,8.834,0,0,0,55.1,48.783a6.667,6.667,0,0,0,2.491-2.6,9.81,9.81,0,0,0,.934-4.671,9.489,9.489,0,0,0-.623-3.633,5.717,5.717,0,0,0-1.972-2.491,10.033,10.033,0,0,0-3.529-1.35,26.062,26.062,0,0,0-5.294-.415h-2.18V27.5c0-.623.1-1.038.415-1.246a3.34,3.34,0,0,1,1.661-.208h3.114a16.094,16.094,0,0,1,2.388.1,2.67,2.67,0,0,1,1.453.519,2.833,2.833,0,0,1,.934,1.246,13.2,13.2,0,0,1,.727,2.18h1.35V24.389h-19.1v.83a2.112,2.112,0,0,0,.519.1,1.692,1.692,0,0,1,.623.311,1.692,1.692,0,0,1,.311.623c0,.311.1.623.1,1.038V47.018a3.2,3.2,0,0,1-.1,1.038.628.628,0,0,1-.311.623.888.888,0,0,1-.623.311,1.388,1.388,0,0,1-.519.1v.934h9.654A26.472,26.472,0,0,0,51.679,49.821Zm-6.332-1.868a.942.942,0,0,1-.311-.726c0-.312-.1-.727-.1-1.246v-10.8h2.18c1.972,0,3.426.519,4.256,1.557s1.246,2.7,1.246,4.983a11.628,11.628,0,0,1-.415,3.633,4.936,4.936,0,0,1-1.142,2.076,6.2,6.2,0,0,1-1.557.934,11.427,11.427,0,0,1-1.868.208c-.623-.1-1.038-.1-1.453-.208A2.086,2.086,0,0,1,45.347,47.952Z" transform="translate(47.869 -17.849)" fill="#646464"/>
      <path id="Контур_1749" data-name="Контур 1749" d="M215.8,38.924H27.6v2.491H215.8Z" transform="translate(34.888 0.522)" fill="#646464"/>
      <path id="Контур_1750" data-name="Контур 1750" d="M104.953,40.259c.518.726.935,1.349,1.453,1.972.414.623.933,1.246,1.349,1.869a20.98,20.98,0,0,0,1.349,1.868,23.434,23.434,0,0,1,1.349,2.076,17.969,17.969,0,0,1,1.037,1.972l8.721.1c-.935-.934-1.764-1.869-2.7-2.8-.831-.934-1.558-1.765-2.076-2.284q-1.246-1.4-2.18-2.491c-.727-.83-1.349-1.557-1.972-2.284s-1.245-1.557-1.766-2.284-1.141-1.661-1.659-2.491l.414-.519c.623-.83,1.349-1.661,2.18-2.7a36.358,36.358,0,0,1,2.594-3.01,35.449,35.449,0,0,1,2.7-2.8,29.571,29.571,0,0,1,2.388-1.972h-6.02a15.785,15.785,0,0,1-.935,1.869,21,21,0,0,1-1.453,2.388c-.518.83-1.141,1.765-1.662,2.7-.623.934-1.141,1.765-1.764,2.6s-1.141,1.661-1.662,2.284c-.518.727-.933,1.246-1.245,1.765Q104.173,39.169,104.953,40.259Z" transform="translate(130.684 -17.733)" fill="#646464"/>
      <path id="Контур_1751" data-name="Контур 1751" d="M108.456,49.2a2.126,2.126,0,0,0-.518-.1,1.663,1.663,0,0,1-.623-.312A1.686,1.686,0,0,1,107,48.16c0-.311-.1-.623-.1-1.038V27.4a2.883,2.883,0,0,1,.1-1.038.627.627,0,0,1,.312-.623,1.663,1.663,0,0,1,.623-.312,1.383,1.383,0,0,1,.518-.1v-.934h-8.408v.83a2.122,2.122,0,0,0,.518.1,1.1,1.1,0,0,1,.935.934c0,.311.1.623.1,1.038V47.018a2.884,2.884,0,0,1-.1,1.038.627.627,0,0,1-.312.623.886.886,0,0,1-.623.311,1.381,1.381,0,0,1-.518.1v.83h8.408Z" transform="translate(126.453 -17.849)" fill="#646464"/>
      <path id="Контур_1752" data-name="Контур 1752" d="M82.049,46.856c.312-1.453.934-3.529,1.765-6.124h8.2l1.142,3.322A28.6,28.6,0,0,1,94.3,47.791a9.394,9.394,0,0,1,.519,2.284h6.54c-.312-.519-.623-1.246-1.038-2.076a28.9,28.9,0,0,1-1.453-3.633L92.949,27.549a8.616,8.616,0,0,1-.519-1.868c-.1-.519-.1-.934-.208-1.246h-7.37v.83a2.115,2.115,0,0,0,.519.1,1.7,1.7,0,0,1,.623.312,1.691,1.691,0,0,1,.311.623v.519a3.952,3.952,0,0,1-.311,1.661L81.842,38.656c-.727,1.869-1.453,3.529-1.972,4.775s-1.038,2.388-1.349,3.218c-.415.83-.727,1.557-1.038,2.076s-.519.934-.727,1.35h4.671C81.53,49.347,81.738,48.309,82.049,46.856Zm5.917-18.27,3.426,10.381H84.333Z" transform="translate(97.013 -17.791)" fill="#646464"/>
      <path id="Контур_1753" data-name="Контур 1753" d="M96.672,49.2h-.208a2.118,2.118,0,0,0-.519-.1,1.1,1.1,0,0,1-.934-.934c0-.311-.1-.623-.1-1.038V37.26h9.965v9.758a2.9,2.9,0,0,1-.1,1.038.628.628,0,0,1-.312.623.887.887,0,0,1-.623.311,1.387,1.387,0,0,1-.519.1v.83h8.408v-.83a2.109,2.109,0,0,0-.519-.1,1.1,1.1,0,0,1-.934-.934c0-.312-.1-.623-.1-1.038V27.191a2.9,2.9,0,0,1,.1-1.038.628.628,0,0,1,.312-.623,1.688,1.688,0,0,1,.623-.312,1.39,1.39,0,0,1,.519-.1v-.727h-8.2v.83a2.108,2.108,0,0,0,.519.1,1.689,1.689,0,0,1,.623.311,1.691,1.691,0,0,1,.312.623c0,.311.1.623.1,1.038v8.2H95.115V27.3a2.9,2.9,0,0,1,.1-1.038.628.628,0,0,1,.312-.623,1.688,1.688,0,0,1,.623-.311,1.387,1.387,0,0,1,.519-.1v-.83H88.264v.83a2.108,2.108,0,0,0,.519.1,1.688,1.688,0,0,1,.623.311,1.688,1.688,0,0,1,.312.623c0,.311.1.623.1,1.038V47.122a3.2,3.2,0,0,1-.1,1.038.627.627,0,0,1-.312.623.886.886,0,0,1-.623.312,1.39,1.39,0,0,1-.519.1v.83h8.408Z" transform="translate(111.559 -17.849)" fill="#646464"/>
      <path id="Контур_1754" data-name="Контур 1754" d="M45.073,26.8l-1.557-2.18-28.754,16.5L.852,33.13a12.68,12.68,0,0,0-.623,2.7l14.636,8.408Z" transform="translate(0.29 -17.559)" fill="#646464"/>
      <path id="Контур_1755" data-name="Контур 1755" d="M15.052,44.8.1,36.185A8.93,8.93,0,0,0,0,37.846a24.705,24.705,0,1,0,49.411,0,23.851,23.851,0,0,0-2.7-11.211Z" transform="translate(0 -15.009)" fill="#646464"/>
      <path id="Контур_1756" data-name="Контур 1756" d="M40.732,24.744c-.726-.727-1.453-1.246-2.18-1.869L13.951,37.1,2.117,30.35c-.415.726-.83,1.557-1.246,2.387l12.976,7.474Z" transform="translate(1.101 -19.761)" fill="#646464"/>
      <path id="Контур_1757" data-name="Контур 1757" d="M34.554,22.953A25.305,25.305,0,0,0,31.648,21.5l-19.2,11.107L3.828,27.728c-.623.623-1.142,1.35-1.765,2.076L12.34,35.721Z" transform="translate(2.608 -21.5)" fill="#646464"/>
    </g>
    <g id="VTB" transform="translate(1330 2975)">
      <path id="Контур_1758" data-name="Контур 1758" d="M7.29,22,5.466,27H30.738l1.824-5ZM4.554,29.492,2.73,34.486H28l1.824-4.994Zm-2.73,7.492L0,41.978H25.271l1.822-4.994Z" transform="translate(0 -22)" fill="#646464" fill-rule="evenodd"/>
      <g id="Сгруппировать_1005" data-name="Сгруппировать 1005" transform="translate(37.915 7.588)">
        <path id="Контур_1759" data-name="Контур 1759" d="M32.558,39.645v.105a10.653,10.653,0,0,1,2.836,1.641,7.247,7.247,0,0,1,2.574,5.982c0,4.183-2.206,7.2-5.831,8.154a15.354,15.354,0,0,1-4.413.424H16.747v-30.6h9.717a17.856,17.856,0,0,1,4.569.423c3.52.953,5.831,3.389,5.831,7.253A6.8,6.8,0,0,1,34.921,38,7.36,7.36,0,0,1,32.558,39.645ZM22.84,42.874v8.047h4.2a4.5,4.5,0,0,0,3.257-.9A4.014,4.014,0,0,0,31.507,46.9a4.385,4.385,0,0,0-.788-2.647c-.893-1.112-2-1.377-3.886-1.377Zm-.053-5.294H26.2a7.271,7.271,0,0,0,2.1-.159,3.342,3.342,0,0,0,2.312-3.441A3.092,3.092,0,0,0,28.3,30.592a8.277,8.277,0,0,0-2.311-.212h-3.2Zm24.32,18.371V30.486H38.336V25.352H62.708l-1.733,5.134H53.2V55.951Zm17.491,0v-30.6H84.349l-1.733,5.134H70.64v6.777h4.885c3.939,0,5.988.953,7.406,2.17a9.04,9.04,0,0,1,2.994,7.254,8.806,8.806,0,0,1-3.572,7.57c-1.89,1.323-3.886,1.695-7.931,1.695Zm6.041-5.136h4.57c1.733,0,2.783-.424,3.519-1.377a4.451,4.451,0,0,0,.893-2.912,4.045,4.045,0,0,0-1.575-3.494,4.526,4.526,0,0,0-2.889-.74H70.64Z" transform="translate(-16.747 -25.352)" fill="#646464" fill-rule="evenodd"/>
      </g>
    </g>
  </g>
</svg>
