<svg id="Delivery_Club" xmlns="http://www.w3.org/2000/svg" width="181.006" height="58.561" viewBox="0 0 181.006 58.561">
  <path id="Контур_1688" data-name="Контур 1688" d="M31.1,62.307c-.1-.908.453-5.379.453-5.379s1.1.186,2.17.3,2.781.212,2.781.212-.924,3.354-.388,4.12c1.241,1.77,8.025,6.14,9.581,7.895a19.182,19.182,0,0,0,2.547,2.218c.687.585,2.9.652,3.485,1.238.39.423.866,1.655.627,1.878a20.745,20.745,0,0,1-4.112.119,2.864,2.864,0,0,1-1.408-.62.958.958,0,0,1-1.139.146c-1.167-.583-.992-1.786-1.673-2.761-.39-.39-6.091-4.15-9.765-6.228C31.106,63.665,31.247,63.69,31.1,62.307ZM8.429,50.734c-.683-.609-3.207,1.558-3.928,1.4s-.016-1.946-.655-1.837c-.867.148-1.1,2.182-1.876,2.34C.714,53.112,0,51.226,0,48.976A6.85,6.85,0,0,1,3.517,42.7a12.861,12.861,0,0,1,9.868-.919c2.964-1.591,6.864-6.21,15.549-6.426S40.871,39.5,42.717,38.453a4.8,4.8,0,0,0,2.069-5.147c-.769-3.362-2.261-5.191-3.456-8.185a7.832,7.832,0,0,1,.154-6.18,3.876,3.876,0,0,1,3-1.925c1.552-.174,1.961,1.134,3.047,1.491s3.408.577,3.589,1.407-2.6,1.483-3.236,1.415c-1.479-.159-2.412.839-2.332,2.6.1,2.242.621,3.043,2.682,6.235s2.042,8.5-.59,12.2a18.233,18.233,0,0,0-2.3,3.238c-.472.991,0-1.006,0,2.949s-1.988,5.859-4.586,6.695c-3.5,1.125-6.517.7-9.606.339-4.274-.505-7.618-.446-9.364,0-1.513.388-6.247,3.067-6.83,4.314-.309.673-1.98,7.679-2.286,9.217a11.7,11.7,0,0,1-.347,2.456c-.32.623-4.216,3.087-5.538,3.593-.609.234-1.84.533-1.986.318-.862-1-.859-1.226,1.646-3.039-.875-1.82,1.649-2.265,2.392-3.162.81-.976,2.28-11.607,2.784-12.991s2.47-1.861,3.267-3.093c-.377-.437-.9-.2-2.281.184-1.185.335-3.66,1.219-4.185.777S9.112,51.343,8.429,50.734Z" transform="translate(0 -17)" fill="#646464" fill-rule="evenodd"/>
  <path id="Контур_1689" data-name="Контур 1689" d="M42.627,41.274H34.6V20.709h8c6.357,0,10.768,4.1,10.768,10.267C53.365,37.2,48.954,41.274,42.627,41.274ZM42.6,37.42a6.124,6.124,0,0,0,6.357-6.444c0-3.607-2.19-6.413-6.327-6.413H38.916V37.42Zm20.654,4.224A7.489,7.489,0,0,1,55.4,33.813a7.549,7.549,0,0,1,7.6-7.8c4.41,0,7.361,3.33,7.361,8.171v.925H59.448a3.951,3.951,0,0,0,4.228,3.33,6.1,6.1,0,0,0,3.893-1.449l1.734,2.59A9.079,9.079,0,0,1,63.251,41.644Zm3.407-9.25a3.651,3.651,0,0,0-7.24,0ZM77.3,41.644c-2.707,0-4.137-1.418-4.137-4.1V20.709H77.03V36.5c0,.956.487,1.665,1.338,1.665a1.928,1.928,0,0,0,1.338-.463l.821,2.991A4.785,4.785,0,0,1,77.3,41.644Zm6.844-16.866a2.321,2.321,0,0,1-2.281-2.343,2.3,2.3,0,1,1,4.593,0A2.327,2.327,0,0,1,84.148,24.779Zm1.947,16.5H82.231V26.382h3.863Zm11.8,0H93.729l-5.9-14.892h4.137L95.8,36.742l3.863-10.36H103.8Zm14.54.37a7.489,7.489,0,0,1-7.848-7.831,7.549,7.549,0,0,1,7.6-7.8c4.41,0,7.361,3.33,7.361,8.171v.925h-10.92a3.951,3.951,0,0,0,4.228,3.33,6.1,6.1,0,0,0,3.893-1.449l1.734,2.59A9.079,9.079,0,0,1,112.436,41.644Zm3.407-9.25a3.651,3.651,0,0,0-7.24,0Zm10.372,8.88h-3.863V26.382h3.863v2a6.413,6.413,0,0,1,4.684-2.374v3.823a4.941,4.941,0,0,0-4.684,1.6Zm13.049,6.043a8.783,8.783,0,0,1-6.144-2.22l1.734-2.806a5.746,5.746,0,0,0,4.41,1.819,3.715,3.715,0,0,0,3.954-3.823V38.746A6.945,6.945,0,0,1,138.048,41c-3.224,0-4.745-1.788-4.745-4.687V26.382h3.863v8.387c0,2.066,1.065,2.744,2.707,2.744a4.306,4.306,0,0,0,3.346-1.7V26.382h3.863V40.288C147.082,44.759,143.949,47.318,139.264,47.318ZM44.109,69.675c-6.114,0-10.829-4.317-10.829-10.637C33.281,52.686,38,48.4,44.109,48.4a9.206,9.206,0,0,1,8.456,5.026l-3.711,1.85a5.482,5.482,0,0,0-4.745-2.991c-3.711,0-6.388,2.867-6.388,6.752S40.4,65.79,44.109,65.79A5.482,5.482,0,0,0,48.855,62.8l3.711,1.819A9.28,9.28,0,0,1,44.109,69.675Zm15.43,0c-2.707,0-4.137-1.418-4.137-4.1V48.739h3.863V64.525c0,.956.487,1.665,1.338,1.665a1.928,1.928,0,0,0,1.338-.463l.821,2.991A4.785,4.785,0,0,1,59.54,69.675Zm18.707-.37H74.383V67.424a6.945,6.945,0,0,1-5.171,2.251c-3.224,0-4.745-1.788-4.745-4.687V54.412H68.33v9.034c0,2.066,1.065,2.744,2.707,2.744a4.306,4.306,0,0,0,3.346-1.7V54.412h3.863Zm7.7-4.779a4.341,4.341,0,0,0,3.346,1.665c2.22,0,3.711-1.758,3.711-4.348,0-2.559-1.49-4.317-3.711-4.317a4.3,4.3,0,0,0-3.346,1.727Zm0,4.779H82.079V48.739h3.863v7.585a5.547,5.547,0,0,1,4.532-2.282c3.741,0,6.509,2.96,6.509,7.8,0,5-2.8,7.832-6.509,7.832a5.677,5.677,0,0,1-4.532-2.282Z" transform="translate(33.924 -13.816)" fill="#646464" fill-rule="evenodd"/>
</svg>
