<svg id="Home" xmlns="http://www.w3.org/2000/svg" width="80.337" height="52.503" viewBox="0 0 80.337 52.503">
  <path id="Контур_1704" data-name="Контур 1704" d="M26.638,52.728,23.8,48.383H21.039v4.345H17.355V37.769h6.518c3.684,0,6.163,1.994,6.163,5.272a5.089,5.089,0,0,1-2.479,4.488l3.471,5.2ZM20.97,45.106h2.763c1.416,0,2.551-.783,2.551-1.994s-1.134-1.994-2.551-1.994H20.97Zm15.444-1.353H43v3.135H36.414v2.565h7.51v3.206H32.659V37.7H43.923V40.9h-7.51Zm24.016,1.5c0,4.417-3.33,7.551-8.005,7.551H46.473V37.841h5.951C57.1,37.841,60.43,40.831,60.43,45.249Zm-3.755,0a4.1,4.1,0,0,0-4.251-4.06H50.157v8.263h2.268A4.169,4.169,0,0,0,56.675,45.249Zm9.492-7.408V52.8H62.484V37.841Zm14.169,3.276h-4.25V52.728H72.4V41.117h-4.25V37.769H80.337ZM11.264,47.386a3.516,3.516,0,0,1-3.4,2.208,4.031,4.031,0,0,1-4.109-4.274,4.031,4.031,0,0,1,4.109-4.274,3.423,3.423,0,0,1,3.4,2.209h3.9a7.16,7.16,0,0,0-7.3-5.7,7.766,7.766,0,1,0,0,15.53,7.16,7.16,0,0,0,7.3-5.7Zm2.55,19.661c0,2.494-1.983,4.131-5.313,4.131H.992V56.218H8.076c3.259,0,5.1,1.568,5.1,3.99a3.464,3.464,0,0,1-2.054,3.277A3.483,3.483,0,0,1,13.814,67.047ZM4.746,59.281v3.135H7.51c1.416,0,2.2-.712,2.2-1.637s-.779-1.425-2.2-1.425H4.746ZM10.2,66.549c0-.927-.779-1.425-2.125-1.425h-3.4v2.992h3.33C9.563,68.115,10.2,67.474,10.2,66.549Zm15.09,2.065h-6.3l-.993,2.565H14.026l6.306-14.96h3.541l6.306,14.96H26.213Zm-1.2-3.063L22.1,60.494,20.12,65.551Zm21.04-9.332v14.96H42.294l-7.157-8.192v8.192H31.455V56.218h2.833l7.157,8.407V56.217Zm9,9.4-2.2,2.563v3.065H48.245V56.292h3.684V63.13l5.952-6.839h4.391L56.6,62.845l6.163,8.407h-4.6ZM14.311,19.39v14.96H10.627V28.721H4.6v5.629H.921V19.39H4.6v5.984h6.022V19.39Zm42.435,14.96H53.062V26.87L49.732,32H47.678l-3.33-5.2v7.551H40.664V19.39h2.763l5.243,7.978,5.24-7.978h2.763v14.96Zm6.8-9.047h6.588v3.132H63.547V31h7.51v3.206H59.792V19.247H71.057v3.206h-7.51Z" transform="translate(0 -18.749)" fill="#646464"/>
  <path id="Контур_1705" data-name="Контур 1705" d="M18.977,19A10.406,10.406,0,0,0,8.35,29.187,9.545,9.545,0,0,0,9.98,34.6h5.1a6.446,6.446,0,1,1,7.793,0h5.1A10.131,10.131,0,0,0,29.6,29.187,10.4,10.4,0,0,0,18.977,19Z" transform="translate(8.511 -19)" fill="#646464"/>
  <path id="Контур_1706" data-name="Контур 1706" d="M11.893,24.856a3.632,3.632,0,0,0,6.943,0Z" transform="translate(12.123 -13.031)" fill="#646464"/>
</svg>
