<svg id="Sberbank" xmlns="http://www.w3.org/2000/svg" width="250.895" height="47.542" viewBox="0 0 250.895 47.542">
  <path id="Контур_1744" data-name="Контур 1744" d="M30.393,47.354a10.069,10.069,0,0,0,3.841,2.6,14.521,14.521,0,0,0,5.5.934,23.9,23.9,0,0,0,2.906-.208,8.044,8.044,0,0,0,2.388-.623c.726-.208,1.35-.519,1.972-.726.519-.312,1.038-.519,1.453-.727l-.727-1.557-1.246.623c-.415.208-.83.311-1.35.519a7.86,7.86,0,0,1-1.661.312,13.95,13.95,0,0,1-2.18.1,7.014,7.014,0,0,1-3.841-.934,7.494,7.494,0,0,1-2.388-2.388,12.441,12.441,0,0,1-1.142-3.633,31.588,31.588,0,0,1-.312-4.567c0-1.246.1-2.6.208-3.944a9.312,9.312,0,0,1,.934-3.529,7.2,7.2,0,0,1,2.076-2.6,6.64,6.64,0,0,1,3.737-1.038A6.38,6.38,0,0,1,44.3,27.112a5.414,5.414,0,0,1,1.972,3.529h1.661V25.555c-.519-.208-1.038-.415-1.661-.623a11.014,11.014,0,0,0-1.972-.415c-.726-.1-1.349-.1-2.076-.208-.623,0-1.246-.1-1.765-.1a16.255,16.255,0,0,0-5.813.934,10.687,10.687,0,0,0-3.944,2.7,11.189,11.189,0,0,0-2.284,4.256,19.536,19.536,0,0,0-.726,5.709,17.428,17.428,0,0,0,.726,5.4A8.19,8.19,0,0,0,30.393,47.354Z" transform="translate(35.004 -18.081)" fill="#646464"/>
  <path id="Контур_1745" data-name="Контур 1745" d="M81.495,49.821a8.833,8.833,0,0,0,3.426-1.038,5.789,5.789,0,0,0,2.388-2.6,9.81,9.81,0,0,0,.934-4.671,9.494,9.494,0,0,0-.623-3.633,5.718,5.718,0,0,0-1.972-2.491,10.033,10.033,0,0,0-3.529-1.35,26.062,26.062,0,0,0-5.294-.415h-2.18V27.5c0-.623.1-1.038.415-1.246a3.34,3.34,0,0,1,1.661-.208h3.114a16.094,16.094,0,0,1,2.388.1,2.671,2.671,0,0,1,1.453.519,2.834,2.834,0,0,1,.934,1.246,13.224,13.224,0,0,1,.727,2.18h1.35V24.389h-19.1v.83a2.111,2.111,0,0,0,.519.1,1.692,1.692,0,0,1,.623.311,1.691,1.691,0,0,1,.311.623c0,.311.1.623.1,1.038V47.122a2.889,2.889,0,0,1-.1,1.038.627.627,0,0,1-.311.623.887.887,0,0,1-.623.312,1.391,1.391,0,0,1-.519.1v.83h9.654A27.838,27.838,0,0,0,81.495,49.821Zm-6.332-1.868a.942.942,0,0,1-.311-.726c0-.312-.1-.727-.1-1.246v-10.8h2.18c1.972,0,3.426.519,4.256,1.557s1.246,2.7,1.246,4.983a11.635,11.635,0,0,1-.415,3.633,4.941,4.941,0,0,1-1.142,2.076,6.2,6.2,0,0,1-1.557.934,11.426,11.426,0,0,1-1.868.208c-.623-.1-1.142-.1-1.453-.208A2.085,2.085,0,0,1,75.163,47.952Z" transform="translate(85.423 -17.849)" fill="#646464"/>
  <path id="Контур_1746" data-name="Контур 1746" d="M66.365,49.2a2.115,2.115,0,0,0-.519-.1,1.1,1.1,0,0,1-.934-.934c0-.311-.1-.623-.1-1.038V39.959h2.6a23.02,23.02,0,0,0,3.841-.311,9.83,9.83,0,0,0,3.218-1.142,5.7,5.7,0,0,0,2.18-2.491,9.681,9.681,0,0,0,.83-4.256,9.894,9.894,0,0,0-.727-3.945,6.32,6.32,0,0,0-2.076-2.284,6.854,6.854,0,0,0-3.01-.934c-1.142-.1-2.284-.208-3.529-.208H57.956v.83a2.108,2.108,0,0,0,.519.1,1.692,1.692,0,0,1,.623.311,1.692,1.692,0,0,1,.311.623c0,.311.1.623.1,1.038V47.018a2.891,2.891,0,0,1-.1,1.038.628.628,0,0,1-.311.623.888.888,0,0,1-.623.311,1.389,1.389,0,0,1-.519.1v.83h8.408ZM64.911,27.3a1.318,1.318,0,0,1,.1-.623.539.539,0,0,1,.208-.415.877.877,0,0,1,.623-.208c.312,0,.623-.1,1.142-.1a11.425,11.425,0,0,1,1.868.208,4.794,4.794,0,0,1,1.557.934,5.663,5.663,0,0,1,1.038,1.765,10.154,10.154,0,0,1,.312,2.7,10.625,10.625,0,0,1-.934,4.982A3.522,3.522,0,0,1,67.506,38.3h-2.6Z" transform="translate(73.252 -17.849)" fill="#646464"/>
  <path id="Контур_1747" data-name="Контур 1747" d="M66.759,44.112H65.1a19.049,19.049,0,0,1-.623,2.388,2.513,2.513,0,0,1-.83,1.35,2.054,2.054,0,0,1-1.453.519,17.674,17.674,0,0,1-2.6.1,14.7,14.7,0,0,1-2.388-.1,3.447,3.447,0,0,1-1.349-.415,1.058,1.058,0,0,1-.519-.83,5.945,5.945,0,0,1-.1-1.453v-8.1H59.7c.415,0,.83.1,1.246.1a5.216,5.216,0,0,1,1.246.208,3.11,3.11,0,0,1,1.038.415V34.977a3.11,3.11,0,0,1-1.038.415,5.216,5.216,0,0,1-1.246.208,5.059,5.059,0,0,1-1.246.1H55.237V27.191a2.777,2.777,0,0,1,.208-1.142c.208-.208.519-.208,1.038-.208h2.8a16.1,16.1,0,0,1,2.388.1,2.669,2.669,0,0,1,1.453.519,2.832,2.832,0,0,1,.934,1.246,13.2,13.2,0,0,1,.727,2.18h1.35v-5.5H48.282v.83a2.111,2.111,0,0,0,.519.1,1.692,1.692,0,0,1,.623.311,1.692,1.692,0,0,1,.311.623c0,.311.1.623.1,1.038V47.018a2.89,2.89,0,0,1-.1,1.038.628.628,0,0,1-.311.623.888.888,0,0,1-.623.311,1.388,1.388,0,0,1-.519.1v.83H66.759Z" transform="translate(61.024 -17.849)" fill="#646464"/>
  <path id="Контур_1748" data-name="Контур 1748" d="M51.679,49.821A8.834,8.834,0,0,0,55.1,48.783a6.667,6.667,0,0,0,2.491-2.6,9.81,9.81,0,0,0,.934-4.671,9.489,9.489,0,0,0-.623-3.633,5.717,5.717,0,0,0-1.972-2.491,10.033,10.033,0,0,0-3.529-1.35,26.062,26.062,0,0,0-5.294-.415h-2.18V27.5c0-.623.1-1.038.415-1.246a3.34,3.34,0,0,1,1.661-.208h3.114a16.094,16.094,0,0,1,2.388.1,2.67,2.67,0,0,1,1.453.519,2.833,2.833,0,0,1,.934,1.246,13.2,13.2,0,0,1,.727,2.18h1.35V24.389h-19.1v.83a2.112,2.112,0,0,0,.519.1,1.692,1.692,0,0,1,.623.311,1.692,1.692,0,0,1,.311.623c0,.311.1.623.1,1.038V47.018a3.2,3.2,0,0,1-.1,1.038.628.628,0,0,1-.311.623.888.888,0,0,1-.623.311,1.388,1.388,0,0,1-.519.1v.934h9.654A26.472,26.472,0,0,0,51.679,49.821Zm-6.332-1.868a.942.942,0,0,1-.311-.726c0-.312-.1-.727-.1-1.246v-10.8h2.18c1.972,0,3.426.519,4.256,1.557s1.246,2.7,1.246,4.983a11.628,11.628,0,0,1-.415,3.633,4.936,4.936,0,0,1-1.142,2.076,6.2,6.2,0,0,1-1.557.934,11.427,11.427,0,0,1-1.868.208c-.623-.1-1.038-.1-1.453-.208A2.086,2.086,0,0,1,45.347,47.952Z" transform="translate(47.869 -17.849)" fill="#646464"/>
  <path id="Контур_1749" data-name="Контур 1749" d="M215.8,38.924H27.6v2.491H215.8Z" transform="translate(34.888 0.522)" fill="#646464"/>
  <path id="Контур_1750" data-name="Контур 1750" d="M104.953,40.259c.518.726.935,1.349,1.453,1.972.414.623.933,1.246,1.349,1.869a20.98,20.98,0,0,0,1.349,1.868,23.434,23.434,0,0,1,1.349,2.076,17.969,17.969,0,0,1,1.037,1.972l8.721.1c-.935-.934-1.764-1.869-2.7-2.8-.831-.934-1.558-1.765-2.076-2.284q-1.246-1.4-2.18-2.491c-.727-.83-1.349-1.557-1.972-2.284s-1.245-1.557-1.766-2.284-1.141-1.661-1.659-2.491l.414-.519c.623-.83,1.349-1.661,2.18-2.7a36.358,36.358,0,0,1,2.594-3.01,35.449,35.449,0,0,1,2.7-2.8,29.571,29.571,0,0,1,2.388-1.972h-6.02a15.785,15.785,0,0,1-.935,1.869,21,21,0,0,1-1.453,2.388c-.518.83-1.141,1.765-1.662,2.7-.623.934-1.141,1.765-1.764,2.6s-1.141,1.661-1.662,2.284c-.518.727-.933,1.246-1.245,1.765Q104.173,39.169,104.953,40.259Z" transform="translate(130.684 -17.733)" fill="#646464"/>
  <path id="Контур_1751" data-name="Контур 1751" d="M108.456,49.2a2.126,2.126,0,0,0-.518-.1,1.663,1.663,0,0,1-.623-.312A1.686,1.686,0,0,1,107,48.16c0-.311-.1-.623-.1-1.038V27.4a2.883,2.883,0,0,1,.1-1.038.627.627,0,0,1,.312-.623,1.663,1.663,0,0,1,.623-.312,1.383,1.383,0,0,1,.518-.1v-.934h-8.408v.83a2.122,2.122,0,0,0,.518.1,1.1,1.1,0,0,1,.935.934c0,.311.1.623.1,1.038V47.018a2.884,2.884,0,0,1-.1,1.038.627.627,0,0,1-.312.623.886.886,0,0,1-.623.311,1.381,1.381,0,0,1-.518.1v.83h8.408Z" transform="translate(126.453 -17.849)" fill="#646464"/>
  <path id="Контур_1752" data-name="Контур 1752" d="M82.049,46.856c.312-1.453.934-3.529,1.765-6.124h8.2l1.142,3.322A28.6,28.6,0,0,1,94.3,47.791a9.394,9.394,0,0,1,.519,2.284h6.54c-.312-.519-.623-1.246-1.038-2.076a28.9,28.9,0,0,1-1.453-3.633L92.949,27.549a8.616,8.616,0,0,1-.519-1.868c-.1-.519-.1-.934-.208-1.246h-7.37v.83a2.115,2.115,0,0,0,.519.1,1.7,1.7,0,0,1,.623.312,1.691,1.691,0,0,1,.311.623v.519a3.952,3.952,0,0,1-.311,1.661L81.842,38.656c-.727,1.869-1.453,3.529-1.972,4.775s-1.038,2.388-1.349,3.218c-.415.83-.727,1.557-1.038,2.076s-.519.934-.727,1.35h4.671C81.53,49.347,81.738,48.309,82.049,46.856Zm5.917-18.27,3.426,10.381H84.333Z" transform="translate(97.013 -17.791)" fill="#646464"/>
  <path id="Контур_1753" data-name="Контур 1753" d="M96.672,49.2h-.208a2.118,2.118,0,0,0-.519-.1,1.1,1.1,0,0,1-.934-.934c0-.311-.1-.623-.1-1.038V37.26h9.965v9.758a2.9,2.9,0,0,1-.1,1.038.628.628,0,0,1-.312.623.887.887,0,0,1-.623.311,1.387,1.387,0,0,1-.519.1v.83h8.408v-.83a2.109,2.109,0,0,0-.519-.1,1.1,1.1,0,0,1-.934-.934c0-.312-.1-.623-.1-1.038V27.191a2.9,2.9,0,0,1,.1-1.038.628.628,0,0,1,.312-.623,1.688,1.688,0,0,1,.623-.312,1.39,1.39,0,0,1,.519-.1v-.727h-8.2v.83a2.108,2.108,0,0,0,.519.1,1.689,1.689,0,0,1,.623.311,1.691,1.691,0,0,1,.312.623c0,.311.1.623.1,1.038v8.2H95.115V27.3a2.9,2.9,0,0,1,.1-1.038.628.628,0,0,1,.312-.623,1.688,1.688,0,0,1,.623-.311,1.387,1.387,0,0,1,.519-.1v-.83H88.264v.83a2.108,2.108,0,0,0,.519.1,1.688,1.688,0,0,1,.623.311,1.688,1.688,0,0,1,.312.623c0,.311.1.623.1,1.038V47.122a3.2,3.2,0,0,1-.1,1.038.627.627,0,0,1-.312.623.886.886,0,0,1-.623.312,1.39,1.39,0,0,1-.519.1v.83h8.408Z" transform="translate(111.559 -17.849)" fill="#646464"/>
  <path id="Контур_1754" data-name="Контур 1754" d="M45.073,26.8l-1.557-2.18-28.754,16.5L.852,33.13a12.68,12.68,0,0,0-.623,2.7l14.636,8.408Z" transform="translate(0.29 -17.559)" fill="#646464"/>
  <path id="Контур_1755" data-name="Контур 1755" d="M15.052,44.8.1,36.185A8.93,8.93,0,0,0,0,37.846a24.705,24.705,0,1,0,49.411,0,23.851,23.851,0,0,0-2.7-11.211Z" transform="translate(0 -15.009)" fill="#646464"/>
  <path id="Контур_1756" data-name="Контур 1756" d="M40.732,24.744c-.726-.727-1.453-1.246-2.18-1.869L13.951,37.1,2.117,30.35c-.415.726-.83,1.557-1.246,2.387l12.976,7.474Z" transform="translate(1.101 -19.761)" fill="#646464"/>
  <path id="Контур_1757" data-name="Контур 1757" d="M34.554,22.953A25.305,25.305,0,0,0,31.648,21.5l-19.2,11.107L3.828,27.728c-.623.623-1.142,1.35-1.765,2.076L12.34,35.721Z" transform="translate(2.608 -21.5)" fill="#646464"/>
</svg>
