<svg xmlns="http://www.w3.org/2000/svg" width="134.023" height="18.203" viewBox="0 0 134.023 18.203">
  <path id="Контур_1760" data-name="Контур 1760" d="M13.3-14V0H11.1V-6.1H4.2V0H2V-14H4.2V-8.1h6.9V-14Zm11,14h-2V-1l-.132.127a4.174,4.174,0,0,1-.371.288,4.383,4.383,0,0,1-.6.361,4.2,4.2,0,0,1-.811.288A3.9,3.9,0,0,1,19.395.2a3.549,3.549,0,0,1-2.432-.85A2.534,2.534,0,0,1,16-2.6a2.8,2.8,0,0,1,.747-1.982A3.475,3.475,0,0,1,18.789-5.6L22.295-6.2a1.67,1.67,0,0,0-.562-1.279A2.042,2.042,0,0,0,20.293-8a2.988,2.988,0,0,0-1.382.317,2.4,2.4,0,0,0-.854.64l-.264.342L16.494-8q.059-.078.161-.2a4.877,4.877,0,0,1,.459-.43,5.693,5.693,0,0,1,.757-.552,4.412,4.412,0,0,1,1.06-.435,4.884,4.884,0,0,1,1.362-.19,4.073,4.073,0,0,1,2.881,1.04A3.356,3.356,0,0,1,24.3-6.2ZM19.7-1.6a2.5,2.5,0,0,0,1.909-.728A2.9,2.9,0,0,0,22.295-4.4v-.2l-3.105.5a1.565,1.565,0,0,0-.869.439,1.184,1.184,0,0,0-.332.859,1.049,1.049,0,0,0,.464.84A1.973,1.973,0,0,0,19.7-1.6ZM33.1,0V-3.6a4.058,4.058,0,0,1-2.4.7,3.7,3.7,0,0,1-2.769-1.05A3.888,3.888,0,0,1,26.895-6.8V-9.6h1.992v2.8a2.07,2.07,0,0,0,.581,1.5,1.9,1.9,0,0,0,1.421.6,3.4,3.4,0,0,0,1.167-.2,2.726,2.726,0,0,0,.8-.405l.244-.2V-9.6h1.992V0Zm12.49,0h-2V-1l-.132.127a4.174,4.174,0,0,1-.371.288,4.383,4.383,0,0,1-.6.361,4.2,4.2,0,0,1-.811.288A3.9,3.9,0,0,1,40.684.2a3.549,3.549,0,0,1-2.432-.85A2.534,2.534,0,0,1,37.285-2.6a2.8,2.8,0,0,1,.747-1.982A3.475,3.475,0,0,1,40.078-5.6L43.584-6.2a1.67,1.67,0,0,0-.562-1.279A2.042,2.042,0,0,0,41.582-8a2.988,2.988,0,0,0-1.382.317,2.4,2.4,0,0,0-.854.64l-.264.342L37.783-8q.059-.078.161-.2a4.877,4.877,0,0,1,.459-.43,5.693,5.693,0,0,1,.757-.552,4.412,4.412,0,0,1,1.06-.435,4.884,4.884,0,0,1,1.362-.19,4.073,4.073,0,0,1,2.881,1.04A3.356,3.356,0,0,1,45.586-6.2Zm-4.6-1.6A2.5,2.5,0,0,0,42.9-2.329,2.9,2.9,0,0,0,43.584-4.4v-.2l-3.105.5a1.565,1.565,0,0,0-.869.439,1.184,1.184,0,0,0-.332.859,1.049,1.049,0,0,0,.464.84A1.973,1.973,0,0,0,40.986-1.6Zm6.4-6.2V-9.6h8.594v1.8h-3.3V0H50.684V-7.8ZM59.775-1.7h2.2a1.551,1.551,0,0,0,1.143-.459A1.551,1.551,0,0,0,63.574-3.3a1.551,1.551,0,0,0-.459-1.143A1.551,1.551,0,0,0,61.973-4.9h-2.2Zm4.81-3.97A3.116,3.116,0,0,1,65.576-3.3a3.1,3.1,0,0,1-.991,2.368A3.668,3.668,0,0,1,61.973,0h-4.2V-9.6h2v3h2.2A3.657,3.657,0,0,1,64.585-5.669ZM73.77-7.8V0h-2V-9.6h8.7V0h-2V-7.8Zm14.59,8A4.292,4.292,0,0,1,87.314.068a3.9,3.9,0,0,1-.869-.317,5.44,5.44,0,0,1-.64-.391A4.61,4.61,0,0,1,85.4-.957L85.264-1.1V4.2h-2V-9.6h2v1.1q.137-.137.386-.361a4.585,4.585,0,0,1,1.06-.586,4.017,4.017,0,0,1,1.65-.361,4.435,4.435,0,0,1,3.306,1.46,4.924,4.924,0,0,1,1.4,3.54,4.924,4.924,0,0,1-1.4,3.54A4.435,4.435,0,0,1,88.359.2Zm1.826-7.256A2.7,2.7,0,0,0,88.164-8a2.7,2.7,0,0,0-2.021.938A3.187,3.187,0,0,0,85.264-4.8a3.187,3.187,0,0,0,.879,2.261,2.7,2.7,0,0,0,2.021.938,2.7,2.7,0,0,0,2.021-.937A3.187,3.187,0,0,0,91.064-4.8,3.187,3.187,0,0,0,90.186-7.061Zm11.582,4.531a3.159,3.159,0,0,0,.889-2.271,3.159,3.159,0,0,0-.889-2.271A2.824,2.824,0,0,0,99.658-8a2.839,2.839,0,0,0-2.114.928A3.149,3.149,0,0,0,96.65-4.8a3.149,3.149,0,0,0,.894,2.271,2.839,2.839,0,0,0,2.114.928A2.824,2.824,0,0,0,101.768-2.529Zm-5.62,1.235A4.8,4.8,0,0,1,94.658-4.8a4.813,4.813,0,0,1,1.489-3.511A4.8,4.8,0,0,1,99.658-9.8a4.8,4.8,0,0,1,3.511,1.494A4.813,4.813,0,0,1,104.658-4.8a4.8,4.8,0,0,1-1.489,3.506A4.8,4.8,0,0,1,99.658.2,4.8,4.8,0,0,1,96.147-1.294ZM115.742-4.1h-7.5a2.879,2.879,0,0,0,1,1.758,2.94,2.94,0,0,0,2.007.742,3.329,3.329,0,0,0,1.567-.381,3.43,3.43,0,0,0,1.03-.742l.3-.371,1.3,1.3q-.059.078-.181.22a5.393,5.393,0,0,1-.522.479,5.863,5.863,0,0,1-.85.6,5.731,5.731,0,0,1-1.167.479A5.026,5.026,0,0,1,111.25.2a4.777,4.777,0,0,1-3.521-1.5,4.94,4.94,0,0,1-1.479-3.6,4.72,4.72,0,0,1,1.44-3.462,4.715,4.715,0,0,1,3.457-1.44,4.558,4.558,0,0,1,3.359,1.343A4.564,4.564,0,0,1,115.85-5.1Zm-4.6-3.994a2.681,2.681,0,0,0-1.821.64A3.137,3.137,0,0,0,108.33-5.8h5.557a2.748,2.748,0,0,0-.908-1.655A2.69,2.69,0,0,0,111.143-8.1Zm15.4-1.5-3.7,4L126.836,0h-2.2l-3.1-4.3-1.5,1.6V0h-2V-9.6h2v4.3l4.1-4.3Zm.889,1.8V-9.6h8.594v1.8h-3.3V0h-1.992V-7.8Z" transform="translate(-2.002 14.004)" fill="#fff"/>
</svg>
