<svg id="instagram-logo" xmlns="http://www.w3.org/2000/svg" width="24.834" height="24.834" viewBox="0 0 24.834 24.834">
  <g id="Сгруппировать_868" data-name="Сгруппировать 868">
    <g id="Сгруппировать_867" data-name="Сгруппировать 867">
      <path id="Контур_1433" data-name="Контур 1433" d="M17.073,0H7.761A7.761,7.761,0,0,0,0,7.761v9.313a7.761,7.761,0,0,0,7.761,7.761h9.313a7.761,7.761,0,0,0,7.761-7.761V7.761A7.761,7.761,0,0,0,17.073,0Zm5.432,17.073a5.438,5.438,0,0,1-5.432,5.432H7.761a5.438,5.438,0,0,1-5.432-5.432V7.761A5.438,5.438,0,0,1,7.761,2.328h9.313a5.438,5.438,0,0,1,5.432,5.432Z" fill="#fff"/>
    </g>
  </g>
  <g id="Сгруппировать_870" data-name="Сгруппировать 870" transform="translate(6.208 6.208)">
    <g id="Сгруппировать_869" data-name="Сгруппировать 869">
      <path id="Контур_1434" data-name="Контур 1434" d="M134.208,128a6.208,6.208,0,1,0,6.208,6.208A6.209,6.209,0,0,0,134.208,128Zm0,10.089a3.88,3.88,0,1,1,3.88-3.88A3.886,3.886,0,0,1,134.208,138.089Z" transform="translate(-128 -128)" fill="#fff"/>
    </g>
  </g>
  <g id="Сгруппировать_872" data-name="Сгруппировать 872" transform="translate(18.264 4.916)">
    <g id="Сгруппировать_871" data-name="Сгруппировать 871">
      <circle id="Эллипс_8" data-name="Эллипс 8" cx="0.827" cy="0.827" r="0.827" fill="#fff"/>
    </g>
  </g>
</svg>
