<svg id="linkedin-logo" xmlns="http://www.w3.org/2000/svg" width="25.859" height="24.71" viewBox="0 0 25.859 24.71">
  <path id="LinkedIn" d="M25.859,24.707v9.56H20.316v-8.92c0-2.241-.8-3.77-2.808-3.77a3.033,3.033,0,0,0-2.844,2.028,3.792,3.792,0,0,0-.184,1.351v9.311H8.937s.075-15.107,0-16.673h5.544v2.363c-.011.018-.026.037-.036.054h.036v-.054a5.5,5.5,0,0,1,5-2.755C23.124,17.2,25.859,19.586,25.859,24.707ZM3.137,9.558a2.889,2.889,0,1,0-.074,5.762H3.1a2.89,2.89,0,1,0,.037-5.762ZM.329,34.268H5.871V17.6H.329Z" transform="translate(0 -9.558)" fill="#fff"/>
</svg>
