<svg width="91" height="16" viewBox="0 0 91 16" fill="none" xmlns="http://www.w3.org/2000/svg">
<path d="M8.66 3.64H3.06V6.96H8.5V9.6H3.06V15H0.3V0.999999H8.66V3.64ZM13.4311 12.36H19.3311V15H10.6711V0.999999H19.2311V3.64H13.4311V6.62H18.7311V9.22H13.4311V12.36ZM30.4914 15L29.6514 12.48H24.0714L23.2314 15H20.2514L25.1514 0.999999H28.5714L33.4914 15H30.4914ZM24.9514 9.9H28.7914L26.8714 4.18L24.9514 9.9ZM43.0952 0.999999V3.64H39.3152V15H36.5552V3.64H32.7952V0.999999H43.0952ZM49.8559 15.28C48.2959 15.28 47.0159 14.84 46.0159 13.96C45.0159 13.08 44.5159 11.9 44.5159 10.42V0.999999H47.2559V10.2C47.2559 10.9333 47.4626 11.5133 47.8759 11.94C48.3026 12.3667 48.9626 12.58 49.8559 12.58C50.7493 12.58 51.4026 12.3667 51.8159 11.94C52.2426 11.5133 52.4559 10.9333 52.4559 10.2V0.999999H55.2159V10.42C55.2159 11.9 54.7159 13.08 53.7159 13.96C52.7159 14.84 51.4293 15.28 49.8559 15.28ZM65.3823 15L62.5623 10.14H60.4623V15H57.7023V0.999999H63.3023C64.5957 0.999999 65.6957 1.45333 66.6023 2.36C67.509 3.26667 67.9623 4.36 67.9623 5.64C67.9623 6.50667 67.7157 7.31333 67.2223 8.06C66.729 8.79333 66.0757 9.34667 65.2623 9.72L68.3623 15H65.3823ZM60.4623 3.58V7.72H63.3023C63.8223 7.72 64.269 7.52 64.6423 7.12C65.0157 6.70667 65.2023 6.21333 65.2023 5.64C65.2023 5.06667 65.0157 4.58 64.6423 4.18C64.269 3.78 63.8223 3.58 63.3023 3.58H60.4623ZM72.7475 12.36H78.6475V15H69.9875V0.999999H78.5475V3.64H72.7475V6.62H78.0475V9.22H72.7475V12.36ZM85.373 15.28C83.9863 15.28 82.8196 14.9733 81.873 14.36C80.9263 13.7333 80.2596 12.8867 79.873 11.82L82.233 10.44C82.7796 11.8667 83.853 12.58 85.453 12.58C86.2263 12.58 86.793 12.44 87.153 12.16C87.513 11.88 87.693 11.5267 87.693 11.1C87.693 10.6067 87.473 10.2267 87.033 9.96C86.593 9.68 85.8063 9.38 84.673 9.06C84.0463 8.87333 83.513 8.68667 83.073 8.5C82.6463 8.31333 82.213 8.06667 81.773 7.76C81.3463 7.44 81.0196 7.04 80.793 6.56C80.5663 6.08 80.453 5.52 80.453 4.88C80.453 3.61333 80.8996 2.60667 81.793 1.86C82.6996 1.1 83.7863 0.719999 85.053 0.719999C86.1863 0.719999 87.1796 0.999999 88.033 1.56C88.8996 2.10667 89.573 2.87333 90.053 3.86L87.733 5.2C87.173 4 86.2796 3.4 85.053 3.4C84.4796 3.4 84.0263 3.53333 83.693 3.8C83.373 4.05333 83.213 4.38667 83.213 4.8C83.213 5.24 83.393 5.6 83.753 5.88C84.1263 6.14667 84.833 6.44 85.873 6.76C86.2996 6.89333 86.6196 7 86.833 7.08C87.0596 7.14667 87.3596 7.26 87.733 7.42C88.1196 7.56667 88.413 7.70667 88.613 7.84C88.8263 7.97333 89.0663 8.15333 89.333 8.38C89.5996 8.60667 89.7996 8.84 89.933 9.08C90.0796 9.32 90.1996 9.61333 90.293 9.96C90.3996 10.2933 90.453 10.66 90.453 11.06C90.453 12.3533 89.9796 13.38 89.033 14.14C88.0996 14.9 86.8796 15.28 85.373 15.28Z" fill="url(#paint0_linear_15_21)"/>
<defs>
<linearGradient id="paint0_linear_15_21" x1="-2.33721" y1="-2.19355" x2="48.5115" y2="57.9326" gradientUnits="userSpaceOnUse">
<stop offset="0.0001" stop-color="#0047FF"/>
<stop offset="1" stop-color="#EC00E2"/>
</linearGradient>
</defs>
</svg>
