<svg xmlns="http://www.w3.org/2000/svg" width="227" height="56" viewBox="0 0 227 56">
  <g id="Сгруппировать_1009" data-name="Сгруппировать 1009" transform="translate(-30 -283)">
    <rect id="Прямоугольник_159" data-name="Прямоугольник 159" width="227" height="56" rx="4" transform="translate(30 283)" fill="#e3a567"/>
    <path id="Контур_2007" data-name="Контур 2007" d="M-50.843-11.757A5.516,5.516,0,0,0-52.5-7.7a5.534,5.534,0,0,0,1.66,4.061,5.514,5.514,0,0,0,4.061,1.665,5.514,5.514,0,0,0,4.061-1.665A5.534,5.534,0,0,0-41.062-7.7a5.516,5.516,0,0,0-1.66-4.055,5.523,5.523,0,0,0-4.061-1.66A5.523,5.523,0,0,0-50.843-11.757Zm-1.735,9.673A7.572,7.572,0,0,1-54.919-7.7a7.572,7.572,0,0,1,2.342-5.618,7.948,7.948,0,0,1,5.8-2.3,7.948,7.948,0,0,1,5.8,2.3A7.572,7.572,0,0,1-38.645-7.7a7.572,7.572,0,0,1-2.342,5.618,7.948,7.948,0,0,1-5.8,2.3A7.948,7.948,0,0,1-52.578-2.084Zm16.027-6.5V-10.56H-27.1v1.977h-3.631V0h-2.191V-8.583Zm13.632,0V0h-2.2V-10.56h9.571V0h-2.2V-8.583ZM-6.87.215A4.721,4.721,0,0,1-8.019.075a4.284,4.284,0,0,1-.956-.349,5.983,5.983,0,0,1-.7-.43,5.071,5.071,0,0,1-.446-.349l-.15-.161V4.619h-2.2V-10.56h2.2v1.214q.15-.15.424-.4a5.044,5.044,0,0,1,1.166-.645,4.419,4.419,0,0,1,1.815-.4A4.878,4.878,0,0,1-3.233-9.179,5.417,5.417,0,0,1-1.692-5.285,5.417,5.417,0,0,1-3.233-1.391,4.878,4.878,0,0,1-6.87.215Zm2.009-7.981A2.97,2.97,0,0,0-7.084-8.8,2.97,2.97,0,0,0-9.308-7.767a3.506,3.506,0,0,0-.967,2.487,3.506,3.506,0,0,0,.967,2.487A2.97,2.97,0,0,0-7.084-1.762,2.97,2.97,0,0,0-4.861-2.793,3.506,3.506,0,0,0-3.894-5.28,3.506,3.506,0,0,0-4.861-7.767ZM9.19,0h-2.2V-1.1q-.043.043-.145.14a4.591,4.591,0,0,1-.408.317,4.821,4.821,0,0,1-.661.4,4.615,4.615,0,0,1-.892.317A4.3,4.3,0,0,1,3.8.215,3.9,3.9,0,0,1,1.123-.72,2.788,2.788,0,0,1,.059-2.857,3.075,3.075,0,0,1,.881-5.038a3.822,3.822,0,0,1,2.25-1.117l3.856-.666A1.838,1.838,0,0,0,6.37-8.229,2.246,2.246,0,0,0,4.786-8.8a3.287,3.287,0,0,0-1.52.349,2.645,2.645,0,0,0-.94.7l-.29.376L.607-8.8q.064-.086.177-.22a5.365,5.365,0,0,1,.5-.473,6.262,6.262,0,0,1,.833-.607,4.854,4.854,0,0,1,1.166-.478,5.372,5.372,0,0,1,1.5-.209A4.48,4.48,0,0,1,7.955-9.641,3.692,3.692,0,0,1,9.19-6.821ZM4.13-1.762a2.752,2.752,0,0,0,2.1-.8,3.194,3.194,0,0,0,.757-2.283V-5.06l-3.416.548a1.721,1.721,0,0,0-.956.483,1.3,1.3,0,0,0-.365.945,1.154,1.154,0,0,0,.51.924A2.17,2.17,0,0,0,4.13-1.762Zm8.132-8.8h5.06a3.53,3.53,0,0,1,2.406.779A2.5,2.5,0,0,1,20.62-7.81a2.57,2.57,0,0,1-.3,1.23,2.146,2.146,0,0,1-.607.768l-.3.2q.064.021.183.075a3.348,3.348,0,0,1,.43.274,3.09,3.09,0,0,1,.542.483,2.593,2.593,0,0,1,.419.714,2.516,2.516,0,0,1,.188.978,2.83,2.83,0,0,1-.972,2.224A3.873,3.873,0,0,1,17.547,0H12.262Zm5.285,5.833H14.464v2.857h3.083a1.408,1.408,0,0,0,1.042-.387A1.408,1.408,0,0,0,18.976-3.3a1.415,1.415,0,0,0-.4-1.01A1.357,1.357,0,0,0,17.547-4.727Zm.58-2.057a1.078,1.078,0,0,0,.3-.806,1.078,1.078,0,0,0-.3-.806,1.1,1.1,0,0,0-.806-.3H14.464v2.2h2.857A1.1,1.1,0,0,0,18.127-6.784ZM31.287-10.56h1.977V0h-2.2V-6.929L25.561,0H23.584V-10.56h2.2v6.929ZM35.24-8.583V-10.56h9.453v1.977H41.062V0H38.871V-8.583ZM48.872-1.869h2.417a1.706,1.706,0,0,0,1.257-.5,1.706,1.706,0,0,0,.5-1.257,1.706,1.706,0,0,0-.5-1.257,1.706,1.706,0,0,0-1.257-.5H48.872Zm5.291-4.367a3.428,3.428,0,0,1,1.09,2.61,3.411,3.411,0,0,1-1.09,2.6A4.035,4.035,0,0,1,51.289,0H46.669V-10.56h2.2v3.3h2.417A4.023,4.023,0,0,1,54.162-6.236Z" transform="translate(144 319)" fill="#fff"/>
  </g>
</svg>
