<svg xmlns="http://www.w3.org/2000/svg" width="354" height="24.903" viewBox="0 0 354 24.903">
  <g id="Сгруппировать_1011" data-name="Сгруппировать 1011" transform="translate(-0.351 -13.097)">
    <line id="Линия_4" data-name="Линия 4" x2="354" transform="translate(0.351 37.5)" fill="none" stroke="#dcdcdc" stroke-width="1"/>
    <path id="Контур_2008" data-name="Контур 2008" d="M1.785,0V-11.9H3.063v5.271H9.687V-11.9h1.278V0H9.687V-5.437H3.063V0ZM19.694-1.847a3.1,3.1,0,0,0,.876-2.233,3.1,3.1,0,0,0-.876-2.233,2.813,2.813,0,0,0-2.1-.909,2.813,2.813,0,0,0-2.1.909,3.09,3.09,0,0,0-.876,2.229,3.109,3.109,0,0,0,.876,2.229,2.8,2.8,0,0,0,2.1.917A2.813,2.813,0,0,0,19.694-1.847Zm-5.047.784A4.124,4.124,0,0,1,13.431-4.08,4.137,4.137,0,0,1,14.647-7.1,3.991,3.991,0,0,1,17.6-8.334,3.977,3.977,0,0,1,20.544-7.1,4.145,4.145,0,0,1,21.756-4.08a4.131,4.131,0,0,1-1.212,3.017A3.984,3.984,0,0,1,17.6.166,4,4,0,0,1,14.647-1.062ZM31.02-6.035,28.04-2.291,25.068-6.035V0H23.881V-8.16h.93L28.04-4.084,31.269-8.16h.938V0H31.02Zm11.131,2.4-6.632-.017a2.8,2.8,0,0,0,.909,1.909,2.772,2.772,0,0,0,1.98.805,3.036,3.036,0,0,0,1.419-.34,2.919,2.919,0,0,0,.93-.681l.291-.332.764.764q-.05.066-.145.187a4.165,4.165,0,0,1-.415.407,4.414,4.414,0,0,1-.689.506,4.653,4.653,0,0,1-.955.407,3.922,3.922,0,0,1-1.2.187,3.863,3.863,0,0,1-2.872-1.241,4.163,4.163,0,0,1-1.2-3.009,4.186,4.186,0,0,1,1.191-3.009,3.761,3.761,0,0,1,2.8-1.241,3.723,3.723,0,0,1,2.789,1.158A4.037,4.037,0,0,1,42.234-4.25Zm-2-2.864a2.561,2.561,0,0,0-1.83-.722,2.628,2.628,0,0,0-1.868.755,2.964,2.964,0,0,0-.938,1.793h5.528A2.917,2.917,0,0,0,40.155-6.5Zm6.284.22a3.1,3.1,0,0,0-.892,2.2,3.1,3.1,0,0,0,.892,2.2,2.7,2.7,0,0,0,2,.942,2.5,2.5,0,0,0,1.888-.917,3.188,3.188,0,0,0,.834-2.225A3.188,3.188,0,0,0,50.323-6.3a2.5,2.5,0,0,0-1.888-.917A2.7,2.7,0,0,0,46.439-6.28Zm-.892,5V3.569H44.359V-8.16h1.187v1.278q.033-.05.12-.154a4.76,4.76,0,0,1,.357-.353,3.832,3.832,0,0,1,.585-.444,3.56,3.56,0,0,1,.809-.349,3.405,3.405,0,0,1,1.017-.154A3.641,3.641,0,0,1,51.17-7.081a4.235,4.235,0,0,1,1.175,3,4.229,4.229,0,0,1-1.17,3A3.642,3.642,0,0,1,48.435.166,3.41,3.41,0,0,1,47.427.017a3.469,3.469,0,0,1-.818-.357,4.654,4.654,0,0,1-.577-.419,3.32,3.32,0,0,1-.369-.361ZM56.678-7.056v-1.1h6.964v1.1H60.753V0H59.566V-7.056Zm15.888,3.42-6.632-.017a2.8,2.8,0,0,0,.909,1.909,2.772,2.772,0,0,0,1.98.805,3.036,3.036,0,0,0,1.419-.34,2.92,2.92,0,0,0,.93-.681l.291-.332.764.764q-.05.066-.145.187a4.165,4.165,0,0,1-.415.407,4.414,4.414,0,0,1-.689.506,4.653,4.653,0,0,1-.955.407,3.922,3.922,0,0,1-1.2.187A3.863,3.863,0,0,1,65.95-1.075a4.163,4.163,0,0,1-1.2-3.009,4.186,4.186,0,0,1,1.191-3.009,3.761,3.761,0,0,1,2.8-1.241,3.723,3.723,0,0,1,2.789,1.158A4.037,4.037,0,0,1,72.648-4.25Zm-2-2.864a2.561,2.561,0,0,0-1.83-.722,2.628,2.628,0,0,0-1.868.755,2.964,2.964,0,0,0-.938,1.793h5.528A2.917,2.917,0,0,0,70.569-6.5ZM75.62-8.16h5.952V0h-1.2V-7.056H76.807v1.278a20.948,20.948,0,0,1-.178,3A5.4,5.4,0,0,1,76.093-.95a2.235,2.235,0,0,1-.789.872,2.089,2.089,0,0,1-1.046.245A2.175,2.175,0,0,1,73.84.125a1.3,1.3,0,0,1-.311-.091L73.412,0V-1.187a1.541,1.541,0,0,0,.681.166,1.11,1.11,0,0,0,.822-.3,2.892,2.892,0,0,0,.5-1.378,17.71,17.71,0,0,0,.2-3.08ZM91.508-3.636l-6.632-.017a2.8,2.8,0,0,0,.909,1.909,2.772,2.772,0,0,0,1.98.805,3.036,3.036,0,0,0,1.419-.34,2.92,2.92,0,0,0,.93-.681l.291-.332.764.764q-.05.066-.145.187a4.165,4.165,0,0,1-.415.407,4.414,4.414,0,0,1-.689.506,4.653,4.653,0,0,1-.955.407,3.922,3.922,0,0,1-1.2.187,3.863,3.863,0,0,1-2.872-1.241,4.163,4.163,0,0,1-1.2-3.009A4.186,4.186,0,0,1,84.88-7.093a3.761,3.761,0,0,1,2.8-1.241A3.723,3.723,0,0,1,90.47-7.176,4.037,4.037,0,0,1,91.591-4.25Zm-2-2.864a2.561,2.561,0,0,0-1.83-.722,2.628,2.628,0,0,0-1.868.755,2.964,2.964,0,0,0-.938,1.793H90.4A2.917,2.917,0,0,0,89.511-6.5Zm4.794,2.416a2.934,2.934,0,0,0,.963,2.262,3.585,3.585,0,0,0,2.523.884V-7.222a3.575,3.575,0,0,0-2.523.888A2.928,2.928,0,0,0,94.305-4.084Zm8.16,0a2.934,2.934,0,0,0-.959-2.25,3.571,3.571,0,0,0-2.528-.888V-.938a3.585,3.585,0,0,0,2.523-.884A2.934,2.934,0,0,0,102.465-4.084ZM98.979.166v3.4H97.792V.166a4.748,4.748,0,0,1-3.374-1.212,3.976,3.976,0,0,1-1.3-3.034,3.989,3.989,0,0,1,1.3-3.038,4.739,4.739,0,0,1,3.374-1.216V-11.9h1.187v3.569a4.754,4.754,0,0,1,3.378,1.216,3.983,3.983,0,0,1,1.3,3.038,3.97,3.97,0,0,1-1.3,3.034A4.763,4.763,0,0,1,98.979.166ZM111.45-1.847a3.1,3.1,0,0,0,.876-2.233,3.1,3.1,0,0,0-.876-2.233,2.813,2.813,0,0,0-2.1-.909,2.813,2.813,0,0,0-2.1.909,3.09,3.09,0,0,0-.876,2.229,3.109,3.109,0,0,0,.876,2.229,2.8,2.8,0,0,0,2.1.917A2.813,2.813,0,0,0,111.45-1.847Zm-5.047.784a4.124,4.124,0,0,1-1.216-3.017A4.137,4.137,0,0,1,106.4-7.1a3.991,3.991,0,0,1,2.951-1.233A3.977,3.977,0,0,1,112.3-7.1a4.145,4.145,0,0,1,1.212,3.021A4.131,4.131,0,0,1,112.3-1.062,3.984,3.984,0,0,1,109.354.166,4,4,0,0,1,106.4-1.062ZM121.5,0V-3.569h-4.673V0h-1.187V-8.16h1.187v3.486H121.5V-8.16h1.2V0Zm5.694-4.673,3.146-.515a1.972,1.972,0,0,0-.573-1.469,2,2,0,0,0-1.469-.564,2.605,2.605,0,0,0-1.216.295,2.687,2.687,0,0,0-.826.6L126-6.035l-.764-.764q.05-.066.137-.17a4.457,4.457,0,0,1,.382-.365,4.982,4.982,0,0,1,.618-.469,3.488,3.488,0,0,1,.851-.369,3.642,3.642,0,0,1,1.075-.162,3.157,3.157,0,0,1,2.312.9,3.023,3.023,0,0,1,.917,2.241V0h-1.187V-1.1q-.033.05-.1.137a3.444,3.444,0,0,1-.315.307,3.462,3.462,0,0,1-.527.39,3.141,3.141,0,0,1-.743.3,3.414,3.414,0,0,1-.95.133,3.029,3.029,0,0,1-2.054-.722,2.143,2.143,0,0,1-.834-1.652,2.253,2.253,0,0,1,.614-1.648A3.11,3.11,0,0,1,127.193-4.673ZM127.7-.938a2.546,2.546,0,0,0,1.9-.755,2.675,2.675,0,0,0,.743-1.959v-.515l-2.806.515q-1.527.291-1.536,1.444a1.116,1.116,0,0,0,.452.909A1.952,1.952,0,0,0,127.7-.938Z" transform="translate(-0.149 25)" fill="#dcdcdc"/>
  </g>
</svg>
