<svg xmlns="http://www.w3.org/2000/svg" xmlns:xlink="http://www.w3.org/1999/xlink" viewBox="0 0 352.37 364"><defs><style>.cls-1{fill:none;}.cls-12,.cls-2{fill:#4087ed;}.cls-2{fill-rule:evenodd;opacity:0.1;}.cls-3{fill:#f6d347;}.cls-4{fill:#eba741;}.cls-5{fill:#fffcac;opacity:0.22;}.cls-6{fill:#fff;}.cls-7{fill:#386cb1;opacity:0.26;}.cls-8{fill:#cbdefb;}.cls-9{fill:#eef5fd;}.cls-10{fill:#6791d3;}.cls-11{fill:#4770ac;}.cls-13{fill:#4a7a7e;}.cls-14{fill:#71a39f;}.cls-15{fill:#f1d1c2;}.cls-16{fill:#1850a0;}.cls-17{fill:#f4f8fe;}.cls-18{fill:#282828;}.cls-19{fill:#e8bbaa;}.cls-20{fill:#e2aa8a;}.cls-21{fill:#eda941;}.cls-22{clip-path:url(#clip-path);}.cls-23{fill:#a0c9f9;}.cls-24{fill:#9fc8f9;}.cls-25{fill:#9ec7f9;}.cls-26{fill:#9dc6f9;}.cls-27{fill:#9cc5f9;}.cls-28{fill:#9bc4f9;}.cls-29{fill:#9ac4f9;}.cls-30{fill:#99c3f9;}.cls-31{fill:#98c2f9;}.cls-32{fill:#97c1f9;}.cls-33{fill:#96c0f9;}.cls-34{fill:#95c0f9;}.cls-35{fill:#94bff9;}.cls-36{fill:#93bef9;}.cls-37{fill:#92bdf9;}.cls-38{fill:#91bcf9;}.cls-39{fill:#90bbf9;}.cls-40{fill:#8fbaf8;}.cls-41{fill:#8eb9f8;}.cls-42{fill:#8db9f8;}.cls-43{fill:#8cb8f8;}.cls-44{fill:#8bb7f8;}.cls-45{fill:#8ab6f8;}.cls-46{fill:#89b5f8;}.cls-47{fill:#88b5f8;}.cls-48{fill:#87b4f8;}.cls-49{fill:#86b3f8;}.cls-50{fill:#85b2f8;}.cls-51{fill:#84b1f8;}.cls-52{fill:#83b0f8;}.cls-53{fill:#81aff8;}.cls-54{fill:#80aef8;}.cls-55{fill:#7fadf8;}.cls-56{fill:#7eadf8;}.cls-57{fill:#7dacf8;}.cls-58{fill:#7cabf8;}.cls-59{fill:#7baaf8;}.cls-60{fill:#7aa9f8;}.cls-61{fill:#79a8f7;}.cls-62{fill:#78a8f7;}.cls-63{fill:#77a7f7;}.cls-64{fill:#76a6f7;}.cls-65{fill:#75a5f7;}.cls-66{fill:#74a5f7;}.cls-67{fill:#73a4f7;}.cls-68{fill:#72a3f7;}.cls-69{fill:#71a2f7;}.cls-70{fill:#70a1f7;}.cls-71{fill:#6fa0f7;}.cls-72{fill:#6e9ff7;}.cls-73{fill:#6d9ef7;}.cls-74{fill:#6c9df7;}.cls-75{fill:#6b9df7;}.cls-76{fill:#6a9cf7;}.cls-77{fill:#699bf7;}.cls-78{fill:#689af7;}.cls-79{fill:#6799f7;}.cls-80{fill:#6698f7;}.cls-81{fill:#ffb757;}.cls-82{fill:#9fc1f4;}.cls-83{fill:#366265;}</style><clipPath id="clip-path"><rect class="cls-1" x="1" y="309.6" width="308.12" height="4.88"/></clipPath></defs><g id="Layer_2" data-name="Layer 2"><g id="Слой_3" data-name="Слой 3"><path class="cls-2" d="M352.37,0V364H47S19,282.41,65.84,229.41c22.7-25.71,23.38-57.07,18.06-82.55-5.05-24.15-19-45.38-38.43-60.6C11.86,59.93,2.2,24.84,0,0Z"/><ellipse class="cls-3" cx="71.69" cy="93.62" rx="27.23" ry="27.63" transform="translate(-35.23 143.32) rotate(-77.49)"/><ellipse class="cls-4" cx="71.69" cy="93.62" rx="22.41" ry="22.74" transform="translate(-35.23 143.33) rotate(-77.49)"/><path class="cls-5" d="M83.73,74.68l-31.3,30.69a22.66,22.66,0,0,0,2.46,3.24L87,77.14A21.93,21.93,0,0,0,83.73,74.68Zm5.33,4.6-32,31.39a22.78,22.78,0,0,0,9.22,4.68L93.76,88.4A22.46,22.46,0,0,0,89.06,79.28Zm-12-7.4-27.48,27a21.68,21.68,0,0,0,1.5,4.18L81.35,73.38A23.65,23.65,0,0,0,77.11,71.88Z"/><path class="cls-6" d="M81.33,96.36a6.13,6.13,0,0,0-3.09-2.64,5.64,5.64,0,0,0,2.58-2.09A6.53,6.53,0,0,0,82,88.34a6.59,6.59,0,0,0-2.09-5.43,5.71,5.71,0,0,0-2.34-1.28,20.87,20.87,0,0,0-3.34-.53L74.43,78l-1.69-.15L72.49,81l-1.84-.15.25-3.08-1.7-.14L69,80.66l-4.83-.4-2.06,26.05,4.83.4L66.71,109l1.7.14.18-2.27L70,107l.44,0-.18,2.28,1.7.14.18-2.3c1.78.12,3,.17,3.54.14a6.19,6.19,0,0,0,3.25-1,6.74,6.74,0,0,0,2.23-2.51,8.46,8.46,0,0,0,1-3.4A6.78,6.78,0,0,0,81.33,96.36ZM68.48,85l2.7.23c2.21.18,3.55.32,4,.42a2.63,2.63,0,0,1,1.7,1.06,3.12,3.12,0,0,1,.44,2,2.77,2.77,0,0,1-2.82,2.75c-.45,0-1.59,0-3.43-.19L68,91Zm8,16.91a2.82,2.82,0,0,1-1.79.89,18.1,18.1,0,0,1-3.24-.11l-4.35-.36.55-7,3.8.31a14.71,14.71,0,0,1,4.14.72A2.91,2.91,0,0,1,77,97.69a3.74,3.74,0,0,1,.35,2A3.47,3.47,0,0,1,76.49,101.89Z"/><ellipse class="cls-3" cx="122.52" cy="63.19" rx="17.8" ry="18.06" transform="translate(34.29 169.11) rotate(-77.49)"/><ellipse class="cls-4" cx="122.52" cy="63.19" rx="14.65" ry="14.86" transform="translate(34.29 169.11) rotate(-77.49)"/><path class="cls-5" d="M130.4,50.8,109.93,70.87A15,15,0,0,0,111.54,73l21-20.58A15.35,15.35,0,0,0,130.4,50.8Zm3.48,3L113,74.33a14.68,14.68,0,0,0,6,3.06l18-17.61A14.86,14.86,0,0,0,133.88,53.81ZM126.07,49l-18,17.62a13.89,13.89,0,0,0,1,2.73L128.83,50A14.8,14.8,0,0,0,126.07,49Z"/><path class="cls-6" d="M128.82,65a4,4,0,0,0-2-1.72,3.78,3.78,0,0,0,1.68-1.37,4.48,4.48,0,0,0,.75-2.15,4.31,4.31,0,0,0-1.37-3.55,3.71,3.71,0,0,0-1.53-.84,14.36,14.36,0,0,0-2.18-.35l.15-2-1.11-.09-.15,2-1.21-.1.16-2-1.11-.1-.16,2-3.16-.27-1.35,17,3.17.26-.12,1.48,1.11.1.12-1.49.91.08.29,0-.12,1.49,1.11.09.12-1.5q1.74.11,2.31.09a4,4,0,0,0,2.13-.64,4.49,4.49,0,0,0,1.46-1.64,5.58,5.58,0,0,0,.66-2.22A4.46,4.46,0,0,0,128.82,65Zm-8.4-7.44,1.77.15c1.44.12,2.32.21,2.62.28a1.68,1.68,0,0,1,1.11.69,2.06,2.06,0,0,1,.29,1.32,1.93,1.93,0,0,1-.56,1.29,2,2,0,0,1-1.29.51c-.29,0-1,0-2.24-.13l-2-.17Zm5.24,11.05a1.89,1.89,0,0,1-1.17.59,13.34,13.34,0,0,1-2.12-.07l-2.84-.24.36-4.55,2.48.2a9.73,9.73,0,0,1,2.7.47,1.93,1.93,0,0,1,.9.86,2.39,2.39,0,0,1,.23,1.33A2.21,2.21,0,0,1,125.66,68.59Z"/><rect class="cls-7" x="233.92" y="44.41" width="82.59" height="104.97" rx="6.28"/><rect class="cls-8" x="228.65" y="40.07" width="82.59" height="104.97" rx="6.28"/><rect class="cls-9" x="236.24" y="98.8" width="66.8" height="5.96" rx="1.57"/><rect class="cls-9" x="236.24" y="85.73" width="66.8" height="5.96" rx="1.57"/><rect class="cls-9" x="236.24" y="73.8" width="66.8" height="5.96" rx="1.57"/><rect class="cls-9" x="236.24" y="111.36" width="66.8" height="5.96" rx="1.57"/><rect class="cls-9" x="236.24" y="123.92" width="66.8" height="5.96" rx="1.57"/><path class="cls-9" d="M246,49.84h11.62v3.41h-3.91V63.87h-3.81V53.25H246Z"/><path class="cls-9" d="M271.87,60.87h-4.61l-1,3h-4.11l5.32-14h4.21l5.31,14h-4.11Zm-1-3-1.3-4.11-1.3,4.11Z"/><path class="cls-9" d="M287.37,59.16l-2.8,4.71h-4.21L285,56.55l-4.21-6.71H285l2.4,4.11,2.41-4.11H294l-4.21,6.71,4.61,7.32h-4.21Z"/><rect class="cls-7" x="189.38" y="101.27" width="75.29" height="95.69" rx="5.72"/><rect class="cls-10" x="184.58" y="97.32" width="75.29" height="95.69" rx="5.72"/><rect class="cls-11" x="191.5" y="138.93" width="60.89" height="5.43" rx="1.57"/><rect class="cls-11" x="191.5" y="150.86" width="60.89" height="5.43" rx="1.57"/><rect class="cls-11" x="191.5" y="162.57" width="60.89" height="5.43" rx="1.57"/><rect class="cls-11" x="191.5" y="128.06" width="60.89" height="5.43" rx="1.57"/><rect class="cls-11" x="191.5" y="174.42" width="60.89" height="5.43" rx="1.57"/><path class="cls-11" d="M200.36,106.22H211v3.11h-3.57V119h-3.47v-9.68h-3.55Z"/><path class="cls-11" d="M224,116.27h-4.2l-.91,2.74h-3.75L220,106.22h3.84L228.64,119H224.9Zm-.91-2.74-1.19-3.75-1.18,3.75Z"/><path class="cls-11" d="M238.11,114.72,235.55,119h-3.84l4.2-6.68-3.83-6.11h3.83l2.2,3.74,2.19-3.74h3.84l-3.84,6.11,4.2,6.68h-3.83Z"/><path class="cls-12" d="M335.08,302.44c0-.25,0-.51,0-.77V184.16a25.4,25.4,0,0,0-25.37-25.37H144.77v-.88H309.69a26.28,26.28,0,0,1,26.25,26.25V301.67c0,.26,0,.52,0,.77Z"/><path class="cls-12" d="M156.34,204a49.13,49.13,0,0,0,4.06-13.16l9.29-2.79-1-10.49-1-10.49-9.64-1a49.42,49.42,0,0,0-6.43-12.18l4.6-8.53-8.11-6.73L140,131.87,132.5,138a49.49,49.49,0,0,0-13.16-4.06l-2.79-9.29-10.49,1-10.49,1-1,9.65a49,49,0,0,0-12.18,6.42l-8.53-4.59-6.73,8.11-6.72,8.11,6.09,7.53A49.49,49.49,0,0,0,62.42,175l-9.29,2.79,1,10.49,1,10.49,9.65,1a48.87,48.87,0,0,0,6.42,12.18l-4.59,8.53,8.11,6.73,8.11,6.73,7.53-6.1a49.13,49.13,0,0,0,13.16,4.06l2.79,9.29,10.49-1,10.49-1,1-9.64a49.42,49.42,0,0,0,12.18-6.43l8.53,4.6,6.73-8.11,6.72-8.11Zm-61.42-1.2a25.83,25.83,0,1,1,36.38-3.4A25.84,25.84,0,0,1,94.92,202.78Z"/><path class="cls-13" d="M276.94,284.82S260.59,269,249.87,266.33c-5-1.22-11.48-8.06-17.69-16.1-2-2.65-4.05-5.43-6-8.18h0c-7.61-11-13.57-21.52-13.57-21.52s-22.5-26.36-4.45-38.11c0,0,7.74-.17,12,2.13s13.67,21.8,15.25,25.24,18.67,35.38,19.82,36.1,3.05,3.34,9.89,7c8.37,4.51,21.53,17.71,21.53,17.71Z"/><path class="cls-6" d="M217.94,214.05q1.16-15.68,1.61-29.34c-2.52-1.33-5.55-2.89-8-4.05-7.51-3.57-18-8.38-24.68-11.46-3.93-1.81-7.78-3.12-7.78-3.12s-26.82-2.58-29-2.44a67.19,67.19,0,0,0-8.44,2.89c-9.51,3.61-27.85,10.95-30.77,13.05-4.28,3.07-19.6,78.17-20,83.27-.39,4.95,20.84,11.73,40.5,16.92,0,7.62-.16,18.28-.34,28,0,1.66,0,3.29-.09,4.88H217c-.12-1.67-.22-3.32-.3-4.88l0-.62c-.33-6.59-1.61-18.4-1.29-29.91,0,0-.2-12.12,1-17.34C216.54,236.87,217.94,214.05,217.94,214.05ZM108.83,258.2c.14-9.77,13.16-28,13.16-28a4.49,4.49,0,0,1,.61-.23s.67-.09.67-.09,2-1.91,2-1.91c.48,1.74,4.79,26.3,5.85,40.6C118.93,266.2,108.76,262.86,108.83,258.2Z"/><path class="cls-14" d="M219.53,307.79c-.57-4.08-1.1-8.15-1.59-12.13v-.06c-.16-1.33-.32-2.64-.47-3.94,0-.06,0-.13,0-.21-.63-5.49-1.15-10.75-1.53-15.57A50,50,0,0,1,216.4,265c1.5-24.65,2.24-50.65,2.24-50.65.79-10.64,1.24-20.58,1.54-29.85,0,0-33.68-15.92-36.73-16.83,0,0,6.39,15,11.18,48.53,1.84,12.88,5.25,34.56,7.73,56.68h0c1.34,11.93,3.85,24.1,5.76,34.86.29,1.66.57,3.29.83,4.88h11.27C220,311.05,219.75,309.42,219.53,307.79Z"/><path class="cls-14" d="M163.46,268.19c1.32-12.47,2.52-24.91,1.94-31.73-4.64-54.8-17.79-69.31-19.69-71.43-1.48.56-7.09,2.67-8.73,3.32-9,3.54-27.31,10-29.78,11.81C102.92,183.23,86,262,85.53,267.05c-.34,3.44,21.69,10.63,44.17,17.05-.21,6.17.37,14.86-1.68,23.94a21.79,21.79,0,0,0-1,4.75l31.34-.12c.19-1.62.39-3.24.58-4.88.6-4.9,1.23-9.91,1.84-15.25,9.4,2.44,15.79,4,15.79,4s8.82-14.92,11.39-21C188.42,274.55,177.06,271.82,163.46,268.19Z"/><path class="cls-15" d="M148.72,164.5s3.41-6.45,2.47-24.75c-.26-5.07,26.63,12,26.63,12s-.09,1.74-.15,4.1c0,1,0,2.06,0,3.17V160c0,.5,0,1,0,1.49s0,1.22.07,1.8.07,1.28.14,1.85a17,17,0,0,0,1,3.59C180.08,171.54,158.79,171.7,148.72,164.5Z"/><path class="cls-16" d="M171.27,176.14l4.95,6.66s-2.9,3.89-8.06,1Z"/><path class="cls-16" d="M174.9,183.07s18.15,44.35,14.28,100.68l-5.73,10.4L177,285.29s-1-74.81-6.19-102.4Z"/><path class="cls-15" d="M176.57,169.93l-5.3,6.21s-8.52-1.65-11-6.1S176.57,169.93,176.57,169.93Z"/><path class="cls-17" d="M177.79,164.5s-.62,4.73-6.52,11.64l6.44,8.66,3.49-18Z"/><path class="cls-17" d="M150.34,158.81s12.31,13.93,20.93,17.33l-4,9.91-19.65-21.68Z"/><path class="cls-15" d="M198.47,303.17a10.32,10.32,0,0,1-3.26-.62s-1.71-1.09-3-1.8a9.17,9.17,0,0,0-1-.5,19,19,0,0,1-5.49-2.62c-2.15-1.64-9.16-8.19-9.16-8.19l4.53-7,2.09-6.9s16.34,1.63,18.52,2.92a6.75,6.75,0,0,1,.59.4c1.74,1.28,2.5,3,3.34,3.73.3.29,3.15,3.33,3,4.57a4.08,4.08,0,0,1-2.13,3.33s-.58,3.34-2.3,4.83a6.09,6.09,0,0,1-3.11,4.35S200.33,302.8,198.47,303.17Z"/><path class="cls-15" d="M172.46,92.54S202,85.42,195.77,122.8s-13.3,40.42-31.29,33-16.74-31.37-17.81-43.07S163,93.08,172.46,92.54Z"/><path class="cls-15" d="M157,118.43c-.44-3.29-7-4.4-7.41.54s3.15,13.55,5.61,12.66S157.55,123,157,118.43Z"/><path class="cls-18" d="M148.66,133.23s.33-13.17,4.61-13.6c3.14-.32,4.08,1.1,4.51,2.44.7,2.23-.48,3.35,1.43,3s2.88-3,2.82-4.2c-.17-3.16,6.64-7,9.6-8.16,11.34-4.67,22.06,3,25.45-.11s6.93-24.1.11-23.45c-13.17,1.26-24.29-3.1-36.52-1.92a19.13,19.13,0,0,0-16.41,12.4,17.5,17.5,0,0,0-.73,2.85C142.19,110.46,141.07,134.52,148.66,133.23Z"/><path class="cls-14" d="M188.79,275.58l-12.19,21s-32.3-8.32-39.84-10.45L154,265.59S179.39,271.39,188.79,275.58Z"/><path class="cls-19" d="M177.71,163.25h0a28.25,28.25,0,0,1-22-13.81,32.72,32.72,0,0,0,21.89,9.61V160c0,.5,0,1,0,1.49S177.68,162.67,177.71,163.25Z"/><path class="cls-20" d="M211.71,258.36c18.36,18.9,42.61,42.7,42.61,42.7l9.48-18S242.26,257.81,227.66,241C223.18,243.15,215,248.39,211.71,258.36Z"/><path class="cls-20" d="M200.37,283.77a54.3,54.3,0,0,1,6.23,3.45c1.29,1.07,6.52,5,7.79,5.9s-1.91,3.54-11.26-.51S200.37,283.77,200.37,283.77Z"/><polygon class="cls-21" points="200.8 229.69 192.19 309.77 305.56 309.77 314.18 229.69 200.8 229.69"/><path class="cls-21" d="M312,306.07H197.77l8.71-81H320.75Zm-113.28-.88H311.24l8.52-79.2H207.28Z"/><rect class="cls-21" x="183.17" y="302.57" width="18.94" height="7.21" transform="translate(385.27 612.34) rotate(180)"/><g class="cls-22"><path class="cls-23" d="M1,309.6v0Z"/><rect class="cls-23" x="1" y="309.6" width="4.74" height="4.88"/><rect class="cls-24" x="5.74" y="309.6" width="4.74" height="4.88"/><rect class="cls-25" x="10.48" y="309.6" width="4.74" height="4.88"/><rect class="cls-25" x="15.22" y="309.6" width="4.74" height="4.88"/><rect class="cls-26" x="19.96" y="309.6" width="4.74" height="4.88"/><rect class="cls-27" x="24.7" y="309.6" width="4.74" height="4.88"/><rect class="cls-28" x="29.44" y="309.6" width="4.74" height="4.88"/><rect class="cls-29" x="34.18" y="309.6" width="4.74" height="4.88"/><rect class="cls-30" x="38.92" y="309.6" width="4.74" height="4.88"/><rect class="cls-31" x="43.66" y="309.6" width="4.74" height="4.88"/><rect class="cls-32" x="48.4" y="309.6" width="4.74" height="4.88"/><rect class="cls-33" x="53.14" y="309.6" width="4.74" height="4.88"/><rect class="cls-34" x="57.88" y="309.6" width="4.74" height="4.88"/><rect class="cls-35" x="62.62" y="309.6" width="4.74" height="4.88"/><rect class="cls-36" x="67.37" y="309.6" width="4.74" height="4.88"/><rect class="cls-37" x="72.11" y="309.6" width="4.74" height="4.88"/><rect class="cls-37" x="76.85" y="309.6" width="4.74" height="4.88"/><rect class="cls-38" x="81.59" y="309.6" width="4.74" height="4.88"/><rect class="cls-39" x="86.33" y="309.6" width="4.74" height="4.88"/><rect class="cls-40" x="91.07" y="309.6" width="4.74" height="4.88"/><rect class="cls-41" x="95.81" y="309.6" width="4.74" height="4.88"/><rect class="cls-42" x="100.55" y="309.6" width="4.74" height="4.88"/><rect class="cls-43" x="105.29" y="309.6" width="4.74" height="4.88"/><rect class="cls-44" x="110.03" y="309.6" width="4.74" height="4.88"/><rect class="cls-45" x="114.77" y="309.6" width="4.74" height="4.88"/><rect class="cls-46" x="119.51" y="309.6" width="4.74" height="4.88"/><rect class="cls-47" x="124.25" y="309.6" width="4.74" height="4.88"/><rect class="cls-48" x="128.99" y="309.6" width="4.74" height="4.88"/><rect class="cls-49" x="133.73" y="309.6" width="4.74" height="4.88"/><rect class="cls-50" x="138.47" y="309.6" width="4.74" height="4.88"/><rect class="cls-50" x="143.21" y="309.6" width="4.74" height="4.88"/><rect class="cls-51" x="147.95" y="309.6" width="4.74" height="4.88"/><rect class="cls-52" x="152.69" y="309.6" width="4.74" height="4.88"/><rect class="cls-53" x="157.43" y="309.6" width="4.74" height="4.88"/><rect class="cls-54" x="162.17" y="309.6" width="4.74" height="4.88"/><rect class="cls-54" x="166.91" y="309.6" width="4.74" height="4.88"/><rect class="cls-55" x="171.65" y="309.6" width="4.74" height="4.88"/><rect class="cls-56" x="176.39" y="309.6" width="4.74" height="4.88"/><rect class="cls-57" x="181.13" y="309.6" width="4.74" height="4.88"/><rect class="cls-57" x="185.87" y="309.6" width="4.74" height="4.88"/><rect class="cls-58" x="190.61" y="309.6" width="4.74" height="4.88"/><rect class="cls-59" x="195.35" y="309.6" width="4.74" height="4.88"/><rect class="cls-60" x="200.09" y="309.6" width="4.74" height="4.88"/><rect class="cls-61" x="204.83" y="309.6" width="4.74" height="4.88"/><rect class="cls-62" x="209.58" y="309.6" width="4.74" height="4.88"/><rect class="cls-63" x="214.32" y="309.6" width="4.74" height="4.88"/><rect class="cls-64" x="219.06" y="309.6" width="4.74" height="4.88"/><rect class="cls-65" x="223.8" y="309.6" width="4.74" height="4.88"/><rect class="cls-66" x="228.54" y="309.6" width="4.74" height="4.88"/><rect class="cls-67" x="233.28" y="309.6" width="4.74" height="4.88"/><rect class="cls-68" x="238.02" y="309.6" width="4.74" height="4.88"/><rect class="cls-69" x="242.76" y="309.6" width="4.74" height="4.88"/><rect class="cls-70" x="247.5" y="309.6" width="4.74" height="4.88"/><rect class="cls-70" x="252.24" y="309.6" width="4.74" height="4.88"/><rect class="cls-71" x="256.98" y="309.6" width="4.74" height="4.88"/><rect class="cls-72" x="261.72" y="309.6" width="4.74" height="4.88"/><rect class="cls-73" x="266.46" y="309.6" width="4.74" height="4.88"/><rect class="cls-74" x="271.2" y="309.6" width="4.74" height="4.88"/><rect class="cls-75" x="275.94" y="309.6" width="4.74" height="4.88"/><rect class="cls-76" x="280.68" y="309.6" width="4.74" height="4.88"/><rect class="cls-77" x="285.42" y="309.6" width="4.74" height="4.88"/><rect class="cls-78" x="290.16" y="309.6" width="4.74" height="4.88"/><rect class="cls-78" x="294.9" y="309.6" width="4.74" height="4.88"/><rect class="cls-79" x="299.64" y="309.6" width="4.74" height="4.88"/><rect class="cls-80" x="304.38" y="309.6" width="4.74" height="4.88"/><path class="cls-80" d="M309.12,314.48v0Z"/></g><path class="cls-81" d="M246.89,268.44c-.91,4.46,1.17,8.65,4.64,9.36s7-2.33,8-6.78-1.17-8.66-4.65-9.37S247.8,264,246.89,268.44Z"/><rect class="cls-82" x="40.11" y="214.5" width="60.62" height="88.34" rx="4.56"/><path class="cls-12" d="M313,198.5a15.61,15.61,0,1,1,15.62-15.61A15.63,15.63,0,0,1,313,198.5Zm0-30.33a14.73,14.73,0,1,0,14.73,14.72A14.73,14.73,0,0,0,313,168.17Z"/><rect class="cls-8" x="26.74" y="208.73" width="60.62" height="88.34" rx="4.56"/><rect class="cls-83" x="77.77" y="265.78" width="3.14" height="23.9"/><rect class="cls-83" x="71.57" y="268.46" width="3.14" height="21.22"/><rect class="cls-83" x="64.83" y="271.94" width="3.14" height="17.74"/><rect class="cls-83" x="57.9" y="276.34" width="3.14" height="13.35"/><polygon class="cls-14" points="39.16 273.5 38.48 273.26 44.4 256.64 57.25 253.25 61.86 235.01 71.78 230.64 74 216.46 74.71 216.57 72.43 231.14 62.48 235.53 57.84 253.84 44.96 257.25 39.16 273.5"/><path class="cls-12" d="M59,252.32a1.93,1.93,0,1,1-3,2.44,1.93,1.93,0,0,1,3-2.44Z"/><path class="cls-14" d="M59,255.31a2.29,2.29,0,1,1,.32-3.22A2.3,2.3,0,0,1,59,255.31Zm-2.44-3a1.57,1.57,0,1,0,2.2.22A1.57,1.57,0,0,0,56.56,252.33Z"/><path class="cls-12" d="M63.72,234.16a1.93,1.93,0,1,1-2.72-.27A1.92,1.92,0,0,1,63.72,234.16Z"/><path class="cls-14" d="M63.67,237.15a2.29,2.29,0,1,1,.33-3.22A2.29,2.29,0,0,1,63.67,237.15Zm-2.44-3a1.56,1.56,0,1,0,2.21.22A1.56,1.56,0,0,0,61.23,234.17Z"/><path class="cls-12" d="M73.47,229.66a1.93,1.93,0,1,1-2.71-.27A1.91,1.91,0,0,1,73.47,229.66Z"/><path class="cls-14" d="M73.43,232.65a2.29,2.29,0,1,1,.32-3.22A2.29,2.29,0,0,1,73.43,232.65Zm-2.44-3a1.56,1.56,0,1,0,2.21.22A1.56,1.56,0,0,0,71,229.67Z"/><path class="cls-12" d="M46.25,255.89a1.93,1.93,0,1,1-2.72-.27A1.92,1.92,0,0,1,46.25,255.89Z"/><path class="cls-14" d="M46.2,258.88a2.29,2.29,0,1,1,.32-3.22A2.29,2.29,0,0,1,46.2,258.88Zm-2.44-3a1.56,1.56,0,1,0,2.2.22A1.56,1.56,0,0,0,43.76,255.9Z"/><rect class="cls-14" x="33.18" y="233.8" width="19.3" height="4" rx="1.38"/><rect class="cls-14" x="33.18" y="226.81" width="19.3" height="4" rx="1.38"/></g></g></svg>