<svg width="15" height="13" viewBox="0 0 15 13" fill="none" xmlns="http://www.w3.org/2000/svg">
<path d="M12.8088 1.97248C12.4861 1.66418 12.1031 1.41961 11.6814 1.25275C11.2598 1.08588 10.8079 1 10.3515 1C9.89509 1 9.44317 1.08588 9.02154 1.25275C8.59991 1.41961 8.21683 1.66418 7.89419 1.97248L7.22459 2.61202L6.55499 1.97248C5.90328 1.35002 5.01936 1.00032 4.0977 1.00032C3.17603 1.00032 2.29212 1.35002 1.6404 1.97248C0.988688 2.59494 0.622559 3.43918 0.622559 4.31947C0.622559 5.19977 0.988688 6.04401 1.6404 6.66647L2.31 7.30601L7.22459 12L12.1392 7.30601L12.8088 6.66647C13.1316 6.35831 13.3876 5.99243 13.5623 5.58972C13.737 5.18702 13.827 4.75538 13.827 4.31947C13.827 3.88357 13.737 3.45193 13.5623 3.04923C13.3876 2.64652 13.1316 2.28064 12.8088 1.97248V1.97248Z" stroke="black" stroke-linecap="round" stroke-linejoin="round"/>
</svg>
