<svg xmlns="http://www.w3.org/2000/svg" width="271.02" height="50.559" viewBox="0 0 271.02 50.559">
  <path id="Контур_2005" data-name="Контур 2005" d="M9.6,0H2.4V-16.8H9.234a4.914,4.914,0,0,1,3.48,1.348,4.129,4.129,0,0,1,1.441,3.094,4.129,4.129,0,0,1-.416,1.852,3.477,3.477,0,0,1-.826,1.172L12.48-9a2.867,2.867,0,0,1,.264.158q.17.111.615.48a4.434,4.434,0,0,1,.768.814,5.173,5.173,0,0,1,.6,1.154A4.027,4.027,0,0,1,15-4.922a4.6,4.6,0,0,1-1.547,3.469A5.413,5.413,0,0,1,9.6,0ZM5.039-2.285H9.6a2.685,2.685,0,0,0,1.969-.791,2.655,2.655,0,0,0,.8-1.963,2.685,2.685,0,0,0-.791-1.969A2.669,2.669,0,0,0,9.6-7.8H5.039Zm4.2-12.234h-4.2v4.559h4.2a2.217,2.217,0,0,0,1.635-.65,2.21,2.21,0,0,0,.65-1.629,2.21,2.21,0,0,0-.65-1.629A2.217,2.217,0,0,0,9.234-14.52ZM20.391-2.039h2.52a1.861,1.861,0,0,0,1.371-.551,1.861,1.861,0,0,0,.551-1.371,1.861,1.861,0,0,0-.551-1.371,1.861,1.861,0,0,0-1.371-.551h-2.52ZM26.045-6.8a3.74,3.74,0,0,1,1.189,2.848,3.721,3.721,0,0,1-1.189,2.842A4.4,4.4,0,0,1,22.91,0H17.988V-11.52h2.4v3.6h2.52A4.388,4.388,0,0,1,26.045-6.8Zm5.268-4.717V0h-2.4V-11.52Zm11.027,3A2.291,2.291,0,0,1,41.9-7.125a2.233,2.233,0,0,1-.9.785l-.457.223a2.559,2.559,0,0,1,.252.082,4.4,4.4,0,0,1,.539.275,3.181,3.181,0,0,1,.68.516,2.975,2.975,0,0,1,.551.826,2.711,2.711,0,0,1,.252,1.184A3.036,3.036,0,0,1,41.537-.779,5.518,5.518,0,0,1,38.027.234,6.185,6.185,0,0,1,36.4.023a5.6,5.6,0,0,1-1.295-.5,7.693,7.693,0,0,1-.9-.592,4.359,4.359,0,0,1-.574-.51L33.469-1.8l1.559-1.559q.141.164.381.41a4.244,4.244,0,0,0,1.031.639,3.543,3.543,0,0,0,1.588.393,3.015,3.015,0,0,0,1.8-.445,1.337,1.337,0,0,0,.6-1.113,1.337,1.337,0,0,0-.6-1.113,3.015,3.015,0,0,0-1.8-.445H36.7V-6.961h1.324a2.355,2.355,0,0,0,1.43-.369,1.137,1.137,0,0,0,.492-.949,1.137,1.137,0,0,0-.492-.949,2.355,2.355,0,0,0-1.43-.369,3.629,3.629,0,0,0-1.354.264,3.382,3.382,0,0,0-.979.545l-.3.27-1.57-1.559a5.644,5.644,0,0,1,.48-.469,6.051,6.051,0,0,1,1.406-.75,5.81,5.81,0,0,1,2.32-.469,4.792,4.792,0,0,1,3.152.961A2.885,2.885,0,0,1,42.34-8.52ZM53.273-3.035A3.79,3.79,0,0,0,54.34-5.76a3.79,3.79,0,0,0-1.066-2.725A3.388,3.388,0,0,0,50.742-9.6a3.407,3.407,0,0,0-2.537,1.113A3.779,3.779,0,0,0,47.133-5.76a3.779,3.779,0,0,0,1.072,2.725,3.407,3.407,0,0,0,2.537,1.113A3.388,3.388,0,0,0,53.273-3.035ZM46.529-1.553A5.756,5.756,0,0,1,44.742-5.76a5.776,5.776,0,0,1,1.787-4.213,5.754,5.754,0,0,1,4.213-1.793,5.754,5.754,0,0,1,4.213,1.793A5.776,5.776,0,0,1,56.742-5.76a5.756,5.756,0,0,1-1.787,4.207A5.763,5.763,0,0,1,50.742.234,5.763,5.763,0,0,1,46.529-1.553ZM59.367-11.52h5.52a3.851,3.851,0,0,1,2.625.85,2.732,2.732,0,0,1,.973,2.15,2.8,2.8,0,0,1-.322,1.342,2.341,2.341,0,0,1-.662.838l-.328.223q.07.023.2.082a3.652,3.652,0,0,1,.469.3,3.371,3.371,0,0,1,.592.527,2.828,2.828,0,0,1,.457.779,2.745,2.745,0,0,1,.205,1.066A3.088,3.088,0,0,1,68.033-.937a4.225,4.225,0,0,1-2.9.938H59.367Zm5.766,6.363H61.77v3.117h3.363a1.536,1.536,0,0,0,1.137-.422A1.536,1.536,0,0,0,66.691-3.6a1.543,1.543,0,0,0-.434-1.1A1.481,1.481,0,0,0,65.133-5.156ZM65.766-7.4a1.176,1.176,0,0,0,.328-.879,1.176,1.176,0,0,0-.328-.879,1.2,1.2,0,0,0-.879-.322H61.77v2.4h3.117A1.2,1.2,0,0,0,65.766-7.4ZM80.121-11.52h2.156V0h-2.4V-7.559L73.875,0H71.719V-11.52h2.4v7.559Zm4.313,2.156V-11.52H94.746v2.156H90.785V0H88.395V-9.363Zm23.145,4.441h-9a3.455,3.455,0,0,0,1.2,2.109,3.528,3.528,0,0,0,2.408.891,4,4,0,0,0,1.881-.457A4.116,4.116,0,0,0,105.3-3.27l.363-.445,1.559,1.559q-.07.094-.217.264a6.472,6.472,0,0,1-.627.574,7.036,7.036,0,0,1-1.02.715,6.877,6.877,0,0,1-1.4.574,6.031,6.031,0,0,1-1.775.264,5.733,5.733,0,0,1-4.225-1.8,5.928,5.928,0,0,1-1.775-4.318,5.664,5.664,0,0,1,1.729-4.154,5.658,5.658,0,0,1,4.148-1.729,5.469,5.469,0,0,1,4.031,1.611,5.476,5.476,0,0,1,1.611,4.037Zm-5.52-4.793a3.217,3.217,0,0,0-2.186.768,3.764,3.764,0,0,0-1.189,1.986h6.668a3.3,3.3,0,0,0-1.09-1.986A3.228,3.228,0,0,0,102.059-9.715Zm23.273-1.8-4.441,4.8L125.684,0h-2.637l-3.715-5.156-1.8,1.922V0h-2.4V-11.52h2.4v5.156l4.922-5.156Zm8.127,9.967a5.756,5.756,0,0,1-1.787-4.207,5.776,5.776,0,0,1,1.787-4.213,5.754,5.754,0,0,1,4.213-1.793,5.529,5.529,0,0,1,2.508.58,5.5,5.5,0,0,1,1.664,1.154l.5.551-1.559,1.559a3.861,3.861,0,0,0-.357-.463,4.631,4.631,0,0,0-1.043-.744,3.349,3.349,0,0,0-1.717-.469,3.407,3.407,0,0,0-2.537,1.113,3.779,3.779,0,0,0-1.072,2.725,3.779,3.779,0,0,0,1.072,2.725,3.407,3.407,0,0,0,2.537,1.113,3.414,3.414,0,0,0,1.717-.457,4.1,4.1,0,0,0,1.154-.891l.363-.445,1.559,1.559q-.07.094-.211.264a6.079,6.079,0,0,1-.609.574,7.169,7.169,0,0,1-.984.715,6.439,6.439,0,0,1-1.336.574,5.371,5.371,0,0,1-1.652.264A5.763,5.763,0,0,1,133.459-1.553Zm22.072-3.369h-9a3.455,3.455,0,0,0,1.2,2.109,3.528,3.528,0,0,0,2.408.891,4,4,0,0,0,1.881-.457,4.116,4.116,0,0,0,1.236-.891l.363-.445,1.559,1.559q-.07.094-.217.264a6.472,6.472,0,0,1-.627.574,7.036,7.036,0,0,1-1.02.715,6.877,6.877,0,0,1-1.4.574,6.031,6.031,0,0,1-1.775.264,5.733,5.733,0,0,1-4.225-1.8,5.928,5.928,0,0,1-1.775-4.318,5.664,5.664,0,0,1,1.729-4.154,5.658,5.658,0,0,1,4.148-1.729,5.469,5.469,0,0,1,4.031,1.611,5.476,5.476,0,0,1,1.611,4.037Zm-5.52-4.793a3.217,3.217,0,0,0-2.186.768,3.764,3.764,0,0,0-1.189,1.986H153.3a3.3,3.3,0,0,0-1.09-1.986A3.228,3.228,0,0,0,150.012-9.715ZM169.8-5.637A5.684,5.684,0,0,1,168.1-1.488,5.5,5.5,0,0,1,164.051.234,5.429,5.429,0,0,1,159.7-1.705a8.46,8.46,0,0,1-1.646-5.619q0-4.2,1.559-6.293a6.642,6.642,0,0,1,4.441-2.578,15.859,15.859,0,0,0,2.291-.539,8.271,8.271,0,0,0,1.4-.551l.387-.234,1.078,1.8a1.84,1.84,0,0,1-.287.27,7.539,7.539,0,0,1-1.465.633,17.838,17.838,0,0,1-3.17.773,4.452,4.452,0,0,0-2.66,1.371,4.928,4.928,0,0,0-1.184,2.953,1.436,1.436,0,0,1,.17-.193q.123-.123.5-.434a5.735,5.735,0,0,1,.791-.551,5.01,5.01,0,0,1,1.066-.434,4.6,4.6,0,0,1,1.318-.193,5.19,5.19,0,0,1,3.85,1.74A5.777,5.777,0,0,1,169.8-5.637Zm-8.121-2.654a3.752,3.752,0,0,0-1,2.654,3.731,3.731,0,0,0,1,2.648,3.126,3.126,0,0,0,2.361,1.066,3.126,3.126,0,0,0,2.361-1.066,3.731,3.731,0,0,0,1-2.648,3.752,3.752,0,0,0-1-2.654,3.119,3.119,0,0,0-2.361-1.072A3.119,3.119,0,0,0,161.684-8.291Zm21.668,3.369h-9a3.455,3.455,0,0,0,1.2,2.109,3.528,3.528,0,0,0,2.408.891,4,4,0,0,0,1.881-.457,4.116,4.116,0,0,0,1.236-.891l.363-.445L183-2.156q-.07.094-.217.264a6.472,6.472,0,0,1-.627.574,7.036,7.036,0,0,1-1.02.715,6.877,6.877,0,0,1-1.4.574,6.031,6.031,0,0,1-1.775.264,5.733,5.733,0,0,1-4.225-1.8,5.928,5.928,0,0,1-1.775-4.318,5.664,5.664,0,0,1,1.729-4.154,5.658,5.658,0,0,1,4.148-1.729,5.469,5.469,0,0,1,4.031,1.611,5.476,5.476,0,0,1,1.611,4.037Zm-5.52-4.793a3.217,3.217,0,0,0-2.186.768,3.764,3.764,0,0,0-1.189,1.986h6.668a3.3,3.3,0,0,0-1.09-1.986A3.228,3.228,0,0,0,177.832-9.715ZM193.3-4.8V0h-2.4V-11.52h2.4v4.559h5.637V-11.52h2.4V0h-2.4V-4.8ZM213.938,0h-2.4V-1.2q-.047.047-.158.152a5.009,5.009,0,0,1-.445.346,5.259,5.259,0,0,1-.721.434,5.034,5.034,0,0,1-.973.346,4.685,4.685,0,0,1-1.184.152,4.259,4.259,0,0,1-2.918-1.02,3.041,3.041,0,0,1-1.16-2.332,3.355,3.355,0,0,1,.9-2.379,4.17,4.17,0,0,1,2.455-1.219l4.207-.727a2,2,0,0,0-.674-1.535,2.45,2.45,0,0,0-1.729-.621,3.586,3.586,0,0,0-1.658.381,2.885,2.885,0,0,0-1.025.768l-.316.41L204.574-9.6q.07-.094.193-.24a5.852,5.852,0,0,1,.551-.516,6.831,6.831,0,0,1,.908-.662,5.3,5.3,0,0,1,1.271-.521,5.861,5.861,0,0,1,1.635-.229,4.887,4.887,0,0,1,3.457,1.248,4.027,4.027,0,0,1,1.348,3.076Zm-5.52-1.922a3,3,0,0,0,2.291-.873,3.484,3.484,0,0,0,.826-2.49V-5.52l-3.727.6a1.878,1.878,0,0,0-1.043.527,1.42,1.42,0,0,0-.4,1.031,1.259,1.259,0,0,0,.557,1.008A2.368,2.368,0,0,0,208.418-1.922ZM217.289,0V-11.52h2.4v9.363h4.2V-11.52h2.4v9.363H230.5V-11.52h2.391V0Zm29.625-4.922h-9a3.455,3.455,0,0,0,1.2,2.109,3.528,3.528,0,0,0,2.408.891,4,4,0,0,0,1.881-.457,4.116,4.116,0,0,0,1.236-.891L245-3.715l1.559,1.559q-.07.094-.217.264a6.472,6.472,0,0,1-.627.574A7.036,7.036,0,0,1,244.7-.6a6.877,6.877,0,0,1-1.4.574,6.031,6.031,0,0,1-1.775.264,5.733,5.733,0,0,1-4.225-1.8,5.928,5.928,0,0,1-1.775-4.318,5.664,5.664,0,0,1,1.729-4.154,5.658,5.658,0,0,1,4.148-1.729,5.469,5.469,0,0,1,4.031,1.611,5.476,5.476,0,0,1,1.611,4.037Zm-5.52-4.793a3.217,3.217,0,0,0-2.186.768,3.764,3.764,0,0,0-1.189,1.986h6.668a3.3,3.3,0,0,0-1.09-1.986A3.228,3.228,0,0,0,241.395-9.715Zm16.313-1.8v2.156H252.07V0h-2.4V-11.52Zm9.727,8.484A3.79,3.79,0,0,0,268.5-5.76a3.79,3.79,0,0,0-1.066-2.725A3.388,3.388,0,0,0,264.9-9.6a3.407,3.407,0,0,0-2.537,1.113,3.779,3.779,0,0,0-1.072,2.725,3.779,3.779,0,0,0,1.072,2.725A3.407,3.407,0,0,0,264.9-1.922,3.388,3.388,0,0,0,267.434-3.035Zm-6.744,1.482A5.756,5.756,0,0,1,258.9-5.76a5.776,5.776,0,0,1,1.787-4.213,5.754,5.754,0,0,1,4.213-1.793,5.754,5.754,0,0,1,4.213,1.793A5.776,5.776,0,0,1,270.9-5.76a5.756,5.756,0,0,1-1.787,4.207A5.763,5.763,0,0,1,264.9.234,5.763,5.763,0,0,1,260.689-1.553ZM-.117,25.844H.715q.07-.07.205-.229a6.708,6.708,0,0,0,.469-.709,7.831,7.831,0,0,0,.586-1.189,9.939,9.939,0,0,0,.457-1.682,11.34,11.34,0,0,0,.205-2.191V16.48h8.4v9.363h1.676v5.039H10.324V28H2.285v2.883h-2.4Zm5.156-7.207v1.207a11.816,11.816,0,0,1-.193,2.18,8.339,8.339,0,0,1-.48,1.705,10.494,10.494,0,0,1-.574,1.166,4.681,4.681,0,0,1-.475.7l-.2.246h5.52V18.637ZM23.52,16.48h2.156V28h-2.4V20.441l-6,7.559H15.117V16.48h2.4v7.559Zm13.184,3a2.291,2.291,0,0,1-.439,1.395,2.233,2.233,0,0,1-.9.785l-.457.223a2.559,2.559,0,0,1,.252.082,4.4,4.4,0,0,1,.539.275,3.181,3.181,0,0,1,.68.516,2.975,2.975,0,0,1,.551.826,2.711,2.711,0,0,1,.252,1.184A3.036,3.036,0,0,1,35.9,27.221a5.518,5.518,0,0,1-3.51,1.014,6.185,6.185,0,0,1-1.623-.211,5.6,5.6,0,0,1-1.295-.5,7.693,7.693,0,0,1-.9-.592,4.359,4.359,0,0,1-.574-.51l-.164-.223,1.559-1.559q.141.164.381.41a4.244,4.244,0,0,0,1.031.639,3.543,3.543,0,0,0,1.588.393,3.015,3.015,0,0,0,1.8-.445,1.329,1.329,0,0,0,0-2.227,3.015,3.015,0,0,0-1.8-.445H31.066V21.039h1.324a2.355,2.355,0,0,0,1.43-.369,1.161,1.161,0,0,0,0-1.9,2.355,2.355,0,0,0-1.43-.369,3.629,3.629,0,0,0-1.354.264,3.382,3.382,0,0,0-.979.545l-.3.27-1.57-1.559a5.644,5.644,0,0,1,.48-.469,6.051,6.051,0,0,1,1.406-.75,5.81,5.81,0,0,1,2.32-.469,4.792,4.792,0,0,1,3.152.961A2.885,2.885,0,0,1,36.7,19.48ZM49.066,28h-2.4V26.8q-.047.047-.158.152a5.009,5.009,0,0,1-.445.346,5.259,5.259,0,0,1-.721.434,5.034,5.034,0,0,1-.973.346,4.685,4.685,0,0,1-1.184.152,4.259,4.259,0,0,1-2.918-1.02,3.041,3.041,0,0,1-1.16-2.332A3.355,3.355,0,0,1,40,22.5a4.17,4.17,0,0,1,2.455-1.219l4.207-.727a2,2,0,0,0-.674-1.535,2.45,2.45,0,0,0-1.729-.621,3.586,3.586,0,0,0-1.658.381,2.885,2.885,0,0,0-1.025.768l-.316.41L39.7,18.4q.07-.094.193-.24a5.853,5.853,0,0,1,.551-.516,6.831,6.831,0,0,1,.908-.662,5.3,5.3,0,0,1,1.271-.521,5.861,5.861,0,0,1,1.635-.229,4.887,4.887,0,0,1,3.457,1.248,4.027,4.027,0,0,1,1.348,3.076Zm-5.52-1.922a3,3,0,0,0,2.291-.873,3.484,3.484,0,0,0,.826-2.49V22.48l-3.727.6a1.878,1.878,0,0,0-1.043.527,1.42,1.42,0,0,0-.4,1.031,1.259,1.259,0,0,0,.557,1.008A2.368,2.368,0,0,0,43.547,26.078Zm17.273-9.6h2.156V28h-2.4V20.441l-6,7.559H52.418V16.48h2.4v7.559ZM56.5,12.4a1.734,1.734,0,0,0,2.4.006,1.637,1.637,0,0,0,.48-1.207h1.8a3.219,3.219,0,0,1-.984,2.4,3.722,3.722,0,0,1-4.992,0,3.219,3.219,0,0,1-.984-2.4h1.793A1.642,1.642,0,0,0,56.5,12.4ZM68.73,23.2V28h-2.4V16.48h2.4v4.559h5.637V16.48h2.4V28h-2.4V23.2ZM90.8,23.078h-9A3.455,3.455,0,0,0,83,25.188a3.528,3.528,0,0,0,2.408.891,4,4,0,0,0,1.881-.457,4.116,4.116,0,0,0,1.236-.891l.363-.445,1.559,1.559q-.07.094-.217.264a6.472,6.472,0,0,1-.627.574,7.036,7.036,0,0,1-1.02.715,6.877,6.877,0,0,1-1.4.574,6.031,6.031,0,0,1-1.775.264,5.733,5.733,0,0,1-4.225-1.8,5.928,5.928,0,0,1-1.775-4.318,5.9,5.9,0,0,1,5.877-5.883,5.507,5.507,0,0,1,5.643,5.648Zm-5.52-4.793a3.217,3.217,0,0,0-2.186.768A3.764,3.764,0,0,0,81.9,21.039H88.57a3.3,3.3,0,0,0-1.09-1.986A3.228,3.228,0,0,0,85.277,18.285Zm14.391,9.949a5.15,5.15,0,0,1-1.254-.152,4.674,4.674,0,0,1-1.043-.381,6.527,6.527,0,0,1-.768-.469,5.532,5.532,0,0,1-.486-.381l-.164-.176v6.363h-2.4V16.48h2.4V17.8q.164-.164.463-.434a5.5,5.5,0,0,1,1.271-.7,4.82,4.82,0,0,1,1.98-.434,5.322,5.322,0,0,1,3.967,1.752,5.909,5.909,0,0,1,1.682,4.248,5.909,5.909,0,0,1-1.682,4.248A5.322,5.322,0,0,1,99.668,28.234Zm2.191-8.707a3.178,3.178,0,0,0-4.852,0,4.016,4.016,0,0,0,0,5.426,3.178,3.178,0,0,0,4.852,0,4.016,4.016,0,0,0,0-5.426ZM117.188,28h-2.4V26.8q-.047.047-.158.152a5.009,5.009,0,0,1-.445.346,5.259,5.259,0,0,1-.721.434,5.034,5.034,0,0,1-.973.346,4.685,4.685,0,0,1-1.184.152,4.259,4.259,0,0,1-2.918-1.02,3.041,3.041,0,0,1-1.16-2.332,3.355,3.355,0,0,1,.9-2.379,4.17,4.17,0,0,1,2.455-1.219l4.207-.727a2,2,0,0,0-.674-1.535,2.45,2.45,0,0,0-1.729-.621,3.586,3.586,0,0,0-1.658.381,2.885,2.885,0,0,0-1.025.768l-.316.41L107.824,18.4q.07-.094.193-.24a5.853,5.853,0,0,1,.551-.516,6.831,6.831,0,0,1,.908-.662,5.3,5.3,0,0,1,1.271-.521,5.861,5.861,0,0,1,1.635-.229,4.887,4.887,0,0,1,3.457,1.248,4.027,4.027,0,0,1,1.348,3.076Zm-5.52-1.922a3,3,0,0,0,2.291-.873,3.484,3.484,0,0,0,.826-2.49V22.48l-3.727.6a1.878,1.878,0,0,0-1.043.527,1.42,1.42,0,0,0-.4,1.031,1.259,1.259,0,0,0,.557,1.008A2.368,2.368,0,0,0,111.668,26.078Z" transform="translate(0.117 17.52)" fill="#fff"/>
</svg>
