<svg xmlns="http://www.w3.org/2000/svg" viewBox="0 0 21.99026 18.96347"><g id="Layer_2" data-name="Layer 2"><g id="Слой_2" data-name="Слой 2"><path d="M21.99026,8.10778c-.18829.38411-.43119.54768-.7351.495a.652.652,0,0,1-.55307-.68451,9.76031,9.76031,0,0,0-.66-3.47673A9.57,9.57,0,0,0,17.93665,1.187a.72791.72791,0,0,1-.26022-.586.60841.60841,0,0,1,.41084-.55309.59332.59332,0,0,1,.68912.15667c.40267.45447.82051.90081,1.17483,1.39184a10.6525,10.6525,0,0,1,2.0016,5.48784,2.05125,2.05125,0,0,0,.03744.20748Z" fill="#fff"/><path d="M16.469,10.69661c0,.58681-.00432,1.17368.00366,1.76038a.837.837,0,0,0,.08065.34684c.38731.78887.7847,1.57278,1.17645,2.35947a.65823.65823,0,0,1-.6447,1.03658q-1.26665.00453-2.53329-.00175c-.14835-.00093-.21962.028-.26166.19415a3.39682,3.39682,0,0,1-6.59234-.00979c-.03916-.15583-.10521-.18547-.24764-.18453-.83724.00558-1.67454.00413-2.51181.00112a1.24781,1.24781,0,0,1-.36055-.03746.63954.63954,0,0,1-.34913-.93035c.399-.80717.80742-1.60966,1.20374-2.41812a.87537.87537,0,0,0,.086-.36676c.00809-1.08768-.032-2.17717.01664-3.26279A5.3453,5.3453,0,0,1,8.80334,4.33483a.34912.34912,0,0,0,.22427-.273,2.01737,2.01737,0,0,1,3.93744.01014.33.33,0,0,0,.21239.2587,5.37838,5.37838,0,0,1,3.28284,4.86341c.02587.49957.00379,1.00163.00379,1.50254Zm-.31153,4.20513c-.26529-.531-.504-1.03375-.766-1.524a1.81483,1.81483,0,0,1-.21545-.902c.00928-1.109.02914-2.21933-.01034-3.32717a4.16223,4.16223,0,0,0-2.85961-3.77914A.683.683,0,0,1,11.729,4.5873a.73674.73674,0,1,0-1.46686-.00472.68352.68352,0,0,1-.5728.78522A4.20383,4.20383,0,0,0,6.81251,9.35829c-.00859.74414-.04372,1.49144.00876,2.23195a4.05217,4.05217,0,0,1-.61293,2.5699,7.61732,7.61732,0,0,0-.37157.7416ZM9.00038,16.21219a2.08936,2.08936,0,0,0,2.26847,1.43771c.81443-.1017,1.68463-.83926,1.69288-1.43771Z" fill="#fff"/><path d="M.00253,7.66089A10.9043,10.9043,0,0,1,3.16451.2506a.64783.64783,0,1,1,.921.90063,9.65425,9.65425,0,0,0-2.79167,6.5222c-.00386.11433.0022.22936-.00791.343a.65394.65394,0,0,1-.647.59549.65443.65443,0,0,1-.63517-.608C-.0039,7.89011.00253,7.77528.00253,7.66089Z" fill="#fff"/><path d="M2.76011,7.58828A8.23,8.23,0,0,1,5.12787,2.189a.65254.65254,0,0,1,.68088-.20362.60443.60443,0,0,1,.44611.47641.68236.68236,0,0,1-.2291.65649,6.87069,6.87069,0,0,0-1.35406,1.97A7.02723,7.02723,0,0,0,4.049,7.80767a1.50526,1.50526,0,0,1-.03193.33995.64013.64013,0,0,1-.66821.46128.65373.65373,0,0,1-.5871-.613C2.7519,7.86068,2.76011,7.72418,2.76011,7.58828Z" fill="#fff"/><path d="M19.23231,7.58559c0,.12159.00312.24328-.00058.36476a.65735.65735,0,0,1-.6511.66185.64092.64092,0,0,1-.63355-.65161,7.17055,7.17055,0,0,0-.63563-2.88974,6.92469,6.92469,0,0,0-1.35854-1.96736.66426.66426,0,0,1-.21228-.66021.60372.60372,0,0,1,.45924-.46394.65635.65635,0,0,1,.66146.207,7.97439,7.97439,0,0,1,2.07043,3.60376c.15153.58535.22649,1.19053.33625,1.78669Z" fill="#fff"/></g></g></svg>