<svg xmlns="http://www.w3.org/2000/svg" viewBox="0 0 17.77089 14.4845"><g id="Layer_2" data-name="Layer 2"><g id="Слой_2" data-name="Слой 2"><path d="M17.75045,1.775A6.09423,6.09423,0,0,1,16.2952,3.35164a.69744.69744,0,0,0-.30719.64128,10.57192,10.57192,0,0,1-1.81013,5.96871,9.8723,9.8723,0,0,1-4.03666,3.53276,10.03512,10.03512,0,0,1-3.0576.89137,11.06749,11.06749,0,0,1-2.32663.06512,10.24121,10.24121,0,0,1-3.60845-.95968A8.98475,8.98475,0,0,1,0,12.85019a7.456,7.456,0,0,0,5.37032-1.50533c-.18486-.023-.33182-.0344-.4762-.06026A3.63918,3.63918,0,0,1,2.03868,8.97717c-.07445-.17568-.05451-.18775.14542-.16141a3.6524,3.6524,0,0,0,1.40939-.08924A3.691,3.691,0,0,1,1.48757,7.41217a3.55851,3.55851,0,0,1-.7889-2.3095,3.69151,3.69151,0,0,0,1.62689.43364,3.90645,3.90645,0,0,1-.86768-.833A3.62843,3.62843,0,0,1,.73733,2.79478,3.68968,3.68968,0,0,1,1.14682.79626c.05575-.10936.08774-.12617.173-.02411a10.28715,10.28715,0,0,0,4.095,2.98111,9.87146,9.87146,0,0,0,2.60248.66447c.19571.0222.39205.03885.58777.061.10256.01158.15348.01259.13025-.13121A3.58324,3.58324,0,0,1,9.47809,1.3716a3.53494,3.53494,0,0,1,3.43238-1.324,3.48172,3.48172,0,0,1,1.99406,1.0186.201.201,0,0,0,.2156.055A7.494,7.494,0,0,0,17.11651.37444a.28511.28511,0,0,1,.1779-.06276,3.76513,3.76513,0,0,1-1.48749,1.93511,4.57,4.57,0,0,0,1.08453-.20948c.28275-.084.55982-.18712.83942-.28176Z" fill="#fff"/><path d="M17.73087,1.75555c.01262-.013.02627-.02325.03994-.00294l-.02038.02236Z" fill="#fff"/></g></g></svg>