<svg xmlns="http://www.w3.org/2000/svg" viewBox="0 0 136.60778 136.60778"><g id="Layer_2" data-name="Layer 2"><g id="Слой_3" data-name="Слой 3"><circle cx="68.30389" cy="68.30389" r="68.17884" fill="#539ffc" stroke="#539ffc" stroke-miterlimit="10" stroke-width="0.2501"/><rect x="25.74928" y="54.91611" width="20.11456" height="6.36157" fill="#142b50"/><rect x="10.41792" y="64.07465" width="28.42756" height="6.36192" fill="#142b50"/><rect x="21.11651" y="73.23361" width="24.74734" height="6.36157" fill="#142b50"/><path d="M86.54407,79.17269,81.86472,74.748A14.05527,14.05527,0,0,1,77.32,79.20789a13.99043,13.99043,0,1,1-.00721-23.9052,14.05431,14.05431,0,0,1,4.54512,4.46016l4.68621-4.42461,10.4611-9.8747,4.65108-4.39641A41.57559,41.57559,0,0,0,97.22436,36.501,41.03841,41.03841,0,0,0,32.468,50.77346h7.08262a34.6391,34.6391,0,0,1,53.0158-9.86883L82.05556,50.82139a20.35438,20.35438,0,1,0,.00729,32.86844l10.50358,9.91648a34.63911,34.63911,0,0,1-53.0158-9.86884H32.468A41.03879,41.03879,0,0,0,97.22436,98.01028a41.63316,41.63316,0,0,0,4.43189-4.56619L97.00517,89.047Z" fill="#142b50"/></g></g></svg>