<svg xmlns="http://www.w3.org/2000/svg" viewBox="0 0 157.35 143.86"><defs><style>.cls-1{fill:#e0ebfb;}.cls-2{fill:#f6d347;}.cls-3{fill:#eba741;}.cls-4{fill:#fffcac;opacity:0.22;}.cls-5{fill:#fff;}.cls-6{fill:#386cb1;opacity:0.26;}.cls-7{fill:#cbdefb;}.cls-8{fill:#eef5fd;}.cls-9{fill:#6791d3;}.cls-10{fill:#4770ac;}.cls-11{fill:#f1d1c2;}.cls-12{fill:#e8bbaa;}.cls-13{fill:#1a2b4d;}.cls-14{fill:#4a7a7e;}.cls-15{fill:#ccdffc;}.cls-16{fill:#0f203a;}.cls-17{fill:#74a4e8;}.cls-18{fill:#6792d4;}.cls-19{fill:#5a80c2;}.cls-20{fill:#366265;}.cls-21{fill:#f4c1bc;}.cls-22{fill:#93563e;}.cls-23{fill:#424242;}.cls-24{fill:#282828;}.cls-25{fill:#ddecf5;opacity:0.5;}.cls-26{fill:#824430;}.cls-27{fill:#595f6e;}.cls-28{fill:#71a39f;}.cls-29{fill:#f4f8fe;}.cls-30{fill:#aa523d;}.cls-31{fill:#b5483b;}</style></defs><g id="Layer_2" data-name="Layer 2"><g id="Слой_3" data-name="Слой 3"><path class="cls-1" d="M1.72,119a31.45,31.45,0,0,0,.37-3.79c.4-13.31-4.51-27.79-.51-40.82C3,69.93,5.3,66,7.21,61.81a67.31,67.31,0,0,0,5.63-20.38c.54-4.66.61-9.41,1.5-14C16.81,14.72,26.06,4.25,36.87,1.94A30.79,30.79,0,0,1,53.1,3c5.34,1.8,9.57,5.15,14.26,8.12a68.62,68.62,0,0,0,30,10.58c14.39,1.32,30.33-2.33,41.85,8.72a29.57,29.57,0,0,1,8.68,17.81c.8,6.63-.91,13.72-1.73,20.29-.85,6.81-3.15,15.32.67,21.63,1.36,2.24,3.42,3.94,5.14,5.93,6.18,7.15,6.52,16.93,3.76,25.6a47.76,47.76,0,0,1-6.24,12.57,49.48,49.48,0,0,1-4.12,5.22c-.91,1-3.19,4.17-4.6,4.17H6.26a8,8,0,0,1-2.5-1.56C-2.22,136.65.61,126.73,1.72,119Z"/><ellipse class="cls-2" cx="134.37" cy="38.46" rx="14.58" ry="14.8" transform="translate(53.98 152.79) rotate(-70.86)"/><ellipse class="cls-3" cx="134.37" cy="38.46" rx="12" ry="12.18" transform="translate(53.99 152.79) rotate(-70.86)"/><path class="cls-4" d="M142,29.12l-18.56,14.4a12.18,12.18,0,0,0,1.12,1.87l19-14.75A12.61,12.61,0,0,0,142,29.12Zm2.55,2.78-19,14.72a12.3,12.3,0,0,0,4.62,3.06L146.43,37A12.18,12.18,0,0,0,144.5,31.9Zm-5.9-4.67L122.31,39.87a11.5,11.5,0,0,0,.54,2.32l17.91-13.9A12.37,12.37,0,0,0,138.6,27.23Z"/><path class="cls-5" d="M139.33,40.51a3.29,3.29,0,0,0-1.48-1.59,3,3,0,0,0,1.5-1,3.58,3.58,0,0,0,.81-1.67,3.43,3.43,0,0,0-.06-1.69,3.54,3.54,0,0,0-.71-1.33,3.05,3.05,0,0,0-1.17-.83,12,12,0,0,0-1.75-.49l.32-1.62-.89-.18-.32,1.62-1-.2.32-1.62-.9-.18-.32,1.62-2.54-.51-2.71,13.74,2.55.51-.24,1.2.9.18.23-1.2.74.15.23,0-.23,1.2.89.18.24-1.21c.94.17,1.56.27,1.87.29a3.27,3.27,0,0,0,1.79-.31,3.65,3.65,0,0,0,1.35-1.2,4.59,4.59,0,0,0,.74-1.75A3.67,3.67,0,0,0,139.33,40.51Zm-6.14-6.84,1.43.28c1.16.24,1.87.4,2.1.48a1.35,1.35,0,0,1,.84.67,1.58,1.58,0,0,1,.11,1.09A1.48,1.48,0,0,1,136,37.48c-.24,0-.84-.12-1.81-.31l-1.62-.33Zm3.22,9.48a1.48,1.48,0,0,1-1,.37,10,10,0,0,1-1.71-.26l-2.3-.46.73-3.67,2,.4a8,8,0,0,1,2.16.64,1.64,1.64,0,0,1,.65.78,2,2,0,0,1,.06,1.11A1.85,1.85,0,0,1,136.41,43.15Z"/><ellipse class="cls-2" cx="111.11" cy="14.51" rx="12.48" ry="12.3"/><ellipse class="cls-3" cx="111.11" cy="14.51" rx="10.27" ry="10.12"/><path class="cls-4" d="M114.57,5l-10.8,16.59a10.61,10.61,0,0,0,1.4,1.19l11.08-17A10.68,10.68,0,0,0,114.57,5Zm2.8,1.51-11.05,17a10.41,10.41,0,0,0,4.52,1.16l9.49-14.56A10.13,10.13,0,0,0,117.37,6.49Zm-6-2.09L101.89,19a9.94,9.94,0,0,0,1.07,1.7l10.44-16A10.34,10.34,0,0,0,111.38,4.4Z"/><path class="cls-5" d="M115.63,14.78a2.73,2.73,0,0,0-1.62-.86,2.54,2.54,0,0,0,.93-1.18,3,3,0,0,0,.19-1.56,3,3,0,0,0-.51-1.32,3.07,3.07,0,0,0-.94-.87,2.63,2.63,0,0,0-1.16-.33,9.33,9.33,0,0,0-1.53.09l-.19-1.39-.76.11.19,1.38L109.4,9l-.19-1.38-.76.1.19,1.38-2.17.3,1.63,11.69,2.18-.3.14,1,.76-.1-.14-1,.62-.09.2,0,.15,1,.76-.11-.14-1c.79-.12,1.32-.21,1.57-.28a2.88,2.88,0,0,0,1.34-.75,3.05,3.05,0,0,0,.74-1.32,3.79,3.79,0,0,0,.11-1.6A3.07,3.07,0,0,0,115.63,14.78ZM108.85,11l1.22-.17c1-.13,1.59-.2,1.81-.2a1.18,1.18,0,0,1,.85.3,1.38,1.38,0,0,1,.39.85,1.36,1.36,0,0,1-.18.95,1.32,1.32,0,0,1-.8.53,13.56,13.56,0,0,1-1.52.25l-1.39.19ZM114,17.69a1.34,1.34,0,0,1-.71.57,9.73,9.73,0,0,1-1.43.27l-2,.26-.44-3.12,1.71-.24a6.14,6.14,0,0,1,1.89-.08,1.33,1.33,0,0,1,.74.44,1.67,1.67,0,0,1,.35.86A1.58,1.58,0,0,1,114,17.69Z"/><rect class="cls-6" x="39.73" y="2.87" width="54.68" height="69.49" rx="4.16"/><rect class="cls-7" x="36.25" width="54.68" height="69.49" rx="4.16"/><rect class="cls-8" x="41.27" y="38.88" width="44.22" height="3.95" rx="1.57"/><rect class="cls-8" x="41.27" y="30.22" width="44.22" height="3.95" rx="1.57"/><rect class="cls-8" x="41.27" y="22.33" width="44.22" height="3.95" rx="1.57"/><rect class="cls-8" x="41.27" y="47.19" width="44.22" height="3.95" rx="1.57"/><rect class="cls-8" x="41.27" y="55.5" width="44.22" height="3.95" rx="1.57"/><path class="cls-8" d="M47.7,6.46h7.7V8.72H52.81v7H50.29v-7H47.7Z"/><path class="cls-8" d="M64.86,13.76h-3l-.66,2H58.43l3.51-9.29h2.79l3.52,9.29H65.53Zm-.66-2-.86-2.72-.87,2.72Z"/><path class="cls-8" d="M75.12,12.64l-1.86,3.11H70.48l3-4.84L70.74,6.46h2.79l1.59,2.72,1.59-2.72H79.5l-2.79,4.45,3.06,4.84H77Z"/><rect class="cls-6" x="13.46" y="30.22" width="54.68" height="69.49" rx="4.16"/><rect class="cls-9" x="9.98" y="27.35" width="54.68" height="69.49" rx="4.16"/><rect class="cls-10" x="15" y="57.57" width="44.22" height="3.95" rx="1.57"/><rect class="cls-10" x="15" y="66.24" width="44.22" height="3.95" rx="1.57"/><rect class="cls-10" x="15" y="74.74" width="44.22" height="3.95" rx="1.57"/><rect class="cls-10" x="15" y="49.68" width="44.22" height="3.95" rx="1.57"/><rect class="cls-10" x="15" y="83.35" width="44.22" height="3.95" rx="1.57"/><path class="cls-10" d="M21.43,33.81h7.7v2.26H26.54v7H24v-7H21.43Z"/><path class="cls-10" d="M38.59,41.11H35.54l-.66,2H32.15l3.52-9.29h2.79L42,43.1H39.25Zm-.66-2-.87-2.72-.86,2.72Z"/><path class="cls-10" d="M48.85,40,47,43.1H44.2l3.06-4.84-2.79-4.45h2.79l1.59,2.72,1.59-2.72h2.79l-2.79,4.45,3.05,4.84H50.71Z"/><path class="cls-11" d="M38.56,55.17l-.07-2.39-3.39.7-.2,1.57A2.72,2.72,0,0,0,38.56,55.17Z"/><path class="cls-12" d="M38.55,54.85l-.06-2.07-3.44,1.07-.1.77A6.18,6.18,0,0,0,38.55,54.85Z"/><path class="cls-12" d="M40.84,48.47a1,1,0,0,0,.54,1.35,1.08,1.08,0,0,0,1.25-.8,1,1,0,0,0-.54-1.36A1.08,1.08,0,0,0,40.84,48.47Z"/><path class="cls-11" d="M41,51.86a4.77,4.77,0,0,0,.31-.82,8.76,8.76,0,0,0,.31-2.26l0-.44a4.6,4.6,0,0,0-.19-1.86A5,5,0,0,0,36.62,43a4.92,4.92,0,0,0-5,5.23,1.07,1.07,0,0,0-1,0,1.28,1.28,0,0,0-.33,1.8,1.37,1.37,0,0,0,1.74.7.8.8,0,0,0,.21-.15,4.66,4.66,0,0,0,5,3.79A4.58,4.58,0,0,0,40.21,53l.15-.17A4.24,4.24,0,0,0,41,51.86Z"/><polygon class="cls-13" points="25.81 84.75 22.93 143.87 29.46 143.87 39.79 83.8 25.81 84.75"/><path class="cls-5" d="M33.65,56.1S33,86.63,33.17,86.63s6.1,1.11,6.1,1.11l1.83-2.52-.32-28.07-3-1-1-.3H35.36Z"/><polygon class="cls-14" points="38.84 79.9 36.95 57.32 36.33 57.32 34.51 79.9 36.68 82.4 38.84 79.9"/><path class="cls-14" d="M36,57.17l.15.12a.77.77,0,0,0,1,0l.25-.2L36.73,56l-.48.11Z"/><path class="cls-11" d="M63.9,42.46a.12.12,0,0,0,.2.07,13.82,13.82,0,0,1,2.35-2.06c.2.13-1.25,1.62-1.16,1.81S66.76,41,67,41.15s-1.12,1.48-1.06,1.58,1.43-1,1.6-1-1.16,1.42-1.12,1.56,1.26-.52,1.33-.42.13.16-2.23,2.42l-1,.86-1.17.27-.82-1.18s.67-4.16.83-4.23S63.6,41,63.9,42.46Z"/><path class="cls-15" d="M38.55,55a9,9,0,0,1-1.84.78A9,9,0,0,1,34.87,55L33.65,56.1c.19,1,2.17,1.72,2.17,1.72l.87-1.73.69,1.73a6.17,6.17,0,0,0,2.41-1.37Z"/><path class="cls-13" d="M65.12,46.41a3.71,3.71,0,0,0-3.25-2.08S57,56.94,39.27,55.84c.1,4.28.61,24.14.92,30.23,3.11-.35,5.8-.73,5.8-.73s-1.4-16.75-.42-21.3C45.57,64,61.13,64.2,65.12,46.41Z"/><path class="cls-13" d="M34.1,89.4a18.49,18.49,0,0,1-2.12,0,27.74,27.74,0,0,1-7-1.82l.32-5.3.21-3.51.74-12.28c-1.54.45-5.07,2.06-5.07,2.06a17.2,17.2,0,0,0,3.95,9,11.74,11.74,0,0,1-.32,1.24H24l-1,1,.48,1.09.31.25a5,5,0,0,1-.72,1c-3.43-.56-11.4-11.33-8.4-17.07,2.77-5.27,16.94-8.7,19.22-9.22Z"/><polygon class="cls-16" points="33.9 55.87 29.13 60.19 31.52 61.87 29.13 64.53 33.9 86.61 33.9 55.87"/><polygon class="cls-16" points="39.27 55.84 44.04 60.12 41.65 61.8 44.04 64.46 40.19 86.07 39.27 55.84"/><rect class="cls-17" x="35.38" y="87.85" width="27.71" height="55.93"/><polygon class="cls-18" points="27.8 143.79 35.38 143.79 35.38 87.85 27.8 91.69 27.8 143.79"/><polygon class="cls-19" points="26 92.59 27.8 92.59 27.8 91.69 26.9 91.54 26 92.59"/><path class="cls-15" d="M55.8,82.77H55V79.93a.68.68,0,0,0,.3-.89l-.8-1.71a1.9,1.9,0,0,1-.56.4,1.74,1.74,0,0,1-.66.17l.8,1.71a.64.64,0,0,0,.52.38v2.78H48.77V79.6a1,1,0,0,0,.46-1.29l-1.16-2.47a2.61,2.61,0,0,1-.8.58,2.58,2.58,0,0,1-1,.25l1.16,2.46a.94.94,0,0,0,.91.56v3.08H43.5V81.44a.52.52,0,0,0,.24-.7l-.63-1.36a1.43,1.43,0,0,1-.44.32,1.67,1.67,0,0,1-.53.14l.64,1.35a.5.5,0,0,0,.33.29v1.29H42a2,2,0,0,0-2,2l11-.35,6.79.35A2,2,0,0,0,55.8,82.77Z"/><rect class="cls-18" x="35.38" y="84.19" width="29.62" height="3.66"/><polygon class="cls-19" points="26 92.59 35.38 87.85 35.38 84.19 26 89.18 26 92.59"/><path class="cls-1" d="M48.84,72.73a3,3,0,1,1-4-1.44A3,3,0,0,1,48.84,72.73Z"/><path class="cls-1" d="M43.53,77.67a1.65,1.65,0,1,1-2.19-.79A1.65,1.65,0,0,1,43.53,77.67Z"/><path class="cls-1" d="M55,75.18a2.07,2.07,0,1,1-2.75-1A2.06,2.06,0,0,1,55,75.18Z"/><path class="cls-13" d="M33.14,41.53s1.6-1.18,5-.69,3.89,2.38,3.87,5L41.73,48s-1-.06-1.93-2.76c0,0-2.08,2-2.89,1.72s.46-1.83.46-1.83-3.44,3.31-5.73,3.12c0,0-1.6-4.32.21-5.66,0,0-1.28,0-1.33-.31s.67-.6,1.88-.35c0,0-.73-1.84-.23-2S33.14,41.53,33.14,41.53Z"/><path class="cls-20" d="M49.76,117.69h0a6.07,6.07,0,0,1-6.07-6.07V87.92H55.83v23.7A6.07,6.07,0,0,1,49.76,117.69Z"/><rect class="cls-18" x="20.84" y="136.26" width="53.84" height="7.61"/><rect class="cls-19" x="20.84" y="136.26" width="14.53" height="7.61"/><rect class="cls-20" x="38.84" y="125.73" width="20.87" height="1.42"/><rect class="cls-20" x="38.84" y="129.65" width="20.87" height="1.42"/><path class="cls-13" d="M24.82,78.78a10.29,10.29,0,0,1-1,2.38l-.31-.25L23,79.82l1-1Z"/><path class="cls-11" d="M27.42,81c-.17.13,1.55,1.21,1.42,1.42s-1.66-.82-1.75-.75,1.28,1.23,1.28,1.4-1.6-.89-1.73-.83.74,1.15.65,1.24-.12.14-2-1.18c-.24-.16-.5-.36-.8-.57l-.71-.55a10.29,10.29,0,0,0,1-2.38h.7a17.19,17.19,0,0,1,2.81.07c.1.13,0,.25-1.34.81a.12.12,0,0,0,0,.21,13.63,13.63,0,0,1,2.45,1.93C29.33,82,27.59,80.85,27.42,81Z"/><path class="cls-13" d="M146.56,77.26a2,2,0,0,0-.22-3,1.64,1.64,0,0,0-1.09-2.51s-.36-3.24-3.37-2.28c0,0-2.34-2.4-4.27-.8a2.33,2.33,0,0,0-2.87,1.77s-2.16.79-1.29,3.45a3.45,3.45,0,0,0-.42,4.22s-.49,3,2.9,2.82c.18.82,1.42,1.06,2.17.89,0,0,1.08,1.13,3,0,.23.2,1.47,1.16,2.24.31,0,0,2.54.48,2.27-1.74A2.64,2.64,0,0,0,146.56,77.26Z"/><polygon class="cls-21" points="133.43 112.28 133.88 141.15 134.62 143.23 136.83 141.15 138.93 111.54 133.43 112.28"/><path class="cls-21" d="M146.63,113.26H141.1s2.6,27.71,2.58,27.89a9.31,9.31,0,0,0,.94,1.41l2-1.41Z"/><polygon class="cls-22" points="133.43 112.28 133.88 141.15 134.62 143.23 136.83 141.15 138.93 111.54 133.43 112.28"/><path class="cls-22" d="M146.63,113.26H141.1s2.6,27.71,2.58,27.89a9.31,9.31,0,0,0,.94,1.41l2-1.41Z"/><path class="cls-23" d="M132.1,136.75a11.63,11.63,0,0,0,6.71.68l.51-23.05.37-4.06a5.68,5.68,0,0,0,.45.37L141.49,137a13.8,13.8,0,0,0,6.64.42c0-1.58-1-25.76-1-26.89-.07-8.1-2.58-9.29-2.58-9.29l-4.26-1.08-.94.16c-1.49-.49-4.19-1-5.3.81-1.58,2.64-1.48,10.77-1.48,10.77S132.09,135.63,132.1,136.75Z"/><path class="cls-22" d="M135.46,93l-4-1.85.36,4.23s-7.58-3.44-8-3.78a2.49,2.49,0,0,1-.41-.77,8.34,8.34,0,0,1-.34-1.15,2.61,2.61,0,0,0-.8-1.22,2.18,2.18,0,0,1-.34-.65.13.13,0,0,0-.24,0l0,.27a1.31,1.31,0,0,0,.11.67l-.1,0-.18,1.78.21,1.56,1.2.9s10.56,7.6,11.53,6.61S135.46,93,135.46,93Z"/><path class="cls-20" d="M134.55,84.05a4.53,4.53,0,0,0-2,1.67c-1.18,1.46-2.24,5.52-2.24,5.52l3.79,2.07,2.46-4.9Z"/><path class="cls-24" d="M145.27,107.45c-.4.15-.79.31-1.18.48l-1.16.53c-.38.18-.76.37-1.13.57s-.75.39-1.12.6l0-.07a8.13,8.13,0,0,1,.84-.13,8,8,0,0,1,1.69,0l.21,0,.21,0,.11,0,.1,0,.21,0-.21,0-.11,0-.1,0-.21,0-.21,0h-.84a7.89,7.89,0,0,0-.84,0,7.56,7.56,0,0,0-.83.14l-.25,0,.22-.13c.37-.21.74-.41,1.12-.6l1.14-.56q.58-.27,1.17-.51l.6-.23Z"/><path class="cls-24" d="M134.07,107.29c.2.07.4.13.6.21l.6.23q.58.24,1.17.51c.38.18.76.36,1.14.56s.75.39,1.12.6l.23.13-.26-.06a7.55,7.55,0,0,0-.83-.13,7.89,7.89,0,0,0-.84,0h-.84l-.21,0-.21,0-.1,0-.11,0-.2,0,.2,0,.1,0,.11,0,.21,0,.21,0a8,8,0,0,1,1.69,0,8.13,8.13,0,0,1,.84.13l0,.07c-.37-.21-.74-.4-1.12-.6s-.75-.39-1.13-.57l-1.16-.53C134.86,107.6,134.47,107.44,134.07,107.29Z"/><path class="cls-25" d="M134.92,102.61l1,.16,1,.11c.7.07,1.4.12,2.11.13h1l1.06-.06c.35,0,.69-.07,1-.12s.69-.13,1-.22c-.33.1-.68.17-1,.24s-.7.1-1.05.14-.7.05-1.06.06-.7,0-1,0c-.71,0-1.41-.06-2.11-.13l-1-.13Z"/><path class="cls-23" d="M142.84,103.92l.06.12.06.11.12.23.21.38.58,1c.09.15.85,1.49,1,1.79a7.9,7.9,0,0,1-.69-.84c-.09-.14-.18-.3-.26-.45l-.26-.46c-.16-.31-.31-.62-.46-.93l-.21-.48a2.44,2.44,0,0,1-.1-.24C142.9,104.08,142.86,104,142.84,103.92Z"/><path class="cls-14" d="M150.29,88.78c-1.72-2.08-3.71-4.33-5.45-5.21a15.45,15.45,0,0,0-3.16-.55,21,21,0,0,0-4.75,0c-1.28.46-3.5,1.25-3.53,2-.14,3.76-.19,6.65-.17,8.87,0,0-.06,8,0,9.74,0,0,8.72,1.88,13.19.75,0,0,.73-10.49-.33-13.33l.45.58A7.59,7.59,0,0,0,150.29,88.78Z"/><path class="cls-22" d="M150,89.1a8.19,8.19,0,0,1-3.15,2.45l4.22,5-7.72,8.32,1.36,2.37c1.07-.52,1.31-2.5,1.31-2.5s9.56-6.38,9.56-7.91C155.61,94.83,150,89.1,150,89.1Z"/><path class="cls-14" d="M150.1,89c-.07.08-.13.16-.2.23l-.2.22-.1.11-.11.1-.22.21-.22.19c-.14.14-.31.25-.46.38a8.07,8.07,0,0,1-1,.64l-.13.07-.13.06a1.59,1.59,0,0,1-.27.12l-.14.06-.13,0-.19.06-.47-.55-.52-.62-1.06-1.22c-.36-.41-.71-.81-1.08-1.21s-.73-.8-1.1-1.19c.32.43.65.86,1,1.28l1,1.27c.35.41.69.83,1,1.25l.52.62.53.61.05.07.09,0,.3-.1a2.52,2.52,0,0,0,.29-.12l.28-.13.13-.07.14-.08a6.4,6.4,0,0,0,1-.7l.23-.2.22-.21.21-.21.2-.23.1-.11.09-.12.19-.24.33-.49Z"/><path class="cls-22" d="M137.83,83a3,3,0,0,0,3.08,0h0l-.32-2.51-2.68-.55L137.83,83Z"/><path class="cls-26" d="M137.87,81.52l0-1.63,2.69.61.11.85A4.79,4.79,0,0,1,137.87,81.52Z"/><path class="cls-26" d="M135.91,75.81a.81.81,0,0,1-.6,1,.85.85,0,0,1-.86-.79.81.81,0,0,1,.6-1A.85.85,0,0,1,135.91,75.81Z"/><path class="cls-22" d="M135.37,78.44a3.89,3.89,0,0,1-.13-.68A6.75,6.75,0,0,1,135.3,76c0-.11,0-.23,0-.35a3.8,3.8,0,0,1,.4-1.42,4,4,0,0,1,4.2-2,3.87,3.87,0,0,1,3.17,4.73.88.88,0,0,1,.76.14,1,1,0,0,1,0,1.44,1.08,1.08,0,0,1-1.45.32l-.14-.15a3.69,3.69,0,0,1-4.39,2.29,3.53,3.53,0,0,1-2.09-1.53.56.56,0,0,1-.1-.15A3.43,3.43,0,0,1,135.37,78.44Z"/><polygon class="cls-27" points="120.36 65.11 123.05 125.48 123.59 125.47 120.91 65.11 120.36 65.11"/><path class="cls-22" d="M120.65,90.39a2.59,2.59,0,0,1,0-.41.44.44,0,0,1,.32-.35l.18,0,0,.41h0c0,.32,0,.3.42.49.62.27.36.6.36.6s-.17.24-.94-.15A.77.77,0,0,1,120.65,90.39Z"/><path class="cls-22" d="M120.59,90.75a2.5,2.5,0,0,1,0-.4.42.42,0,0,1,.3-.32l.18-.06,0,.4h0c0,.3,0,.28.39.46.6.26.35.58.35.58s-.16.22-.9-.15A.7.7,0,0,1,120.59,90.75Z"/><path class="cls-22" d="M120.69,91.22a1.77,1.77,0,0,1,0-.33.39.39,0,0,1,.26-.28l.15,0v.33h0c0,.26,0,.24.34.4s.29.48.29.48-.14.19-.76-.12A.63.63,0,0,1,120.69,91.22Z"/><path class="cls-22" d="M120.79,89.88c0-.08,0-.36,0-.41a.47.47,0,0,1,.32-.35l.19-.05v.41h0c0,.32,0,.3.42.49.63.27.37.6.37.6s-.18.24-.95-.15A.77.77,0,0,1,120.79,89.88Z"/><path class="cls-26" d="M121.34,89.48a1.48,1.48,0,0,0,0,.21.24.24,0,0,0,.14.14l.4.17.09.06.09.06a.5.5,0,0,1,.13.19.36.36,0,0,1,0,.23l0,0,0,0-.12,0a.6.6,0,0,1-.23,0l-.21,0a2.87,2.87,0,0,1-.4-.18.89.89,0,0,1-.3-.31.47.47,0,0,1-.06-.2.41.41,0,0,1,0-.11v0a.31.31,0,0,0,0,.1.48.48,0,0,0,.07.2.9.9,0,0,0,.3.28,2.66,2.66,0,0,0,.39.16,1,1,0,0,0,.41,0,.16.16,0,0,0,.09,0s0,0,0,0a.08.08,0,0,0,0,0,.23.23,0,0,0,0-.18.36.36,0,0,0-.11-.16s-.06,0-.08-.07l-.09,0c-.12-.07-.26-.12-.39-.19l-.09-.07a.23.23,0,0,1,0-.1C121.33,89.62,121.34,89.55,121.34,89.48Z"/><path class="cls-26" d="M121.89,90.64a.35.35,0,0,1,.17.27.33.33,0,0,1,0,.17s0,0,0,0l0,0-.08,0a.82.82,0,0,1-.35,0,1.15,1.15,0,0,1-.31-.11l-.16-.07a.55.55,0,0,1-.14-.09.66.66,0,0,1-.21-.26.44.44,0,0,1-.06-.16.22.22,0,0,1,0-.08V90.3a1.64,1.64,0,0,1,0-.32c0,.1,0,.21,0,.32v.08a.17.17,0,0,0,0,.07.88.88,0,0,0,0,.15.93.93,0,0,0,.21.23l.14.08.14.07a1.92,1.92,0,0,0,.31.11.87.87,0,0,0,.32,0,.2.2,0,0,0,.12-.06.3.3,0,0,0,0-.15.23.23,0,0,0,0-.14A.41.41,0,0,0,121.89,90.64Z"/><path class="cls-26" d="M121.89,91.15a.26.26,0,0,1,0,.23.29.29,0,0,1-.09.09.5.5,0,0,1-.13,0,1.27,1.27,0,0,1-.47-.09l-.22-.1a.56.56,0,0,1-.2-.14.9.9,0,0,1-.15-.19.59.59,0,0,1,0-.23.63.63,0,0,0,.24.38.62.62,0,0,0,.19.12,1,1,0,0,0,.21.09l.22.08a.91.91,0,0,0,.23,0l.11,0,0,0s0,0,0,0A.22.22,0,0,0,121.89,91.15Z"/><path class="cls-26" d="M121.73,91.47a.25.25,0,0,1,.09.19.43.43,0,0,1,0,.11s0,0,0,0l0,0-.06,0a.59.59,0,0,1-.23,0l-.21,0-.2-.09-.1,0-.09-.07a.46.46,0,0,1-.18-.38.53.53,0,0,0,.22.34l.08.06.1,0,.19.08a1.66,1.66,0,0,0,.21.06.61.61,0,0,0,.19,0l0,0h0l0,0,0-.09a.31.31,0,0,0,0-.1A.41.41,0,0,0,121.73,91.47Z"/><ellipse class="cls-28" cx="121.25" cy="69.51" rx="10.65" ry="11.86"/><ellipse class="cls-29" cx="121.25" cy="69.51" rx="9.76" ry="10.87"/><path class="cls-13" d="M143.22,72.23l.1,2.42-5.65-1.36a3.87,3.87,0,0,1-.71.54c-.09,0-.81-.32-.78-.42s2-2.71,2-2.71,1.87.42,2,.47S143.22,72.23,143.22,72.23Z"/><path class="cls-14" d="M143.22,76a9,9,0,0,0-7.64-1.5.18.18,0,0,0,0-.05,1.36,1.36,0,0,1,1-1.55c1.09-.29,3.46-.53,6.53,1.54a1,1,0,0,1,.19,1.51S143.24,76,143.22,76Z"/><path class="cls-16" d="M140.17,143.68h6.59a.38.38,0,0,0,.37-.37h0a.37.37,0,0,0-.37-.37h-6.59a.38.38,0,0,0-.37.37h0A.38.38,0,0,0,140.17,143.68Z"/><path class="cls-13" d="M146.79,140.7l.24,2.05c0,.25-.11.48-.29.48h-6.46a.48.48,0,0,1-.42-.31A.89.89,0,0,1,140,142c.56-.79,2.37-1,3.32-1.66a.33.33,0,0,1,.19-.06h2.9C146.62,140.3,146.76,140.47,146.79,140.7Z"/><path class="cls-18" d="M143.9,141.49h0a.12.12,0,0,0,0-.16,1.25,1.25,0,0,0-1.33-.83c-.05,0-.08.07-.07.14h0c0,.06.05.1.09.09a1.09,1.09,0,0,1,1.17.72C143.82,141.5,143.86,141.52,143.9,141.49Z"/><path class="cls-18" d="M143.23,141.76h0a.14.14,0,0,0,0-.17,1.25,1.25,0,0,0-1.33-.82.11.11,0,0,0-.07.13h0c0,.07,0,.11.09.1a1.09,1.09,0,0,1,1.17.71S143.19,141.78,143.23,141.76Z"/><path class="cls-18" d="M142.61,142h0a.15.15,0,0,0,0-.17,1.24,1.24,0,0,0-1.33-.82s-.08.07-.07.13h0a.1.1,0,0,0,.09.1,1.06,1.06,0,0,1,1.16.71S142.57,142,142.61,142Z"/><path class="cls-16" d="M130.59,143.68h6.59a.37.37,0,0,0,.36-.37h0a.36.36,0,0,0-.36-.37h-6.59a.38.38,0,0,0-.37.37h0A.38.38,0,0,0,130.59,143.68Z"/><path class="cls-13" d="M137.21,140.7l.24,2.05c0,.25-.11.48-.3.48H130.7a.47.47,0,0,1-.42-.31.89.89,0,0,1,.18-.91c.56-.79,2.37-1,3.32-1.66a.33.33,0,0,1,.19-.06h2.9C137,140.3,137.18,140.47,137.21,140.7Z"/><path class="cls-18" d="M134.32,141.49h0c.05,0,.06-.1,0-.16a1.26,1.26,0,0,0-1.33-.83c-.05,0-.08.07-.07.14h0c0,.06,0,.1.09.09a1.07,1.07,0,0,1,1.16.72C134.24,141.5,134.28,141.52,134.32,141.49Z"/><path class="cls-18" d="M133.65,141.76h0a.15.15,0,0,0,0-.17,1.26,1.26,0,0,0-1.33-.82.11.11,0,0,0-.07.13h0c0,.07.05.11.09.1a1.08,1.08,0,0,1,1.16.71S133.61,141.78,133.65,141.76Z"/><path class="cls-18" d="M133,142h0a.15.15,0,0,0,0-.17,1.23,1.23,0,0,0-1.33-.82s-.07.07-.07.13h0a.11.11,0,0,0,.1.1,1.06,1.06,0,0,1,1.16.71A.08.08,0,0,0,133,142Z"/><ellipse class="cls-2" cx="121.25" cy="69.48" rx="8.66" ry="9.58" transform="translate(-0.87 1.53) rotate(-0.72)"/><ellipse class="cls-3" cx="121.25" cy="69.48" rx="7.13" ry="7.88" transform="translate(-0.87 1.53) rotate(-0.72)"/><path class="cls-4" d="M124.21,62.32l-8.47,12.15a6.69,6.69,0,0,0,.9,1L125.32,63A7.2,7.2,0,0,0,124.21,62.32Zm1.84,1.36L117.4,76.1a6.63,6.63,0,0,0,3.06,1.21l7.43-10.67A7.93,7.93,0,0,0,126.05,63.68Zm-4-2L114.6,72.32a8.36,8.36,0,0,0,.64,1.39L123.41,62A6.32,6.32,0,0,0,122,61.65Z"/><path class="cls-5" d="M124.36,70a2,2,0,0,0-1.07-.78,1.9,1.9,0,0,0,.71-.84,2.71,2.71,0,0,0,0-2.26,2.26,2.26,0,0,0-.6-.74,1.81,1.81,0,0,0-.78-.34,5.58,5.58,0,0,0-1.06,0l-.05-1.09-.54,0L121,65l-.58,0,0-1.08-.53,0,0,1.08-1.52.08.43,9.18,1.52-.08,0,.8.54,0,0-.8.44,0h.14l0,.8.54,0,0-.81c.56,0,.93-.08,1.11-.11a1.91,1.91,0,0,0,1-.49,2.57,2.57,0,0,0,.59-1,3.49,3.49,0,0,0,.17-1.23A2.64,2.64,0,0,0,124.36,70Zm-4.47-3.37.85-.05c.7,0,1.12,0,1.26,0a.8.8,0,0,1,.58.29,1.25,1.25,0,0,1,.22.68,1.12,1.12,0,0,1-.19.73.89.89,0,0,1-.58.36,9.45,9.45,0,0,1-1.07.09l-1,0Zm3.19,5.52a.9.9,0,0,1-.52.4,6.07,6.07,0,0,1-1,.11l-1.37.07-.12-2.45,1.2-.07a4.41,4.41,0,0,1,1.31.06,1,1,0,0,1,.49.4,1.44,1.44,0,0,1,.19.69A1.35,1.35,0,0,1,123.08,72.14Z"/><rect class="cls-30" x="98.23" y="81.92" width="2.52" height="6.09" transform="translate(-10.31 13.82) rotate(-7.56)"/><path class="cls-30" d="M103.57,76.07a1,1,0,0,0-.83.14,4.47,4.47,0,0,0-8.87,1.18,1,1,0,0,0-.84.08,1.29,1.29,0,0,0,1.41,2.1.61.61,0,0,0,.17-.15,4,4,0,0,0,7.94-1,.75.75,0,0,0,.2.1,1.3,1.3,0,0,0,.82-2.4Z"/><path class="cls-13" d="M102.49,71.35c-.91-1.45-4.18-2.24-6.14-1.7a1.85,1.85,0,0,0,.26.76c-.24-.23-1.14-.9-3.07-.17,0,0,.35.62.53.85a3.49,3.49,0,0,1-1.3-.12,2.49,2.49,0,0,0,.14,2.13l-.71-.19s.53,2.32,1,3.73h0c.08.43.16.7.16.7a1.26,1.26,0,0,1,1,.36l.11-.08c.41-.28.24-2.3.84-3.2a9.91,9.91,0,0,1,4.83-.94c1.16.21,1.55,2.92,2.11,3.11l.12,0a1,1,0,0,1,.89-.6S103.4,72.81,102.49,71.35Z"/><path class="cls-30" d="M96.21,83.72l6.13-.81-1.3,3a22.71,22.71,0,0,1-3,.39A19.6,19.6,0,0,1,96.21,83.72Z"/><path class="cls-24" d="M94.69,102.73S92,126.94,92.41,135.38l4.8.57,5-28,.63,0,3.22,28.16h4.35s.72-28.11-1.63-36S94.69,102.73,94.69,102.73Z"/><path class="cls-30" d="M96.37,137.18l-.1,3.51L94,142.37a14,14,0,0,1-.87-1.88c0-.21,0-4.23,0-4.23Z"/><path class="cls-30" d="M106.86,137.18l.09,3.51,2.33,1.68a14.76,14.76,0,0,0,.74-1.88c0-.21.12-4.23.12-4.23Z"/><path class="cls-23" d="M92.27,135.06l5,.6a.25.25,0,0,1,.21.29l-.35,1.78a.24.24,0,0,1-.27.19l-4.72-.65A.25.25,0,0,1,92,137l0-1.73A.26.26,0,0,1,92.27,135.06Z"/><path class="cls-30" d="M89.27,88.53,90.83,84l-1.29-.29a11.3,11.3,0,0,1-5.76-1.8C82.9,81,86,74.77,86,74.77l-2.42-.49s-5.58,7.47-3.2,10,8.2,4.17,8.2,4.17Z"/><path class="cls-30" d="M110.28,85.75l-2.7-4,1.18-.61a11.15,11.15,0,0,0,5.08-3.24c.62-1.12-4-6.28-4-6.28l2.21-1.1s7.33,5.76,5.7,8.84-6.83,6.16-6.83,6.16Z"/><path class="cls-23" d="M110.82,135.2l-5,.6a.24.24,0,0,0-.21.28l.34,1.78a.24.24,0,0,0,.27.2l4.72-.66a.23.23,0,0,0,.21-.24l0-1.73A.24.24,0,0,0,110.82,135.2Z"/><path class="cls-28" d="M111.38,85.7l-2.59-4.88a33.29,33.29,0,0,1-5.35,1.68,5,5,0,0,0-1.49.63l0,0a6.35,6.35,0,0,1-5.2.69l-.06,0a5.07,5.07,0,0,0-1.6-.21,35.86,35.86,0,0,1-5.61-.23l-1.22,5.39a22.27,22.27,0,0,0,5,.45L94,104.74h0a36.28,36.28,0,0,0,15.79-2.07l.12,0-3.29-15.18A21.66,21.66,0,0,0,111.38,85.7Z"/><rect class="cls-5" x="75.41" y="49.63" width="40.68" height="22.94" rx="1.42" transform="translate(-7.2 13.12) rotate(-7.56)"/><path class="cls-30" d="M86.24,73.93s.69-.28.71-.85.41-.31.44-.06.44,1.39-1.36,1.75-2.42-.49-2.42-.49Z"/><path class="cls-30" d="M109.4,70.86s-.74-.09-.91-.64-.47-.19-.44.06-.06,1.46,1.77,1.33,2.21-1.1,2.21-1.1Z"/><rect class="cls-31" x="77.2" y="53.64" width="35.41" height="1.36" transform="translate(-6.32 12.95) rotate(-7.56)"/><rect class="cls-31" x="77.75" y="57.77" width="35.41" height="1.36" transform="translate(-6.86 13.06) rotate(-7.56)"/><rect class="cls-31" x="78.3" y="61.89" width="35.41" height="1.36" transform="matrix(0.99, -0.13, 0.13, 0.99, -7.39, 13.17)"/><rect class="cls-31" x="84.55" y="66.02" width="24" height="1.36" transform="translate(-7.93 13.27) rotate(-7.56)"/><path class="cls-16" d="M89.79,143.68h6.59a.38.38,0,0,0,.37-.37h0a.37.37,0,0,0-.37-.37H89.79a.38.38,0,0,0-.37.37h0A.38.38,0,0,0,89.79,143.68Z"/><path class="cls-13" d="M96.41,140.7l.24,2.05c0,.25-.11.48-.29.48H89.9a.48.48,0,0,1-.42-.31.89.89,0,0,1,.18-.91c.56-.79,2.37-1,3.32-1.66a.33.33,0,0,1,.19-.06h2.9C96.24,140.3,96.38,140.47,96.41,140.7Z"/><path class="cls-18" d="M93.52,141.49h0a.12.12,0,0,0,0-.16,1.25,1.25,0,0,0-1.33-.83s-.08.07-.07.14h0c0,.06,0,.1.09.09a1.09,1.09,0,0,1,1.17.72C93.44,141.5,93.48,141.52,93.52,141.49Z"/><path class="cls-18" d="M92.85,141.76h0a.14.14,0,0,0,0-.17,1.25,1.25,0,0,0-1.33-.82.11.11,0,0,0-.07.13h0c0,.07.05.11.09.1a1.09,1.09,0,0,1,1.17.71S92.81,141.78,92.85,141.76Z"/><path class="cls-18" d="M92.23,142h0a.15.15,0,0,0,0-.17,1.24,1.24,0,0,0-1.33-.82s-.08.07-.07.13h0a.1.1,0,0,0,.09.1,1.06,1.06,0,0,1,1.16.71A.08.08,0,0,0,92.23,142Z"/><path class="cls-16" d="M113.27,143.68h-6.59a.37.37,0,0,1-.36-.37h0a.36.36,0,0,1,.36-.37h6.59a.38.38,0,0,1,.37.37h0A.38.38,0,0,1,113.27,143.68Z"/><path class="cls-13" d="M106.65,140.7l-.24,2.05c0,.25.11.48.3.48h6.45a.47.47,0,0,0,.42-.31.89.89,0,0,0-.18-.91c-.56-.79-2.37-1-3.32-1.66a.33.33,0,0,0-.19-.06H107C106.82,140.3,106.68,140.47,106.65,140.7Z"/><path class="cls-18" d="M109.54,141.49h0c-.05,0-.06-.1,0-.16a1.26,1.26,0,0,1,1.33-.83s.08.07.07.14h0c0,.06-.05.1-.09.09a1.07,1.07,0,0,0-1.16.72C109.62,141.5,109.58,141.52,109.54,141.49Z"/><path class="cls-18" d="M110.21,141.76h0a.15.15,0,0,1,0-.17,1.26,1.26,0,0,1,1.33-.82.11.11,0,0,1,.07.13h0c0,.07,0,.11-.09.1a1.08,1.08,0,0,0-1.16.71S110.25,141.78,110.21,141.76Z"/><path class="cls-18" d="M110.83,142h0a.15.15,0,0,1,0-.17,1.23,1.23,0,0,1,1.33-.82s.07.07.07.13h0a.11.11,0,0,1-.1.1,1.06,1.06,0,0,0-1.16.71A.08.08,0,0,1,110.83,142Z"/></g></g></svg>