<svg xmlns="http://www.w3.org/2000/svg" viewBox="0 0 176.38806 199.63277"><g id="Layer_2" data-name="Layer 2"><g id="Слой_2" data-name="Слой 2"><path d="M101.62191,76.7047l9.49182,9.4922s18.07544,7.06851,20.09507,11.41062c2.01961,4.34176-1.81778,4.1401-6.05889,3.534-4.2411-.60575-16.25747-8.07813-16.25747-8.07813L97.8857,80.33987Z" fill="#366265"/><path d="M129.40436,95.70336l-2.34771-.833-4.54417,2.12047a10.27193,10.27193,0,0,0-3.48374,5.52875c-1.136,3.938,0,27.49146,1.89341,31.27825C122.81553,137.58427,129.40436,95.70336,129.40436,95.70336Z" fill="#71a39f"/><path d="M144.31042,190.15845s1.66925,1.07485,1.80625,1.56954c.13719.495,1.3611,5.8466.903,6.46695-.458.62035-2.13544.32041-1.48384.772.4921.34123,3.66513.60208,5.69315.05479.592-.15965.32152-5.16268.40846-5.92479.12641-1.10662.89308-3.61909.42782-4.27379A9.775,9.775,0,0,0,149.365,187.486a9.6903,9.6903,0,0,1-2.6-1.83914Z" fill="#5e3c33"/><path d="M149.26083,187.444s-.98551,9.49421-2.13908,10.19568c-.30616.18595-1.92886.32516-2.07828,1.1-.00383.01938-.0378.79536.45449.81437l6.15332-.019s.06448-4.668.02522-6.49692c0,0,.85-4.668.57248-5.01728C151.97133,187.67156,149.26083,187.444,149.26083,187.444Z" fill="#1a2b4d"/><path d="M168.39375,190.15845s1.66944,1.07485,1.80644,1.56954c.137.495,1.36091,5.8466.903,6.46695-.45833.62035-2.13562.32041-1.48384.772.4921.34123,3.66512.60208,5.69315.05479.59187-.15965.32152-5.16268.40846-5.92479.12641-1.10662.89308-3.61909.42782-4.27379a9.775,9.775,0,0,0-2.70026-1.33717,9.69239,9.69239,0,0,1-2.60016-1.83914Z" fill="#492822"/><path d="M138.16788,128.45285s5.62649,11.17333,6.78006,14.17317l8.57463,21.75555L172.43318,186.627s-1.38429,3.57454-3.47772,4.53247c0,0-22.80042-18.4108-24.67574-21.31018-2.85882-4.41994-15.876-31.50038-15.876-31.50038l-2.42-5.20872Z" fill="#282828"/><path d="M124.56829,128.33448l.09,9.52746s-4.07048,31.12079-3.2817,32.96978c1.92389,4.51055,23.0737,19.79183,23.0737,19.79183l2.87782-4.94787-15.19725-16.96441,5.75565-16.5103c1.6108-3.835,5.03627-11.246,4.94933-15.40475-.07454-3.56431-7.13939-11.8284-7.13939-11.8284Z" fill="#424242"/><path d="M133.20394,142.41485c5.60346-1.27286,10.13867-3.253,10.60339-4.816.21044-.7073-2.91471-7.81545-5.21383-17.3071-.75078-3.09885-.61579-6.00992-1.81759-16.86359-.25538-2.302-1.20911-7.12751-4.7736-8.37224a5.34653,5.34653,0,0,0-1.95111-.38105c-.0296.00513-4.53612.03545-6.59777,1.17971-.50856.69085-2.40524,4.46852-2.91,14.7685-.2205,4.49684-1.1185,18.93526-.934,21.28115q.04112.52226.10449,1.01091C120.52063,139.148,127.07528,143.80681,133.20394,142.41485Z" fill="#366265"/><path d="M123.29908,102.89626c.004.00146.0095-.00073.01606-.00073,2.284-.2521,8.02993-7.78,8.02993-7.78l-.01242-.02082-3.54532-5.61463s-5.22206.95064-4.20019,2.541c1.021,1.58779,1.59419,5.40381,1.59419,5.40381-.01717.04348-.04018.0961-.0716.15928A18.95782,18.95782,0,0,0,123.29908,102.89626Z" fill="#5e3c33"/><path d="M123.5877,92.02031c-1.02151-1.58852,4.20127-2.53987,4.20127-2.53987l.295.46726a3.04278,3.04278,0,0,1-.1465,1.06572,6.8238,6.8238,0,0,1-3.32884,3.66842A10.11986,10.11986,0,0,0,123.5877,92.02031Z" fill="#492822"/><path d="M124.83956,80.60182c.1127-.107,4.073,6.40668,3.122,9.08905-.95062,2.68273-4.15086,4.82146-6.05085,3.86461-2.10182-1.0584-5.27959-8.5297-3.36391-11.69832S124.83956,80.60182,124.83956,80.60182Z" fill="#5e3c33"/><path d="M119.10456,77.67871a13.29852,13.29852,0,0,1,8.83877,1.83657,6.09907,6.09907,0,0,1,1.67895,7.97914,4.79117,4.79117,0,0,0-.51678,4.08492s-4.05112-.25428-4.87187-3.01153c-.34415-1.15706.084-1.94109-.69434-2.5936-.59953-.50271-1.10316-1.96445-1.69795-3.1394,0,0-2.61331-1.3894-3.6085-.24587C117.89271,82.98022,116.114,78.321,119.10456,77.67871Z" fill="#1a2b4d"/><path d="M123.13138,86.48022c.35456.85088,1.04269,1.3737,1.53738,1.16764.49467-.20569.60829-1.06242.25391-1.9133-.35457-.85089-1.04269-1.37371-1.53738-1.16765C122.89062,84.7726,122.777,85.62934,123.13138,86.48022Z" fill="#5e3c33"/><path d="M173.37065,187.45491s-1.012,9.48325-2.16539,10.18472c-.30634.18595-1.929.32516-2.07827,1.1-.00383.01938-.0506.82058.45431.80778l6.1471-.01242s.07071-4.668.03161-6.49692c0,0,.85-4.668.5723-5.01728C176.05485,187.67156,173.37065,187.45491,173.37065,187.45491Z" fill="#1a2b4d"/><path d="M37.44307,143.63c-4.88556-10.22015-6.22748-25.47219-.90294-37.56949,8.97615-20.41947,33.67546-28.753,31.857-51.89429A18.74092,18.74092,0,0,0,61.52586,40.6324C51.47268,32.69455,35.29813,36.89565,23.75344,42.439A72.34711,72.34711,0,0,0,3.21165,57.50931L0,16.63655C13.858,6.80294,30.62612,1.66145,47.36236.34638c34.29564-2.695,60.77893,10.16809,63.47445,44.47287,2.45839,31.28665-18.68447,45.14708-32.86788,60.78749-7.87263,8.68133-9.65131,15.36933-9.04265,23.11573.31474,4.00473,1.81686,8.94947,4.23107,12.1013Zm24.625,55.89225c-33.33616,2.61952-37.19639-42.16552-3.52121-44.81172C91.7174,152.10415,95.27605,196.91259,62.06805,199.52224Z" fill="#b5483b"/><path d="M96.54,78.77072a7.18677,7.18677,0,0,0-.25739-2.26806,4.1637,4.1637,0,0,0-.81581-1.66706,3.814,3.814,0,0,0-.75627-.66128.37844.37844,0,0,0-.60354.35364c.07652.20971.47.93493.54637,1.14464.07653.21007.11087.7252-.06358.89654-.17426.17137-2.935-2.99509-3.10652-3.27238a10.94023,10.94023,0,0,1-.47312-1.26555s-.24076-.74933-.53468-.55825c-.19218.12495-.40371.74164.14979,1.95826.48371,1.062,1.153,1.91074,1.077,1.97322-.1984.1633-1.39745-1.27251-1.39745-1.27251a6.31273,6.31273,0,0,0-.70183-1.084c-.17864-.53158-.5038-1.19284-.8443-.93418a6.89223,6.89223,0,0,0,.16311,1.18079s.41834.74931.59662,1.11794c.31437.6507,1.03008,1.43983,1.27559,1.864.20442.35257.00586.27073-.01023.31237a9.31925,9.31925,0,0,1-.79316-.94039,7.81073,7.81073,0,0,1-.79-.94843,9.39692,9.39692,0,0,0-.78294-1.057c-.62127-.74166-.95154-.23748-.47879.544.18012.29776.3787.62035.58109.94624.78713,1.26847,1.75749,2.25965,1.66323,2.37949-.12239.15491-1.79091-1.75659-1.79091-1.75659s-1.17623-.784-.47661.36936a11.84842,11.84842,0,0,0,1.73084,2.23045,11.21171,11.21171,0,0,0,2.1,2.06675c1.08434.6905,2.84348,1.73246,2.84348,1.73246.20185.24369.7168,1.03685,1.42922,2.157l2.62957-3.16389A20.59372,20.59372,0,0,1,96.54,78.77072Z" fill="#5e3c33"/><path d="M94.46571,83.23267l3.63518-3.18106L110.58434,92.371S129.91,94.06513,129.9604,94.07939l.774.24222c7.01043,2.42114,4.12421,8.1417,2.77388,9.027-3.14634,2.062-20.62.826-26.21822-2.64657C102.68121,97.84281,94.46571,83.23267,94.46571,83.23267Z" fill="#4a7a7e"/></g></g></svg>