<svg width="33" height="32" viewBox="0 0 33 32" fill="none" xmlns="http://www.w3.org/2000/svg">
<path d="M12.1248 15.6667C11.2048 15.6667 10.4582 16.4134 10.4582 17.3334C10.4582 18.2534 11.2048 19.0001 12.1248 19.0001C13.0448 19.0001 13.7915 18.2534 13.7915 17.3334C13.7915 16.4134 13.0448 15.6667 12.1248 15.6667ZM20.1248 15.6667C19.2048 15.6667 18.4582 16.4134 18.4582 17.3334C18.4582 18.2534 19.2048 19.0001 20.1248 19.0001C21.0448 19.0001 21.7915 18.2534 21.7915 17.3334C21.7915 16.4134 21.0448 15.6667 20.1248 15.6667ZM16.1248 2.66675C8.76484 2.66675 2.7915 8.64008 2.7915 16.0001C2.7915 23.3601 8.76484 29.3334 16.1248 29.3334C23.4848 29.3334 29.4582 23.3601 29.4582 16.0001C29.4582 8.64008 23.4848 2.66675 16.1248 2.66675ZM16.1248 26.6667C10.2448 26.6667 5.45817 21.8801 5.45817 16.0001C5.45817 15.6134 5.48484 15.2267 5.52484 14.8534C8.6715 13.4534 11.1648 10.8801 12.4715 7.69341C14.8848 11.1067 18.8582 13.3334 23.3515 13.3334C24.3915 13.3334 25.3915 13.2134 26.3515 12.9867C26.6315 13.9334 26.7915 14.9467 26.7915 16.0001C26.7915 21.8801 22.0048 26.6667 16.1248 26.6667Z" fill="#191D21"/>
</svg>
