<svg width="33" height="32" viewBox="0 0 33 32" fill="none" xmlns="http://www.w3.org/2000/svg">
<path fill-rule="evenodd" clip-rule="evenodd" d="M10.4348 5.33341L12.8748 2.66675H20.8748L23.3148 5.33341H27.5415C29.0082 5.33341 30.2082 6.53341 30.2082 8.00008V24.0001C30.2082 25.4667 29.0082 26.6667 27.5415 26.6667H6.20817C4.7415 26.6667 3.5415 25.4667 3.5415 24.0001V8.00008C3.5415 6.53341 4.7415 5.33341 6.20817 5.33341H10.4348ZM10.2082 16.0001C10.2082 19.6801 13.1948 22.6667 16.8748 22.6667C20.5548 22.6667 23.5415 19.6801 23.5415 16.0001C23.5415 12.3201 20.5548 9.33342 16.8748 9.33342C13.1948 9.33342 10.2082 12.3201 10.2082 16.0001ZM21.1412 16.0001C21.1412 18.3566 19.231 20.2668 16.8746 20.2668C14.5182 20.2668 12.6079 18.3566 12.6079 16.0001C12.6079 13.6437 14.5182 11.7335 16.8746 11.7335C19.231 11.7335 21.1412 13.6437 21.1412 16.0001Z" fill="#191D21"/>
</svg>
