<svg width="21" height="20" viewBox="0 0 21 20" fill="none" xmlns="http://www.w3.org/2000/svg">
<path fill-rule="evenodd" clip-rule="evenodd" d="M8.24004 0C8.40783 0.00683599 8.55931 0.148437 8.63422 0.368652L14.998 19.0354C15.0686 19.2419 15.0611 19.4875 14.9782 19.684C14.8954 19.8808 14.749 20.0002 14.5913 20H0.954917C0.792785 20.0002 0.642971 19.874 0.561572 19.6684C0.480007 19.4629 0.479507 19.2092 0.559908 19.0026L7.83255 0.335937C7.92194 0.131592 8.07458 0.00561524 8.24004 0ZM14.99 4.34792L20.4446 19.0144C20.5213 19.2209 20.5181 19.4714 20.4364 19.6736C20.3547 19.8757 20.2062 19.9998 20.0459 20H16.3433L12.2993 8.13771L14.2246 4.27345C14.3163 4.08913 14.466 3.98635 14.6213 4.00148C14.7766 4.01638 14.9157 4.14723 14.99 4.34792Z" fill="#191D21"/>
</svg>
