<svg xmlns="http://www.w3.org/2000/svg" width="249.015" height="45.481" viewBox="0 0 249.015 45.481">
  <g id="Сгруппировать_914" data-name="Сгруппировать 914" transform="translate(-74.594 -138.082)">
    <g id="Сгруппировать_1" data-name="Сгруппировать 1" transform="translate(75.235 138.082)">
      <path id="Контур_190" data-name="Контур 190" d="M269.114,788.719H264.09v6.93H259.2V771.222h9.909c6.444,0,9.874,3.084,9.874,8.731,0,3.915-1.732,6.548-4.885,7.83l5.786,7.865h-5.925Zm4.781-8.593c0-3.083-1.628-4.677-5.162-4.677H264.09v9.078h4.227C272.128,784.527,273.9,782.725,273.9,780.126Z" transform="translate(-259.205 -770.737)" fill="#fff"/>
      <path id="Контур_191" data-name="Контур 191" d="M367.762,771.222v4.227H354.735v6.271h10.879v4.089H354.735v5.612H368.49v4.227H349.919V771.222Z" transform="translate(-326.36 -770.737)" fill="#fff"/>
      <path id="Контур_192" data-name="Контур 192" d="M457.1,795.648H454.67l-14.656-15.141v15.141h-4.85V771.222h2.391l14.69,15.141V771.222H457.1Z" transform="translate(-389.467 -770.737)" fill="#fff"/>
      <path id="Контур_193" data-name="Контур 193" d="M536.523,790.907l-2.079,4.643h-5.232l11.538-24.461h2.668L554.99,795.55h-5.266l-2.079-4.643Zm9.528-3.984-3.985-9.251-3.95,9.251Z" transform="translate(-459.091 -770.638)" fill="#fff"/>
      <path id="Контур_194" data-name="Контур 194" d="M644.128,771.222v24.426h-4.989V771.222Z" transform="translate(-540.469 -770.737)" fill="#fff"/>
      <path id="Контур_195" data-name="Контур 195" d="M672.49,792.5l1.836-4.227a18.994,18.994,0,0,0,8.35,2.113c2.737,0,4.331-.97,4.331-2.91-.035-1.905-1.767-2.529-5.162-3.187-5.37-1.074-9.008-2.7-9.008-7.518,0-4.435,3.049-7.414,9.182-7.414a21.246,21.246,0,0,1,9.181,1.905l-2.009,4.089a18.492,18.492,0,0,0-7.172-1.559c-2.772,0-4.158,1.143-4.158,2.668,0,1.94,2.217,2.6,5.959,3.361,4.816.97,8.281,2.494,8.281,7.31,0,5.024-3.153,7.622-9.182,7.622A22.76,22.76,0,0,1,672.49,792.5Z" transform="translate(-565.159 -769.354)" fill="#fff"/>
      <path id="Контур_196" data-name="Контур 196" d="M755.734,792.5l1.836-4.227a19,19,0,0,0,8.35,2.113c2.737,0,4.331-.97,4.331-2.91-.035-1.905-1.767-2.529-5.162-3.187-5.37-1.074-9.008-2.7-9.008-7.518,0-4.435,3.049-7.414,9.182-7.414a21.247,21.247,0,0,1,9.182,1.905l-2.01,4.089a18.492,18.492,0,0,0-7.172-1.559c-2.772,0-4.157,1.143-4.157,2.668,0,1.94,2.217,2.6,5.959,3.361,4.816.97,8.281,2.494,8.281,7.31,0,5.024-3.153,7.622-9.181,7.622A22.761,22.761,0,0,1,755.734,792.5Z" transform="translate(-626.784 -769.354)" fill="#fff"/>
      <path id="Контур_197" data-name="Контур 197" d="M841.353,790.907l-2.079,4.643h-5.232l11.538-24.461h2.668L859.82,795.55h-5.266l-2.079-4.643Zm9.528-3.984-3.984-9.251-3.95,9.251Z" transform="translate(-684.756 -770.638)" fill="#fff"/>
      <path id="Контур_198" data-name="Контур 198" d="M964.966,795.648H962.54l-14.656-15.141v15.141h-4.85V771.222h2.391l14.691,15.141V771.222h4.85Z" transform="translate(-765.442 -770.737)" fill="#fff"/>
      <path id="Контур_199" data-name="Контур 199" d="M1042.02,782c0-7.865,4.85-12.646,12.75-12.646,4.851,0,8.35,1.836,10.706,4.712l-3.777,3.222a7.958,7.958,0,0,0-6.79-3.257c-4.816,0-7.8,2.945-7.8,7.969,0,4.989,2.979,8.142,7.8,8.142a7.959,7.959,0,0,0,6.79-3.257l3.777,3.222c-2.356,2.841-5.682,4.643-10.706,4.643C1046.87,794.75,1042.02,789.865,1042.02,782Z" transform="translate(-838.721 -769.354)" fill="#fff"/>
      <path id="Контур_200" data-name="Контур 200" d="M1161.917,771.222v4.227H1148.89v6.271h10.879v4.089H1148.89v5.612h13.755v4.227h-18.571V771.222Z" transform="translate(-914.271 -770.737)" fill="#fff"/>
    </g>
    <g id="Сгруппировать_2" data-name="Сгруппировать 2" transform="translate(74.594 171.489)">
      <path id="Контур_223" data-name="Контур 223" d="M582.832,910.293h-5.051V898.5h4.666a5.92,5.92,0,0,1,5.937,5.9A5.788,5.788,0,0,1,582.832,910.293Zm-.2-2.19a3.6,3.6,0,0,0,3.4-3.7,3.656,3.656,0,0,0-3.579-3.712h-2.341V908.1Z" transform="translate(-577.781 -898.37)" fill="#fff"/>
      <path id="Контур_224" data-name="Контур 224" d="M650.906,908.22v2.073h-9.047V898.5h8.7v2.074h-6.371v2.993h5.335v2.007h-5.335v2.642Z" transform="translate(-625.218 -898.37)" fill="#fff"/>
      <path id="Контур_225" data-name="Контур 225" d="M707.095,906.451c0,2.274-1.823,3.612-4.565,3.612a9.108,9.108,0,0,1-4.9-1.12l.869-1.856a8.366,8.366,0,0,0,4.114.9c1.288,0,2.057-.468,2.057-1.338,0-.8-.786-1.154-2.508-1.555-2.425-.552-4.381-1.237-4.381-3.562,0-2.074,1.656-3.545,4.348-3.545a11.452,11.452,0,0,1,4.515.953l-.97,1.907a10.363,10.363,0,0,0-3.6-.786c-1.2,0-1.873.535-1.873,1.271,0,.836.836,1.188,2.609,1.589C705.356,903.491,707.095,904.294,707.095,906.451Z" transform="translate(-666.505 -897.989)" fill="#fff"/>
      <path id="Контур_226" data-name="Контур 226" d="M759.606,910.293H757.2V898.5h2.408Z" transform="translate(-710.603 -898.37)" fill="#fff"/>
      <path id="Контур_227" data-name="Контур 227" d="M799.95,904.057v4.314a8.175,8.175,0,0,1-5.134,1.723,6.025,6.025,0,1,1,0-12.041,6.857,6.857,0,0,1,4.716,1.689l-1.5,1.672a4.8,4.8,0,0,0-3.211-1.12,3.838,3.838,0,0,0,0,7.676,4.908,4.908,0,0,0,2.742-.8v-1.1h-2.993v-2.007Z" transform="translate(-733.822 -898.036)" fill="#fff"/>
      <path id="Контур_228" data-name="Контур 228" d="M866.783,898.5v11.789h-1.171l-7.04-7.425v7.425h-2.392V898.5h1.171l7.024,7.425V898.5Z" transform="translate(-783.88 -898.37)" fill="#fff"/>
    </g>
  </g>
</svg>
