<svg width="115" height="16" viewBox="0 0 115 16" fill="none" xmlns="http://www.w3.org/2000/svg">
<path d="M8.10602 15.28C5.99935 15.28 4.25935 14.58 2.88602 13.18C1.51268 11.78 0.826016 10.0533 0.826016 8C0.826016 5.93333 1.51268 4.20667 2.88602 2.82C4.25935 1.42 5.99935 0.719999 8.10602 0.719999C9.37268 0.719999 10.5393 1.02 11.606 1.62C12.686 2.20667 13.526 3.00667 14.126 4.02L11.746 5.4C11.3993 4.77333 10.906 4.28667 10.266 3.94C9.62602 3.58 8.90602 3.4 8.10602 3.4C6.74602 3.4 5.64602 3.82667 4.80602 4.68C3.97935 5.53333 3.56602 6.64 3.56602 8C3.56602 9.34667 3.97935 10.4467 4.80602 11.3C5.64602 12.1533 6.74602 12.58 8.10602 12.58C8.90602 12.58 9.62602 12.4067 10.266 12.06C10.9193 11.7 11.4127 11.2133 11.746 10.6L14.126 11.98C13.526 12.9933 12.6927 13.8 11.626 14.4C10.5593 14.9867 9.38602 15.28 8.10602 15.28ZM24.7629 15L23.9229 12.48H18.3429L17.5029 15H14.5229L19.4229 0.999999H22.8429L27.7629 15H24.7629ZM19.2229 9.9H23.0629L21.1429 4.18L19.2229 9.9ZM37.3666 0.999999V3.64H33.5866V15H30.8266V3.64H27.0666V0.999999H37.3666ZM41.6674 12.36H47.5674V15H38.9074V0.999999H47.4674V3.64H41.6674V6.62H46.9674V9.22H41.6674V12.36ZM63.1552 7.48V8.56C63.1552 10.56 62.5152 12.18 61.2352 13.42C59.9552 14.66 58.3019 15.28 56.2752 15.28C54.1152 15.28 52.3219 14.58 50.8952 13.18C49.4819 11.7667 48.7752 10.0467 48.7752 8.02C48.7752 5.98 49.4752 4.25333 50.8752 2.84C52.2886 1.42667 54.0352 0.719999 56.1152 0.719999C57.4219 0.719999 58.6152 1.02 59.6952 1.62C60.7752 2.20667 61.6152 2.99333 62.2152 3.98L59.8552 5.34C59.5219 4.76667 59.0152 4.3 58.3352 3.94C57.6686 3.58 56.9219 3.4 56.0952 3.4C54.7619 3.4 53.6619 3.84 52.7952 4.72C51.9419 5.58667 51.5152 6.68667 51.5152 8.02C51.5152 9.34 51.9486 10.4333 52.8152 11.3C53.6952 12.1533 54.8552 12.58 56.2952 12.58C57.3619 12.58 58.2419 12.3467 58.9352 11.88C59.6419 11.4 60.1219 10.7467 60.3752 9.92H56.1352V7.48H63.1552ZM76.8984 13.18C75.485 14.58 73.765 15.28 71.7384 15.28C69.7117 15.28 67.9917 14.58 66.5784 13.18C65.1784 11.7667 64.4784 10.04 64.4784 8C64.4784 5.96 65.1784 4.24 66.5784 2.84C67.9917 1.42667 69.7117 0.719999 71.7384 0.719999C73.765 0.719999 75.485 1.42667 76.8984 2.84C78.3117 4.24 79.0184 5.96 79.0184 8C79.0184 10.04 78.3117 11.7667 76.8984 13.18ZM68.5184 11.3C69.385 12.1533 70.4584 12.58 71.7384 12.58C73.0184 12.58 74.0917 12.1533 74.9584 11.3C75.825 10.4333 76.2584 9.33333 76.2584 8C76.2584 6.66667 75.825 5.56667 74.9584 4.7C74.0917 3.83333 73.0184 3.4 71.7384 3.4C70.4584 3.4 69.385 3.83333 68.5184 4.7C67.6517 5.56667 67.2184 6.66667 67.2184 8C67.2184 9.33333 67.6517 10.4333 68.5184 11.3ZM88.6382 15L85.8182 10.14H83.7182V15H80.9582V0.999999H86.5582C87.8515 0.999999 88.9515 1.45333 89.8582 2.36C90.7649 3.26667 91.2182 4.36 91.2182 5.64C91.2182 6.50667 90.9715 7.31333 90.4782 8.06C89.9849 8.79333 89.3315 9.34667 88.5182 9.72L91.6182 15H88.6382ZM83.7182 3.58V7.72H86.5582C87.0782 7.72 87.5249 7.52 87.8982 7.12C88.2715 6.70667 88.4582 6.21333 88.4582 5.64C88.4582 5.06667 88.2715 4.58 87.8982 4.18C87.5249 3.78 87.0782 3.58 86.5582 3.58H83.7182ZM103.933 0.999999L99.1327 9.54V15H96.3927V9.54L91.6127 0.999999H94.7327L97.7727 6.84L100.813 0.999999H103.933ZM109.254 15.28C107.867 15.28 106.7 14.9733 105.754 14.36C104.807 13.7333 104.14 12.8867 103.754 11.82L106.114 10.44C106.66 11.8667 107.734 12.58 109.334 12.58C110.107 12.58 110.674 12.44 111.034 12.16C111.394 11.88 111.574 11.5267 111.574 11.1C111.574 10.6067 111.354 10.2267 110.914 9.96C110.474 9.68 109.687 9.38 108.554 9.06C107.927 8.87333 107.394 8.68667 106.954 8.5C106.527 8.31333 106.094 8.06667 105.654 7.76C105.227 7.44 104.9 7.04 104.674 6.56C104.447 6.08 104.334 5.52 104.334 4.88C104.334 3.61333 104.78 2.60667 105.674 1.86C106.58 1.1 107.667 0.719999 108.934 0.719999C110.067 0.719999 111.06 0.999999 111.914 1.56C112.78 2.10667 113.454 2.87333 113.934 3.86L111.614 5.2C111.054 4 110.16 3.4 108.934 3.4C108.36 3.4 107.907 3.53333 107.574 3.8C107.254 4.05333 107.094 4.38667 107.094 4.8C107.094 5.24 107.274 5.6 107.634 5.88C108.007 6.14667 108.714 6.44 109.754 6.76C110.18 6.89333 110.5 7 110.714 7.08C110.94 7.14667 111.24 7.26 111.614 7.42C112 7.56667 112.294 7.70667 112.494 7.84C112.707 7.97333 112.947 8.15333 113.214 8.38C113.48 8.60667 113.68 8.84 113.814 9.08C113.96 9.32 114.08 9.61333 114.174 9.96C114.28 10.2933 114.334 10.66 114.334 11.06C114.334 12.3533 113.86 13.38 112.914 14.14C111.98 14.9 110.76 15.28 109.254 15.28Z" fill="url(#paint0_linear_21_85)"/>
<defs>
<linearGradient id="paint0_linear_21_85" x1="-1.67151" y1="-2.19355" x2="46.1924" y2="68.5525" gradientUnits="userSpaceOnUse">
<stop offset="0.0001" stop-color="#0047FF"/>
<stop offset="1" stop-color="#EC00E2"/>
</linearGradient>
</defs>
</svg>
