<svg width="201" height="753" viewBox="0 0 201 753" fill="none" xmlns="http://www.w3.org/2000/svg">
<mask id="path-1-outside-1_10_19" maskUnits="userSpaceOnUse" x="0" y="0.130371" width="201" height="753" fill="black">
<rect fill="white" y="0.130371" width="201" height="753"/>
<path d="M199.72 707.216C199.72 721.936 195.58 733.068 187.3 740.612C178.836 748.156 166.784 751.928 151.144 751.928H140.104V723.224H153.352C165.864 723.224 172.12 717.98 172.12 707.492C172.12 702.34 170.648 698.476 167.704 695.9C164.576 693.14 159.608 691.76 152.8 691.76C144.704 691.76 137.62 693.6 131.548 697.28C125.292 700.96 117.84 707.768 109.192 717.704C98.152 730.216 88.216 738.956 79.384 743.924C70.368 748.892 60.248 751.376 49.024 751.376C33.752 751.376 21.976 747.512 13.696 739.784C5.232 732.056 1 720.832 1 706.112C0.999999 691.576 5.232 680.628 13.696 673.268C21.976 665.724 33.936 661.952 49.576 661.952H57.58V690.656H47.644C41.02 690.656 36.236 691.944 33.292 694.52C30.164 697.096 28.6 700.868 28.6 705.836C28.6 715.956 34.764 721.016 47.092 721.016C54.084 721.016 60.616 719.176 66.688 715.496C72.76 711.632 80.12 704.732 88.768 694.796C99.808 682.1 109.836 673.36 118.852 668.576C127.868 663.792 138.448 661.4 150.592 661.4C166.416 661.4 178.56 665.356 187.024 673.268C195.488 680.996 199.72 692.312 199.72 707.216ZM3.75999 643.993L3.75999 598.177C3.75999 582.537 7.43999 571.129 14.8 563.953C21.976 556.777 33.108 553.189 48.196 553.189H55.924C65.86 553.189 73.956 554.845 80.212 558.157C86.468 561.285 90.976 566.161 93.736 572.785H94.288C99.44 557.697 112.872 550.153 134.584 550.153H151.144C166.048 550.153 177.456 554.109 185.368 562.021C193.096 569.749 196.96 581.157 196.96 596.245V643.993H3.75999ZM82.42 601.765C82.42 595.693 80.856 591.185 77.728 588.241C74.6 585.113 69.356 583.549 61.996 583.549H51.232C44.24 583.549 39.18 584.837 36.052 587.413C32.924 589.805 31.36 593.669 31.36 599.005L31.36 613.633H82.42V601.765ZM169.36 596.245C169.36 590.909 167.98 586.953 165.22 584.377C162.276 581.801 157.308 580.513 150.316 580.513H133.48C124.648 580.513 118.576 582.077 115.264 585.205C111.768 588.149 110.02 593.117 110.02 600.109V613.633H169.36V596.245ZM3.75999 488.204L3.75999 450.116L119.404 420.584V420.032H3.75998L3.75998 392.984L196.96 392.984V424.172L55.924 460.604V461.156H196.96V488.204L3.75999 488.204ZM114.712 342.542L3.75998 379.25L3.75998 346.958L74.692 326.258V325.706L3.75998 305.006L3.75998 275.474L114.712 312.182H196.96V342.542L114.712 342.542ZM198.064 270.524C198.064 276.044 197.696 280.736 196.96 284.6H169.36C170.096 281.656 170.464 278.344 170.464 274.664C170.464 268.592 168.992 264.084 166.048 261.14C162.92 258.196 158.228 256.724 151.972 256.724L3.75998 256.724L3.75998 226.364L151.144 226.364C166.968 226.364 178.744 230.044 186.472 237.404C194.2 244.58 198.064 255.62 198.064 270.524ZM3.75997 181.736L3.75997 140.612L196.96 109.148V139.508L158.596 145.028H159.148V179.528L196.96 185.048V213.2L3.75997 181.736ZM132.928 148.616L37.432 162.14V162.692L132.928 175.94V148.616ZM3.75997 94.4184L3.75997 64.0584L82.42 64.0584V31.4904L3.75997 31.4904L3.75997 1.13038L196.96 1.13037V31.4904L110.02 31.4904V64.0584L196.96 64.0584V94.4184L3.75997 94.4184Z"/>
</mask>
<path d="M199.72 707.216C199.72 721.936 195.58 733.068 187.3 740.612C178.836 748.156 166.784 751.928 151.144 751.928H140.104V723.224H153.352C165.864 723.224 172.12 717.98 172.12 707.492C172.12 702.34 170.648 698.476 167.704 695.9C164.576 693.14 159.608 691.76 152.8 691.76C144.704 691.76 137.62 693.6 131.548 697.28C125.292 700.96 117.84 707.768 109.192 717.704C98.152 730.216 88.216 738.956 79.384 743.924C70.368 748.892 60.248 751.376 49.024 751.376C33.752 751.376 21.976 747.512 13.696 739.784C5.232 732.056 1 720.832 1 706.112C0.999999 691.576 5.232 680.628 13.696 673.268C21.976 665.724 33.936 661.952 49.576 661.952H57.58V690.656H47.644C41.02 690.656 36.236 691.944 33.292 694.52C30.164 697.096 28.6 700.868 28.6 705.836C28.6 715.956 34.764 721.016 47.092 721.016C54.084 721.016 60.616 719.176 66.688 715.496C72.76 711.632 80.12 704.732 88.768 694.796C99.808 682.1 109.836 673.36 118.852 668.576C127.868 663.792 138.448 661.4 150.592 661.4C166.416 661.4 178.56 665.356 187.024 673.268C195.488 680.996 199.72 692.312 199.72 707.216ZM3.75999 643.993L3.75999 598.177C3.75999 582.537 7.43999 571.129 14.8 563.953C21.976 556.777 33.108 553.189 48.196 553.189H55.924C65.86 553.189 73.956 554.845 80.212 558.157C86.468 561.285 90.976 566.161 93.736 572.785H94.288C99.44 557.697 112.872 550.153 134.584 550.153H151.144C166.048 550.153 177.456 554.109 185.368 562.021C193.096 569.749 196.96 581.157 196.96 596.245V643.993H3.75999ZM82.42 601.765C82.42 595.693 80.856 591.185 77.728 588.241C74.6 585.113 69.356 583.549 61.996 583.549H51.232C44.24 583.549 39.18 584.837 36.052 587.413C32.924 589.805 31.36 593.669 31.36 599.005L31.36 613.633H82.42V601.765ZM169.36 596.245C169.36 590.909 167.98 586.953 165.22 584.377C162.276 581.801 157.308 580.513 150.316 580.513H133.48C124.648 580.513 118.576 582.077 115.264 585.205C111.768 588.149 110.02 593.117 110.02 600.109V613.633H169.36V596.245ZM3.75999 488.204L3.75999 450.116L119.404 420.584V420.032H3.75998L3.75998 392.984L196.96 392.984V424.172L55.924 460.604V461.156H196.96V488.204L3.75999 488.204ZM114.712 342.542L3.75998 379.25L3.75998 346.958L74.692 326.258V325.706L3.75998 305.006L3.75998 275.474L114.712 312.182H196.96V342.542L114.712 342.542ZM198.064 270.524C198.064 276.044 197.696 280.736 196.96 284.6H169.36C170.096 281.656 170.464 278.344 170.464 274.664C170.464 268.592 168.992 264.084 166.048 261.14C162.92 258.196 158.228 256.724 151.972 256.724L3.75998 256.724L3.75998 226.364L151.144 226.364C166.968 226.364 178.744 230.044 186.472 237.404C194.2 244.58 198.064 255.62 198.064 270.524ZM3.75997 181.736L3.75997 140.612L196.96 109.148V139.508L158.596 145.028H159.148V179.528L196.96 185.048V213.2L3.75997 181.736ZM132.928 148.616L37.432 162.14V162.692L132.928 175.94V148.616ZM3.75997 94.4184L3.75997 64.0584L82.42 64.0584V31.4904L3.75997 31.4904L3.75997 1.13038L196.96 1.13037V31.4904L110.02 31.4904V64.0584L196.96 64.0584V94.4184L3.75997 94.4184Z" stroke="white" stroke-opacity="0.25" stroke-width="2" mask="url(#path-1-outside-1_10_19)"/>
</svg>
