<svg id="behance-logo" xmlns="http://www.w3.org/2000/svg" width="25.349" height="15.772" viewBox="0 0 25.349 15.772">
  <path id="Behance" d="M22.892,83.479H16.54V81.9h6.352v1.578Zm-10.58,6.469a4.171,4.171,0,0,1,.615,2.31,4.6,4.6,0,0,1-.7,2.517,4.364,4.364,0,0,1-1.116,1.239,4.311,4.311,0,0,1-1.78.792,11.005,11.005,0,0,1-2.227.213H0V81.247H7.617c1.92.031,3.281.588,4.085,1.68a4.014,4.014,0,0,1,.721,2.409,3.511,3.511,0,0,1-.729,2.322,3.718,3.718,0,0,1-1.2.9A3.5,3.5,0,0,1,12.312,89.948ZM3.638,87.465H6.975a3.163,3.163,0,0,0,1.667-.391,1.491,1.491,0,0,0,.64-1.387,1.412,1.412,0,0,0-.847-1.455,5.958,5.958,0,0,0-1.862-.247H3.638ZM9.6,92.034a1.691,1.691,0,0,0-1-1.69,3.952,3.952,0,0,0-1.577-.267H3.638v4.2H6.971A3.7,3.7,0,0,0,8.568,94,1.989,1.989,0,0,0,9.6,92.034Zm15.645-2.566a14.837,14.837,0,0,1,.1,2.243H17.12A2.7,2.7,0,0,0,18.3,94.095a2.974,2.974,0,0,0,1.628.424,2.294,2.294,0,0,0,2.246-1.294H25.19A3.672,3.672,0,0,1,24.1,95.267a5.488,5.488,0,0,1-4.249,1.649,6.166,6.166,0,0,1-3.98-1.39Q14.147,94.133,14.144,91A6.117,6.117,0,0,1,15.7,86.5a5.449,5.449,0,0,1,4.042-1.567,6.441,6.441,0,0,1,2.657.528,4.576,4.576,0,0,1,1.95,1.673A5.576,5.576,0,0,1,25.248,89.468Zm-2.968.294a2.467,2.467,0,0,0-.789-1.785,2.575,2.575,0,0,0-1.751-.612,2.342,2.342,0,0,0-1.762.648,3.045,3.045,0,0,0-.787,1.749h5.09Z" transform="translate(0 -81.247)" fill="#fff"/>
</svg>
