<svg id="whatsapp-logo" xmlns="http://www.w3.org/2000/svg" width="25.244" height="25.244" viewBox="0 0 25.244 25.244">
  <path id="WhatsApp" d="M25.244,12.3A12.413,12.413,0,0,1,6.861,23.064L0,25.244l2.237-6.6A12.167,12.167,0,0,1,.459,12.3a12.393,12.393,0,0,1,24.786,0ZM12.852,1.958A10.391,10.391,0,0,0,2.432,12.3a10.23,10.23,0,0,0,1.985,6.061l-1.3,3.84,4-1.273A10.429,10.429,0,0,0,23.271,12.3,10.391,10.391,0,0,0,12.852,1.958ZM19.11,15.129c-.077-.125-.279-.2-.582-.352s-1.8-.88-2.076-.98-.482-.151-.684.151-.785.98-.962,1.181-.354.227-.658.076a8.315,8.315,0,0,1-2.443-1.5,9.087,9.087,0,0,1-1.69-2.087c-.177-.3-.019-.464.133-.615s.3-.352.456-.528a2.02,2.02,0,0,0,.3-.5.549.549,0,0,0-.025-.528c-.076-.151-.684-1.634-.937-2.237s-.506-.5-.683-.5-.38-.025-.582-.025a1.121,1.121,0,0,0-.81.377A3.37,3.37,0,0,0,6.807,9.574a5.832,5.832,0,0,0,1.24,3.117,12.418,12.418,0,0,0,5.189,4.55c3.088,1.206,3.088.8,3.646.753a3.073,3.073,0,0,0,2.051-1.432A2.513,2.513,0,0,0,19.11,15.129Z" fill="#fff"/>
</svg>
