<svg id="youtube-logo" xmlns="http://www.w3.org/2000/svg" width="20.592" height="24.71" viewBox="0 0 20.592 24.71">
  <path id="YouTube" d="M24.918,18.075H23.561l.006-.788a.639.639,0,0,1,.639-.636h.086a.64.64,0,0,1,.64.636Zm-5.086-1.688a.58.58,0,0,0-.625.514v3.831a.639.639,0,0,0,1.253,0V16.9A.58.58,0,0,0,19.831,16.387Zm8.261-2.143v7.288a3.287,3.287,0,0,1-3.369,3.179H10.869A3.287,3.287,0,0,1,7.5,21.531V14.244a3.288,3.288,0,0,1,3.369-3.179H24.723A3.288,3.288,0,0,1,28.092,14.244Zm-16.3,8.079V14.646h1.717V13.509L8.932,13.5V14.62l1.429,0v7.7Zm5.148-6.533H15.509v4.1a7.265,7.265,0,0,1,0,.994c-.116.318-.64.656-.844.034a8.158,8.158,0,0,1,0-1l-.006-4.128H13.229l0,4.063c0,.623-.014,1.087,0,1.3.035.373.023.807.368,1.055a1.73,1.73,0,0,0,2.188-.733l0,.846h1.15V15.789Zm4.58,4.694,0-3.412c0-1.3-.974-2.079-2.294-1.027l.006-2.537-1.43,0-.007,8.756,1.176-.017.107-.545C20.579,23.082,21.524,22.138,21.522,20.484ZM26,20.032l-1.074.006c0,.043,0,.092,0,.145v.6a.586.586,0,0,1-.587.582h-.21a.586.586,0,0,1-.587-.582V19.206H26v-.925a14.6,14.6,0,0,0-.073-1.739c-.176-1.223-1.893-1.417-2.76-.791a1.616,1.616,0,0,0-.6.809A4.552,4.552,0,0,0,22.384,18v2.034C22.385,23.418,26.493,22.94,26,20.032ZM20.5,8.987a.975.975,0,0,0,.344.435,1,1,0,0,0,.586.163.911.911,0,0,0,.549-.171,1.316,1.316,0,0,0,.4-.514l-.027.562h1.6V2.674H22.688V7.957a.523.523,0,0,1-1.046,0V2.674H20.331V7.252c0,.583.011.972.028,1.169A1.968,1.968,0,0,0,20.5,8.987ZM15.659,5.153a5.648,5.648,0,0,1,.162-1.527A1.634,1.634,0,0,1,17.49,2.411a1.98,1.98,0,0,1,.95.214,1.582,1.582,0,0,1,.612.557,2.2,2.2,0,0,1,.3.707A5.636,5.636,0,0,1,19.427,5V6.717A9.293,9.293,0,0,1,19.353,8.1a2.2,2.2,0,0,1-.315.825,1.492,1.492,0,0,1-.614.564,1.96,1.96,0,0,1-.866.182,2.4,2.4,0,0,1-.923-.155,1.267,1.267,0,0,1-.589-.471,2.089,2.089,0,0,1-.3-.761,7.334,7.334,0,0,1-.089-1.338v-1.8Zm1.25,2.7a.637.637,0,1,0,1.268,0V4.236a.637.637,0,1,0-1.268,0ZM12.492,9.674H14l0-5.206L15.778.009H14.132l-.946,3.312L12.226,0H10.6l1.893,4.471Z" transform="translate(-7.5)" fill="#fff"/>
</svg>
