<svg xmlns="http://www.w3.org/2000/svg" width="335.634" height="342.105" viewBox="0 0 335.634 342.105">
  <g id="Сгруппировать_1022" data-name="Сгруппировать 1022" transform="translate(-30.844 -3003.195)">
    <path id="Контур_1765" data-name="Контур 1765" d="M11.156-8.637l6.48-8.168h2.285V0H17.285V-12.234L11.156-4.559,5.039-12.234V0H2.4V-16.8H4.676Zm15.117,6.6h2.52a1.861,1.861,0,0,0,1.371-.551,1.861,1.861,0,0,0,.551-1.371,1.861,1.861,0,0,0-.551-1.371,1.861,1.861,0,0,0-1.371-.551h-2.52ZM31.928-6.8a3.74,3.74,0,0,1,1.189,2.848,3.721,3.721,0,0,1-1.189,2.842A4.4,4.4,0,0,1,28.793,0H23.871V-11.52h2.4v3.6h2.52A4.388,4.388,0,0,1,31.928-6.8ZM37.2-11.52V0h-2.4V-11.52Zm9.217,9.967A5.756,5.756,0,0,1,44.625-5.76a5.776,5.776,0,0,1,1.787-4.213,5.754,5.754,0,0,1,4.213-1.793,5.529,5.529,0,0,1,2.508.58A5.5,5.5,0,0,1,54.8-10.031l.5.551L53.742-7.922a3.861,3.861,0,0,0-.357-.463,4.631,4.631,0,0,0-1.043-.744A3.349,3.349,0,0,0,50.625-9.6a3.407,3.407,0,0,0-2.537,1.113A3.779,3.779,0,0,0,47.016-5.76a3.779,3.779,0,0,0,1.072,2.725,3.407,3.407,0,0,0,2.537,1.113,3.414,3.414,0,0,0,1.717-.457A4.1,4.1,0,0,0,53.5-3.27l.363-.445,1.559,1.559q-.07.094-.211.264a6.079,6.079,0,0,1-.609.574,7.169,7.169,0,0,1-.984.715,6.439,6.439,0,0,1-1.336.574,5.371,5.371,0,0,1-1.652.264A5.763,5.763,0,0,1,46.412-1.553ZM65.625-3.035A3.79,3.79,0,0,0,66.691-5.76a3.79,3.79,0,0,0-1.066-2.725A3.388,3.388,0,0,0,63.094-9.6a3.407,3.407,0,0,0-2.537,1.113A3.779,3.779,0,0,0,59.484-5.76a3.779,3.779,0,0,0,1.072,2.725,3.407,3.407,0,0,0,2.537,1.113A3.388,3.388,0,0,0,65.625-3.035ZM58.881-1.553A5.756,5.756,0,0,1,57.094-5.76a5.776,5.776,0,0,1,1.787-4.213,5.754,5.754,0,0,1,4.213-1.793,5.754,5.754,0,0,1,4.213,1.793A5.776,5.776,0,0,1,69.094-5.76a5.756,5.756,0,0,1-1.787,4.207A5.763,5.763,0,0,1,63.094.234,5.763,5.763,0,0,1,58.881-1.553ZM70.523-9.363V-11.52H80.836v2.156H76.875V0H74.484V-9.363ZM89.109.234A5.15,5.15,0,0,1,87.855.082,4.674,4.674,0,0,1,86.813-.3a6.527,6.527,0,0,1-.768-.469,5.532,5.532,0,0,1-.486-.381l-.164-.176V5.039h-2.4V-11.52h2.4V-10.2q.164-.164.463-.434a5.5,5.5,0,0,1,1.271-.7,4.82,4.82,0,0,1,1.98-.434,5.322,5.322,0,0,1,3.967,1.752,5.909,5.909,0,0,1,1.682,4.248,5.909,5.909,0,0,1-1.682,4.248A5.322,5.322,0,0,1,89.109.234ZM91.3-8.473A3.24,3.24,0,0,0,88.875-9.6a3.24,3.24,0,0,0-2.426,1.125A3.825,3.825,0,0,0,85.395-5.76a3.825,3.825,0,0,0,1.055,2.713,3.24,3.24,0,0,0,2.426,1.125A3.24,3.24,0,0,0,91.3-3.047,3.825,3.825,0,0,0,92.355-5.76,3.825,3.825,0,0,0,91.3-8.473ZM100.148,1.2l.48-1.2L95.941-11.52h2.52l3.363,8.4,3.363-8.4h2.52L102.539,1.2a9.335,9.335,0,0,1-1.764,2.988,3,3,0,0,1-2.186.855,6.567,6.567,0,0,1-.9-.059,3.452,3.452,0,0,1-.621-.129L96.9,4.8V2.637a3.468,3.468,0,0,0,1.207.246A2.225,2.225,0,0,0,100.148,1.2Zm7.793-3.352h.832q.07-.07.205-.229a6.708,6.708,0,0,0,.469-.709,7.831,7.831,0,0,0,.586-1.189,9.939,9.939,0,0,0,.457-1.682,11.34,11.34,0,0,0,.205-2.191V-11.52h8.4v9.363h1.676V2.883h-2.391V0h-8.039V2.883h-2.4ZM113.1-9.363v1.207a11.816,11.816,0,0,1-.193,2.18,8.339,8.339,0,0,1-.48,1.705,10.494,10.494,0,0,1-.574,1.166,4.681,4.681,0,0,1-.475.7l-.2.246h5.52V-9.363ZM125.578-4.8V0h-2.4V-11.52h2.4v4.559h5.637V-11.52h2.4V0h-2.4V-4.8Zm19.793-6.715h2.156V0h-2.4V-7.559l-6,7.559h-2.156V-11.52h2.4v7.559ZM158.086,0V-4.324a4.87,4.87,0,0,1-2.883.844,4.443,4.443,0,0,1-3.322-1.26,4.666,4.666,0,0,1-1.236-3.416V-11.52h2.391v3.363a2.484,2.484,0,0,0,.7,1.8,2.281,2.281,0,0,0,1.705.721,4.074,4.074,0,0,0,1.4-.24,3.271,3.271,0,0,0,.955-.486l.293-.234V-11.52h2.391V0Zm14.988,0h-2.4V-1.2q-.047.047-.158.152a5.009,5.009,0,0,1-.445.346,5.259,5.259,0,0,1-.721.434,5.034,5.034,0,0,1-.973.346,4.685,4.685,0,0,1-1.184.152,4.259,4.259,0,0,1-2.918-1.02,3.041,3.041,0,0,1-1.16-2.332,3.355,3.355,0,0,1,.9-2.379,4.17,4.17,0,0,1,2.455-1.219l4.207-.727A2,2,0,0,0,170-8.977,2.45,2.45,0,0,0,168.27-9.6a3.586,3.586,0,0,0-1.658.381,2.885,2.885,0,0,0-1.025.768l-.316.41L163.711-9.6q.07-.094.193-.24a5.852,5.852,0,0,1,.551-.516,6.831,6.831,0,0,1,.908-.662,5.3,5.3,0,0,1,1.271-.521,5.861,5.861,0,0,1,1.635-.229,4.887,4.887,0,0,1,3.457,1.248,4.027,4.027,0,0,1,1.348,3.076Zm-5.52-1.922a3,3,0,0,0,2.291-.873,3.484,3.484,0,0,0,.826-2.49V-5.52l-3.727.6a1.878,1.878,0,0,0-1.043.527,1.42,1.42,0,0,0-.4,1.031,1.259,1.259,0,0,0,.557,1.008A2.368,2.368,0,0,0,167.555-1.922Zm19.547-3h-9a3.455,3.455,0,0,0,1.2,2.109,3.528,3.528,0,0,0,2.408.891,4,4,0,0,0,1.881-.457,4.116,4.116,0,0,0,1.236-.891l.363-.445,1.559,1.559q-.07.094-.217.264a6.472,6.472,0,0,1-.627.574,7.036,7.036,0,0,1-1.02.715,6.877,6.877,0,0,1-1.4.574,6.031,6.031,0,0,1-1.775.264,5.733,5.733,0,0,1-4.225-1.8,5.928,5.928,0,0,1-1.775-4.318,5.664,5.664,0,0,1,1.729-4.154,5.658,5.658,0,0,1,4.148-1.729,5.469,5.469,0,0,1,4.031,1.611,5.476,5.476,0,0,1,1.611,4.037Zm-5.52-4.793a3.217,3.217,0,0,0-2.186.768,3.764,3.764,0,0,0-1.189,1.986h6.668a3.3,3.3,0,0,0-1.09-1.986A3.228,3.228,0,0,0,181.582-9.715ZM195.973-6.48l4.207-5.039H202.1V0h-2.4V-7.559l-3.727,4.441-3.715-4.441V0h-2.4V-11.52h1.922Zm15.346,4.928a5.756,5.756,0,0,1-1.787-4.207,5.776,5.776,0,0,1,1.787-4.213,5.754,5.754,0,0,1,4.213-1.793,5.529,5.529,0,0,1,2.508.58,5.5,5.5,0,0,1,1.664,1.154l.5.551-1.559,1.559a3.861,3.861,0,0,0-.357-.463,4.631,4.631,0,0,0-1.043-.744,3.349,3.349,0,0,0-1.717-.469,3.407,3.407,0,0,0-2.537,1.113,3.779,3.779,0,0,0-1.072,2.725,3.779,3.779,0,0,0,1.072,2.725,3.407,3.407,0,0,0,2.537,1.113,3.414,3.414,0,0,0,1.717-.457A4.1,4.1,0,0,0,218.4-3.27l.363-.445,1.559,1.559q-.07.094-.211.264a6.079,6.079,0,0,1-.609.574,7.169,7.169,0,0,1-.984.715,6.439,6.439,0,0,1-1.336.574,5.371,5.371,0,0,1-1.652.264A5.763,5.763,0,0,1,211.318-1.553Zm17.514-9.967h8.883V0h-2.4V-9.363h-4.078v1.207a20.5,20.5,0,0,1-.521,5.2A4.874,4.874,0,0,1,229.377-.41a3.288,3.288,0,0,1-2.1.645A4.175,4.175,0,0,1,226.6.176a3.41,3.41,0,0,1-.557-.129L225.832,0V-2.285a4.175,4.175,0,0,0,.832.129,1.643,1.643,0,0,0,1.166-.4,3.557,3.557,0,0,0,.715-1.764,19.725,19.725,0,0,0,.287-3.838Zm20.637,0h2.156V0h-2.4V-7.559l-6,7.559h-2.156V-11.52h2.4v7.559ZM253.3-2.156h.832q.07-.07.205-.229a6.708,6.708,0,0,0,.469-.709,7.831,7.831,0,0,0,.586-1.189,9.939,9.939,0,0,0,.457-1.682,11.34,11.34,0,0,0,.205-2.191V-11.52h8.4v9.363h1.676V2.883h-2.391V0H255.7V2.883h-2.4Zm5.156-7.207v1.207a11.816,11.816,0,0,1-.193,2.18,8.339,8.339,0,0,1-.48,1.705,10.494,10.494,0,0,1-.574,1.166,4.681,4.681,0,0,1-.475.7l-.2.246h5.52V-9.363Zm20.754,4.441h-9a3.455,3.455,0,0,0,1.2,2.109,3.528,3.528,0,0,0,2.408.891,4,4,0,0,0,1.881-.457,4.116,4.116,0,0,0,1.236-.891l.363-.445,1.559,1.559q-.07.094-.217.264a6.472,6.472,0,0,1-.627.574A7.036,7.036,0,0,1,277-.6a6.877,6.877,0,0,1-1.4.574,6.031,6.031,0,0,1-1.775.264,5.733,5.733,0,0,1-4.225-1.8,5.928,5.928,0,0,1-1.775-4.318,5.664,5.664,0,0,1,1.729-4.154,5.658,5.658,0,0,1,4.148-1.729,5.469,5.469,0,0,1,4.031,1.611,5.476,5.476,0,0,1,1.611,4.037Zm-5.52-4.793a3.217,3.217,0,0,0-2.186.768,3.764,3.764,0,0,0-1.189,1.986h6.668a3.3,3.3,0,0,0-1.09-1.986A3.228,3.228,0,0,0,273.691-9.715ZM288.082.234a5.15,5.15,0,0,1-1.254-.152A4.674,4.674,0,0,1,285.785-.3a6.527,6.527,0,0,1-.768-.469,5.532,5.532,0,0,1-.486-.381l-.164-.176V5.039h-2.4V-11.52h2.4V-10.2q.164-.164.463-.434a5.5,5.5,0,0,1,1.271-.7,4.82,4.82,0,0,1,1.98-.434,5.322,5.322,0,0,1,3.967,1.752,5.909,5.909,0,0,1,1.682,4.248,5.909,5.909,0,0,1-1.682,4.248A5.322,5.322,0,0,1,288.082.234Zm2.191-8.707A3.24,3.24,0,0,0,287.848-9.6a3.24,3.24,0,0,0-2.426,1.125,3.825,3.825,0,0,0-1.055,2.713,3.825,3.825,0,0,0,1.055,2.713,3.24,3.24,0,0,0,2.426,1.125,3.24,3.24,0,0,0,2.426-1.125,3.825,3.825,0,0,0,1.055-2.713A3.825,3.825,0,0,0,290.273-8.473ZM305.6,0h-2.4V-1.2q-.047.047-.158.152A5.009,5.009,0,0,1,302.6-.7a5.259,5.259,0,0,1-.721.434,5.034,5.034,0,0,1-.973.346,4.685,4.685,0,0,1-1.184.152A4.259,4.259,0,0,1,296.8-.785a3.041,3.041,0,0,1-1.16-2.332,3.355,3.355,0,0,1,.9-2.379,4.17,4.17,0,0,1,2.455-1.219l4.207-.727a2,2,0,0,0-.674-1.535A2.45,2.45,0,0,0,300.8-9.6a3.586,3.586,0,0,0-1.658.381,2.885,2.885,0,0,0-1.025.768l-.316.41L296.238-9.6q.07-.094.193-.24a5.852,5.852,0,0,1,.551-.516,6.831,6.831,0,0,1,.908-.662,5.3,5.3,0,0,1,1.271-.521,5.861,5.861,0,0,1,1.635-.229,4.887,4.887,0,0,1,3.457,1.248A4.027,4.027,0,0,1,305.6-7.441Zm-5.52-1.922a3,3,0,0,0,2.291-.873,3.484,3.484,0,0,0,.826-2.49V-5.52l-3.727.6a1.878,1.878,0,0,0-1.043.527,1.42,1.42,0,0,0-.4,1.031,1.259,1.259,0,0,0,.557,1.008A2.368,2.368,0,0,0,300.082-1.922ZM315.07-6.48l4.207-5.039H321.2V0h-2.4V-7.559L315.07-3.117l-3.715-4.441V0h-2.4V-11.52h1.922Zm17.883-5.039h2.156V0h-2.4V-7.559l-6,7.559h-2.156V-11.52h2.4v7.559ZM2.631,26.447a5.852,5.852,0,0,1,0-8.42,5.754,5.754,0,0,1,4.213-1.793,5.529,5.529,0,0,1,2.508.58,5.5,5.5,0,0,1,1.664,1.154l.5.551L9.961,20.078a3.861,3.861,0,0,0-.357-.463,4.631,4.631,0,0,0-1.043-.744A3.349,3.349,0,0,0,6.844,18.4a3.407,3.407,0,0,0-2.537,1.113,4,4,0,0,0,0,5.449,3.45,3.45,0,0,0,4.254.656,4.1,4.1,0,0,0,1.154-.891l.363-.445,1.559,1.559q-.07.094-.211.264a6.079,6.079,0,0,1-.609.574,7.169,7.169,0,0,1-.984.715,6.439,6.439,0,0,1-1.336.574,5.371,5.371,0,0,1-1.652.264A5.763,5.763,0,0,1,2.631,26.447Zm11.4-9.967h5.52a3.851,3.851,0,0,1,2.625.85,2.732,2.732,0,0,1,.973,2.15,2.8,2.8,0,0,1-.322,1.342,2.341,2.341,0,0,1-.662.838l-.328.223q.07.023.2.082a3.652,3.652,0,0,1,.469.3,3.371,3.371,0,0,1,.592.527,2.828,2.828,0,0,1,.457.779,2.745,2.745,0,0,1,.205,1.066,3.088,3.088,0,0,1-1.061,2.426,4.225,4.225,0,0,1-2.9.938H14.027Zm5.766,6.363H16.43v3.117h3.363a1.575,1.575,0,0,0,1.125-2.66A1.481,1.481,0,0,0,19.793,22.844Zm.633-2.244a1.341,1.341,0,0,0,0-1.758,1.2,1.2,0,0,0-.879-.322H16.43v2.4h3.117A1.2,1.2,0,0,0,20.426,20.6ZM34.2,24.965a4.014,4.014,0,0,0,0-5.449,3.441,3.441,0,0,0-5.068,0,4,4,0,0,0,0,5.449,3.441,3.441,0,0,0,5.068,0Zm-6.744,1.482a5.852,5.852,0,0,1,0-8.42A6,6,0,0,1,37.664,22.24a5.958,5.958,0,0,1-10.213,4.207Zm21.24-9.967h2.156V28h-2.4V20.441l-6,7.559H40.289V16.48h2.4v7.559ZM59.965,22l4.313,6H61.523l-3-4.2-3,4.2H52.758l4.324-6-3.961-5.52h2.754L58.523,20.2,61.16,16.48h2.766Zm18.844,2.965a4.014,4.014,0,0,0,0-5.449,3.441,3.441,0,0,0-5.068,0,4,4,0,0,0,0,5.449,3.441,3.441,0,0,0,5.068,0Zm-6.744,1.482a5.852,5.852,0,0,1,0-8.42A6,6,0,0,1,82.277,22.24a5.958,5.958,0,0,1-10.213,4.207Zm11.643-7.811V16.48H94.02v2.156H90.059V28H87.668V18.637Zm18.586,9.6a5.15,5.15,0,0,1-1.254-.152A4.674,4.674,0,0,1,100,27.7a6.527,6.527,0,0,1-.768-.469,5.532,5.532,0,0,1-.486-.381l-.164-.176v6.363h-2.4V16.48h2.4V17.8q.164-.164.463-.434a5.5,5.5,0,0,1,1.271-.7,4.82,4.82,0,0,1,1.98-.434,5.322,5.322,0,0,1,3.967,1.752,5.909,5.909,0,0,1,1.682,4.248,5.909,5.909,0,0,1-1.682,4.248A5.322,5.322,0,0,1,102.293,28.234Zm2.191-8.707a3.178,3.178,0,0,0-4.852,0,4.016,4.016,0,0,0,0,5.426,3.178,3.178,0,0,0,4.852,0,4.016,4.016,0,0,0,0-5.426ZM119.813,28h-2.4V26.8q-.047.047-.158.152a5.009,5.009,0,0,1-.445.346,5.259,5.259,0,0,1-.721.434,5.034,5.034,0,0,1-.973.346,4.685,4.685,0,0,1-1.184.152,4.259,4.259,0,0,1-2.918-1.02,3.041,3.041,0,0,1-1.16-2.332,3.355,3.355,0,0,1,.9-2.379,4.17,4.17,0,0,1,2.455-1.219l4.207-.727a2,2,0,0,0-.674-1.535,2.45,2.45,0,0,0-1.729-.621,3.586,3.586,0,0,0-1.658.381,2.885,2.885,0,0,0-1.025.768l-.316.41L110.449,18.4q.07-.094.193-.24a5.853,5.853,0,0,1,.551-.516,6.831,6.831,0,0,1,.908-.662,5.3,5.3,0,0,1,1.271-.521,5.861,5.861,0,0,1,1.635-.229,4.887,4.887,0,0,1,3.457,1.248,4.027,4.027,0,0,1,1.348,3.076Zm-5.52-1.922a3,3,0,0,0,2.291-.873,3.484,3.484,0,0,0,.826-2.49V22.48l-3.727.6a1.878,1.878,0,0,0-1.043.527,1.42,1.42,0,0,0-.4,1.031,1.259,1.259,0,0,0,.557,1.008A2.368,2.368,0,0,0,114.293,26.078Zm9.943.369a5.852,5.852,0,0,1,0-8.42,5.754,5.754,0,0,1,4.213-1.793,6.1,6.1,0,0,1,4.172,1.734l.5.551-1.559,1.559a3.861,3.861,0,0,0-.357-.463,4.631,4.631,0,0,0-1.043-.744,3.349,3.349,0,0,0-1.717-.469,3.407,3.407,0,0,0-2.537,1.113,4,4,0,0,0,0,5.449,3.45,3.45,0,0,0,4.254.656,4.1,4.1,0,0,0,1.154-.891l.363-.445,1.559,1.559q-.07.094-.211.264a6.079,6.079,0,0,1-.609.574,7.169,7.169,0,0,1-.984.715,6.439,6.439,0,0,1-1.336.574,5.371,5.371,0,0,1-1.652.264A5.763,5.763,0,0,1,124.236,26.447Zm12.721-9.967h8.883V28h-2.4V18.637h-4.078v1.207a20.5,20.5,0,0,1-.521,5.2A4.874,4.874,0,0,1,137.5,27.59a3.288,3.288,0,0,1-2.1.645,4.175,4.175,0,0,1-.674-.059,3.41,3.41,0,0,1-.557-.129L133.957,28V25.715a4.175,4.175,0,0,0,.832.129,1.643,1.643,0,0,0,1.166-.4,3.557,3.557,0,0,0,.715-1.764,19.725,19.725,0,0,0,.287-3.838Zm22.91,6.6h-9a3.455,3.455,0,0,0,1.2,2.109,3.528,3.528,0,0,0,2.408.891,4,4,0,0,0,1.881-.457,4.116,4.116,0,0,0,1.236-.891l.363-.445,1.559,1.559q-.07.094-.217.264a6.472,6.472,0,0,1-.627.574,7.036,7.036,0,0,1-1.02.715,6.877,6.877,0,0,1-1.4.574,6.031,6.031,0,0,1-1.775.264,5.733,5.733,0,0,1-4.225-1.8,5.928,5.928,0,0,1-1.775-4.318,5.9,5.9,0,0,1,5.877-5.883A5.507,5.507,0,0,1,160,21.883Zm-5.52-4.793a3.217,3.217,0,0,0-2.186.768,3.764,3.764,0,0,0-1.189,1.986h6.668a3.3,3.3,0,0,0-1.09-1.986A3.228,3.228,0,0,0,154.348,18.285Zm16.676-1.8h2.156V28h-2.4V20.441l-6,7.559h-2.156V16.48h2.4v7.559ZM166.7,12.4a1.734,1.734,0,0,0,2.4.006,1.637,1.637,0,0,0,.48-1.207h1.8a3.219,3.219,0,0,1-.984,2.4,3.722,3.722,0,0,1-4.992,0,3.219,3.219,0,0,1-.984-2.4h1.793A1.642,1.642,0,0,0,166.7,12.4Z" transform="translate(30 3020)" fill="#111"/>
    <g id="Сгруппировать_1021" data-name="Сгруппировать 1021">
      <g id="Mail" transform="translate(242 3240)">
        <path id="Контур_1707" data-name="Контур 1707" d="M64.965,24.027h-2.52V41.15h2.52Z" transform="translate(13.33 -21.567)" fill="#111"/>
        <path id="Контур_1708" data-name="Контур 1708" d="M68.335,35.589a1.7,1.7,0,1,0,1.7,1.7A1.7,1.7,0,0,0,68.335,35.589Z" transform="translate(14.224 -19.099)" fill="#111"/>
        <path id="Контур_1709" data-name="Контур 1709" d="M73.932,34.312a3.5,3.5,0,0,1,3.6-3.793h1.5V28.135h-1.5a4.131,4.131,0,0,0-3.579,1.576l-.017.025v-1.6H71.446v12.13h2.486Z" transform="translate(15.251 -20.69)" fill="#111"/>
        <path id="Контур_1710" data-name="Контур 1710" d="M60.633,28.135h-2.52v12.13h2.52Z" transform="translate(12.405 -20.69)" fill="#111"/>
        <path id="Контур_1711" data-name="Контур 1711" d="M59.451,27.078a1.7,1.7,0,1,0-1.7-1.7A1.7,1.7,0,0,0,59.451,27.078Z" transform="translate(12.328 -21.642)" fill="#111"/>
        <path id="Контур_1712" data-name="Контур 1712" d="M55.637,29.415a5.59,5.59,0,0,0-3.93-1.534,6.377,6.377,0,1,0,0,12.755A5.471,5.471,0,0,0,55.637,39v1.326h2.478V28.189H55.637ZM51.791,38.1a3.835,3.835,0,1,1,3.88-3.843A3.763,3.763,0,0,1,51.791,38.1Z" transform="translate(9.675 -20.745)" fill="#111"/>
        <path id="Контур_1713" data-name="Контур 1713" d="M84.38,40.581a4.934,4.934,0,0,0,3.463-1.642c.008.458,0,.875,0,1.325H90.32V28.135H87.834V34.8a3.287,3.287,0,0,1-3.3,3.335,2.876,2.876,0,0,1-2.954-3.043V28.143H79.1V35.3C79.107,38.5,80.834,40.581,84.38,40.581Z" transform="translate(16.885 -20.69)" fill="#111"/>
        <path id="Контур_1714" data-name="Контур 1714" d="M41.742,27.881a5.631,5.631,0,0,0-4.255,1.934,4.756,4.756,0,0,0-3.971-1.934A4.4,4.4,0,0,0,30.5,29.039v-.85H28.025v12.13H30.5V33.224a2.87,2.87,0,0,1,5.74,0v7.094h2.478V33.224a2.87,2.87,0,0,1,5.74,0v7.094H46.94V33.224A4.957,4.957,0,0,0,41.742,27.881Z" transform="translate(5.983 -20.745)" fill="#111"/>
        <path id="Контур_1715" data-name="Контур 1715" d="M66.577,42.917l-.017.017v-.942H64.975v7.119h1.585V45.776a2.051,2.051,0,0,1,2.111-2.226h.876V41.992h-.876A2.426,2.426,0,0,0,66.577,42.917Z" transform="translate(13.87 -17.732)" fill="#111"/>
        <path id="Контур_1716" data-name="Контур 1716" d="M81.225,45.892a1.8,1.8,0,0,1-1.811,1.826,1.568,1.568,0,0,1-1.61-1.659V42H76.21v4.177a2.836,2.836,0,0,0,3.1,3.118,2.907,2.907,0,0,0,1.9-.817v.642H82.8V42H81.208Z" transform="translate(16.269 -17.731)" fill="#111"/>
        <path id="Контур_1717" data-name="Контур 1717" d="M72.8,41.847a3.735,3.735,0,1,0,3.738,3.735A3.741,3.741,0,0,0,72.8,41.847Zm0,5.886a2.151,2.151,0,1,1,2.153-2.151A2.157,2.157,0,0,1,72.8,47.733Z" transform="translate(14.744 -17.763)" fill="#111"/>
        <path id="Контур_1718" data-name="Контур 1718" d="M86.71,41.847a3.355,3.355,0,0,0-2.169.767v-.592H82.956v9.57h1.585V48.508a3.273,3.273,0,0,0,2.169.817,3.739,3.739,0,0,0,0-7.478ZM86.66,47.7a2.113,2.113,0,1,1,2.111-2.118A2.062,2.062,0,0,1,86.66,47.7Z" transform="translate(17.708 -17.763)" fill="#111"/>
        <path id="Контур_1719" data-name="Контур 1719" d="M63.409,42.614a3.355,3.355,0,0,0-2.169-.767,3.735,3.735,0,1,0,0,7.47,3.273,3.273,0,0,0,2.169-.817v.142c-.025,1.459-.734,2.2-2.119,2.2h-.017a2.944,2.944,0,0,1-2.119-.925l-.058-.058-1.151,1.1.05.058A4.441,4.441,0,0,0,61.231,52.5h.075c1.352-.025,3.621-.55,3.688-3.8V42.014H63.409ZM61.289,47.7a2.114,2.114,0,1,1,2.144-2.118A2.068,2.068,0,0,1,61.289,47.7Z" transform="translate(12.275 -17.763)" fill="#111"/>
        <path id="Контур_1720" data-name="Контур 1720" d="M17.321,35.3a4,4,0,1,1-4-4A4,4,0,0,1,17.321,35.3Zm-4-13.3a13.3,13.3,0,1,0,7.5,24.284l.042-.025-1.794-2.084-.033.017a10.589,10.589,0,1,1,4.614-6.619,1.968,1.968,0,0,1-2.019,1.734,1.708,1.708,0,0,1-1.585-1.842V35.3A6.734,6.734,0,1,0,18.08,40.04a4.333,4.333,0,0,0,3.329,1.984c.117.008.242.017.359.017a4.529,4.529,0,0,0,2.7-.909A4.989,4.989,0,0,0,26.19,38.6c.05-.167.15-.559.15-.559v-.017a11.85,11.85,0,0,0,.284-2.726A13.312,13.312,0,0,0,13.316,22Z" transform="translate(0 -22)" fill="#111"/>
      </g>
      <g id="NTU" transform="translate(249 3299)">
        <path id="Контур_1721" data-name="Контур 1721" d="M21.007,42.308,32.623,30.825,44.239,42.308Z" transform="translate(13.73 -7.964)" fill="#111"/>
        <path id="Контур_1722" data-name="Контур 1722" d="M0,49.219,11.582,37.769l11.65,11.449Z" transform="translate(0 -3.426)" fill="#111"/>
        <path id="Контур_1723" data-name="Контур 1723" d="M30.16,37.769,18.654,49.219,7,37.769Z" transform="translate(4.578 -3.426)" fill="#111"/>
        <path id="Контур_1724" data-name="Контур 1724" d="M14.006,35.369,25.584,23.924l11.65,11.445Z" transform="translate(9.154 -12.475)" fill="#111"/>
        <path id="Контур_1725" data-name="Контур 1725" d="M28.011,35.372,39.623,23.919,51.239,35.372Z" transform="translate(18.308 -12.478)" fill="#111"/>
        <path id="Контур_1726" data-name="Контур 1726" d="M44.2,23.919,32.623,35.372,21.007,23.927Z" transform="translate(13.73 -12.478)" fill="#111"/>
        <path id="Контур_1727" data-name="Контур 1727" d="M58.193,23.927,46.6,35.372,35.034,23.919Z" transform="translate(22.897 -12.478)" fill="#111"/>
        <path id="Контур_1728" data-name="Контур 1728" d="M7,42.295,18.582,30.846,30.3,42.295Z" transform="translate(4.578 -7.951)" fill="#111"/>
        <path id="Контур_1729" data-name="Контур 1729" d="M37.2,30.846,25.584,42.295,14.006,30.846Z" transform="translate(9.154 -7.951)" fill="#111"/>
        <path id="Контур_1730" data-name="Контур 1730" d="M51.172,30.846,39.648,42.295,28.032,30.846Z" transform="translate(18.321 -7.951)" fill="#111"/>
        <path id="Контур_1731" data-name="Контур 1731" d="M21.007,28.449,32.589,17,44.2,28.442Z" transform="translate(13.73 -17)" fill="#111"/>
        <path id="Контур_1732" data-name="Контур 1732" d="M35.034,28.442,46.65,17,58.193,28.449Z" transform="translate(22.897 -17)" fill="#111"/>
        <path id="Контур_1733" data-name="Контур 1733" d="M51.239,17,39.623,28.442,28.011,17Z" transform="translate(18.308 -17)" fill="#111"/>
        <path id="Контур_1734" data-name="Контур 1734" d="M21.767,40.823a.507.507,0,0,1,.507-.507h4.378c1.381,0,2.8.594,2.8,2.194a1.7,1.7,0,0,1-.726,1.423,1.926,1.926,0,0,1,1.037,1.786c0,1.532-1.347,2.315-2.857,2.315H22.274a.507.507,0,0,1-.507-.507Zm2.032.95v1.544h2.879a.772.772,0,1,0,0-1.544Zm0,2.955v1.854h3.076a.931.931,0,0,0,0-1.854Z" transform="translate(14.226 -1.761)" fill="#111"/>
        <path id="Контур_1735" data-name="Контур 1735" d="M29.627,46.418c.3,0,.583.1.9.1h.106c.7,0,1.2-.465,1.468-1.4H31.64a3.229,3.229,0,0,1-3.405-2.35l-.848-1.941c-.121-.288.023-.507.3-.507h1.135a.757.757,0,0,1,.715.484l.617,1.514a1.783,1.783,0,0,0,1.79,1.29h.662l.972-2.781a.719.719,0,0,1,.674-.5h1.094a.344.344,0,0,1,.34.484l-1.756,5.032a2.987,2.987,0,0,1-3.167,2.206h-1.3a.507.507,0,0,1-.507-.507V46.94a.5.5,0,0,1,.507-.507Z" transform="translate(17.872 -1.76)" fill="#111"/>
        <path id="Контур_1736" data-name="Контур 1736" d="M40.406,48.035H39.381a.507.507,0,0,1-.507-.507V41.852H37.561a1.423,1.423,0,0,0-1.423,1.082L34.9,47.547a.693.693,0,0,1-.639.507h-1.09a.352.352,0,0,1-.352-.454l1.37-5.176c.454-1.71,2.009-2.1,3.576-2.1h2.694a.492.492,0,0,1,.454.507v6.708A.5.5,0,0,1,40.6,48,.49.49,0,0,1,40.406,48.035Z" transform="translate(21.44 -1.754)" fill="#111"/>
        <path id="Контур_1737" data-name="Контур 1737" d="M39.81,48.047a.515.515,0,0,1-.507-.518v-6.7a.515.515,0,0,1,.507-.518h1.014a.515.515,0,0,1,.507.518v2.58H42.5c.628,0,1.082-.322,1.514-1.094l.84-1.491a.912.912,0,0,1,.757-.518h1.249c.276,0,.329.22.167.518l-1.169,2.119a2.122,2.122,0,0,1-1.392,1.192c.53.11,1.082.783,1.392,1.256L47.2,47.536c.178.288.1.507-.189.507H45.773a1.109,1.109,0,0,1-.829-.507l-.95-1.514c-.409-.651-.817-1.1-1.514-1.1H41.324v2.614a.5.5,0,0,1-.507.5Z" transform="translate(25.688 -1.766)" fill="#111"/>
        <path id="Контур_1738" data-name="Контур 1738" d="M46.255,42.412c.454-1.71,2.009-2.1,3.576-2.1h2.9a.481.481,0,0,1,.465.5v6.731a.5.5,0,0,1-.507.5H51.677a.5.5,0,0,1-.507-.507V46.173H47.338l-.378,1.358a.692.692,0,0,1-.639.507H45.261a.378.378,0,0,1-.379-.5Zm1.479,2.24h3.432V41.841H49.634a1.423,1.423,0,0,0-1.423,1.082Z" transform="translate(29.322 -1.761)" fill="#111"/>
        <path id="Контур_1739" data-name="Контур 1739" d="M57.232,44.773H53.524v2.77a.5.5,0,0,1-.507.5H52.01a.515.515,0,0,1-.518-.507V40.823a.507.507,0,0,1,.518-.507h1.006a.507.507,0,0,1,.507.507v2.429h3.708V40.823a.507.507,0,0,1,.507-.507h1.007a.511.511,0,0,1,.518.507v6.708a.514.514,0,0,1-.518.507h-1a.5.5,0,0,1-.358-.142.5.5,0,0,1-.153-.354Z" transform="translate(33.654 -1.761)" fill="#111"/>
        <path id="Контур_1740" data-name="Контур 1740" d="M46.747,37.6H43.682v2.27a.416.416,0,0,1-.42.409h-.829a.427.427,0,0,1-.427-.42v-5.52a.42.42,0,0,1,.427-.42h.829a.416.416,0,0,1,.42.42v2.005h3.061V34.338a.416.416,0,0,1,.42-.42h.829a.42.42,0,0,1,.428.42v5.539a.424.424,0,0,1-.127.3.425.425,0,0,1-.3.122h-.829a.416.416,0,0,1-.42-.409Z" transform="translate(27.454 -5.942)" fill="#111"/>
        <path id="Контур_1741" data-name="Контур 1741" d="M52.949,33.918a.412.412,0,0,1,.42.42v.42a.412.412,0,0,1-.42.42H50.963v4.707a.416.416,0,0,1-.42.409H49.7a.416.416,0,0,1-.424-.409V35.174H47.293a.412.412,0,0,1-.42-.42v-.416a.412.412,0,0,1,.42-.42Z" transform="translate(30.635 -5.942)" fill="#111"/>
        <path id="Контур_1742" data-name="Контур 1742" d="M52.212,40.3a.424.424,0,0,1-.42-.42V34.327a.416.416,0,0,1,.42-.409h.84a.417.417,0,0,1,.42.42v4.7h2.989V34.327a.416.416,0,0,1,.42-.409h.84a.416.416,0,0,1,.42.42v4.7h.484a.42.42,0,0,1,.412.428v.42a.423.423,0,0,1-.42.42Z" transform="translate(33.85 -5.942)" fill="#111"/>
        <path id="Контур_1743" data-name="Контур 1743" d="M42.026,35.369l11.6-11.445L65.239,35.369Z" transform="translate(27.468 -12.475)" fill="#111"/>
      </g>
      <path id="Alphabank" d="M11.893,18c2.444,0,3.231,1.765,3.883,3.53.272.733,6.652,18.219,6.842,18.735a.348.348,0,0,1-.217.462c-.244.081-3.53,1.385-3.72,1.439a.374.374,0,0,1-.462-.217c-.081-.19-1.439-3.991-1.6-4.4H7.168c-.163.434-1.548,4.236-1.6,4.4a.363.363,0,0,1-.462.217c-.19-.081-3.53-1.358-3.72-1.439a.387.387,0,0,1-.217-.462c.244-.652,6.517-17.839,6.842-18.735C8.634,19.792,9.449,18,11.893,18ZM.679,49.252a.366.366,0,0,0-.353.38v4.073a.366.366,0,0,0,.353.38H23.106a.366.366,0,0,0,.353-.38V49.633a.366.366,0,0,0-.353-.38ZM11.893,23.7l-3.2,9.585h6.435L11.92,23.7ZM95.332,37.767a1.607,1.607,0,0,1-1.711,1.792,4.279,4.279,0,0,1-1.358-.163V36.111A7.487,7.487,0,0,1,93.621,36C94.761,36.083,95.332,36.6,95.332,37.767Zm2.281-.136c0-2.009-1.167-3.394-3.665-3.394a6.235,6.235,0,0,0-1.684.217V31.549a15.419,15.419,0,0,1,1.874-.109c.733,0,1.656.054,2.471.136l.054-1.683a16.046,16.046,0,0,0-3.285-.326,15.282,15.282,0,0,0-3.367.462v10.7a9.944,9.944,0,0,0,3.5.625C96.2,41.351,97.612,39.912,97.612,37.631Zm-25.768-.6c0,1.493-.6,2.471-1.575,2.471a3.2,3.2,0,0,1-1.086-.163v-4.48a2.3,2.3,0,0,1,1.195-.244C71.356,34.59,71.845,35.4,71.845,37.034Zm-7.467.054c0-1.629.489-2.5,1.466-2.5a2.3,2.3,0,0,1,1.195.244v4.48a2.648,2.648,0,0,1-1.086.163C64.84,39.5,64.378,38.581,64.378,37.088Zm4.806,6.707V40.862a3.264,3.264,0,0,0,1.711.407c1.819,0,3.15-1.493,3.15-4.263,0-2.96-1.331-4.236-3.5-4.236a2.769,2.769,0,0,0-1.358.272V29.594H67.066V33.07a2.769,2.769,0,0,0-1.358-.272c-2.172,0-3.5,1.331-3.5,4.263,0,2.742,1.195,4.209,3.15,4.209a3.3,3.3,0,0,0,1.738-.407v2.932ZM53.028,41.134v-7.82a10.313,10.313,0,0,0-3.258-.489,10.975,10.975,0,0,0-3.231.489v4.019A5.79,5.79,0,0,1,46.4,39.1a1.86,1.86,0,0,1-.706.978l.57,1.249c1.711-.489,2.362-1.222,2.362-3.611v-2.96a6.156,6.156,0,0,1,1.14-.109,5.892,5.892,0,0,1,1.113.109v6.381Zm26.283-1.711a3.123,3.123,0,0,1-1.14.19c-.76,0-1.195-.3-1.195-1.086,0-.815.543-1.086,1.6-1.086a1.824,1.824,0,0,1,.625.081v.6A4.981,4.981,0,0,0,79.312,39.423Zm2.715.95a3.66,3.66,0,0,1-.706-2.444v-2.2a3.1,3.1,0,0,0-.462-2.064c-.434-.6-1.14-.869-2.5-.869a11.325,11.325,0,0,0-2.742.326l.326,1.575a13.982,13.982,0,0,1,1.683-.163c1.412,0,1.575.217,1.575,1.276v.407a4.4,4.4,0,0,0-1.086-.136c-2.145,0-3.258,1.032-3.258,2.77a2.452,2.452,0,0,0,2.661,2.5,4.277,4.277,0,0,0,1.575-.3,3.176,3.176,0,0,0,.733-.434,2.138,2.138,0,0,0,.814.679Zm20.826-.95a3.123,3.123,0,0,1-1.14.19c-.76,0-1.195-.3-1.195-1.086,0-.815.543-1.086,1.6-1.086a1.721,1.721,0,0,1,.625.081v.6A6.584,6.584,0,0,0,102.853,39.423Zm2.715.95a3.66,3.66,0,0,1-.706-2.444v-2.2a3.307,3.307,0,0,0-.434-2.064c-.434-.6-1.168-.869-2.5-.869a11.326,11.326,0,0,0-2.742.326l.326,1.575a13.981,13.981,0,0,1,1.684-.163c1.412,0,1.575.217,1.575,1.276v.407a4.233,4.233,0,0,0-1.086-.136c-2.145,0-3.258,1.032-3.258,2.77a2.452,2.452,0,0,0,2.661,2.5,4.276,4.276,0,0,0,1.575-.3,3.175,3.175,0,0,0,.733-.434,2.138,2.138,0,0,0,.815.679ZM59.083,38.337c0,.787-.272,1.358-1.3,1.358a2.379,2.379,0,0,1-.923-.136V37.224a3.878,3.878,0,0,1,.923-.136C58.757,37.088,59.083,37.577,59.083,38.337Zm-4.372-5.4V40.7a8.012,8.012,0,0,0,3.123.625c2.281,0,3.476-1.167,3.476-3.1,0-1.738-1.086-2.824-3.1-2.824a4.813,4.813,0,0,0-1.358.19V32.934Zm58.676,8.2V33.015h-2.145v3.068h-2.417V33.015h-2.145v8.118h2.145V37.821h2.417v3.313Zm8.77,0s-1.167-2.5-1.439-3.041c-.326-.625-.625-1.086-1.276-1.249v-.027c.434-.082.787-.353,1.168-1.168.353-.787.462-.978.679-1.14a.551.551,0,0,1,.489-.109l.109-1.466a4.064,4.064,0,0,0-1-.027,1.56,1.56,0,0,0-1.167.489,3.6,3.6,0,0,0-.57.923c-.19.407-.353.733-.57,1.167s-.3.625-.869.625h-.353v-3.1h-2.145v8.118h2.145V37.821h.3c.6,0,.706.163,1.032.787.38.76,1.086,2.525,1.086,2.525Zm-79.583,0h2.471l-3.72-11.35a4.236,4.236,0,0,0-1.385-.217,3.13,3.13,0,0,0-1.195.217l-3.937,11.35h2.362s.326-1,.706-2.226H41.95C42.276,40.156,42.575,41.134,42.575,41.134ZM38.42,37.007s.679-2.281.787-2.634c.272-.923.679-2.389.679-2.389h.054s.38,1.52.625,2.362c.109.326.76,2.634.76,2.634H38.42Zm47.245-1.3a1.362,1.362,0,0,0-1.358,1.358,1.358,1.358,0,0,0,2.715,0A1.38,1.38,0,0,0,85.665,35.7Z" transform="translate(56.674 3080)" fill="#111"/>
      <g id="Delivery_Club" transform="translate(66 3305)">
        <path id="Контур_1688" data-name="Контур 1688" d="M17.982,43.2c-.056-.525.262-3.11.262-3.11s.639.107,1.255.176,1.608.122,1.608.122-.535,1.939-.224,2.382c.718,1.023,4.64,3.55,5.54,4.565A11.091,11.091,0,0,0,27.9,48.614c.4.338,1.678.377,2.015.716.225.244.5.957.363,1.086a12,12,0,0,1-2.378.069,1.656,1.656,0,0,1-.814-.358.554.554,0,0,1-.659.085c-.675-.337-.574-1.033-.968-1.6-.225-.225-3.522-2.4-5.646-3.6C17.986,43.982,18.067,44,17.982,43.2ZM4.874,36.505c-.395-.352-1.854.9-2.271.81s-.009-1.125-.379-1.062c-.5.085-.635,1.262-1.085,1.353C.413,37.88,0,36.79,0,35.489a3.961,3.961,0,0,1,2.033-3.627,7.436,7.436,0,0,1,5.706-.532c1.714-.92,3.969-3.59,8.991-3.715s6.9,2.392,7.97,1.789a2.776,2.776,0,0,0,1.2-2.976c-.445-1.944-1.308-3-2-4.733a4.529,4.529,0,0,1,.089-3.573,2.241,2.241,0,0,1,1.738-1.113c.9-.1,1.134.656,1.762.862s1.97.333,2.075.813-1.506.857-1.871.818c-.855-.092-1.395.485-1.348,1.5.055,1.3.359,1.76,1.551,3.605a6.663,6.663,0,0,1-.341,7.055,10.543,10.543,0,0,0-1.33,1.872c-.273.573,0-.582,0,1.705a3.647,3.647,0,0,1-2.652,3.871,12.218,12.218,0,0,1-5.554.2,17.141,17.141,0,0,0-5.414,0c-.875.224-3.612,1.774-3.949,2.494-.179.389-1.145,4.44-1.322,5.33a6.768,6.768,0,0,1-.2,1.42,13.008,13.008,0,0,1-3.2,2.078c-.352.135-1.064.308-1.148.184-.5-.575-.5-.709.952-1.757-.506-1.052.954-1.309,1.383-1.829.468-.565,1.318-6.711,1.609-7.512s1.428-1.076,1.889-1.788c-.218-.253-.52-.118-1.319.107-.685.193-2.116.7-2.42.449S5.269,36.857,4.874,36.505Z" transform="translate(0 -17)" fill="#111" fill-rule="evenodd"/>
        <path id="Контур_1689" data-name="Контур 1689" d="M38.685,32.353H34.042V20.462h4.626c3.676,0,6.226,2.371,6.226,5.937C44.894,30,42.343,32.353,38.685,32.353Zm-.018-2.228A3.541,3.541,0,0,0,42.343,26.4a3.448,3.448,0,0,0-3.658-3.708H36.539v7.434ZM50.61,32.567a4.33,4.33,0,0,1-4.538-4.528,4.365,4.365,0,0,1,4.4-4.511c2.55,0,4.256,1.925,4.256,4.724v.535H48.411a2.285,2.285,0,0,0,2.445,1.925,3.524,3.524,0,0,0,2.251-.838l1,1.5A5.25,5.25,0,0,1,50.61,32.567Zm1.97-5.348a2.111,2.111,0,0,0-4.186,0Zm6.156,5.348A2.129,2.129,0,0,1,56.343,30.2V20.462h2.234V29.59c0,.553.281.963.774.963a1.115,1.115,0,0,0,.774-.267l.475,1.729A2.767,2.767,0,0,1,58.735,32.567Zm3.957-9.752a1.342,1.342,0,0,1-1.319-1.355,1.328,1.328,0,1,1,2.656,0A1.345,1.345,0,0,1,62.692,22.815Zm1.126,9.538H61.584V23.742h2.234Zm6.824,0h-2.41l-3.412-8.611h2.392l2.216,5.99,2.234-5.99h2.392Zm8.407.214a4.33,4.33,0,0,1-4.538-4.528,4.365,4.365,0,0,1,4.4-4.511c2.55,0,4.256,1.925,4.256,4.724v.535H76.851A2.285,2.285,0,0,0,79.3,30.713a3.524,3.524,0,0,0,2.251-.838l1,1.5A5.25,5.25,0,0,1,79.049,32.567Zm1.97-5.348a2.111,2.111,0,0,0-4.186,0Zm6,5.134H84.783V23.742h2.234V24.9a3.708,3.708,0,0,1,2.708-1.373v2.211a2.857,2.857,0,0,0-2.708.927Zm7.545,3.494a5.078,5.078,0,0,1-3.553-1.284l1-1.622a3.322,3.322,0,0,0,2.55,1.052,2.148,2.148,0,0,0,2.287-2.211v-.891a4.016,4.016,0,0,1-2.99,1.3,2.449,2.449,0,0,1-2.744-2.71V23.742h2.234v4.849c0,1.194.616,1.587,1.565,1.587a2.49,2.49,0,0,0,1.935-.981V23.742h2.234v8.04C99.082,34.368,97.27,35.847,94.562,35.847ZM39.542,48.774a6.152,6.152,0,1,1,0-12.3,5.323,5.323,0,0,1,4.889,2.906l-2.146,1.07a3.17,3.17,0,0,0-2.744-1.729,3.684,3.684,0,0,0-3.693,3.9,3.684,3.684,0,0,0,3.693,3.9A3.17,3.17,0,0,0,42.286,44.8l2.146,1.052A5.366,5.366,0,0,1,39.542,48.774Zm8.922,0A2.129,2.129,0,0,1,46.072,46.4V36.669h2.234V45.8c0,.553.281.963.774.963a1.115,1.115,0,0,0,.774-.267l.475,1.729A2.767,2.767,0,0,1,48.464,48.774ZM59.28,48.56H57.047V47.473a4.015,4.015,0,0,1-2.99,1.3,2.449,2.449,0,0,1-2.744-2.71V39.949h2.234v5.224c0,1.194.616,1.587,1.565,1.587a2.49,2.49,0,0,0,1.935-.981v-5.83H59.28ZM63.73,45.8a2.51,2.51,0,0,0,1.935.963,2.228,2.228,0,0,0,2.146-2.514,2.221,2.221,0,0,0-2.146-2.5,2.489,2.489,0,0,0-1.935,1Zm0,2.763H61.5V36.669H63.73v4.386a3.208,3.208,0,0,1,2.621-1.319c2.163,0,3.764,1.711,3.764,4.51,0,2.888-1.618,4.528-3.764,4.528a3.283,3.283,0,0,1-2.621-1.319Z" transform="translate(5.578 -16.477)" fill="#111" fill-rule="evenodd"/>
      </g>
      <g id="Sberbank" transform="translate(53 3171)">
        <path id="Контур_1744" data-name="Контур 1744" d="M29.092,36.2a5.215,5.215,0,0,0,1.989,1.344,7.521,7.521,0,0,0,2.85.484,12.378,12.378,0,0,0,1.505-.108,4.167,4.167,0,0,0,1.237-.323c.376-.108.7-.269,1.022-.376.269-.161.538-.269.753-.376l-.376-.806-.645.323c-.215.108-.43.161-.7.269a4.071,4.071,0,0,1-.86.161,7.226,7.226,0,0,1-1.129.054,3.633,3.633,0,0,1-1.989-.484,3.882,3.882,0,0,1-1.237-1.237,6.444,6.444,0,0,1-.591-1.882,16.361,16.361,0,0,1-.161-2.366c0-.645.054-1.344.108-2.043A4.823,4.823,0,0,1,31.35,27a3.727,3.727,0,0,1,1.075-1.344,3.439,3.439,0,0,1,1.936-.538,3.3,3.3,0,0,1,1.936.591,2.8,2.8,0,0,1,1.022,1.828h.86V24.9c-.269-.108-.538-.215-.86-.323a5.7,5.7,0,0,0-1.022-.215c-.376-.054-.7-.054-1.075-.108-.323,0-.645-.054-.914-.054a8.419,8.419,0,0,0-3.011.484,5.536,5.536,0,0,0-2.043,1.4,5.8,5.8,0,0,0-1.183,2.2,10.119,10.119,0,0,0-.376,2.957,9.027,9.027,0,0,0,.376,2.8A4.242,4.242,0,0,0,29.092,36.2Z" transform="translate(4.781 -21.033)" fill="#111"/>
        <path id="Контур_1745" data-name="Контур 1745" d="M74.79,37.561a4.575,4.575,0,0,0,1.774-.538A3,3,0,0,0,77.8,35.68a5.081,5.081,0,0,0,.484-2.419,4.917,4.917,0,0,0-.323-1.882,2.961,2.961,0,0,0-1.021-1.29,5.2,5.2,0,0,0-1.828-.7,13.5,13.5,0,0,0-2.742-.215H71.241V26c0-.323.054-.538.215-.645a1.73,1.73,0,0,1,.86-.108H73.93a8.336,8.336,0,0,1,1.237.054,1.383,1.383,0,0,1,.753.269,1.468,1.468,0,0,1,.484.645,6.849,6.849,0,0,1,.376,1.129h.7V24.389H67.585v.43a1.094,1.094,0,0,0,.269.054.57.57,0,0,1,.484.484c0,.161.054.323.054.538V36.164a1.5,1.5,0,0,1-.054.538.325.325,0,0,1-.161.323.46.46,0,0,1-.323.161.72.72,0,0,1-.269.054v.43h5A14.419,14.419,0,0,0,74.79,37.561Zm-3.28-.968a.488.488,0,0,1-.161-.376c0-.161-.054-.376-.054-.645V29.98h1.129a2.694,2.694,0,0,1,2.2.806,4.135,4.135,0,0,1,.645,2.581,6.026,6.026,0,0,1-.215,1.882,2.559,2.559,0,0,1-.591,1.075,3.209,3.209,0,0,1-.807.484,5.918,5.918,0,0,1-.968.108c-.323-.054-.591-.054-.753-.108A1.08,1.08,0,0,1,71.51,36.594Z" transform="translate(11.667 -21.001)" fill="#111"/>
        <path id="Контур_1746" data-name="Контур 1746" d="M62.311,37.239a1.1,1.1,0,0,0-.269-.054.571.571,0,0,1-.484-.484c0-.161-.054-.323-.054-.538v-3.71h1.344a11.923,11.923,0,0,0,1.989-.161,5.091,5.091,0,0,0,1.667-.591,2.954,2.954,0,0,0,1.129-1.29,5.014,5.014,0,0,0,.43-2.2,5.125,5.125,0,0,0-.376-2.043,3.274,3.274,0,0,0-1.075-1.183,3.55,3.55,0,0,0-1.559-.484c-.591-.054-1.183-.108-1.828-.108H57.956v.43a1.092,1.092,0,0,0,.269.054.57.57,0,0,1,.484.484c0,.161.054.323.054.538V36.11a1.5,1.5,0,0,1-.054.538.325.325,0,0,1-.161.323.46.46,0,0,1-.323.161.719.719,0,0,1-.269.054v.43h4.355Zm-.753-11.345a.683.683,0,0,1,.054-.323.279.279,0,0,1,.108-.215.454.454,0,0,1,.323-.108c.161,0,.323-.054.591-.054a5.918,5.918,0,0,1,.968.108,2.483,2.483,0,0,1,.807.484,2.933,2.933,0,0,1,.538.914,5.259,5.259,0,0,1,.161,1.4,5.5,5.5,0,0,1-.484,2.581,1.824,1.824,0,0,1-1.721.914H61.559Z" transform="translate(10.005 -21.001)" fill="#111"/>
        <path id="Контур_1747" data-name="Контур 1747" d="M57.852,34.6h-.86a9.868,9.868,0,0,1-.323,1.237,1.3,1.3,0,0,1-.43.7,1.064,1.064,0,0,1-.753.269,9.153,9.153,0,0,1-1.344.054,7.612,7.612,0,0,1-1.237-.054,1.785,1.785,0,0,1-.7-.215.548.548,0,0,1-.269-.43,3.079,3.079,0,0,1-.054-.753V31.217H54.2c.215,0,.43.054.645.054a2.7,2.7,0,0,1,.645.108,1.611,1.611,0,0,1,.538.215v-1.72a1.611,1.611,0,0,1-.538.215,2.7,2.7,0,0,1-.645.108,2.62,2.62,0,0,1-.645.054H51.884V25.84a1.439,1.439,0,0,1,.108-.591c.108-.108.269-.108.538-.108h1.452a8.337,8.337,0,0,1,1.237.054,1.382,1.382,0,0,1,.753.269,1.467,1.467,0,0,1,.484.645,6.837,6.837,0,0,1,.376,1.129h.7v-2.85H48.282v.43a1.093,1.093,0,0,0,.269.054.57.57,0,0,1,.484.484c0,.161.054.323.054.538V36.11a1.5,1.5,0,0,1-.054.538.325.325,0,0,1-.161.323.46.46,0,0,1-.323.161.719.719,0,0,1-.269.054v.43h9.57Z" transform="translate(8.334 -21.001)" fill="#111"/>
        <path id="Контур_1748" data-name="Контур 1748" d="M45.024,37.561a4.575,4.575,0,0,0,1.774-.538,3.453,3.453,0,0,0,1.29-1.344,5.081,5.081,0,0,0,.484-2.419,4.915,4.915,0,0,0-.323-1.882,2.961,2.961,0,0,0-1.021-1.29,5.2,5.2,0,0,0-1.828-.7,13.5,13.5,0,0,0-2.742-.215H41.529V26c0-.323.054-.538.215-.645a1.73,1.73,0,0,1,.86-.108h1.613a8.336,8.336,0,0,1,1.237.054,1.383,1.383,0,0,1,.753.269,1.467,1.467,0,0,1,.484.645,6.84,6.84,0,0,1,.376,1.129h.7V24.389H37.873v.43a1.094,1.094,0,0,0,.269.054.57.57,0,0,1,.484.484c0,.161.054.323.054.538V36.11a1.656,1.656,0,0,1-.054.538.325.325,0,0,1-.161.323.46.46,0,0,1-.323.161.719.719,0,0,1-.269.054v.484h5A13.711,13.711,0,0,0,45.024,37.561Zm-3.28-.968a.488.488,0,0,1-.161-.376c0-.161-.054-.376-.054-.645V29.98h1.129a2.694,2.694,0,0,1,2.2.806,4.135,4.135,0,0,1,.645,2.581,6.023,6.023,0,0,1-.215,1.882,2.556,2.556,0,0,1-.591,1.075,3.209,3.209,0,0,1-.806.484,5.918,5.918,0,0,1-.968.108c-.323-.054-.538-.054-.753-.108A1.08,1.08,0,0,1,41.744,36.594Z" transform="translate(6.538 -21.001)" fill="#111"/>
        <path id="Контур_1749" data-name="Контур 1749" d="M125.081,38.924H27.6v1.29h97.478Z" transform="translate(4.765 -18.492)" fill="#111"/>
        <path id="Контур_1750" data-name="Контур 1750" d="M104.2,32.653c.268.376.484.7.753,1.021.215.323.483.645.7.968a10.866,10.866,0,0,0,.7.968,12.139,12.139,0,0,1,.7,1.075,9.305,9.305,0,0,1,.537,1.022l4.517.054c-.484-.484-.913-.968-1.4-1.452-.43-.484-.807-.914-1.075-1.183q-.646-.726-1.129-1.29c-.376-.43-.7-.807-1.021-1.183s-.645-.807-.915-1.183-.591-.86-.86-1.29l.215-.269c.322-.43.7-.86,1.129-1.4a18.835,18.835,0,0,1,1.344-1.559,18.362,18.362,0,0,1,1.4-1.452,15.321,15.321,0,0,1,1.237-1.022h-3.118a8.177,8.177,0,0,1-.484.968,10.881,10.881,0,0,1-.753,1.237c-.269.43-.591.914-.861,1.4-.322.484-.591.914-.913,1.344s-.591.86-.861,1.183c-.269.376-.483.645-.645.914Z" transform="translate(17.848 -20.986)" fill="#111"/>
        <path id="Контур_1751" data-name="Контур 1751" d="M104.4,37.239a1.1,1.1,0,0,0-.269-.054.862.862,0,0,1-.322-.161.874.874,0,0,1-.162-.323c0-.161-.054-.323-.054-.538V25.948a1.493,1.493,0,0,1,.054-.538.325.325,0,0,1,.162-.323.862.862,0,0,1,.322-.161.717.717,0,0,1,.269-.054v-.484h-4.355v.43a1.1,1.1,0,0,0,.269.054.571.571,0,0,1,.484.484c0,.161.054.323.054.538V36.11a1.494,1.494,0,0,1-.054.538.325.325,0,0,1-.162.323.459.459,0,0,1-.322.161.715.715,0,0,1-.269.054v.43H104.4Z" transform="translate(17.271 -21.001)" fill="#111"/>
        <path id="Контур_1752" data-name="Контур 1752" d="M79.5,36.048c.161-.753.484-1.828.914-3.172h4.248l.591,1.72a14.815,14.815,0,0,1,.591,1.936,4.866,4.866,0,0,1,.269,1.183H89.5c-.161-.269-.323-.645-.538-1.075a14.966,14.966,0,0,1-.753-1.882l-3.065-8.71a4.462,4.462,0,0,1-.269-.968c-.054-.269-.054-.484-.108-.645H80.949v.43a1.1,1.1,0,0,0,.269.054.57.57,0,0,1,.484.484v.269a2.047,2.047,0,0,1-.161.86L79.39,31.8c-.376.968-.753,1.828-1.022,2.473s-.538,1.237-.7,1.667c-.215.43-.376.807-.538,1.075s-.269.484-.376.7h2.419C79.229,37.338,79.336,36.8,79.5,36.048Zm3.065-9.463,1.774,5.377H80.68Z" transform="translate(13.25 -20.993)" fill="#111"/>
        <path id="Контур_1753" data-name="Контур 1753" d="M92.619,37.239h-.108a1.1,1.1,0,0,0-.269-.054.571.571,0,0,1-.484-.484c0-.161-.054-.323-.054-.538V31.056h5.162V36.11a1.5,1.5,0,0,1-.054.538.325.325,0,0,1-.161.323.46.46,0,0,1-.323.161.718.718,0,0,1-.269.054v.43h4.355v-.43a1.092,1.092,0,0,0-.269-.054.57.57,0,0,1-.484-.484c0-.161-.054-.323-.054-.538V25.84a1.5,1.5,0,0,1,.054-.538.325.325,0,0,1,.161-.323.874.874,0,0,1,.323-.161.72.72,0,0,1,.269-.054v-.376H96.168v.43a1.091,1.091,0,0,0,.269.054.57.57,0,0,1,.484.484c0,.161.054.323.054.538v4.247H91.813V25.894a1.5,1.5,0,0,1,.054-.538.325.325,0,0,1,.161-.323.875.875,0,0,1,.323-.161.719.719,0,0,1,.269-.054v-.43H88.264v.43a1.092,1.092,0,0,0,.269.054.57.57,0,0,1,.484.484c0,.161.054.323.054.538V36.164a1.656,1.656,0,0,1-.054.538.325.325,0,0,1-.161.323.459.459,0,0,1-.323.161.72.72,0,0,1-.269.054v.43h4.355Z" transform="translate(15.236 -21.001)" fill="#111"/>
        <path id="Контур_1754" data-name="Контур 1754" d="M23.456,25.747l-.807-1.129L7.757,33.167l-7.2-4.14a6.568,6.568,0,0,0-.323,1.4L7.81,34.78Z" transform="translate(0.04 -20.962)" fill="#111"/>
        <path id="Контур_1755" data-name="Контур 1755" d="M7.8,36.045.054,31.582a4.625,4.625,0,0,0-.054.86,12.8,12.8,0,1,0,25.593,0,12.354,12.354,0,0,0-1.4-5.807Z" transform="translate(0 -20.613)" fill="#111"/>
        <path id="Контур_1756" data-name="Контур 1756" d="M21.517,23.843c-.376-.376-.753-.645-1.129-.968L7.646,30.242,1.516,26.747c-.215.376-.43.806-.645,1.237l6.721,3.871Z" transform="translate(0.15 -21.263)" fill="#111"/>
        <path id="Контур_1757" data-name="Контур 1757" d="M18.892,22.253a13.106,13.106,0,0,0-1.505-.753L7.44,27.253,2.977,24.726c-.323.323-.591.7-.914,1.075l5.323,3.065Z" transform="translate(0.356 -21.5)" fill="#111"/>
      </g>
      <g id="GB" transform="translate(225 3104)">
        <path id="Контур_1690" data-name="Контур 1690" d="M61.4,27.857a5.359,5.359,0,0,0-4,1.611,5.61,5.61,0,0,0-1.59,4.039,5.3,5.3,0,0,0,1.719,4.082,6.285,6.285,0,0,0,4.447,1.568,10.028,10.028,0,0,0,4.061-.924v-2.17a8.228,8.228,0,0,1-4.061,1.053c-1.783,0-3.481-.773-3.846-2.836h8.358a5.717,5.717,0,0,0,.107-1.268,5.089,5.089,0,0,0-5.2-5.156Zm-.064,2.127A2.943,2.943,0,0,1,64.387,32.5H58.156A3.049,3.049,0,0,1,61.336,29.984Z" transform="translate(4.201 -20.215)" fill="#111"/>
        <path id="Контур_1691" data-name="Контур 1691" d="M95.435,27.953a4.806,4.806,0,0,0-3.266,1.311v-1.1H89.934V38.91h2.234V33.518a3.053,3.053,0,0,1,3.395-3.373,3.308,3.308,0,0,1,.408.043V28C95.778,27.974,95.542,27.953,95.435,27.953Z" transform="translate(6.768 -20.208)" fill="#111"/>
        <path id="Контур_1692" data-name="Контур 1692" d="M72.337,33.376l4-5.242H73.626l-3.932,5.285,4.168,5.457h2.643L72.294,33.4Z" transform="translate(5.245 -20.194)" fill="#111"/>
        <path id="Контур_1693" data-name="Контур 1693" d="M69.773,24.077H67.539v15.1h2.234Z" transform="translate(5.083 -20.5)" fill="#111"/>
        <path id="Контур_1694" data-name="Контур 1694" d="M43.578,31.772v-.58h-7v2.127h4.662v3.137a8.968,8.968,0,0,1-3.309.623,5.492,5.492,0,0,1-4-1.568,5.23,5.23,0,0,1-1.5-3.846,5.213,5.213,0,0,1,1.5-3.846,6.3,6.3,0,0,1,4.576-1.568A9.278,9.278,0,0,1,42.869,27.3V24.854a10.656,10.656,0,0,0-4.361-.924,8.933,8.933,0,0,0-6.252,2.234A7.571,7.571,0,0,0,30,31.665a7.656,7.656,0,0,0,2.256,5.522A7.778,7.778,0,0,0,37.906,39.4a10.923,10.923,0,0,0,5.65-1.59V31.772Z" transform="translate(2.258 -20.511)" fill="#111"/>
        <path id="Контур_1695" data-name="Контур 1695" d="M53.711,29.426a5.2,5.2,0,0,0-3.8-1.568,5.359,5.359,0,0,0-4,1.611,5.61,5.61,0,0,0-1.59,4.039,5.3,5.3,0,0,0,1.719,4.082,5.853,5.853,0,0,0,1.117.795,6.9,6.9,0,0,0,3.352.773,10.027,10.027,0,0,0,4.061-.924v-2.17a7.5,7.5,0,0,1-.838.408,8.13,8.13,0,0,1-3.223.623c-1.783,0-3.481-.773-3.846-2.836H55a5.716,5.716,0,0,0,.107-1.268,5.051,5.051,0,0,0-1.332-3.5C53.754,29.49,53.732,29.469,53.711,29.426ZM52.873,32.5H46.642a3.1,3.1,0,0,1,3.18-2.514A2.943,2.943,0,0,1,52.873,32.5Z" transform="translate(3.336 -20.215)" fill="#111"/>
        <path id="Контур_1696" data-name="Контур 1696" d="M111.21,28.133h-2.234V38.876h2.234Z" transform="translate(8.201 -20.194)" fill="#111"/>
        <path id="Контур_1697" data-name="Контур 1697" d="M110.114,23.777a1.312,1.312,0,0,0-1.01.408,1.505,1.505,0,0,0,0,2.062,1.344,1.344,0,0,0,1.01.408,1.312,1.312,0,0,0,1.01-.408,1.505,1.505,0,0,0,0-2.062A1.312,1.312,0,0,0,110.114,23.777Z" transform="translate(8.18 -20.522)" fill="#111"/>
        <path id="Контур_1698" data-name="Контур 1698" d="M132.159,35.908a2.576,2.576,0,0,0-.494-1.611,5.749,5.749,0,0,0-3.373-1.783,7.864,7.864,0,0,1-1.7-.559.971.971,0,0,1-.58-.9h0c0-.73.9-1.074,2-1.074a7.542,7.542,0,0,1,3.653.9V28.646a9.186,9.186,0,0,0-3.653-.752,5.19,5.19,0,0,0-3.094.859,2.83,2.83,0,0,0-1.1,2.406c0,2.084,1.8,2.879,3.867,3.395a7.87,7.87,0,0,1,1.7.559.973.973,0,0,1,.58.9c0,.752-.795,1.117-2.105,1.117a11.365,11.365,0,0,1-3.889-.666V38.55a12.3,12.3,0,0,0,3.889.645,5.518,5.518,0,0,0,3.158-.881,2.8,2.8,0,0,0,.667-.666A3.113,3.113,0,0,0,132.159,35.908Z" transform="translate(9.319 -20.212)" fill="#111"/>
        <path id="Контур_1699" data-name="Контур 1699" d="M86.969,31.273A3.438,3.438,0,0,0,88.43,28.33,4.109,4.109,0,0,0,87.12,25.3a4.9,4.9,0,0,0-3.309-1.2h-6.36V39.18h6.9a5,5,0,0,0,3.395-1.225,4.1,4.1,0,0,0,1.311-3.094A3.991,3.991,0,0,0,86.969,31.273ZM79.75,26.16h4.3a2.149,2.149,0,0,1,0,4.3h-4.3Zm4.705,10.979H79.75V32.5h4.705a2.322,2.322,0,0,1,0,4.641Z" transform="translate(5.829 -20.498)" fill="#111"/>
        <path id="Контур_1700" data-name="Контур 1700" d="M118.2,29.936a2.429,2.429,0,0,1,2.105.924,3.119,3.119,0,0,1,.495,1.848V38.9h2.234V32.622a4.818,4.818,0,0,0-1.074-3.287l-.043-.043a4.055,4.055,0,0,0-3.137-1.418,5,5,0,0,0-3.159,1.1v-.816h-2.234V38.9h2.234V32.708a2.9,2.9,0,0,1,.559-1.762,2.458,2.458,0,0,1,.644-.6A2.321,2.321,0,0,1,118.2,29.936Z" transform="translate(8.533 -20.214)" fill="#111"/>
        <path id="Контур_1701" data-name="Контур 1701" d="M105.207,29.184a5.3,5.3,0,0,0-3.61-1.311,5.684,5.684,0,0,0-4.727,2.578c-.043.064-.086.15-.129.215a5.547,5.547,0,0,0-.731,2.858,5.478,5.478,0,0,0,1.633,4.018,5.368,5.368,0,0,0,3.953,1.633,5.142,5.142,0,0,0,3.61-1.332V38.9h2.234V28.153h-2.234Zm-1.01,6.9a3.637,3.637,0,0,1-4.985,0,3.484,3.484,0,0,1-.988-2.535,3.4,3.4,0,0,1,.988-2.514,3.581,3.581,0,0,1,4.985,0,3.4,3.4,0,0,1,.988,2.514A3.485,3.485,0,0,1,104.2,36.081Z" transform="translate(7.226 -20.214)" fill="#111"/>
        <path id="Контур_1702" data-name="Контур 1702" d="M13.564,23.193a4.736,4.736,0,0,0-.7,2.8v1.691a2.419,2.419,0,0,0,.53,1.511l1.646,2.058a1.631,1.631,0,0,1,.243-.018,1.612,1.612,0,1,1-1.5,1.026L12.134,30.2a4.033,4.033,0,0,1-.884-2.519V25.992a6.3,6.3,0,0,1,1.013-3.753,3.608,3.608,0,0,1,3.019-1.489,4.839,4.839,0,0,1,4.478,3,4.437,4.437,0,0,1,3.184,4.256,4.722,4.722,0,0,1-.128,1.275,4.033,4.033,0,0,1,0,7.127,4.721,4.721,0,0,1,.128,1.275,4.437,4.437,0,0,1-3.184,4.256A4.844,4.844,0,0,1,13.77,44.7l.5-1.532a3.231,3.231,0,0,0,4.1-2.142l.142-.477.49-.087a2.824,2.824,0,0,0,2.325-2.779c0-.7-.054-.958-.249-1.195a1.105,1.105,0,0,0-1.015-.4,1.71,1.71,0,0,0-1.124.632L17.994,37.9a1.613,1.613,0,1,1-1.5-1.025,1.629,1.629,0,0,1,.243.018l.948-1.185a3.322,3.322,0,0,1,2.212-1.228,2.733,2.733,0,0,1,2.019.573,2.421,2.421,0,0,0,0-4.42,2.733,2.733,0,0,1-2.019.573,3.323,3.323,0,0,1-2.212-1.228L16.735,28.8a1.632,1.632,0,0,1-.243.018,1.612,1.612,0,1,1,1.5-1.026l.948,1.185a1.711,1.711,0,0,0,1.124.632,1.106,1.106,0,0,0,1.015-.4c.195-.237.249-.493.249-1.195a2.824,2.824,0,0,0-2.325-2.779l-.49-.087-.142-.477a3.227,3.227,0,0,0-3.092-2.3A2,2,0,0,0,13.564,23.193Z" transform="translate(0.847 -20.75)" fill="#111"/>
        <path id="Контур_1703" data-name="Контур 1703" d="M6.965,37.9a1.613,1.613,0,1,0,1.5-1.026,1.632,1.632,0,0,0-.243.018l-.948-1.185a3.323,3.323,0,0,0-2.212-1.228,2.733,2.733,0,0,0-2.019.573,2.421,2.421,0,0,1,0-4.42,2.732,2.732,0,0,0,2.019.573,3.322,3.322,0,0,0,2.212-1.228L8.225,28.8A1.613,1.613,0,1,0,6.855,27.2a1.609,1.609,0,0,0,.11.588l-.948,1.185a1.71,1.71,0,0,1-1.124.632,1.105,1.105,0,0,1-1.015-.4c-.195-.237-.249-.493-.249-1.195a2.824,2.824,0,0,1,2.325-2.779l.49-.087.142-.477a3.231,3.231,0,0,1,4.1-2.142l.5-1.532A4.844,4.844,0,0,0,5.2,23.752a4.437,4.437,0,0,0-3.184,4.256,4.723,4.723,0,0,0,.128,1.275,4.033,4.033,0,0,0,0,7.127,4.721,4.721,0,0,0-.128,1.275A4.437,4.437,0,0,0,5.2,41.941a4.84,4.84,0,0,0,4.478,3A3.608,3.608,0,0,0,12.7,43.455,6.3,6.3,0,0,0,13.71,39.7V38.01a4.033,4.033,0,0,0-.884-2.519L11.18,33.434a1.613,1.613,0,1,0-1.5,1.026,1.632,1.632,0,0,0,.243-.018L11.567,36.5a2.419,2.419,0,0,1,.53,1.511V39.7a4.736,4.736,0,0,1-.7,2.8,2,2,0,0,1-1.719.83,3.228,3.228,0,0,1-3.092-2.3l-.142-.477-.49-.087a2.824,2.824,0,0,1-2.325-2.779c0-.7.054-.958.249-1.195a1.105,1.105,0,0,1,1.015-.4,1.711,1.711,0,0,1,1.124.632Z" transform="translate(0 -20.75)" fill="#111"/>
      </g>
      <g id="Home" transform="translate(88 3238)">
        <path id="Контур_1704" data-name="Контур 1704" d="M19.572,43.847l-2.082-3.192H15.458v3.192H12.751V32.855H17.54c2.707,0,4.528,1.465,4.528,3.873a3.739,3.739,0,0,1-1.821,3.3l2.551,3.82Zm-4.165-5.6h2.03c1.041,0,1.874-.575,1.874-1.465s-.834-1.465-1.874-1.465h-2.03Zm11.347-.994H31.6v2.3H26.754v1.884h5.518v2.355H24V32.8h8.276v2.355H26.754Zm17.645,1.1c0,3.245-2.447,5.548-5.882,5.548H34.145V32.908h4.373C41.953,32.908,44.4,35.106,44.4,38.351Zm-2.759,0a3.01,3.01,0,0,0-3.123-2.983H36.852v6.071h1.666A3.063,3.063,0,0,0,41.641,38.351Zm6.974-5.443V43.9H45.909V32.908Zm10.411,2.407H55.9v8.531H53.2V35.316H50.073v-2.46h8.953ZM8.276,39.921a2.583,2.583,0,0,1-2.5,1.622,3.143,3.143,0,0,1,0-6.281,2.515,2.515,0,0,1,2.5,1.623h2.863A5.261,5.261,0,0,0,5.778,32.7a5.706,5.706,0,1,0,0,11.41,5.261,5.261,0,0,0,5.361-4.187ZM10.15,54.367c0,1.832-1.457,3.035-3.9,3.035H.728V46.411H5.934c2.395,0,3.747,1.152,3.747,2.931A2.545,2.545,0,0,1,8.172,51.75,2.559,2.559,0,0,1,10.15,54.367ZM3.487,48.661v2.3h2.03c1.041,0,1.613-.523,1.613-1.2s-.572-1.047-1.613-1.047H3.487ZM7.495,54c0-.681-.572-1.047-1.561-1.047h-2.5v2.2H5.882C7.027,55.152,7.495,54.681,7.495,54Zm11.087,1.517H13.95L13.221,57.4H10.306l4.633-10.991h2.6L22.173,57.4H19.259Zm-.885-2.25-1.458-3.715-1.457,3.715Zm15.459-6.857V57.4H31.075l-5.258-6.019V57.4H23.111V46.411h2.081l5.258,6.177V46.41Zm6.61,6.91L38.154,55.2v2.252H35.447V46.465h2.707v5.025l4.373-5.025h3.226l-4.164,4.815,4.528,6.177H42.734ZM10.515,19.352V30.343H7.808V26.208H3.383v4.135H.676V19.352H3.383v4.4H7.808v-4.4ZM41.693,30.343H38.986v-5.5L36.54,28.616H35.031L32.584,24.8v5.548H29.877V19.352h2.03l3.852,5.862,3.85-5.862h2.03V30.343Zm5-6.647h4.84V26H46.69v1.884h5.517v2.355H43.931V19.247h8.276V21.6H46.69Z" transform="translate(0 -18.881)" fill="#111"/>
        <path id="Контур_1705" data-name="Контур 1705" d="M16.158,19A7.646,7.646,0,0,0,8.35,26.485a7.013,7.013,0,0,0,1.2,3.978h3.747a4.736,4.736,0,1,1,5.726,0h3.747a7.443,7.443,0,0,0,1.2-3.978A7.645,7.645,0,0,0,16.158,19Z" transform="translate(4.038 -19)" fill="#111"/>
        <path id="Контур_1706" data-name="Контур 1706" d="M11.893,24.856a2.668,2.668,0,0,0,5.1,0Z" transform="translate(5.752 -16.168)" fill="#111"/>
      </g>
      <g id="VTB" transform="translate(256 3169)">
        <path id="Контур_1758" data-name="Контур 1758" d="M5.361,22,4.02,25.674H22.605L23.946,22ZM3.349,27.51,2.008,31.182H20.593l1.341-3.673Zm-2.008,5.51L0,36.692H18.585l1.34-3.673Z" transform="translate(0 -22)" fill="#111" fill-rule="evenodd"/>
        <g id="Сгруппировать_1005" data-name="Сгруппировать 1005" transform="translate(27.883 5.58)">
          <path id="Контур_1759" data-name="Контур 1759" d="M28.375,35.863v.078a7.835,7.835,0,0,1,2.086,1.207,5.33,5.33,0,0,1,1.893,4.4c0,3.076-1.623,5.3-4.288,6a11.291,11.291,0,0,1-3.245.312H16.747v-22.5h7.146a13.132,13.132,0,0,1,3.36.311A5.278,5.278,0,0,1,31.542,31a5,5,0,0,1-1.429,3.66A5.413,5.413,0,0,1,28.375,35.863Zm-7.146,2.375v5.918h3.091a3.306,3.306,0,0,0,2.4-.662,2.952,2.952,0,0,0,.888-2.3,3.225,3.225,0,0,0-.58-1.946c-.657-.818-1.468-1.013-2.858-1.013Zm-.039-3.893H23.7a5.347,5.347,0,0,0,1.545-.117,2.458,2.458,0,0,0,1.7-2.531,2.274,2.274,0,0,0-1.7-2.491,6.087,6.087,0,0,0-1.7-.156H21.189ZM39.075,47.855V29.128H32.624V25.352H50.548l-1.274,3.776H43.556V47.855Zm12.864,0v-22.5H66.463l-1.275,3.776H56.381v4.984h3.592c2.9,0,4.4.7,5.447,1.6a6.648,6.648,0,0,1,2.2,5.335A6.476,6.476,0,0,1,65,46.609c-1.39.973-2.858,1.246-5.833,1.246Zm4.443-3.777h3.361a2.937,2.937,0,0,0,2.588-1.013,3.273,3.273,0,0,0,.657-2.141,2.975,2.975,0,0,0-1.159-2.57A3.328,3.328,0,0,0,59.7,37.81H56.381Z" transform="translate(-16.747 -25.352)" fill="#111" fill-rule="evenodd"/>
        </g>
      </g>
    </g>
  </g>
</svg>
