<svg width="43" height="42" viewBox="0 0 43 42" fill="none" xmlns="http://www.w3.org/2000/svg">
<path fill-rule="evenodd" clip-rule="evenodd" d="M22.8015 6.32908C18.5217 12.2038 18.0812 12.6361 16.6673 12.3534C14.2519 11.8703 9.12306 13.6425 6.8424 15.7482L4.80853 17.6258L8.81113 21.6698C13.7699 26.6805 13.9819 25.6459 6.46478 33.1416C-0.0751995 39.6633 -1.40959 41.9749 1.36684 41.9749C2.22754 41.9749 4.59432 39.9929 8.94916 35.6259C16.4448 28.1088 15.4102 28.3208 20.4209 33.2796L24.4649 37.2822L26.3425 35.2483C28.4465 32.9693 30.2204 27.8394 29.7384 25.4284C29.4568 24.0206 29.8946 23.5762 35.7545 19.3185C39.2304 16.7927 42.0742 14.7047 42.0742 14.6788C42.0742 14.6528 38.7755 11.3392 34.7436 7.31566L27.4125 0L22.8015 6.32908ZM32.5375 9.5262C37.5195 14.4745 37.5841 13.9881 31.335 18.5356L26.1167 22.3323L26.4414 24.7008C26.7516 26.9626 25.4139 32.0374 24.5074 32.0374C24.026 32.0374 10.0533 18.0802 10.0533 17.5988C10.0533 16.6718 15.1093 15.3369 17.4198 15.6532L19.8175 15.9823L23.581 10.7596C28.0855 4.50997 27.5604 4.58229 32.5375 9.5262Z" fill="black"/>
</svg>
