<svg xmlns="http://www.w3.org/2000/svg" width="235.199" height="272.699" viewBox="0 0 235.199 272.699">
  <path id="Контур_1437" data-name="Контур 1437" d="M5.8-93.821Q5.8-37.336-14.677-7.41C-28.33,12.541-57.983,18.775-83.3,18.775c-25.063,0-25.437-272.7,0-272.7s54.747,6.484,68.338,26.185S5.554-179.92,5.8-143.386ZM-47.315-149q0-32.17-6.359-48.255T-73.5-213.337q-25.25,0-26.185,58.917c0,89.84,2.151,106.175,6.453,116.9s11,16.085,20.106,16.085q12.906,0,19.171-15.056t6.64-46.1ZM132.966,18.775H79.848V-189.21L28.039-169.2v-44.141l99.316-40.587h5.611Z" transform="translate(102.233 253.924)" fill="#fff"/>
</svg>
