<svg width="77" height="10" viewBox="0 0 77 10" fill="none" xmlns="http://www.w3.org/2000/svg">
<path d="M6.432 9L5.748 7.116H1.968L1.284 9H0.096L3.228 0.599999H4.488L7.62 9H6.432ZM2.352 6.072H5.364L3.852 1.932L2.352 6.072ZM11.8869 0.599999C13.0309 0.599999 13.9789 1.008 14.7309 1.824C15.4909 2.632 15.8709 3.624 15.8709 4.8C15.8709 5.976 15.4909 6.972 14.7309 7.788C13.9789 8.596 13.0309 9 11.8869 9H8.61094V0.599999H11.8869ZM11.8869 7.944C12.7429 7.944 13.4429 7.644 13.9869 7.044C14.5309 6.444 14.8029 5.696 14.8029 4.8C14.8029 3.904 14.5309 3.156 13.9869 2.556C13.4429 1.956 12.7429 1.656 11.8869 1.656H9.72694V7.944H11.8869ZM20.5002 0.599999C21.6442 0.599999 22.5922 1.008 23.3442 1.824C24.1042 2.632 24.4842 3.624 24.4842 4.8C24.4842 5.976 24.1042 6.972 23.3442 7.788C22.5922 8.596 21.6442 9 20.5002 9H17.2242V0.599999H20.5002ZM20.5002 7.944C21.3562 7.944 22.0562 7.644 22.6002 7.044C23.1442 6.444 23.4162 5.696 23.4162 4.8C23.4162 3.904 23.1442 3.156 22.6002 2.556C22.0562 1.956 21.3562 1.656 20.5002 1.656H18.3402V7.944H20.5002ZM34.2135 0.599999V1.656H31.7295V9H30.6255V1.656H28.1535V0.599999H34.2135ZM41.8215 7.884C40.9815 8.732 39.9535 9.156 38.7375 9.156C37.5215 9.156 36.4935 8.732 35.6535 7.884C34.8135 7.036 34.3935 6.008 34.3935 4.8C34.3935 3.584 34.8135 2.556 35.6535 1.716C36.4935 0.867999 37.5215 0.443999 38.7375 0.443999C39.9535 0.443999 40.9815 0.867999 41.8215 1.716C42.6695 2.556 43.0935 3.584 43.0935 4.8C43.0935 6.008 42.6695 7.036 41.8215 7.884ZM36.4215 7.128C37.0455 7.752 37.8175 8.064 38.7375 8.064C39.6575 8.064 40.4255 7.752 41.0415 7.128C41.6655 6.496 41.9775 5.72 41.9775 4.8C41.9775 3.872 41.6655 3.096 41.0415 2.472C40.4255 1.84 39.6575 1.524 38.7375 1.524C37.8175 1.524 37.0455 1.84 36.4215 2.472C35.8055 3.096 35.4975 3.872 35.4975 4.8C35.4975 5.72 35.8055 6.496 36.4215 7.128ZM51.3832 9.156C50.1112 9.156 49.0592 8.736 48.2272 7.896C47.4032 7.056 46.9912 6.024 46.9912 4.8C46.9912 3.576 47.4032 2.544 48.2272 1.704C49.0592 0.863999 50.1112 0.443999 51.3832 0.443999C52.1512 0.443999 52.8552 0.627999 53.4952 0.995999C54.1432 1.364 54.6472 1.86 55.0072 2.484L54.0352 3.048C53.7952 2.584 53.4352 2.216 52.9552 1.944C52.4832 1.664 51.9592 1.524 51.3832 1.524C50.4152 1.524 49.6232 1.836 49.0072 2.46C48.3992 3.084 48.0952 3.864 48.0952 4.8C48.0952 5.728 48.3992 6.504 49.0072 7.128C49.6232 7.752 50.4152 8.064 51.3832 8.064C51.9592 8.064 52.4832 7.928 52.9552 7.656C53.4352 7.376 53.7952 7.008 54.0352 6.552L55.0072 7.104C54.6552 7.728 54.1552 8.228 53.5072 8.604C52.8592 8.972 52.1512 9.156 51.3832 9.156ZM61.7093 9L61.0253 7.116H57.2453L56.5613 9H55.3733L58.5053 0.599999H59.7653L62.8973 9H61.7093ZM57.6293 6.072H60.6413L59.1293 1.932L57.6293 6.072ZM68.8683 9L66.9843 5.784H65.0043V9H63.8883V0.599999H67.2483C67.9683 0.599999 68.5843 0.855999 69.0963 1.368C69.6083 1.872 69.8643 2.484 69.8643 3.204C69.8643 3.748 69.7003 4.244 69.3723 4.692C69.0523 5.14 68.6363 5.456 68.1243 5.64L70.1043 9H68.8683ZM65.0043 1.644V4.776H67.2483C67.6643 4.776 68.0163 4.624 68.3043 4.32C68.6003 4.008 68.7483 3.636 68.7483 3.204C68.7483 2.772 68.6003 2.404 68.3043 2.1C68.0163 1.796 67.6643 1.644 67.2483 1.644H65.0043ZM76.4244 0.599999V1.656H73.9404V9H72.8364V1.656H70.3644V0.599999H76.4244Z" fill="url(#paint0_linear_23_2)"/>
<defs>
<linearGradient id="paint0_linear_23_2" x1="-1.11919" y1="-1.51613" x2="26.3123" y2="43.7303" gradientUnits="userSpaceOnUse">
<stop offset="0.0001" stop-color="#0047FF"/>
<stop offset="1" stop-color="#EC00E2"/>
</linearGradient>
</defs>
</svg>
