<svg xmlns="http://www.w3.org/2000/svg" width="309.042" height="260.777" viewBox="0 0 309.042 260.777">
  <path id="Контур_1439" data-name="Контур 1439" d="M-4.958-104.938q0,52.644-19.088,80.534T-78.519,3.486q-35.038,0-54.125-27.106t-19.785-77.658v-47.937q0-52.469,19-80.273t54.561-27.8q35.561,0,54.561,27.542t19.349,78.617Zm-49.506-51.423q0-29.982-5.927-44.974t-18.478-14.991q-23.533,0-24.4,54.91V-98.14q0,30.68,6.014,45.671t18.739,14.991q12.028,0,17.867-14.032t6.188-42.969ZM135-95.874h21.615V-54.91H135V0H85.666V-54.91H1.646L-.621-86.81l86.112-167H135Zm-87.681,0h38.35v-84.892l-1.046,1.917Z" transform="translate(152.429 257.291)" fill="#fff"/>
</svg>
