<svg xmlns="http://www.w3.org/2000/svg" width="306.95" height="260.777" viewBox="0 0 306.95 260.777">
  <path id="Контур_1436" data-name="Контур 1436" d="M-4.958-104.938q0,52.644-19.088,80.534T-78.519,3.486q-35.038,0-54.125-27.106t-19.785-77.658v-47.937q0-52.469,19-80.273t54.561-27.8q35.561,0,54.561,27.542t19.349,78.617Zm-49.506-51.423q0-29.982-5.927-44.974t-18.478-14.991q-23.533,0-24.4,54.91V-98.14q0,30.68,6.014,45.671t18.739,14.991q12.028,0,17.867-14.032t6.188-42.969ZM154.521,0H4.958V-34.863L73.638-122.2Q86.712-140.325,92.9-154.009t6.188-26.235q0-16.909-5.84-26.5t-16.822-9.587q-12.028,0-19.088,11.156t-7.06,31.377H.774A94.145,94.145,0,0,1,10.449-216.5a72.25,72.25,0,0,1,27.193-30.07q17.519-10.72,39.657-10.72,33.992,0,52.731,18.739T148.769-185.3q0,21.441-10.372,43.492t-37.565,54.3l-32.6,46.542h86.287Z" transform="translate(152.429 257.291)" fill="#fff"/>
</svg>
